<svg xmlns="http://www.w3.org/2000/svg" xmlns:xlink="http://www.w3.org/1999/xlink" width="40.24" height="27.16" viewBox="0 0 40.24 27.16">
  <defs>
    <linearGradient id="b14a678c-8f92-4692-8177-645b859bffc8" x1="40.24" y1="10.65" x2="0" y2="10.65" gradientUnits="userSpaceOnUse">
      <stop offset="0" stop-color="#a00000"/>
      <stop offset="1" stop-color="red"/>
    </linearGradient>
  </defs>
  <g id="e0530b8f-aa18-47c9-a114-76b78a6a68e4" data-name="Layer 2">
    <g id="ba5184a1-f9c6-4ec2-bdf1-92fce62174e2" data-name="Layer 1">
      <g>
        <polygon points="40.06 24.18 3.56 24.18 3.56 20.19 5.06 20.19 5.06 19.19 3.56 19.19 3.56 15.19 5.06 15.19 5.06 14.19 3.56 14.19 3.56 10.19 5.06 10.19 5.06 9.19 3.56 9.19 3.56 5.19 5.06 5.19 5.06 4.19 3.56 4.19 3.56 0.71 1.56 0.71 1.56 4.19 0.06 4.19 0.06 5.19 1.56 5.19 1.56 9.19 0.06 9.19 0.06 10.19 1.56 10.19 1.56 14.19 0.06 14.19 0.06 15.19 1.56 15.19 1.56 19.19 0.06 19.19 0.06 20.19 1.56 20.19 1.56 24.18 0.06 24.18 0.06 25.18 1.56 25.18 1.56 27.16 3.56 27.16 3.56 25.18 40.06 25.18 40.06 24.18" style="fill: #fff"/>
        <path d="M39.88,17.76H35l-.11-.18L34.48,17l-.36-.55-.36-.56-.36-.55L33,14.82l-.36-.56-.37-.55L32,13.16l-.36-.56-.36-.55-.36-.55-.36-.56-.36-.55-.36-.55-.36-.56-.36-.55-.36-.55-.36-.56L28,7.07l-.36-.55L27.27,6l-.36-.56-.36-.55-.36-.55-.36-.56-.36-.55-.36-.55-.36-.56-.32-.49,0-.05-.2-.24L24,1.18l-.36-.3c-.12-.08-.24-.17-.36-.24L23,.45a2.43,2.43,0,0,0-.37-.16,2.15,2.15,0,0,0-.36-.11L21.86.07,21.5,0l-.36,0h-.36c-.12,0-.24,0-.36,0s-.24,0-.36,0-.24.07-.36.1-.24.06-.36.11L19,.47l-.36.19-.36.25a4.74,4.74,0,0,0-.49.4L7,17.76H0v3.55H8.93L18.26,7l.36-.55L19,5.89l.36-.56.36-.55.36-.55.32-.5,0,0a1.25,1.25,0,0,1,.36-.15,1.09,1.09,0,0,1,.36,0,.92.92,0,0,1,.36.13l.08,0,.28.44.36.55.36.55.37.56.36.55.36.55.36.56.36.55.36.55.36.56.36.55.36.55.36.56.36.55.36.55.36.56.36.55.36.55.36.56.36.55.36.55.36.55.36.56.36.55.36.55.36.56.36.55.36.55.36.56.36.55.37.55.35.55h7.21V17.76Z" style="fill: url(#b14a678c-8f92-4692-8177-645b859bffc8)"/>
      </g>
    </g>
  </g>
</svg>
