<svg xmlns="http://www.w3.org/2000/svg" xmlns:xlink="http://www.w3.org/1999/xlink" width="17.55" height="26" viewBox="0 0 17.55 26">
  <defs>
    <linearGradient id="a9eb6a16-6a64-45d2-b441-958ff0dfc177" data-name="New Gradient Swatch 9" x1="14.77" y1="18.81" x2="2.82" y2="18.81" gradientUnits="userSpaceOnUse">
      <stop offset="0" stop-color="#a00000"/>
      <stop offset="1" stop-color="red"/>
    </linearGradient>
  </defs>
  <g id="a31e5b1a-3176-4a40-8615-8b8051d38a1b" data-name="Layer 2">
    <g id="bb2debe8-121d-4a31-b60b-2cfabf6f775b" data-name="Layer 1">
      <g>
        <path d="M16.38,12.61,8.79,0,1.18,12.61v0A8.85,8.85,0,0,0,0,17.11a3.25,3.25,0,0,0,0,.48A8.58,8.58,0,0,0,8.79,26a8.56,8.56,0,0,0,8.74-8.33,5.24,5.24,0,0,0,0-.56A9,9,0,0,0,16.38,12.61Z" style="fill: #1a1a1a"/>
        <path d="M8.78,14.88a6.21,6.21,0,0,0-6,3.93,6.24,6.24,0,0,0,6,3.93,6.33,6.33,0,0,0,6-3.93A6.29,6.29,0,0,0,8.78,14.88Z" style="fill: url(#a9eb6a16-6a64-45d2-b441-958ff0dfc177)"/>
      </g>
    </g>
  </g>
</svg>
