<svg xmlns="http://www.w3.org/2000/svg" width="111.44" height="27" viewBox="0 0 111.44 27">
  <title>allisonT</title>
  <g id="Layer_2" data-name="Layer 2">
    <g id="Layer_1-2" data-name="Layer 1">
      <g>
        <path d="M38.61,3.2,40.1,8V8c0,.08,0,.17-.12.17H37c-.13,0-.17,0-.17-.17V8L38.32,3.2a.13.13,0,0,1,.12-.12.18.18,0,0,1,.17.12ZM85.2,6.45A24,24,0,0,0,85,9.94a20,20,0,0,0,.25,3.46c.17,1,.83,1.37,1.87,1.37s1.71-.29,1.92-1.33a21.1,21.1,0,0,0,.21-3.5A28.1,28.1,0,0,0,89,6.41c-.17-1-.83-1.33-1.87-1.33s-1.75.33-1.92,1.37Zm2,9.61c-3.95,0-6.12-2.25-6.12-6.08s2.17-6,6.12-6S93.36,6,93.36,10s-2.21,6.08-6.12,6.08Zm-6.86-4.12c0,2-1.71,3.49-3.91,3.91A15.82,15.82,0,0,1,70,15.56a.23.23,0,0,1-.21-.25V11.94a.28.28,0,0,1,.29-.29h1.54a.28.28,0,0,1,.29.29v.54c0,1.08.08,2.37,2.08,2.37,1.75,0,2.21-.71,2.33-1.29a1.7,1.7,0,0,0-1.46-2.12c-1.12-.29-1.66-.33-2.95-.75C69,9.82,69.14,4.87,73.1,4.2a15.92,15.92,0,0,1,6.32.29.24.24,0,0,1,.21.25V7.2a.29.29,0,0,1-.29.29H78a.29.29,0,0,1-.29-.29V7c0-.67-.12-1.79-2.08-1.79s-2,1-2,1.46S73.68,7.74,75,8a24.14,24.14,0,0,1,2.83.75,3.35,3.35,0,0,1,2.58,3.16ZM48.51,14.23a.29.29,0,0,1-.29.29H46.89a.26.26,0,0,1-.25-.21L42.85,2.62a1.68,1.68,0,0,0-1.58-1.37H37.65a.88.88,0,0,0-.83.71l-3.7,12.31a.46.46,0,0,1-.42.25H30.79a.29.29,0,0,0-.3.29v.67a.29.29,0,0,0,.3.29H37.4a.28.28,0,0,0,.29-.29v-.67a.28.28,0,0,0-.29-.29H35.45a.32.32,0,0,1-.3-.29v-.09l1.17-4a.22.22,0,0,1,.21-.12h3.91c.08,0,.16,0,.16.12l1.25,4v.09a.28.28,0,0,1-.29.29h-2a.29.29,0,0,0-.3.29v.67a.29.29,0,0,0,.3.29H53.75a.32.32,0,0,0,.33-.29v-.67a.31.31,0,0,0-.33-.29H52.54a.33.33,0,0,1-.33-.29V2.83a1.58,1.58,0,0,0-1.54-1.58H47.05a.32.32,0,0,0-.29.33V2.2a.29.29,0,0,0,.29.3h1c.13,0,.34,0,.34,1.41l.08,10.32Zm46.47,0v0a.29.29,0,0,1-.29.29H93.61a.29.29,0,0,0-.3.29v.67a.29.29,0,0,0,.3.29h6.28a.29.29,0,0,0,.29-.29v-.67a.28.28,0,0,0-.29-.29H99a.29.29,0,0,1-.29-.29V7.45a1.63,1.63,0,0,1,1.62-1.63A1.67,1.67,0,0,1,102,7.45v6.78a.29.29,0,0,1-.29.29h-.75a.28.28,0,0,0-.29.29v.67a.28.28,0,0,0,.29.29h6.28a.28.28,0,0,0,.29-.29v-.67a.28.28,0,0,0-.29-.29H106a.29.29,0,0,1-.29-.29v-7c0-2.17-1.75-3.08-3.66-3.08a4.27,4.27,0,0,0-3.2,1.12c-.17.09-.21,0-.25-.08a1.58,1.58,0,0,0-1.46-.92H93.52a.29.29,0,0,0-.29.29v.63a.28.28,0,0,0,.29.29h1c.21,0,.42.21.42,8.78ZM63.49,5.45h-1a.29.29,0,0,1-.3-.29V4.53a.29.29,0,0,1,.3-.29H66A1.58,1.58,0,0,1,67.6,5.82v8.41a.29.29,0,0,0,.3.29h1.24a.28.28,0,0,1,.29.29v.67a.28.28,0,0,1-.29.29H62.53a.28.28,0,0,1-.29-.29v-.67a.28.28,0,0,1,.29-.29h1.08a.28.28,0,0,0,.29-.29V6c0-.29-.08-.58-.41-.58ZM55.79,2.5h-1a.29.29,0,0,1-.29-.3V1.58a.31.31,0,0,1,.29-.33h3.58a1.58,1.58,0,0,1,1.58,1.58v11.4a.28.28,0,0,0,.29.29h1.25a.28.28,0,0,1,.29.29v.67a.29.29,0,0,1-.29.29H54.83a.29.29,0,0,1-.29-.29v-.67a.28.28,0,0,1,.29-.29h1.08a.28.28,0,0,0,.29-.29V2.91a.43.43,0,0,0-.41-.41Z" style="fill: #373894;fill-rule: evenodd"/>
        <path d="M49.42,25.46v0a.18.18,0,0,1-.16.17h-.59a.11.11,0,0,0-.12.12v.38c0,.08,0,.16.12.16l3.37,0c.09,0,.17,0,.17-.12v-.38c0-.08-.08-.12-.17-.12h-.49a.18.18,0,0,1-.17-.17V21.84a.9.9,0,0,1,.87-.87.88.88,0,0,1,.88.87v3.62c0,.08-.05.17-.13.17h-.41c-.09,0-.17,0-.17.12v.38a.17.17,0,0,0,.17.16l3.32,0c.09,0,.17,0,.17-.12v-.38c0-.08-.08-.12-.17-.12h-.62a.16.16,0,0,1-.17-.17V21.72c0-1.17-.91-1.67-1.95-1.67a2.29,2.29,0,0,0-1.71.63c-.08,0-.12,0-.12-.05a.93.93,0,0,0-.79-.49H48.63c-.08,0-.12.08-.12.16v.33c0,.09,0,.17.12.17h.59c.12,0,.2.08.2,4.66Zm52,0v0a.19.19,0,0,1-.17.17h-.58c-.09,0-.17,0-.17.12v.38a.17.17,0,0,0,.17.16l3.37,0a.11.11,0,0,0,.12-.12v-.38a.11.11,0,0,0-.12-.12h-.5a.19.19,0,0,1-.17-.17V21.84a.91.91,0,0,1,.88-.87.87.87,0,0,1,.87.87v3.62a.16.16,0,0,1-.17.17h-.37c-.08,0-.17,0-.17.12v.38a.18.18,0,0,0,.17.16l3.33,0c.08,0,.16,0,.16-.12v-.38c0-.08-.08-.12-.16-.12h-.67c-.08,0-.12-.09-.12-.17V21.72c0-1.17-1-1.67-2-1.67a2.2,2.2,0,0,0-1.7.63c-.09,0-.13,0-.17-.05a.83.83,0,0,0-.75-.49h-1.91a.17.17,0,0,0-.17.16v.33a.18.18,0,0,0,.17.17h.54c.12,0,.25.08.25,4.66Zm-38.4,0v0a.19.19,0,0,1-.17.17h-.58c-.08,0-.17,0-.17.12v.38c0,.08.09.12.17.12l3.37,0c.08,0,.12-.08.12-.16v-.34c0-.12,0-.16-.12-.16h-.5a.19.19,0,0,1-.17-.17V21.88a.94.94,0,0,1,1.88,0v3.58c0,.08,0,.17-.13.17h-.5c-.08,0-.17,0-.17.12v.38c0,.08,0,.12.17.12l3.37,0a.18.18,0,0,0,.17-.16v-.34a.15.15,0,0,0-.17-.16H69a.16.16,0,0,1-.17-.17V21.88a.92.92,0,0,1,.92-.87,1,1,0,0,1,1,.87v3.58a.15.15,0,0,1-.16.17h-.34c-.12,0-.16,0-.16.12v.38a.11.11,0,0,0,.12.12l3.33,0a.18.18,0,0,0,.17-.16v-.34a.15.15,0,0,0-.17-.16h-.66c-.09,0-.13-.09-.13-.17V21.72A1.91,1.91,0,0,0,70.64,20a2.93,2.93,0,0,0-2,.87c0,.09-.13.09-.17,0A2.08,2.08,0,0,0,66.77,20a2.47,2.47,0,0,0-1.7.62c-.09.09-.13.09-.17,0a.81.81,0,0,0-.75-.49H62.24a.17.17,0,0,0-.17.16v.33a.18.18,0,0,0,.17.17h.54c.12,0,.25.08.25,4.66Zm-25.55,0v0a.18.18,0,0,1-.16.17h-.58c-.09,0-.17,0-.17.12v.38c0,.08.08.12.17.12l3.49,0c.08,0,.12-.08.12-.16v-.34c0-.12,0-.16-.12-.16h-.62a.18.18,0,0,1-.17-.17v-3.2a1,1,0,0,1,.66-1.08c.25-.13.75-.25.8.16l0,.67c0,.08.08.12.16.12H42c.08,0,.16,0,.16-.12V20.47a.37.37,0,0,0-.12-.21,2,2,0,0,0-1.17-.17,2.28,2.28,0,0,0-1.33.67s-.08,0-.08,0a.81.81,0,0,0-.83-.58H37.28v-1.5a.18.18,0,0,0-.17-.17H30.7a.15.15,0,0,0-.16.17v2c0,.09,0,.17.12.17h.92a.15.15,0,0,0,.16-.17V19.3c0-.12.13-.2.25-.2h.54a.19.19,0,0,1,.21.2v6.16a.18.18,0,0,1-.17.17H32c-.08,0-.16,0-.16.12v.38c0,.08,0,.12.16.12h3.83c.08,0,.17,0,.17-.12v-.38c0-.08-.09-.12-.17-.12H35.2a.18.18,0,0,1-.17-.17V19.3a.23.23,0,0,1,.25-.2h.54a.2.2,0,0,1,.21.2v1.33a.17.17,0,0,0,.16.17h1.09c.12,0,.2.08.2,4.66ZM45.55,25v-2c0-.25-.16-.38-.45-.33a1.2,1.2,0,0,0-.67.29,2,2,0,0,0-.5,1.66.9.9,0,0,0,1,.83c.5,0,.62-.25.62-.46Zm-.87-2.87c.79-.25.79-.58.79-.79s-.16-.66-1-.66-.91.58-.91,1.16V22a.18.18,0,0,1-.17.16h-.83a.18.18,0,0,1-.17-.16V20.47a.14.14,0,0,1,.13-.13,8.44,8.44,0,0,1,3.16-.2c.83.16,1.83.45,1.83,1.58v3.74c0,.08,0,.17.12.17h.63a.15.15,0,0,1,.17.16v.34a.18.18,0,0,1-.17.16H44.18c-2.87,0-2.79-2.66-1.08-3.53a11.93,11.93,0,0,1,1.58-.59Zm17.22,2a2.23,2.23,0,0,1-2.08,2.08,8.7,8.7,0,0,1-3.41-.12.18.18,0,0,1-.12-.17V24.21c0-.08.08-.12.16-.12h.84a.11.11,0,0,1,.12.12v.29c0,.59.08,1.25,1.12,1.25s1.17-.37,1.25-.66A.92.92,0,0,0,59,24c-.58-.16-.87-.2-1.58-.41-1.54-.46-1.45-3.08.63-3.46a8.78,8.78,0,0,1,3.37.17.18.18,0,0,1,.12.13v1.33a.17.17,0,0,1-.17.16h-.75c-.08,0-.12-.08-.12-.16v-.13c0-.33-.08-1-1.12-1s-1.08.59-1.08.8.08.58.74.7a7.22,7.22,0,0,1,1.5.42,1.75,1.75,0,0,1,1.37,1.66Zm21.6,0a2.24,2.24,0,0,1-2.08,2.08A8.73,8.73,0,0,1,78,26.17a.18.18,0,0,1-.12-.17V24.21c0-.08.08-.12.17-.12h.79c.12,0,.16,0,.16.12v.29c0,.59,0,1.25,1.13,1.25.91,0,1.16-.37,1.24-.66A.91.91,0,0,0,80.58,24c-.58-.16-.87-.2-1.58-.41-1.54-.46-1.49-3.08.63-3.46a8.8,8.8,0,0,1,3.37.17s.08.08.08.13v1.33c0,.08,0,.16-.12.16h-.75a.17.17,0,0,1-.17-.16v-.13c0-.33,0-1-1.08-1s-1.08.59-1.08.8.08.58.75.7a8.11,8.11,0,0,1,1.49.42,1.76,1.76,0,0,1,1.38,1.66Zm12.73-2.87a14.43,14.43,0,0,0-.13,1.83A10.47,10.47,0,0,0,96.23,25c.08.55.45.71,1,.71s.92-.16,1-.71a7.71,7.71,0,0,0,.13-1.87c0-.66,0-1.37-.08-1.87s-.46-.71-1-.71-.91.21-1,.75Zm.87,5.08a2.93,2.93,0,0,1-3.24-3.21c0-2.12,1.16-3.2,3.24-3.2s3.29,1.08,3.29,3.2-1.17,3.21-3.29,3.21Zm-7.53-2.21a2.23,2.23,0,0,1-2,2.08,8.9,8.9,0,0,1-3.45-.12A.23.23,0,0,1,84,26V24.21a.11.11,0,0,1,.12-.12H85c.09,0,.17,0,.17.12v.29c0,.59,0,1.25,1.08,1.25s1.17-.37,1.25-.66A.9.9,0,0,0,86.66,24c-.58-.16-.88-.2-1.58-.41-1.5-.46-1.46-3.08.66-3.46a8.6,8.6,0,0,1,3.33.17.14.14,0,0,1,.13.13v1.33a.18.18,0,0,1-.17.16h-.71a.17.17,0,0,1-.16-.16v-.13c0-.33,0-1-1.13-1s-1,.59-1,.8,0,.58.71.7a8.66,8.66,0,0,1,1.54.42,1.77,1.77,0,0,1,1.33,1.66ZM90.86,21a.19.19,0,0,0-.21-.21h-.58c-.08,0-.13-.08-.13-.17V20.3a.15.15,0,0,1,.13-.16H92a.84.84,0,0,1,.84.83v4.49a.18.18,0,0,0,.16.17h.67c.08,0,.16,0,.16.12v.38c0,.08-.08.12-.16.12l-3.5,0a.15.15,0,0,1-.16-.16v-.38c0-.08,0-.12.16-.12h.54a.18.18,0,0,0,.17-.17V21ZM74.68,21a.23.23,0,0,0-.25-.21h-.54a.18.18,0,0,1-.17-.17V20.3a.17.17,0,0,1,.17-.16H75.8a.83.83,0,0,1,.83.83v4.49a.19.19,0,0,0,.17.17h.66c.09,0,.13,0,.13.12v.38c0,.08,0,.12-.13.12l-3.53,0a.17.17,0,0,1-.17-.16v-.38c0-.08.08-.12.17-.12h.58a.19.19,0,0,0,.17-.17V21Z" style="fill: #373894;fill-rule: evenodd"/>
        <path d="M16.56,12.73C13.48,8.86,8,9.36,6.41,14.06c0,.08-.09.13-.17.13A.21.21,0,0,1,6,14C6,4.87,16.72,3.91,20,9.74A3.18,3.18,0,0,1,20.3,11,2.31,2.31,0,0,1,18,13.27a2,2,0,0,1-1.45-.54Z" style="fill: #ec1a3b;fill-rule: evenodd"/>
        <path d="M10.4,14.27c3.08,3.87,8.61,3.37,10.15-1.33,0-.08.08-.13.17-.13a.21.21,0,0,1,.21.21C21,22.13,10.23,23.09,7,17.26A3,3,0,0,1,6.66,16a2.27,2.27,0,0,1,2.28-2.29,2,2,0,0,1,1.46.54Z" style="fill: #373894;fill-rule: evenodd"/>
        <path d="M.71,17.89A13.33,13.33,0,0,1,0,13.52a13.49,13.49,0,0,1,25.21-6.7A2.81,2.81,0,0,1,25.5,8,2.5,2.5,0,0,1,23,10.48a2.07,2.07,0,0,1-1.75-.74C13.35-.71-.58,6.78,1.16,17.81c0,.12-.08.25-.2.25s-.21,0-.25-.17Z" style="fill: #373894;fill-rule: evenodd"/>
        <path d="M26.25,9.11A13.5,13.5,0,0,1,1.75,20.18,2.66,2.66,0,0,1,1.46,19,2.5,2.5,0,0,1,4,16.52a2.13,2.13,0,0,1,1.75.74c7.9,10.45,21.84,3,20.09-8.07A.24.24,0,0,1,26,8.94c.13,0,.21.05.25.17Z" style="fill: #ec1a3b;fill-rule: evenodd"/>
        <path d="M24.78,24a1.21,1.21,0,0,1,.57.15,1,1,0,0,1,.43.43,1.19,1.19,0,0,1,.15.58,1.16,1.16,0,0,1-.15.57,1,1,0,0,1-.43.43,1.16,1.16,0,0,1-.57.15,1.22,1.22,0,0,1-.58-.15,1,1,0,0,1-.42-.43,1.07,1.07,0,0,1-.16-.57,1.21,1.21,0,0,1,.16-.58,1,1,0,0,1,.43-.43,1.21,1.21,0,0,1,.57-.15Zm0,.19a1,1,0,0,0-.47.13.78.78,0,0,0-.36.36.92.92,0,0,0-.14.48,1,1,0,0,0,.13.48.93.93,0,0,0,.36.35,1,1,0,0,0,1,0,.93.93,0,0,0,.36-.35,1,1,0,0,0,.12-.48.91.91,0,0,0-.13-.48.78.78,0,0,0-.36-.36,1,1,0,0,0-.47-.13Zm-.51,1.61V24.53h.43a1.13,1.13,0,0,1,.32,0,.29.29,0,0,1,.15.12.32.32,0,0,1,0,.42.36.36,0,0,1-.25.11l.1.07a1.47,1.47,0,0,1,.18.24l.16.25h-.25l-.11-.2a.85.85,0,0,0-.21-.29.24.24,0,0,0-.16,0h-.12v.53Zm.2-.7h.25A.48.48,0,0,0,25,25a.18.18,0,0,0,.06-.14.17.17,0,0,0,0-.1.15.15,0,0,0-.09-.06.43.43,0,0,0-.2,0h-.23v.38Z" style="fill: #373894;fill-rule: evenodd"/>
        <path d="M110.28,24a1.16,1.16,0,0,1,.57.15,1,1,0,0,1,.43.43,1.1,1.1,0,0,1,.16.58,1.07,1.07,0,0,1-.16.57,1,1,0,0,1-.42.43,1.22,1.22,0,0,1-.58.15,1.16,1.16,0,0,1-.57-.15,1,1,0,0,1-.43-.43,1.16,1.16,0,0,1-.15-.57,1.19,1.19,0,0,1,.15-.58,1,1,0,0,1,.43-.43,1.21,1.21,0,0,1,.57-.15Zm0,.19a1,1,0,0,0-.47.13.78.78,0,0,0-.36.36.91.91,0,0,0-.13.48,1,1,0,0,0,.12.48.93.93,0,0,0,.36.35,1,1,0,0,0,.48.13.91.91,0,0,0,.48-.13.93.93,0,0,0,.36-.35,1,1,0,0,0,0-1,.89.89,0,0,0-.36-.36,1.08,1.08,0,0,0-.48-.13Zm-.51,1.61V24.53h.43a1.13,1.13,0,0,1,.32,0,.28.28,0,0,1,.16.12.41.41,0,0,1,0,.18.36.36,0,0,1-.09.24.39.39,0,0,1-.26.11.26.26,0,0,1,.1.07,2.22,2.22,0,0,1,.19.24l.15.25h-.24l-.12-.2a.85.85,0,0,0-.21-.29.24.24,0,0,0-.16,0H110v.53Zm.21-.7h.24a.45.45,0,0,0,.24,0,.18.18,0,0,0,.06-.14.17.17,0,0,0,0-.1.16.16,0,0,0-.08-.06.51.51,0,0,0-.21,0H110v.38Z" style="fill: #373894;fill-rule: evenodd"/>
      </g>
    </g>
  </g>
</svg>
