<svg xmlns="http://www.w3.org/2000/svg" width="98.35" height="36" viewBox="0 0 98.35 36">
  <title>eni</title>
  <g id="Layer_2" data-name="Layer 2">
    <g id="Layer_1-2" data-name="Layer 1">
      <g>
        <g>
          <path d="M39.82,26.18v-.31a2.4,2.4,0,0,1-1.28.36.88.88,0,0,1-1-.94c0-.66.51-.94,1.1-1l1.17-.18c0-.67-.28-.87-.67-.87a2.89,2.89,0,0,0-1.33.52l-.06-.32a2.56,2.56,0,0,1,1.37-.49c.72,0,1,.42,1,1.11v2.16Zm0-1.81-1.21.2c-.55.08-.75.35-.75.72s.27.64.71.64a2.18,2.18,0,0,0,1.25-.42Z" style="fill: #231f20"/>
          <path d="M43.75,26.18h-.3v-.25a2.58,2.58,0,0,1-1.13.3c-.73,0-1-.48-1-1.17v-2l.3-.17v2.15c0,.65.35.87.77.87a2.17,2.17,0,0,0,1.1-.35v-2.5l.3-.17Z" style="fill: #231f20"/>
          <path d="M45.92,23.33h-.71v2.22c0,.29.2.38.42.38a1.09,1.09,0,0,0,.26,0l.07.3a1.32,1.32,0,0,1-.34,0,.65.65,0,0,1-.72-.68V22.21l.31-.14v1h.86Z" style="fill: #231f20"/>
          <path d="M49.46,26.18h-.31V24c0-.51-.26-.8-.65-.8a2.08,2.08,0,0,0-1.25.58v2.4h-.31V21.56l.3-.14v2a2.38,2.38,0,0,1,1.27-.47.92.92,0,0,1,1,1Z" style="fill: #231f20"/>
          <path d="M53.31,24.61c0,1.16-.67,1.62-1.44,1.62s-1.44-.41-1.44-1.61c0-1,.47-1.71,1.44-1.71s1.44.71,1.44,1.71Zm-.31,0c0-.89-.39-1.4-1.13-1.4s-1.13.5-1.13,1.39.52,1.31,1.13,1.31S53,25.6,53,24.61Z" style="fill: #231f20"/>
          <path d="M55.77,23.21a1.85,1.85,0,0,0-1.18.52v2.45h-.31V23.63a2,2,0,0,1,1.54-.72Z" style="fill: #231f20"/>
          <path d="M56.69,21.88a.23.23,0,1,1,0-.46.23.23,0,0,1,.23.23A.23.23,0,0,1,56.69,21.88Zm-.15,4.3V23l.31-.13v3.27Z" style="fill: #231f20"/>
          <path d="M58.07,26.18c-.14,0-.16,0-.18-.15l0-.12,2.23-2.58H57.86l0-.3h2.51c.08,0,.13,0,.13.12v.13l-2.25,2.6H60.6l0,.3Z" style="fill: #231f20"/>
          <path d="M63.23,24.56l-1.57.08c0,.91.56,1.28,1.41,1.28a2.9,2.9,0,0,0,.59-.05l-.07.31a3.05,3.05,0,0,1-.52.05,1.53,1.53,0,0,1-1.71-1.63,1.54,1.54,0,0,1,1.36-1.69A1,1,0,0,1,63.81,24C63.81,24.51,63.49,24.55,63.23,24.56Zm-.52-1.34c-.61,0-.94.59-1,1.11l1.54-.07c.18,0,.3,0,.3-.22a.75.75,0,0,0-.82-.82Z" style="fill: #231f20"/>
          <path d="M67,26.18v-.29a1.56,1.56,0,0,1-.92.34c-1,0-1.4-.76-1.4-1.63a1.53,1.53,0,0,1,1.46-1.69,1.2,1.2,0,0,1,.85.28V21.57l.31-.15v4.76Zm0-2.28c0-.45-.35-.69-.85-.69-.68,0-1.16.57-1.16,1.39s.31,1.33,1.09,1.33a1,1,0,0,0,.92-.51Z" style="fill: #231f20"/>
          <path d="M72.23,26.18v-.29a1.59,1.59,0,0,1-.92.34c-1,0-1.4-.76-1.4-1.63a1.53,1.53,0,0,1,1.46-1.69,1.2,1.2,0,0,1,.85.28V21.57l.31-.15v4.76Zm0-2.28c0-.45-.36-.69-.85-.69a1.22,1.22,0,0,0-1.16,1.39c0,.72.31,1.33,1.09,1.33a1,1,0,0,0,.92-.51Z" style="fill: #231f20"/>
          <path d="M73.91,21.88a.23.23,0,0,1-.23-.23.23.23,0,1,1,.23.23Zm-.15,4.3V23l.3-.13v3.27Z" style="fill: #231f20"/>
          <path d="M76.18,26.23a2.18,2.18,0,0,1-1-.2l0-.37a2.07,2.07,0,0,0,1,.27c.41,0,.67-.19.67-.43a.72.72,0,0,0-.41-.58l-.87-.53a.93.93,0,0,1-.46-.73c0-.46.46-.75,1.11-.75a1.66,1.66,0,0,1,.76.2l0,.3a1.83,1.83,0,0,0-.73-.21c-.57,0-.8.17-.8.48a.67.67,0,0,0,.36.49l.93.56a.86.86,0,0,1,.45.78C77.16,25.89,76.8,26.23,76.18,26.23Z" style="fill: #231f20"/>
          <path d="M79.15,23.33h-.71v2.22c0,.29.2.38.42.38a1.17,1.17,0,0,0,.26,0l.07.3a1.37,1.37,0,0,1-.34,0,.65.65,0,0,1-.72-.68V22.21l.31-.14v1h.86Z" style="fill: #231f20"/>
          <path d="M81.65,23.21a1.85,1.85,0,0,0-1.18.52v2.45h-.31V23.63a2.06,2.06,0,0,1,1.54-.72Z" style="fill: #231f20"/>
          <path d="M82.58,21.88a.23.23,0,1,1,.23-.23A.23.23,0,0,1,82.58,21.88Zm-.15,4.3V23l.31-.13v3.27Z" style="fill: #231f20"/>
          <path d="M85.21,26.23a1.29,1.29,0,0,1-.94-.38v.33H84V21.57l.31-.15v1.71a2,2,0,0,1,.92-.22,1.45,1.45,0,0,1,1.33,1.6C86.52,25.53,86.07,26.23,85.21,26.23Zm0-3a1.8,1.8,0,0,0-.92.26v1.71a.87.87,0,0,0,.94.73c.6,0,1-.45,1-1.41C86.21,23.73,85.75,23.22,85.19,23.22Z" style="fill: #231f20"/>
          <path d="M90,26.18h-.31v-.25a2.57,2.57,0,0,1-1.12.3c-.74,0-1-.48-1-1.17v-2l.3-.17v2.15c0,.65.34.87.77.87a2.16,2.16,0,0,0,1.09-.35v-2.5l.31-.17Z" style="fill: #231f20"/>
          <path d="M92.13,23.33h-.71v2.22a.36.36,0,0,0,.41.38,1.09,1.09,0,0,0,.26,0l.07.3a1.27,1.27,0,0,1-.34,0,.65.65,0,0,1-.71-.68V22.21l.31-.14v1h.86Z" style="fill: #231f20"/>
          <path d="M95.84,24.61c0,1.16-.67,1.62-1.44,1.62S93,25.82,93,24.62c0-1,.47-1.71,1.44-1.71s1.44.71,1.44,1.71Zm-.31,0c0-.89-.39-1.4-1.13-1.4s-1.13.5-1.13,1.39.52,1.31,1.13,1.31,1.13-.32,1.13-1.31Z" style="fill: #231f20"/>
          <path d="M98.3,23.21a1.85,1.85,0,0,0-1.18.52v2.45h-.31V23.63a2.06,2.06,0,0,1,1.54-.72Z" style="fill: #231f20"/>
          <path d="M40.46,34.36C40.46,35.52,39.8,36,39,36s-1.45-.41-1.45-1.61c0-1,.47-1.71,1.44-1.71s1.44.71,1.44,1.71Zm-.31,0c0-.89-.38-1.4-1.12-1.4s-1.14.5-1.14,1.39.53,1.31,1.13,1.31,1.13-.32,1.13-1.31Z" style="fill: #231f20"/>
          <path d="M42.86,31.49a1.64,1.64,0,0,0-1.12.49v.8h1l-.15.3h-.85v2.85h-.32V31.86a2,2,0,0,1,1.5-.69Z" style="fill: #231f20"/>
          <path d="M47.12,34.53l-1.46.08c0,.74.79.77,1.37.77l.4,0-.06.61a4.73,4.73,0,0,1-.53,0,2,2,0,0,1-1.43-.42A1.63,1.63,0,0,1,45,34.31a1.57,1.57,0,0,1,1.43-1.67,1.2,1.2,0,0,1,1.29,1.29A.58.58,0,0,1,47.12,34.53Zm-.69-1.26a.78.78,0,0,0-.77.77l1.12,0a.24.24,0,0,0,.25-.27A.54.54,0,0,0,46.43,33.27Z" style="fill: #231f20"/>
          <path d="M50.56,35.93V33.76c0-.33-.18-.48-.42-.48a1.8,1.8,0,0,0-1,.39v2.26H48.5V33.39a2.71,2.71,0,0,1,1.68-.75c.75,0,1,.45,1,1.1v2.19Z" style="fill: #231f20"/>
          <path d="M52.52,31.94a.39.39,0,1,1,0-.77.39.39,0,1,1,0,.77Zm-.33,4V32.81l.65-.17v3.29Z" style="fill: #231f20"/>
          <path d="M55.41,35.93V31.32l.31-.15v4.76Z" style="fill: #231f20"/>
          <path d="M59.34,35.93H59v-.25a2.58,2.58,0,0,1-1.13.3c-.73,0-1-.48-1-1.17v-2l.3-.17v2.15c0,.65.35.87.77.87a2.17,2.17,0,0,0,1.1-.35v-2.5l.3-.17Z" style="fill: #231f20"/>
          <path d="M61.75,36a1.35,1.35,0,0,1-1-.37v.32h-.31V31.32l.31-.15v1.71a2,2,0,0,1,.92-.22,1.45,1.45,0,0,1,1.33,1.6C63.05,35.28,62.61,36,61.75,36Zm0-3a1.83,1.83,0,0,0-.92.26v1.71a.87.87,0,0,0,.94.73c.61,0,1-.45,1-1.41C62.74,33.49,62.28,33,61.72,33Z" style="fill: #231f20"/>
          <path d="M65.51,33a1.81,1.81,0,0,0-1.18.53v2.44H64V33.38a2.06,2.06,0,0,1,1.54-.72Z" style="fill: #231f20"/>
          <path d="M66.43,31.63a.23.23,0,0,1-.23-.23.24.24,0,0,1,.23-.23.23.23,0,0,1,.23.23A.23.23,0,0,1,66.43,31.63Zm-.15,4.3V32.8l.31-.14v3.27Z" style="fill: #231f20"/>
          <path d="M70.09,33.44a1.18,1.18,0,0,0-1-.49c-.83,0-1.16.65-1.16,1.4a1.24,1.24,0,0,0,1.35,1.33,2.57,2.57,0,0,0,.72-.11l-.05.32a2.5,2.5,0,0,1-.66.09,1.54,1.54,0,0,1-1.67-1.63,1.5,1.5,0,0,1,1.47-1.69,1.63,1.63,0,0,1,1.06.4Z" style="fill: #231f20"/>
          <path d="M73.22,35.93v-.31a2.4,2.4,0,0,1-1.28.36A.88.88,0,0,1,71,35c0-.66.51-.94,1.1-1l1.17-.18c0-.67-.28-.87-.67-.87a2.89,2.89,0,0,0-1.33.52l-.06-.32a2.65,2.65,0,0,1,1.37-.49c.72,0,1,.42,1,1.11v2.16Zm0-1.81-1.21.2c-.55.08-.75.35-.75.72s.27.64.71.64a2.18,2.18,0,0,0,1.25-.42Z" style="fill: #231f20"/>
          <path d="M76.89,35.93V33.76c0-.52-.25-.81-.65-.81a2.3,2.3,0,0,0-1.25.58v2.4h-.31V33.39a2.51,2.51,0,0,1,1.55-.73.9.9,0,0,1,1,1v2.29Z" style="fill: #231f20"/>
          <path d="M79.37,33.08h-.71V35.3a.36.36,0,0,0,.41.38,1.09,1.09,0,0,0,.26,0l.07.3a1.24,1.24,0,0,1-.33,0,.65.65,0,0,1-.72-.68V32l.31-.14v1h.86Z" style="fill: #231f20"/>
          <path d="M81.28,36a2.19,2.19,0,0,1-1-.2l0-.37a2.06,2.06,0,0,0,1,.27c.41,0,.68-.19.68-.43a.72.72,0,0,0-.41-.58l-.87-.53a.92.92,0,0,1-.47-.73c0-.46.47-.75,1.11-.75a1.75,1.75,0,0,1,.77.2l0,.3a1.83,1.83,0,0,0-.73-.21c-.56,0-.79.17-.79.48a.64.64,0,0,0,.36.49l.92.56a.88.88,0,0,1,.46.78C82.26,35.64,81.89,36,81.28,36Z" style="fill: #231f20"/>
        </g>
        <g>
          <rect y="11.44" width="29.4" height="24.5" rx="1.11" style="fill: #ffcd00"/>
          <path d="M4,31.6c0-2.33,1.39-4.09,3.57-4.09a2.57,2.57,0,0,1,2.82,2.3c.16,1.11,0,1.79-1.31,1.79l-4.53.21c.1,3.11,2.14,4.15,4.63,4.13h1.57v-.72H9.25c-2.29-.06-3.59-1-3.66-2.8l4.19-.21a1.4,1.4,0,0,0,1.53-1.56c0-2-1.09-3.86-3.67-3.86-2.37,0-4.4,1.69-4.4,4.85A5.28,5.28,0,0,0,5,35.94H6.38C4.88,35.27,4,33.77,4,31.6Z" style="fill: #231f20"/>
          <path d="M14.3,29.55v6.39h.95V29.86a3.17,3.17,0,0,1,2.16-1.09c.85,0,1.27.32,1.27,1.38v5.79h.92V30c0-1.27-.6-2-2.13-2A5.28,5.28,0,0,0,14.3,29.55Z" style="fill: #231f20"/>
          <path d="M13.74,29.29a6.12,6.12,0,0,1,3.87-1.8A2.25,2.25,0,0,1,20.17,30v5.91h.91V30c.05-1.91-.92-3.23-3.31-3.23a7.71,7.71,0,0,0-4.94,2.26v6.88h.91Z" style="fill: #231f20"/>
          <path d="M24.19,27.89l.61-.14v8.19h.87V27.08c0-.26-.14-.39-.44-.31l-1.9.52v8.65h.87Z" style="fill: #231f20"/>
          <path d="M24.5,24.75a1.23,1.23,0,1,0-1.23-1.23A1.23,1.23,0,0,0,24.5,24.75Z" style="fill: #231f20"/>
          <path d="M9.88,29.89A2,2,0,0,0,7.61,28c-1.64,0-2.76,1.31-3,3.32L9,31.11C9.83,31.07,10,30.79,9.88,29.89ZM9.1,30c0,.25-.14.46-.61.48l-2.85.15a1.91,1.91,0,0,1,1.88-1.82C8.74,28.77,9.09,29.47,9.1,30Z" style="fill: #231f20"/>
          <path d="M17.56,2.81a.57.57,0,0,0-.28-.37c-.74-.43-1.48.12-2.23.12a1.32,1.32,0,0,1-.77-.09c0-.12.13-.15.13-.28a4.88,4.88,0,0,1-.62-.09A3.91,3.91,0,0,1,13.05,2a3.51,3.51,0,0,0-3.15-.1,2.9,2.9,0,0,1-1.14.31c-.19,0,.27.37.21.56a3,3,0,0,0-1.7.77v0a1.77,1.77,0,0,0,1.49.53,4.65,4.65,0,0,0,1.39.55c1.26.25,2-.46,2.9-.09A.89.89,0,0,1,13,4.17,3.54,3.54,0,0,0,15.67,4c.74-.18,1.08-1.23,1.89-1.2" style="fill: #c10230"/>
          <path d="M6.56,3l.83-.47c.16,0,.16.19.25.28s.13-.37.25-.52c.12,0,.12.18.22.27s.15-.34.24-.49.47-.12.41-.43L8.45.28c0-.17-.13-.24-.19-.22-1.11.4-2,.81-3,1.17a.48.48,0,0,1-.34,0L3.19,0c.1.74.19,1.42.25,1.85,0,.08,0,.13-.06.13a1.06,1.06,0,0,0-.86.58,2.49,2.49,0,0,1-1,1.18.73.73,0,0,0,.46.4c.15.06.31,0,.46.12a.35.35,0,0,1-.06.16c-.4.71.1,1.66-.67,2.19A1.1,1.1,0,0,0,2.8,6.3l.05,0a3.51,3.51,0,0,0-.27,1.61.71.71,0,0,1,0,.29s-.06.17-.1.26c1-.16,1.37-1.43,1.44-1.65l.09,0s-.33.91,0,1.31a.34.34,0,0,0,.28.17A2.56,2.56,0,0,1,5,7a4,4,0,0,1,1.11.37c.22-.52-.26-1.3-.26-1.3l0,0,.06.07s.31.33.47.46a1.25,1.25,0,0,0,1,.06.73.73,0,0,0,.31-.34c-1,.06-1-1.17-1.52-1.76l0,0c.25.12.38.46.62.59l1.35.27c.09,0,.13-.12.13-.12a2.21,2.21,0,0,0,.07-.77c-.16-.09-.22.15-.34.15a5.39,5.39,0,0,1-.93-.28L6.56,3.15c0-.09,0-.12,0-.12m-.49-.81a.36.36,0,0,1-.37.37.35.35,0,0,1-.34-.37.35.35,0,0,1,.34-.37.36.36,0,0,1,.37.37" style="fill: #231f20"/>
          <path d="M7.9,13.35A4,4,0,0,1,6.69,13s-.1-.05-.1,0v.58c0,.22.21.5.93.44,0,0,.13.27-.55.54-.25.11-.15.28-.15.28s.09.21.68.37c-.21.41-.69.44-.6.68,0,0,.06.18.42.28-.11.34-.45.46-.54.66s.21.37.18.39a2.4,2.4,0,0,0-1,1,14.72,14.72,0,0,0-.41,1.65.46.46,0,0,1-.38.33c-.51,0-.9,0-1.34,0-.14,0-.08-.11-.08-.11.47-.84,1.53-1.52,1.36-2.55-.47-2.78-1.28-4.38-1.74-6.81a5,5,0,0,1,.09-2.65,1,1,0,0,0,.91.72c.16-.52.48-1.39.69-1.42a3.92,3.92,0,0,1,1.1.41A1.31,1.31,0,0,0,6.53,7a1.37,1.37,0,0,0,.93.09,1.47,1.47,0,0,0,1-.64,2.31,2.31,0,0,1-.19,1.66.08.08,0,0,0,0,.07s0,0,.09,0a3.11,3.11,0,0,0,.6-.4c.16-.14.62-.72.62-.72a1.49,1.49,0,0,1,0,1.36s-.08.15.11.12c.47-.08.81-1,1.14-1.13,0,0,0,0,0,0A3.86,3.86,0,0,0,11,8.69s0,.08.09,0c.17-.27.47-1,.79-1,0,.46.1,1.15.3,1.17s.33-.44.41-.63.22-.42.34-.42c0,.4.19,1,.52,1,.15,0,.12-.28.15-.49a.63.63,0,0,1,.24-.46,1.32,1.32,0,0,0,.5.76c.08.05.18.07.18-.08a1.06,1.06,0,0,1,.2-.73.93.93,0,0,0,.13.23.45.45,0,0,0,.53.22A.34.34,0,0,0,15.61,8a2.69,2.69,0,0,1-.43-1,1,1,0,0,1,.52-1.05.83.83,0,0,1,.93,0,.75.75,0,0,1,.28.56.51.51,0,0,1-.25.46.38.38,0,0,1-.41,0c-.11-.08-.21-.25-.3-.31-.09.21.06.46.18.62a.58.58,0,0,0,.72.13c.8-.59.64-1.18,1.14-2.39a3.91,3.91,0,0,1,.42-.78l.06-.09a2.2,2.2,0,1,1,3.39,2.76l-.11.1c-.17.13-.2.27-.12.33a2.35,2.35,0,0,1,.5.43,10.77,10.77,0,0,1,1.54,3.09,2.58,2.58,0,0,0,.46.77,1.7,1.7,0,0,0,1.08.5s-.23.33,0,.46a1.08,1.08,0,0,0,.77,0c.06.47-.66.65-.61.81s.37.26.77.2c-.1.35-.49.35-.49.57s.2.33.51.26a2.27,2.27,0,0,1-.37.44.6.6,0,0,0-.12.64,2,2,0,0,0,.54.78,4.58,4.58,0,0,1,.49.41c-.8.43-.62,1.15-.65,1.52a.15.15,0,0,1-.13.12l-1.62.25c-.14,0-.24,0-.08-.21a11.54,11.54,0,0,0,1.16-1.43,1.89,1.89,0,0,0-.25-.55c-.53-.85-1-1.64-1.52-2.51a.39.39,0,0,0-.22-.12,10.49,10.49,0,0,1-3.48-1.15c-.07,0-.07.06-.07.06a2.89,2.89,0,0,0,.08.91c.29.42,1.07.21,1.19.21,0,.3-.2.46-.5.65a.07.07,0,0,0,0,.09c0,.1.31,0,.55,0-.13.46-.55.44-.51.6a.29.29,0,0,0,.3.18c-.24.32-.58.37-.58.61l.06,1.09a.1.1,0,0,1,0,.06.13.13,0,0,1-.08,0l-1.58.38a.12.12,0,0,1-.13-.05c0-.06,0-.14,0-.14l1-1.55c.07-.33-.18-.55-.34-.83a4.4,4.4,0,0,0-1.11-1,2.6,2.6,0,0,1-.43-1.13c0-.1-.13-.06-.21,0a2.87,2.87,0,0,0-.56.77c-.07.15.06.25.25.3a.78.78,0,0,0,.52,0c0,.28-.31.5-.52.59,0,0-.07,0,0,.07a.58.58,0,0,0,.5.09.87.87,0,0,1-.46.52c-.33.2.21.19.29.15-.08.21-.38.47-.47.65a3.58,3.58,0,0,0-.09,1.39.29.29,0,0,1-.25.16L15,17.42c-.1,0-.09-.12,0-.19l1.17-1.42c.1-.12,0-.2,0-.25a10.69,10.69,0,0,1-1.32-2.16c-.25,0-.65.16-.71.4s.43.25.65.25c0,0,0,.22-.59.43a1,1,0,0,0-.43.26s0,0,0,.08a1.19,1.19,0,0,0,.53.11c-.25.34-1,.33-1.11.45s.09.21.51.21c-.21.28-.57.23-.89.33,0,0-.14,0-.1.11s.4.16.32.25a1.48,1.48,0,0,1-.6.26.53.53,0,0,0-.22.13c-.12.13-.08.29-.16.49a3.53,3.53,0,0,1-.51.93.05.05,0,0,1-.08,0l-1.12-.9a.17.17,0,0,1,0-.19c.11-.22.34-.27.55-.4a3.38,3.38,0,0,0,.87-.67.3.3,0,0,0,.07-.13c.13-.81.39-1.55.57-2.34.05-.24-.22-.18-.22-.18a6.42,6.42,0,0,1-2,.13c-.1,0-.12,0-.19.21s-.23.37-.09.54.86.07.85.1c-.21.54-.8.43-1.05.75,0,0-.08.1,0,.18s.32.11.73,0a1,1,0,0,1-.54.49c-.3.1-.49.13-.54.27s.07.2.54.15a.79.79,0,0,1-.54.48.57.57,0,0,0-.39.38,9.86,9.86,0,0,1-.44,1.11s0,.05-.11,0l-.95-.84-.06-.06c-.09-.13.18-.26.29-.35s.65-.37.7-.76A2.94,2.94,0,0,0,8,14.61a3.65,3.65,0,0,1-.09-1.18C8,13.36,7.9,13.35,7.9,13.35Zm9.52-5.62s0,0,0,0a1.94,1.94,0,0,0,1-.43,3.9,3.9,0,0,0,1-1.09,1.26,1.26,0,0,0,.84.33,1.25,1.25,0,0,0,0-2.49h-.12c-.56,0-.93.34-1.3,1a10.15,10.15,0,0,1-1.42,2.56l0,0" style="fill: #231f20"/>
        </g>
      </g>
    </g>
  </g>
</svg>
