<svg xmlns="http://www.w3.org/2000/svg" width="425" height="120" viewBox="0 0 425 120">
  <g id="b2ae493c-a0c7-4809-b9f0-93f0503432ca" data-name="Layer 1">
    <rect width="425" height="120"/>
    <g>
      <polygon points="94.52 65.09 88.42 95 321.72 95 327.82 65.09 94.52 65.09" style="fill: #fff"/>
      <path d="M292.26,86.56l.67-3.17H289.8l-.67,3.17Zm-10.35,0,.73-3.42,1-1.41.77,4.83h3.45l-1.5-7.76,4.26-6.13H287.3l-3.57,5.56h0l1.17-5.56H281.6l-2.94,13.89Zm-2.65-9,.24-1.16c.61-2.84-.81-4-3.59-4-3,0-4.67,1.41-5.32,4.42l-1.2,5.71c-.61,2.83.22,4.43,3.22,4.43,3.33,0,5.06-1.67,5.57-4.06l.36-1.7h-3.26L275,82.39c-.19.86-.52,2-1.63,2-.85,0-1.08-.47-.91-1.25L274,76.28c.19-.9.56-1.46,1.58-1.44.61,0,.9.61.64,1.79l-.18.89ZM265.2,81.41h-1.89l2.28-6.22h0Zm-3.72,5.15,1-2.7H265l-.11,2.7h3.29l-.07-13.89h-3.93l-6,13.89Zm-7.68,0c2.65,0,4.5-1.2,5.09-4,.37-1.72.21-2.46-1.09-3.31l0,0A4,4,0,0,0,260,76.26c.6-2.79-1.16-3.59-3.63-3.59h-4.22l-2.94,13.89Zm1.09-11.39c1.15,0,2.09,0,1.82,1.32-.36,1.65-1,1.55-2.45,1.65Zm-1.17,5.47c1.38,0,2.32,0,2,1.63-.39,1.87-1.06,1.75-2.69,1.79Zm-14.22.44h1.08c.74.06.88.61.79,1.46s-.41,2-.61,3.23a2.61,2.61,0,0,0,0,.79h3.55l0-.18a1.09,1.09,0,0,1-.2-.48c0-.89.48-3.28.63-4.39a1.49,1.49,0,0,0-1.22-1.8v0A3.84,3.84,0,0,0,246,76.51c.6-2.76-.51-3.84-3.18-3.84H238l-3,13.89h3.26Zm1.26-5.91c1.59,0,2.26,0,1.91,1.69-.17.85-.58,1.72-1.52,1.72H240Zm-15,7.56c-.61,2.85.72,4.17,3.48,4.17,3.33,0,4.78-1.82,5.28-4.17l2.13-10.06h-3.26l-2.21,10.39a1.5,1.5,0,0,1-1.38,1.34c-.93,0-1-.58-.87-1.25l2.22-10.48h-3.26Zm0-6.24c.55-2.67-.67-4.15-3.52-4.15a5,5,0,0,0-5.32,4.15l-1.2,5.65c-.67,3.13.13,4.76,3.43,4.76s4.74-1.63,5.41-4.76Zm-4.52,5.92c-.18.8-.5,2-1.56,2s-.94-1.19-.75-2l1.2-5.7c.18-.85.54-1.87,1.57-1.87s.93,1,.74,1.87Zm-9.9-9.74h-3.3l1.57,8.06-1.24,5.83h3.26l1.24-5.83L218,72.67h-3.26l-2.63,4.54h0Zm-16.73,2.78h2.56l-2.37,11.11h3.26l2.37-11.11h2.63l.57-2.78h-8.44Zm-.27,1c.56-2.67-.66-4.15-3.52-4.15a5,5,0,0,0-5.31,4.15l-1.21,5.65c-.66,3.13.13,4.76,3.43,4.76s4.74-1.63,5.41-4.76Zm-4.52,5.92c-.18.8-.5,2-1.55,2s-.95-1.19-.76-2l1.2-5.7c.19-.85.54-1.87,1.58-1.87s.92,1,.74,1.87Zm-7.74,4.17L183.71,79h-4.43l-.53,2.5h1.16l-.24,1.1c-.18.89-.41,1.78-1.52,1.78-.85,0-1.11-.47-.94-1.25l1.46-6.87c.19-.9.56-1.46,1.58-1.44.85,0,.89.61.63,1.79l-.17.76H184l.22-1c.61-2.84-.8-4-3.57-4-3,0-4.67,1.41-5.32,4.42l-1.2,5.71c-.54,2.52-.06,4.43,2.7,4.43A3.46,3.46,0,0,0,180,85.34h0l-.11,1.24Zm-14,0,.59-2.78h-4.43l.63-3H169l.59-2.77h-4.07l.55-2.56h4.21l.57-2.78h-7.46l-3,13.89Zm-11.11,0,6-13.89h-3.26L156,82.41h0l.39-9.74h-3.26l.07,13.89Zm-8.87-8.09a3.43,3.43,0,0,0,3.52-2.82l.63-3h-2.93l-.63,3h1.56a2,2,0,0,1-1.93,1.78Zm-2.71,8.09.59-2.78h-4.42l.63-3h4.07l.59-2.77H142.8l.56-2.56h4.2l.57-2.78h-7.46l-2.95,13.89ZM134.68,72.67h-3.15l-3.37,9.72,0,0,1.09-9.76h-3.15l-.61,13.89h3.61l3.15-9.78h0l-1.08,9.78h3.67l5.26-13.89H137l-3.08,9.74h0Z"/>
      <g>
        <polygon points="97.42 25.51 95.89 32.7 101.71 32.71 96.72 56.1 105.29 56.11 110.28 32.72 116.11 32.73 117.65 25.53 97.42 25.51" style="fill: #fff"/>
        <path d="M125,38.43h1.25c1.41,0,3-.64,3.68-3.59.54-2.53-.58-3.13-2.5-3.13h-1Zm-5.81-12.9H132c5.91,0,7.82,2.92,6.73,8-1,4.88-3.58,6.94-6.67,7.36l0,.09a3.84,3.84,0,0,1,3.55,2.44c.48,1.37.08,3.43-.3,5.23l-.54,2.53a11.21,11.21,0,0,0-.38,3.6,1.35,1.35,0,0,0,.71.89l-.1.44H125.9c-.41-.69,0-2.92.3-4.42s.52-3,.84-4.53c.56-2.62-.2-3.09-1.7-3.09h-1.58l-2.58,12h-8.56Z" style="fill: #fff"/>
        <path d="M149,25.55,135.24,56.14h8.83l1.85-4.67h5.74l0,4.67h8.82l-.66-30.6Zm3.89,6.69H153l-.84,12.55h-3.9Z" style="fill: #fff"/>
        <polygon points="182.22 25.58 178.23 44.26 178.15 44.26 177.77 25.58 168.47 25.57 161.94 56.16 169.73 56.17 173.76 37.32 173.84 37.32 174.57 56.17 183.74 56.18 190.28 25.59 182.22 25.58" style="fill: #fff"/>
        <g>
          <path d="M203.88,33.14c.27-1.28,0-2.48-1.49-2.48A2.65,2.65,0,0,0,199.93,33c-1.3,6.08,12.14,3,9.81,13.89-1.52,7.11-5.43,9.93-13.35,9.93-6.56,0-9.68-2.24-8.25-9l.18-.82h8.31l-.3,1.41c-.32,1.5.06,2.7,1.56,2.71s2.39-1.38,2.68-2.7c.42-2-.22-2.4-1.2-3s-2.43-1.24-3.81-2c-4.13-2.32-5.32-4-4.35-8.53.91-4.25,2.69-6.56,5-8A13.8,13.8,0,0,1,203.56,25c8.65,0,9.19,4.3,8.1,9.39h-8Z" style="fill: #fff"/>
          <path d="M220.11,50h1.76c2.14,0,3-2.35,3.48-4.67l1.9-8.91c.66-3.08.66-4.67-2-4.67H224Zm-3.36-24.43h12.34c3.82,0,6,1.51,6.83,4s.76,4-.79,11.32c-1.43,6.68-3.52,15.29-12.43,15.28H210.23Z" style="fill: #fff"/>
        </g>
        <polygon points="240.92 25.63 234.39 56.22 242.96 56.23 249.49 25.64 240.92 25.63" style="fill: #fff"/>
        <polygon points="252.41 25.64 245.87 56.23 264.69 56.25 266.17 49.31 255.93 49.3 257.06 43.98 266.27 43.99 267.7 37.31 258.49 37.3 259.49 32.59 269.35 32.6 270.83 25.66 252.41 25.64" style="fill: #fff"/>
        <path d="M284,33.21c.28-1.28,0-2.48-1.48-2.48A2.67,2.67,0,0,0,280,33c-1.3,6.08,12.14,3,9.81,13.89-1.52,7.11-5.42,9.93-13.35,9.93-6.56,0-9.68-2.24-8.24-9l.17-.82h8.31l-.3,1.41c-.32,1.5.07,2.7,1.57,2.7s2.39-1.37,2.67-2.69c.42-2-.21-2.4-1.19-3s-2.44-1.24-3.81-2c-4.14-2.32-5.32-4-4.35-8.53.9-4.25,2.68-6.56,5-8a13.73,13.73,0,0,1,7.38-1.88c8.65,0,9.2,4.3,8.11,9.39H283.7Z" style="fill: #fff"/>
        <polygon points="296.84 25.68 315.26 25.7 313.78 32.64 303.93 32.63 302.92 37.34 312.13 37.35 310.71 44.03 301.5 44.02 300.36 49.34 310.6 49.35 309.12 56.29 290.31 56.27 296.84 25.68" style="fill: #fff"/>
        <polygon points="318.27 25.7 326.83 25.71 321.79 49.36 331.13 49.37 329.64 56.31 311.74 56.29 318.27 25.7" style="fill: #fff"/>
        <path d="M338.72,52.52c.39,0,.58-.16.64-.42s-.07-.45-.53-.45h-.67l-.19.87Zm-.78.86h-.15L337.44,55h-1.05l.9-4.22h1.65c1.07,0,1.69.29,1.47,1.32a1.44,1.44,0,0,1-1.33,1.22l.66,1.69h-1.18ZM339,50a3.45,3.45,0,0,0-3.39,2.9c-.39,1.83.58,2.9,2.15,2.9a3.49,3.49,0,0,0,3.39-2.9c.39-1.83-.58-2.9-2.15-2.9m.25-1.19a3.21,3.21,0,0,1,3.22,4.09,5.33,5.33,0,0,1-5,4.09,3.21,3.21,0,0,1-3.22-4.09,5.31,5.31,0,0,1,5-4.09" style="fill: #fff"/>
        <polygon points="329.25 42.05 330.77 42.04 329.94 44.24 332.14 44.24 331.85 45 328.13 44.99 329.25 42.05" style="fill: #fff"/>
        <polygon points="333.96 42.8 332.58 42.8 332.87 42.05 337.15 42.05 336.86 42.81 335.49 42.8 334.66 45 333.13 45 333.96 42.8" style="fill: #fff"/>
        <path d="M338.6,44.25h.74c1,0,1.25-.61,1.26-.89,0-.44-.37-.55-.88-.55h-.57Zm-.69-2.2h2.28c.91,0,2.05.34,1.93,1.31S341,45,339.23,45h-2.45Z" style="fill: #fff"/>
      </g>
      <path d="M72.56,25a15.8,15.8,0,0,0-13.3,24.38L70.55,38.3H63.29V32.72l17.3,0,.12,16.81H74.83l.07-6.57L63.8,54a15.8,15.8,0,1,0,8.76-29" style="fill: #fff"/>
      <path d="M38.36,25A15.8,15.8,0,0,0,25.07,49.38L36.35,38.27H29.1V32.69l17.3,0,.11,16.81H40.63l.08-6.57L29.6,54a15.8,15.8,0,1,0,8.76-29" style="fill: #fff"/>
    </g>
  </g>
  <g id="efbc0ab2-fd86-46cd-93c1-806c6b59cdd4" data-name="Layer 2">
    <g>
      <path d="M367.34,38.53a1,1,0,0,0,.94-.59,6,6,0,0,0,.29-2.27V30.45a6,6,0,0,0-.29-2.27,1,1,0,0,0-1.88,0,6,6,0,0,0-.29,2.27v5.22a6,6,0,0,0,.29,2.27A1,1,0,0,0,367.34,38.53Z" style="fill: none"/>
      <path d="M379.35,38.53a1,1,0,0,0,.94-.59,6,6,0,0,0,.29-2.27V30.45a6,6,0,0,0-.29-2.27,1,1,0,0,0-1.88,0,6,6,0,0,0-.29,2.27v5.22a6,6,0,0,0,.29,2.27A1,1,0,0,0,379.35,38.53Z" style="fill: none"/>
      <path d="M388.76,31.31a.63.63,0,0,0,.24.38.76.76,0,0,0,.4.1.79.79,0,0,0,.4-.1.68.68,0,0,0,.24-.38,4.14,4.14,0,0,0,.11-.77c0-.33,0-.75,0-1.25s0-.94,0-1.26a4.14,4.14,0,0,0-.11-.77.62.62,0,0,0-.24-.37.7.7,0,0,0-.4-.1.68.68,0,0,0-.4.1.58.58,0,0,0-.24.37,4.14,4.14,0,0,0-.11.77q0,.48,0,1.26c0,.5,0,.92,0,1.25A4.14,4.14,0,0,0,388.76,31.31Z" style="fill: none"/>
      <path d="M398.37,38.86a.57.57,0,0,0,.23.37.7.7,0,0,0,.4.1.68.68,0,0,0,.4-.1.58.58,0,0,0,.24-.37,4.14,4.14,0,0,0,.11-.78c0-.32,0-.74,0-1.25s0-.94,0-1.26a4,4,0,0,0-.11-.76.63.63,0,0,0-.24-.38.76.76,0,0,0-.4-.1.79.79,0,0,0-.4.1.62.62,0,0,0-.23.38,3.91,3.91,0,0,0-.12.76q0,.48,0,1.26c0,.51,0,.93,0,1.25A4,4,0,0,0,398.37,38.86Z" style="fill: none"/>
      <path d="M356.42,85.22a1.31,1.31,0,0,0-.33-.68.9.9,0,0,0-.58-.19.86.86,0,0,0-.58.19,1.24,1.24,0,0,0-.33.68,6.76,6.76,0,0,0-.15,1.31c0,.55,0,1.24,0,2.08s0,1.52,0,2.07A6.88,6.88,0,0,0,354.6,92a1.17,1.17,0,0,0,.33.67.82.82,0,0,0,.58.2.85.85,0,0,0,.58-.2,1.23,1.23,0,0,0,.33-.67,7.79,7.79,0,0,0,.15-1.32q0-.83,0-2.07c0-.84,0-1.53,0-2.08A7.66,7.66,0,0,0,356.42,85.22Z" style="fill: none"/>
      <path d="M400.05,85.41a.9.9,0,0,0-.43-.54,1.73,1.73,0,0,0-.75-.14h-.64v7.75h.64a1.74,1.74,0,0,0,.75-.13.9.9,0,0,0,.43-.54,5,5,0,0,0,.19-1.19c0-.51,0-1.18,0-2s0-1.5,0-2A4.9,4.9,0,0,0,400.05,85.41Z" style="fill: none"/>
      <polygon points="389.15 89.7 393.01 89.7 393.01 87.17 389.15 87.17 389.15 85.05 393.27 85.05 393.27 82.41 385.92 82.41 385.92 94.81 393.43 94.81 393.43 92.17 389.15 92.17 389.15 89.7" style="fill: #fff"/>
      <polygon points="381.02 90.05 380.99 90.05 378.9 82.41 375.29 82.41 375.29 94.81 378.31 94.81 378.31 87.15 378.35 87.15 380.5 94.81 384.04 94.81 384.04 82.41 381.02 82.41 381.02 90.05" style="fill: #fff"/>
      <path d="M403.53,86.27a5.94,5.94,0,0,0-.48-2,3.18,3.18,0,0,0-1.17-1.37,4,4,0,0,0-2.19-.51H395v12.4h4.69a4,4,0,0,0,2.19-.51,3.24,3.24,0,0,0,1.17-1.37,6,6,0,0,0,.48-2c.05-.74.08-1.52.08-2.33S403.58,87,403.53,86.27Zm-3.29,4.35a5,5,0,0,1-.19,1.19.9.9,0,0,1-.43.54,1.74,1.74,0,0,1-.75.13h-.64V84.73h.64a1.73,1.73,0,0,1,.75.14.9.9,0,0,1,.43.54,4.9,4.9,0,0,1,.19,1.18c0,.52,0,1.18,0,2S400.26,90.11,400.24,90.62Z" style="fill: #fff"/>
      <path d="M359,83.65a3,3,0,0,0-1.38-1.13,6.22,6.22,0,0,0-4.17,0,3.07,3.07,0,0,0-1.37,1.13,5.39,5.39,0,0,0-.75,2,20,20,0,0,0,0,5.92,5.39,5.39,0,0,0,.75,2,2.94,2.94,0,0,0,1.37,1.1,6.75,6.75,0,0,0,4.17,0,2.92,2.92,0,0,0,1.38-1.1,5.39,5.39,0,0,0,.74-2,19.16,19.16,0,0,0,0-5.92A5.39,5.39,0,0,0,359,83.65Zm-2.4,7a7.79,7.79,0,0,1-.15,1.32,1.23,1.23,0,0,1-.33.67.85.85,0,0,1-.58.2.82.82,0,0,1-.58-.2,1.17,1.17,0,0,1-.33-.67,6.88,6.88,0,0,1-.15-1.32c0-.55,0-1.24,0-2.07s0-1.53,0-2.08a6.76,6.76,0,0,1,.15-1.31,1.24,1.24,0,0,1,.33-.68.86.86,0,0,1,.58-.19.9.9,0,0,1,.58.19,1.31,1.31,0,0,1,.33.68,7.66,7.66,0,0,1,.15,1.31c0,.55,0,1.24,0,2.08S356.59,90.13,356.57,90.68Z" style="fill: #fff"/>
      <polygon points="370.12 90.99 370.08 90.99 368.81 82.41 365.89 82.41 364.73 90.99 364.7 90.99 363.72 82.41 360.6 82.41 362.72 94.81 366.26 94.81 367.33 86.47 367.37 86.47 368.45 94.81 371.99 94.81 374.11 82.41 370.99 82.41 370.12 90.99" style="fill: #fff"/>
      <polygon points="368.31 66.47 368.22 66.47 362.56 45.72 352.75 45.72 352.75 79.38 360.96 79.38 360.96 58.59 361.05 58.59 366.9 79.38 376.51 79.38 376.51 45.72 368.31 45.72 368.31 66.47" style="fill: #fff"/>
      <polygon points="400.32 45.72 380.24 45.72 380.24 52.88 390.09 52.88 379.53 73.06 379.53 79.38 400.32 79.38 400.32 72.21 389.57 72.21 400.32 52.04 400.32 45.72" style="fill: #fff"/>
      <polygon points="391.88 41.05 398.96 25 396.5 25 389.42 41.05 391.88 41.05" style="fill: #fff"/>
      <path d="M396.27,33.53a3.09,3.09,0,0,0-.6,1.33,10.93,10.93,0,0,0,0,4,3.14,3.14,0,0,0,.6,1.33,2.08,2.08,0,0,0,1.08.71,5.61,5.61,0,0,0,1.65.21,5.52,5.52,0,0,0,1.65-.21,2.15,2.15,0,0,0,1.09-.71,3.26,3.26,0,0,0,.59-1.33,10.93,10.93,0,0,0,0-4,3.2,3.2,0,0,0-.59-1.33,2.43,2.43,0,0,0-1.09-.75,5.16,5.16,0,0,0-1.65-.23,5.25,5.25,0,0,0-1.65.23A2.35,2.35,0,0,0,396.27,33.53Zm2,2a3.91,3.91,0,0,1,.12-.76.62.62,0,0,1,.23-.38.79.79,0,0,1,.4-.1.76.76,0,0,1,.4.1.63.63,0,0,1,.24.38,4,4,0,0,1,.11.76q0,.48,0,1.26c0,.51,0,.93,0,1.25a4.14,4.14,0,0,1-.11.78.58.58,0,0,1-.24.37.68.68,0,0,1-.4.1.7.7,0,0,1-.4-.1.57.57,0,0,1-.23-.37,4,4,0,0,1-.12-.78c0-.32,0-.74,0-1.25S398.23,35.89,398.25,35.57Z" style="fill: #fff"/>
      <path d="M386.66,32.59a2.43,2.43,0,0,0,1.09.75,6,6,0,0,0,3.3,0,2.35,2.35,0,0,0,1.08-.75,3.09,3.09,0,0,0,.6-1.33,9.25,9.25,0,0,0,.18-2,9.29,9.29,0,0,0-.18-2,3.14,3.14,0,0,0-.6-1.33,2.35,2.35,0,0,0-1.08-.75,6,6,0,0,0-3.3,0,2.43,2.43,0,0,0-1.09.75,3.26,3.26,0,0,0-.59,1.33,9.29,9.29,0,0,0-.18,2,9.25,9.25,0,0,0,.18,2A3.2,3.2,0,0,0,386.66,32.59Zm2-4.56a4.14,4.14,0,0,1,.11-.77.58.58,0,0,1,.24-.37.68.68,0,0,1,.4-.1.7.7,0,0,1,.4.1.62.62,0,0,1,.24.37,4.14,4.14,0,0,1,.11.77q0,.48,0,1.26c0,.5,0,.92,0,1.25a4.14,4.14,0,0,1-.11.77.68.68,0,0,1-.24.38.79.79,0,0,1-.4.1.76.76,0,0,1-.4-.1.63.63,0,0,1-.24-.38,4.14,4.14,0,0,1-.11-.77c0-.33,0-.75,0-1.25S388.63,28.35,388.65,28Z" style="fill: #fff"/>
      <path d="M354.77,40.81h4.15V25h-3a4.53,4.53,0,0,1-.52,1.17,2.33,2.33,0,0,1-.8.76,3.56,3.56,0,0,1-1.18.4,9.91,9.91,0,0,1-1.66.12v2.6h3Z" style="fill: #fff"/>
      <path d="M363.26,39.48a3.38,3.38,0,0,0,1.68,1.24,8.64,8.64,0,0,0,4.8,0,3.32,3.32,0,0,0,1.67-1.24,6.23,6.23,0,0,0,1-2.46,20.37,20.37,0,0,0,.32-4,20.47,20.47,0,0,0-.32-4,6.39,6.39,0,0,0-1-2.48,3.32,3.32,0,0,0-1.67-1.27,8.18,8.18,0,0,0-4.8,0,3.38,3.38,0,0,0-1.68,1.27,6.72,6.72,0,0,0-1,2.48,20.47,20.47,0,0,0-.32,4,20.37,20.37,0,0,0,.32,4A6.54,6.54,0,0,0,363.26,39.48Zm2.85-9a6,6,0,0,1,.29-2.27,1,1,0,0,1,1.88,0,6,6,0,0,1,.29,2.27v5.22a6,6,0,0,1-.29,2.27,1,1,0,0,1-1.88,0,6,6,0,0,1-.29-2.27Z" style="fill: #fff"/>
      <path d="M375.27,39.48A3.38,3.38,0,0,0,377,40.72a8.64,8.64,0,0,0,4.8,0,3.38,3.38,0,0,0,1.68-1.24,6.38,6.38,0,0,0,1-2.46,20.37,20.37,0,0,0,.32-4,20.47,20.47,0,0,0-.32-4,6.55,6.55,0,0,0-1-2.48,3.38,3.38,0,0,0-1.68-1.27,8.18,8.18,0,0,0-4.8,0,3.38,3.38,0,0,0-1.68,1.27,6.72,6.72,0,0,0-1,2.48,20.47,20.47,0,0,0-.32,4,20.37,20.37,0,0,0,.32,4A6.54,6.54,0,0,0,375.27,39.48Zm2.85-9a6,6,0,0,1,.29-2.27,1,1,0,0,1,1.88,0,6,6,0,0,1,.29,2.27v5.22a6,6,0,0,1-.29,2.27,1,1,0,0,1-1.88,0,6,6,0,0,1-.29-2.27Z" style="fill: #fff"/>
    </g>
  </g>
</svg>
