<svg xmlns="http://www.w3.org/2000/svg" width="125" height="49" viewBox="0 0 125 49">
  <title>seek</title>
  <g id="Layer_2" data-name="Layer 2">
    <g id="Layer_1-2" data-name="Layer 1">
      <g>
        <path d="M26.25,0H125V49H26.7v0c.67-.08,1.34-.14,2-.25a24.45,24.45,0,0,0,13.35-6.78,24.92,24.92,0,0,0,4.12-5.4A24.54,24.54,0,0,0,48.82,19.6,24.47,24.47,0,0,0,39.41,4.84,23.69,23.69,0,0,0,32.6,1.28a24.19,24.19,0,0,0-4.47-1C27.51.15,26.88.12,26.25,0Zm86.86,22.51V9.06c0-.24,0-.21-.21-.21h-4.08c-.1,0-.13,0-.12.13V32.9c0,.1,0,.16.14.14h4c.3,0,.27.05.27-.27,0-1.59,0-3.17,0-4.75a.52.52,0,0,1,.13-.36l1.22-1.39a7,7,0,0,1,.53-.57l.16.26c1.36,2.29,2.71,4.59,4.06,6.88a.36.36,0,0,0,.35.21h5a.43.43,0,0,0,.24,0l-.18-.29-6.49-10c-.15-.24-.15-.17,0-.37q3-3.4,6-6.79s.11-.07.1-.15a.27.27,0,0,0-.17,0h-5a.38.38,0,0,0-.31.16l-5.53,6.81C113.26,22.37,113.23,22.45,113.11,22.51ZM94.64,25.59h10.92c.26,0,.26.05.27-.25a19,19,0,0,0-.18-3.61,8.49,8.49,0,0,0-1.26-3.42,6.62,6.62,0,0,0-3.47-2.71,8.67,8.67,0,0,0-5.14-.16,6.26,6.26,0,0,0-3.06,1.78,8.28,8.28,0,0,0-1.88,3.26,11,11,0,0,0-.46,2.72,16.27,16.27,0,0,0,.11,3.27,9.5,9.5,0,0,0,1,3.16,6.24,6.24,0,0,0,1.8,2.12,8.09,8.09,0,0,0,3.93,1.44,13,13,0,0,0,2.07.06,7.17,7.17,0,0,0,1.9-.29,9.43,9.43,0,0,0,4-2.35c.12-.11.12-.12,0-.25L103.77,29l-1.15-1.12-.12.1a5.32,5.32,0,0,1-5.39,1.31,3.13,3.13,0,0,1-1.79-1.4A6.39,6.39,0,0,1,94.64,25.59Zm-9.47,2.27a7.46,7.46,0,0,1-.61.53,4.23,4.23,0,0,1-.69.44,5.2,5.2,0,0,1-3.7.56,3.44,3.44,0,0,1-2.09-1.22,5.44,5.44,0,0,1-.9-2.55.33.33,0,0,1,.19,0H88.12c.27,0,.23,0,.25-.24a19.77,19.77,0,0,0-.11-3.17,9.41,9.41,0,0,0-.87-3.06,6.72,6.72,0,0,0-3.67-3.42,8.7,8.7,0,0,0-5.52-.22,6.27,6.27,0,0,0-2.91,1.72,8.55,8.55,0,0,0-2.19,4.46A14.38,14.38,0,0,0,72.89,24a12.84,12.84,0,0,0,.56,4.22,7.68,7.68,0,0,0,1.31,2.48,6.48,6.48,0,0,0,3.16,2.09,11.54,11.54,0,0,0,5.4.27,8.65,8.65,0,0,0,3.21-1.45,8.94,8.94,0,0,0,1.32-1.13C87.67,30.28,85.45,28.1,85.17,27.86ZM70.76,17.16a8.6,8.6,0,0,0-3.63-1.76,16.19,16.19,0,0,0-2.4-.28,9.82,9.82,0,0,0-3.88.53A6.22,6.22,0,0,0,58.63,17a5.44,5.44,0,0,0-1.3,5.5A4.11,4.11,0,0,0,59,24.73a6.06,6.06,0,0,0,2.1.82,23,23,0,0,0,2.87.35,11.45,11.45,0,0,1,1.85.26,1.39,1.39,0,0,1,1.11,1.09,1.41,1.41,0,0,1-.51,1.5,2.47,2.47,0,0,1-1.12.53A7.08,7.08,0,0,1,59.19,28c-.19-.14-.14-.14-.3,0l-2.64,2.65a.21.21,0,0,0-.09.15l.07,0a9.13,9.13,0,0,0,3.52,2,10.19,10.19,0,0,0,2.19.34,21,21,0,0,0,3.27,0,8.52,8.52,0,0,0,3.09-.85,5.3,5.3,0,0,0,2.1-1.8,5.56,5.56,0,0,0,.77-4.26,4.54,4.54,0,0,0-1.24-2.38,5.08,5.08,0,0,0-2.35-1.31,14.53,14.53,0,0,0-2.63-.4c-.68-.06-1.36-.11-2-.21a2.9,2.9,0,0,1-.81-.24,1.33,1.33,0,0,1-.57-1.89,1.92,1.92,0,0,1,1.29-.91,4.88,4.88,0,0,1,1-.11,6.89,6.89,0,0,1,4,1c.16.11.16.11.3,0,.64-.65,1.28-1.29,1.91-1.94Z" style="fill: #fff"/>
        <path d="M26.25,0c.63.08,1.26.11,1.88.2a24.19,24.19,0,0,1,4.47,1,23.69,23.69,0,0,1,6.81,3.56,24.47,24.47,0,0,1,9.87,21,24,24,0,0,1-3.11,10.69,24.92,24.92,0,0,1-4.12,5.4A24.45,24.45,0,0,1,28.7,48.71c-.66.11-1.33.17-2,.25-.27,0-.53,0-.8,0H23.7c-.29,0-.57-.07-.85,0-.79-.09-1.58-.17-2.36-.31A24.51,24.51,0,0,1,1.32,31.77,23.9,23.9,0,0,1,.26,25.84a24.29,24.29,0,0,1,.08-3.62A24.86,24.86,0,0,1,1,18.38,24.2,24.2,0,0,1,4.34,10.9a24.87,24.87,0,0,1,12-9.43,23.3,23.3,0,0,1,5-1.24C22,.15,22.59.12,23.2,0a1,1,0,0,0,.45,0H25.8A1,1,0,0,0,26.25,0ZM44.57,24.85a2.13,2.13,0,0,0-2.23-2.09,2,2,0,0,0-1.93,2.17,2,2,0,0,0,2.08,2A2.11,2.11,0,0,0,44.57,24.85ZM39,30a1.87,1.87,0,0,0-2-1.89A1.82,1.82,0,0,0,35.19,30,1.87,1.87,0,0,0,37,31.88,1.91,1.91,0,0,0,39,30Zm0-5.11a1.91,1.91,0,0,0-1.93-1.94A1.91,1.91,0,0,0,37,26.72,1.91,1.91,0,0,0,39,24.85ZM35.18,19.7a1.92,1.92,0,0,0,3.84,0,2,2,0,0,0-1.89-1.92A1.91,1.91,0,0,0,35.18,19.7ZM33.6,24.82a1.76,1.76,0,0,0-1.67-1.72,1.74,1.74,0,0,0-1.74,1.67,1.67,1.67,0,0,0,1.59,1.74A1.75,1.75,0,0,0,33.6,24.82ZM33.51,35.1a1.76,1.76,0,0,0-1.67-1.72,1.73,1.73,0,0,0-1.73,1.67,1.64,1.64,0,0,0,1.6,1.73A1.71,1.71,0,0,0,33.51,35.1Zm0-5.21a1.71,1.71,0,0,0-3.41,0,1.65,1.65,0,0,0,1.63,1.7A1.72,1.72,0,0,0,33.51,29.89ZM33.6,19.7A1.76,1.76,0,0,0,31.89,18a1.72,1.72,0,0,0-1.7,1.64,1.66,1.66,0,0,0,1.59,1.76A1.74,1.74,0,0,0,33.6,19.7Zm0-5.18a1.73,1.73,0,0,0-1.7-1.71,1.71,1.71,0,0,0-1.7,1.7,1.66,1.66,0,0,0,1.61,1.7A1.73,1.73,0,0,0,33.6,14.52Zm-6.76,1.53a1.55,1.55,0,0,0,1.6-1.56A1.61,1.61,0,0,0,26.87,13a1.52,1.52,0,0,0-1.52,1.55A1.49,1.49,0,0,0,26.84,16.05ZM25.35,24.8a1.53,1.53,0,0,0,1.47,1.55,1.59,1.59,0,0,0,1.61-1.59,1.56,1.56,0,0,0-1.58-1.5A1.49,1.49,0,0,0,25.35,24.8Zm0,5.16a1.54,1.54,0,0,0,1.48,1.54A1.63,1.63,0,0,0,28.44,30a1.51,1.51,0,0,0-1.57-1.58A1.46,1.46,0,0,0,25.35,30Zm0-20.59a1.48,1.48,0,0,0,1.5,1.52,1.5,1.5,0,0,0,1.6-1.49,1.61,1.61,0,0,0-1.55-1.59A1.54,1.54,0,0,0,25.34,9.37ZM26.86,21.2a1.56,1.56,0,0,0,1.58-1.51,1.62,1.62,0,0,0-1.58-1.58,1.5,1.5,0,0,0-1.51,1.59A1.48,1.48,0,0,0,26.86,21.2Zm0,15.45a1.63,1.63,0,0,0,1.61-1.5,1.53,1.53,0,0,0-1.58-1.59,1.46,1.46,0,0,0-1.5,1.53A1.55,1.55,0,0,0,26.83,36.65Zm0,5.2a1.62,1.62,0,0,0,1.61-1.5,1.52,1.52,0,0,0-1.57-1.58,1.45,1.45,0,0,0-1.51,1.53A1.52,1.52,0,0,0,26.83,41.85ZM23.49,30a1.41,1.41,0,0,0-1.34-1.38,1.35,1.35,0,0,0-1.35,1.34,1.28,1.28,0,0,0,1.28,1.36A1.31,1.31,0,0,0,23.49,30Zm0-10.3a1.41,1.41,0,0,0-1.34-1.38,1.36,1.36,0,0,0-1.35,1.34A1.27,1.27,0,0,0,22.08,21,1.3,1.3,0,0,0,23.49,19.66ZM20.8,24.78a1.28,1.28,0,0,0,1.32,1.35,1.34,1.34,0,0,0,1.39-1.28,1.45,1.45,0,0,0-1.39-1.42A1.34,1.34,0,0,0,20.8,24.78Zm-2.66-1.14a1.17,1.17,0,0,0,0,2.33,1.18,1.18,0,0,0,1.22-1.23A1.19,1.19,0,0,0,18.14,23.64Zm-1.15-4a1.19,1.19,0,0,0,1.08,1.22,1.17,1.17,0,1,0,.06-2.34A1.18,1.18,0,0,0,17,19.61ZM19.3,30a1.16,1.16,0,0,0-1.12-1.16A1.16,1.16,0,1,0,19.3,30Zm-6,0a1,1,0,0,0,1,1,1,1,0,0,0,1-1,1,1,0,0,0-1-1A1,1,0,0,0,13.34,30Zm2.07-10.3a1,1,0,0,0-1-1,1,1,0,1,0,0,2A1,1,0,0,0,15.41,19.67Zm-1,6.14a1,1,0,0,0,1-1,1,1,0,0,0-1-1,1,1,0,0,0-1,1A1,1,0,0,0,14.42,25.81Zm-3.29-5.27a.84.84,0,0,0,0-1.67.83.83,0,0,0-.85.81A.84.84,0,0,0,11.13,20.54Zm0,5.12a.83.83,0,0,0,.83-.82.85.85,0,0,0-.85-.84.83.83,0,0,0-.82.83A.82.82,0,0,0,11.17,25.66ZM10.34,30a.81.81,0,0,0,.83.84.83.83,0,1,0,0-1.66A.81.81,0,0,0,10.34,30Zm-3-10.33A.68.68,0,0,0,8,20.3.67.67,0,1,0,8,19,.67.67,0,0,0,7.35,19.63ZM8,29.34a.66.66,0,0,0-.66.67.68.68,0,0,0,.67.67A.69.69,0,0,0,8.65,30,.68.68,0,0,0,8,29.34Zm0-3.9a.67.67,0,1,0,0-1.33.67.67,0,1,0,0,1.33ZM5.42,24.36a.45.45,0,0,0-.43.45.5.5,0,0,0,.49.47.48.48,0,0,0,.45-.44A.52.52,0,0,0,5.42,24.36Zm.06,6.06A.49.49,0,0,0,5.93,30a.52.52,0,0,0-.49-.47.45.45,0,0,0-.45.44A.49.49,0,0,0,5.48,30.42Zm.31-10.75a.52.52,0,0,0-.49-.47.47.47,0,0,0-.46.46.5.5,0,0,0,.5.45A.46.46,0,0,0,5.79,19.67Z" style="fill: #0d3880"/>
        <path d="M23.2,0c-.61.08-1.21.11-1.82.19a23.3,23.3,0,0,0-5,1.24,24.87,24.87,0,0,0-12,9.43A24.2,24.2,0,0,0,1,18.38a24.86,24.86,0,0,0-.66,3.84,24.29,24.29,0,0,0-.08,3.62,23.9,23.9,0,0,0,1.06,5.93A24.52,24.52,0,0,0,20.49,48.65c.78.14,1.57.22,2.36.31v0H0V0H23.2Z" style="fill: #feffff"/>
        <path d="M22.85,49v0c.28,0,.56.06.85,0Z" style="fill: #f9fafc"/>
        <path d="M25.9,49c.27,0,.53-.07.8,0v0Z" style="fill: #f9fafc"/>
        <path d="M26.25,0a1,1,0,0,1-.45,0h.45Z" style="fill: #f9fafc"/>
        <path d="M23.2,0V0h.45A1,1,0,0,1,23.2,0Z" style="fill: #f9fafc"/>
        <path d="M113.11,22.51c.12-.06.15-.14.21-.21l5.53-6.81a.38.38,0,0,1,.31-.16h5a.27.27,0,0,1,.17,0c0,.08-.06.11-.1.15q-3,3.39-6,6.79c-.19.2-.19.13,0,.37l6.49,10,.18.29a.43.43,0,0,1-.24,0h-5a.36.36,0,0,1-.35-.21c-1.35-2.29-2.7-4.59-4.06-6.88L115,25.7a7,7,0,0,0-.53.57l-1.22,1.39a.52.52,0,0,0-.13.36c0,1.58,0,3.16,0,4.75,0,.32,0,.27-.27.27h-4c-.12,0-.15,0-.14-.14V9c0-.1,0-.14.12-.13h4.08c.22,0,.21,0,.21.21V22.51Z" style="fill: #010101"/>
        <path d="M94.64,25.59a6.39,6.39,0,0,0,.68,2.26,3.13,3.13,0,0,0,1.79,1.4,5.32,5.32,0,0,0,5.39-1.31l.12-.1L103.77,29l1.42,1.4c.14.13.14.14,0,.25a9.43,9.43,0,0,1-4,2.35,7.17,7.17,0,0,1-1.9.29,13,13,0,0,1-2.07-.06,8.09,8.09,0,0,1-3.93-1.44,6.24,6.24,0,0,1-1.8-2.12,9.5,9.5,0,0,1-1-3.16,16.27,16.27,0,0,1-.11-3.27,11,11,0,0,1,.46-2.72,8.28,8.28,0,0,1,1.88-3.26,6.26,6.26,0,0,1,3.06-1.78,8.67,8.67,0,0,1,5.14.16,6.62,6.62,0,0,1,3.47,2.71,8.49,8.49,0,0,1,1.26,3.42,19,19,0,0,1,.18,3.61c0,.3,0,.25-.27.25H94.64Zm6.85-3.1a10.66,10.66,0,0,0-.35-1.53A3,3,0,0,0,99.3,19a3.42,3.42,0,0,0-1.82-.17,3,3,0,0,0-2.31,1.7,4.56,4.56,0,0,0-.37,1.19,6,6,0,0,0-.14.76C96.94,22.51,99.21,22.53,101.49,22.49Z" style="fill: #010101"/>
        <path d="M85.17,27.86c.28.24,2.5,2.42,2.68,2.63a8.94,8.94,0,0,1-1.32,1.13,8.65,8.65,0,0,1-3.21,1.45,11.54,11.54,0,0,1-5.4-.27,6.48,6.48,0,0,1-3.16-2.09,7.68,7.68,0,0,1-1.31-2.48A12.84,12.84,0,0,1,72.89,24a14.38,14.38,0,0,1,.21-2.36,8.55,8.55,0,0,1,2.19-4.46,6.27,6.27,0,0,1,2.91-1.72,8.7,8.7,0,0,1,5.52.22,6.72,6.72,0,0,1,3.67,3.42,9.41,9.41,0,0,1,.87,3.06,19.77,19.77,0,0,1,.11,3.17c0,.26,0,.24-.25.24H77.37a.33.33,0,0,0-.19,0,5.44,5.44,0,0,0,.9,2.55,3.44,3.44,0,0,0,2.09,1.22,5.2,5.2,0,0,0,3.7-.56,4.23,4.23,0,0,0,.69-.44A7.46,7.46,0,0,0,85.17,27.86Zm-8-5.36c2.29,0,4.56,0,6.85,0a9.37,9.37,0,0,0-.45-1.77,2.89,2.89,0,0,0-1.35-1.51A3.39,3.39,0,0,0,80,18.85a3,3,0,0,0-2.19,1.49,4.21,4.21,0,0,0-.36.91A11.47,11.47,0,0,0,77.19,22.5Z" style="fill: #010101"/>
        <path d="M70.76,17.16l-.67.69c-.63.65-1.27,1.29-1.91,1.94-.14.14-.14.14-.3,0a6.89,6.89,0,0,0-4-1,4.88,4.88,0,0,0-1,.11,1.92,1.92,0,0,0-1.29.91,1.33,1.33,0,0,0,.57,1.89,2.9,2.9,0,0,0,.81.24c.68.1,1.36.15,2,.21a14.53,14.53,0,0,1,2.63.4,5.08,5.08,0,0,1,2.35,1.31,4.54,4.54,0,0,1,1.24,2.38,5.56,5.56,0,0,1-.77,4.26,5.3,5.3,0,0,1-2.1,1.8,8.52,8.52,0,0,1-3.09.85,21,21,0,0,1-3.27,0,10.19,10.19,0,0,1-2.19-.34,9.13,9.13,0,0,1-3.52-2l-.07,0a.21.21,0,0,1,.09-.15L58.89,28c.16-.16.11-.16.3,0a7.08,7.08,0,0,0,6.07,1.33,2.47,2.47,0,0,0,1.12-.53,1.41,1.41,0,0,0,.51-1.5,1.39,1.39,0,0,0-1.11-1.09,11.45,11.45,0,0,0-1.85-.26,23,23,0,0,1-2.87-.35,6.06,6.06,0,0,1-2.1-.82,4.11,4.11,0,0,1-1.63-2.21,5.44,5.44,0,0,1,1.3-5.5,6.22,6.22,0,0,1,2.22-1.37,9.82,9.82,0,0,1,3.88-.53,16.19,16.19,0,0,1,2.4.28A8.6,8.6,0,0,1,70.76,17.16Z" style="fill: #010101"/>
        <path d="M44.57,24.85A2.11,2.11,0,0,1,42.49,27a2,2,0,0,1-2.08-2,2,2,0,0,1,1.93-2.17A2.13,2.13,0,0,1,44.57,24.85Z" style="fill: #fdfdfe"/>
        <path d="M39,30a1.91,1.91,0,0,1-2,1.92A1.87,1.87,0,0,1,35.19,30,1.82,1.82,0,0,1,37,28.07,1.87,1.87,0,0,1,39,30Z" style="fill: #fdfdfe"/>
        <path d="M39,24.85a1.91,1.91,0,0,1-2,1.87,1.91,1.91,0,0,1,.06-3.81A1.91,1.91,0,0,1,39,24.85Z" style="fill: #fdfdfe"/>
        <path d="M35.18,19.7a1.91,1.91,0,0,1,2-1.94A2,2,0,0,1,39,19.68a1.92,1.92,0,0,1-3.84,0Z" style="fill: #fdfdfe"/>
        <path d="M33.6,24.82a1.75,1.75,0,0,1-1.82,1.69,1.67,1.67,0,0,1-1.59-1.74,1.74,1.74,0,0,1,1.74-1.67A1.76,1.76,0,0,1,33.6,24.82Z" style="fill: #fdfdfe"/>
        <path d="M33.51,35.1a1.71,1.71,0,0,1-1.8,1.68,1.64,1.64,0,0,1-1.6-1.73,1.73,1.73,0,0,1,1.73-1.67A1.76,1.76,0,0,1,33.51,35.1Z" style="fill: #fdfdfe"/>
        <path d="M33.51,29.89a1.72,1.72,0,0,1-1.78,1.7,1.65,1.65,0,0,1-1.63-1.7,1.71,1.71,0,0,1,3.41,0Z" style="fill: #fdfdfe"/>
        <path d="M33.6,19.7a1.74,1.74,0,0,1-1.82,1.69,1.66,1.66,0,0,1-1.59-1.76A1.72,1.72,0,0,1,31.89,18,1.76,1.76,0,0,1,33.6,19.7Z" style="fill: #fdfdfe"/>
        <path d="M33.6,14.52a1.73,1.73,0,0,1-1.79,1.69,1.66,1.66,0,0,1-1.61-1.7,1.71,1.71,0,0,1,1.7-1.7A1.73,1.73,0,0,1,33.6,14.52Z" style="fill: #fdfdfe"/>
        <path d="M26.84,16.05a1.49,1.49,0,0,1-1.49-1.54A1.52,1.52,0,0,1,26.87,13a1.61,1.61,0,0,1,1.57,1.53A1.55,1.55,0,0,1,26.84,16.05Z" style="fill: #fcfdfe"/>
        <path d="M25.35,24.8a1.49,1.49,0,0,1,1.5-1.54,1.56,1.56,0,0,1,1.58,1.5,1.59,1.59,0,0,1-1.61,1.59A1.53,1.53,0,0,1,25.35,24.8Z" style="fill: #fcfdfe"/>
        <path d="M25.35,30a1.46,1.46,0,0,1,1.52-1.54A1.51,1.51,0,0,1,28.44,30a1.63,1.63,0,0,1-1.61,1.5A1.54,1.54,0,0,1,25.35,30Z" style="fill: #fcfdfe"/>
        <path d="M25.34,9.37a1.54,1.54,0,0,1,1.55-1.56A1.61,1.61,0,0,1,28.44,9.4a1.5,1.5,0,0,1-1.6,1.49A1.48,1.48,0,0,1,25.34,9.37Z" style="fill: #fcfdfe"/>
        <path d="M26.86,21.2a1.48,1.48,0,0,1-1.51-1.5,1.5,1.5,0,0,1,1.51-1.59,1.62,1.62,0,0,1,1.58,1.58A1.56,1.56,0,0,1,26.86,21.2Z" style="fill: #fcfdfe"/>
        <path d="M26.83,36.65a1.55,1.55,0,0,1-1.47-1.56,1.46,1.46,0,0,1,1.5-1.53,1.53,1.53,0,0,1,1.58,1.59A1.63,1.63,0,0,1,26.83,36.65Z" style="fill: #fcfdfe"/>
        <path d="M26.83,41.85a1.52,1.52,0,0,1-1.47-1.55,1.45,1.45,0,0,1,1.51-1.53,1.52,1.52,0,0,1,1.57,1.58A1.62,1.62,0,0,1,26.83,41.85Z" style="fill: #fcfdfe"/>
        <path d="M23.49,30a1.31,1.31,0,0,1-1.41,1.32,1.28,1.28,0,0,1-1.28-1.36,1.35,1.35,0,0,1,1.35-1.34A1.41,1.41,0,0,1,23.49,30Z" style="fill: #fcfdfe"/>
        <path d="M23.49,19.66A1.3,1.3,0,0,1,22.08,21a1.27,1.27,0,0,1-1.28-1.36,1.36,1.36,0,0,1,1.35-1.34A1.41,1.41,0,0,1,23.49,19.66Z" style="fill: #fcfdfe"/>
        <path d="M20.8,24.78a1.34,1.34,0,0,1,1.32-1.35,1.45,1.45,0,0,1,1.39,1.42,1.34,1.34,0,0,1-1.39,1.28A1.28,1.28,0,0,1,20.8,24.78Z" style="fill: #fcfdfe"/>
        <path d="M18.14,23.64a1.19,1.19,0,0,1,1.2,1.1A1.18,1.18,0,0,1,18.12,26a1.17,1.17,0,0,1,0-2.33Z" style="fill: #fcfcfd"/>
        <path d="M17,19.61a1.18,1.18,0,0,1,1.14-1.12,1.17,1.17,0,1,1-.06,2.34A1.19,1.19,0,0,1,17,19.61Z" style="fill: #fcfcfd"/>
        <path d="M19.3,30A1.15,1.15,0,0,1,18,31.11a1.16,1.16,0,0,1,.14-2.32A1.16,1.16,0,0,1,19.3,30Z" style="fill: #fcfdfe"/>
        <path d="M13.34,30a1,1,0,0,1,1-1,1,1,0,0,1,1,1,1,1,0,0,1-1,1A1,1,0,0,1,13.34,30Z" style="fill: #fbfcfd"/>
        <path d="M15.41,19.67a1,1,0,0,1-1,1,1,1,0,1,1,0-2A1,1,0,0,1,15.41,19.67Z" style="fill: #fbfcfd"/>
        <path d="M14.42,25.81a1,1,0,0,1-1-1,1,1,0,0,1,1-1,1,1,0,0,1,1,1A1,1,0,0,1,14.42,25.81Z" style="fill: #fcfcfd"/>
        <path d="M11.13,20.54a.84.84,0,0,1-.82-.86.83.83,0,0,1,.85-.81.84.84,0,0,1,0,1.67Z" style="fill: #fbfcfd"/>
        <path d="M11.17,25.66a.82.82,0,0,1-.84-.83.83.83,0,0,1,.82-.83.85.85,0,0,1,.85.84A.83.83,0,0,1,11.17,25.66Z" style="fill: #fbfcfd"/>
        <path d="M10.34,30a.81.81,0,0,1,.83-.82.83.83,0,1,1,0,1.66A.81.81,0,0,1,10.34,30Z" style="fill: #fbfcfd"/>
        <path d="M7.35,19.63A.67.67,0,0,1,8,19,.67.67,0,1,1,8,20.3.68.68,0,0,1,7.35,19.63Z" style="fill: #f9fafc"/>
        <path d="M8,29.34a.68.68,0,0,1,.68.66.69.69,0,0,1-.67.68A.68.68,0,0,1,7.31,30,.66.66,0,0,1,8,29.34Z" style="fill: #f9fafc"/>
        <path d="M8,25.44a.67.67,0,1,1,0-1.33.67.67,0,1,1,0,1.33Z" style="fill: #f9fafc"/>
        <path d="M5.42,24.36a.52.52,0,0,1,.51.48.48.48,0,0,1-.45.44A.5.5,0,0,1,5,24.81.45.45,0,0,1,5.42,24.36Z" style="fill: #f9fafc"/>
        <path d="M5.48,30.42A.49.49,0,0,1,5,29.94a.45.45,0,0,1,.45-.44.52.52,0,0,1,.49.47A.49.49,0,0,1,5.48,30.42Z" style="fill: #f9fafc"/>
        <path d="M5.79,19.67a.46.46,0,0,1-.45.44.5.5,0,0,1-.5-.45.47.47,0,0,1,.46-.46A.52.52,0,0,1,5.79,19.67Z" style="fill: #f9fafc"/>
        <path d="M101.49,22.49c-2.28,0-4.55,0-6.83,0a6,6,0,0,1,.14-.76,4.56,4.56,0,0,1,.37-1.19,3,3,0,0,1,2.31-1.7A3.42,3.42,0,0,1,99.3,19,3,3,0,0,1,101.14,21,10.66,10.66,0,0,1,101.49,22.49Z" style="fill: #fefefe"/>
        <path d="M77.19,22.5a11.47,11.47,0,0,1,.27-1.25,4.21,4.21,0,0,1,.36-.91A3,3,0,0,1,80,18.85a3.39,3.39,0,0,1,2.23.36,2.89,2.89,0,0,1,1.35,1.51A9.37,9.37,0,0,1,84,22.49C81.75,22.53,79.48,22.52,77.19,22.5Z" style="fill: #fefefe"/>
      </g>
    </g>
  </g>
</svg>
