<svg id="Layer_1" data-name="Layer 1" xmlns="http://www.w3.org/2000/svg" width="200" height="80" viewBox="0 0 255 80">
  <title>shell-1</title>
  <path d="M19.86,55.59l1.55,12H37.6l.88.61a5.42,5.42,0,0,0,3.07.92,5.54,5.54,0,0,0,3-.8l1.07-.73H61.7l1.51-12,9.44-6.94a24,24,0,0,0,.7-6.15c0-18.66-14.53-32.34-31.77-32.34-18,0-31.77,14.48-31.77,32.34a25.58,25.58,0,0,0,.76,6.22l9.29,6.85" style="fill: #fff"/>
  <path d="M11.52,48.1a22.43,22.43,0,0,1-.63-6A30.7,30.7,0,1,1,72.28,41q0,.55,0,1.11a22,22,0,0,1-.63,6L62.19,55,60.76,66.51H45.18l-1,.74a4.49,4.49,0,0,1-2.61.8,4.6,4.6,0,0,1-2.77-1l-.8-.54H22.35L20.88,55l-9.36-6.9" style="fill: #ffd300"/>
  <path d="M11.52,48.1a22.43,22.43,0,0,1-.63-6A30.7,30.7,0,1,1,72.28,41q0,.55,0,1.11a22,22,0,0,1-.63,6L62.19,55,60.76,66.51H45.18l-1,.74a4.49,4.49,0,0,1-2.61.8,4.73,4.73,0,0,1-2.77-1l-.8-.54H22.34L20.88,55l-9.36-6.9m27,13,1.32,1a3.3,3.3,0,0,0,1.75.68,3.27,3.27,0,0,0,1.75-.68l1.32-1H56.1l1.19-9.45L66.38,45a9.8,9.8,0,0,0,.42-3.18,13.3,13.3,0,0,0-1.07-5.09v-.06L49.25,53.29,65.09,33.75A12.65,12.65,0,0,0,61.27,27l-.08-.08L46.94,51.65l12.54-27-.07-.09A12.67,12.67,0,0,0,53,19.92L44.26,50.65l6.3-32A13.13,13.13,0,0,0,44.13,17a8.47,8.47,0,0,0-1.42.09L41.54,50.38,40,17.12a10.18,10.18,0,0,0-1.35-.07,12.65,12.65,0,0,0-6.29,1.67l-.13.07L38.9,50.73,30.14,20a12.64,12.64,0,0,0-6.51,4.69l12.66,27-14.17-25a13.05,13.05,0,0,0-4.19,6.91L33.86,53.34,17.36,36.65v.07A12.72,12.72,0,0,0,16.26,42a12.48,12.48,0,0,0,.42,3.22L26,52l1.15,9.2Z" style="fill: #e42313"/>
  <path d="M119.24,25.87h-.11a.2.2,0,0,1,0-.11v-.1a.16.16,0,0,1,.22,0,.17.17,0,0,1,0,.1.2.2,0,0,1,0,.11h-.11" style="fill-rule: evenodd"/>
  <path d="M111.65,29.32a4.2,4.2,0,0,0-2.67-1c-.74,0-1.73.44-1.73,1.3s1.09,1.25,1.79,1.48l1,.31c2.15.64,3.82,1.73,3.82,4.23a5.25,5.25,0,0,1-1.6,4.18,6.85,6.85,0,0,1-4.4,1.46,9.62,9.62,0,0,1-5.45-1.77l1.72-3.25a5.55,5.55,0,0,0,3.58,1.6c1,0,2-.47,2-1.56s-1.59-1.52-2.45-1.77c-2.53-.72-4.2-1.37-4.2-4.38a5,5,0,0,1,4.79-5.21,5.28,5.28,0,0,1,.56,0,10.53,10.53,0,0,1,4.85,1.28Z" style="fill: #005092"/>
  <path d="M119,23.77v7.88h0A3.9,3.9,0,0,1,122.37,30c2.68,0,4,1.77,4,4.44v6.46h-3.74V35.43c0-1.24-.18-2.51-1.69-2.51s-2,1.27-2,2.51v5.41H115.2V23.77Z" style="fill: #005092"/>
  <path d="M139.12,36.19h-7.87a2.1,2.1,0,0,0,1.81,2.34,2.35,2.35,0,0,0,.53,0,1.86,1.86,0,0,0,1.79-1H139c-.6,2.48-3,3.62-5.37,3.62-3.49,0-6.1-2-6.1-5.62s2.4-5.63,5.84-5.63c3.66,0,5.77,2.26,5.77,5.86ZM135.65,34a2.24,2.24,0,0,0-2.72-1.62A2.27,2.27,0,0,0,131.31,34Z" style="fill: #005092"/>
  <rect x="140.32" y="23.77" width="3.74" height="17.07" style="fill: #005092"/>
  <rect x="146.01" y="23.77" width="3.74" height="17.07" style="fill: #005092"/>
  <polygon points="162.36 37.42 167.19 37.42 167.19 40.84 158.33 40.84 158.33 25.33 162.36 25.33 162.36 37.42" style="fill: #005092"/>
  <path d="M171.59,30.29v5.63c0,1.34.33,2.28,1.88,2.28s1.87-.94,1.87-2.28V30.29h3.74v6.36c0,3.48-2.45,4.55-5.61,4.55s-5.62-1.07-5.62-4.55V30.29Z" style="fill: #005092"/>
  <path d="M180.83,23.77h3.74v7.55a4.33,4.33,0,0,1,3.27-1.38,5.64,5.64,0,0,1,0,11.25,3.74,3.74,0,0,1-3.23-1.54h0v1.18h-3.74Zm3.62,11.8a2.41,2.41,0,1,0,2.25-2.25,2.41,2.41,0,0,0-2.25,2.25" style="fill: #005092"/>
  <path d="M198.2,32h.05a3.66,3.66,0,0,1,3.41-1.87h.72v3.6a3,3,0,0,0-1.59-.35c-2.07,0-2.59,1.38-2.59,3.19v4.26h-3.74V30.29h3.74Z" style="fill: #005092"/>
  <path d="M207.23,26.24a2.1,2.1,0,1,1-2.1-2.1,2.1,2.1,0,0,1,2.1,2.1h0M207,40.84h-3.75V30.29H207Z" style="fill: #005092"/>
  <path d="M216.57,33.72a3.28,3.28,0,0,0-1.94-.74,2.54,2.54,0,0,0-2.57,2.49v.08a2.5,2.5,0,0,0,2.41,2.59h.22a2.88,2.88,0,0,0,1.88-.72v3.17a6,6,0,0,1-2.64.6,5.55,5.55,0,0,1-5.72-5.39.76.76,0,0,1,0-.15,5.67,5.67,0,0,1,5.56-5.75h.34a5.06,5.06,0,0,1,2.47.62Z" style="fill: #005092"/>
  <path d="M229.81,40.84h-3.74V39.65h0a3.72,3.72,0,0,1-3.19,1.53,5.43,5.43,0,0,1-5.33-5.53v-.11a5.38,5.38,0,0,1,5.13-5.61h.16a4.3,4.3,0,0,1,3.27,1.38v-1h3.74Zm-8.43-5.27a2.41,2.41,0,1,0,2.25-2.25,2.41,2.41,0,0,0-2.25,2.25" style="fill: #005092"/>
  <path d="M235.42,31.65h0A3.68,3.68,0,0,1,238.8,30c2.84,0,4,1.79,4,4.38v6.52h-3.75v-5.2c0-1,.17-2.77-1.68-2.77-1.52,0-2,1.13-2,2.45V40.8h-3.74V30.29h3.74Z" style="fill: #005092"/>
  <polygon points="248.85 40.84 245.11 40.84 245.11 33.37 243.9 33.37 243.9 30.29 245.11 30.29 245.11 27.12 248.85 27.12 248.85 30.29 250.97 30.29 250.97 33.37 248.85 33.37 248.85 40.84" style="fill: #005092"/>
  <path d="M258.62,33a4.63,4.63,0,0,0-2-.51c-.44,0-1.18.18-1.18.72,0,.72,1.18.82,1.69.92,1.75.35,3.06,1.17,3.06,3.13,0,2.77-2.53,3.93-5,3.93A8.27,8.27,0,0,1,251,40l1.36-2.61a6,6,0,0,0,3,1.07c.47,0,1.17-.23,1.17-.8,0-.82-1.17-.87-2.34-1.17a2.66,2.66,0,0,1-2.44-2.81c0-2.59,2.35-3.74,4.65-3.74a8.09,8.09,0,0,1,3.47.68Z" style="fill: #005092"/>
  <path d="M102.81,45.57h5.71a7.76,7.76,0,1,1,.56,15.51,5.23,5.23,0,0,1-.56,0h-5.71Zm4,12.09h.9c2.41,0,4.46-1.31,4.46-4.34a4.08,4.08,0,0,0-3.8-4.34,4.28,4.28,0,0,0-.62,0h-.94Z" style="fill: #005092"/>
  <path d="M121.64,46.48a2.1,2.1,0,1,1-2.1-2.1h0a2.09,2.09,0,0,1,2.09,2.1m-.22,14.59h-3.74V50.53h3.74Z" style="fill: #005092"/>
  <path d="M130.34,53.24a4.63,4.63,0,0,0-2-.51c-.43,0-1.18.18-1.18.72,0,.72,1.18.82,1.69.92,1.75.35,3.06,1.17,3.06,3.13,0,2.77-2.53,3.93-5,3.93a8.23,8.23,0,0,1-4.26-1.22L124,57.65a6.09,6.09,0,0,0,3,1c.47,0,1.17-.23,1.17-.8,0-.82-1.17-.87-2.34-1.17a2.67,2.67,0,0,1-2.35-2.78c0-2.59,2.35-3.74,4.65-3.74a8.13,8.13,0,0,1,3.48.68Z" style="fill: #005092"/>
  <polygon points="137.5 61.07 133.76 61.07 133.76 53.61 132.54 53.61 132.54 50.53 133.76 50.53 133.76 47.36 137.5 47.36 137.5 50.53 139.62 50.53 139.62 53.61 137.5 53.61 137.5 61.07" style="fill: #005092"/>
  <path d="M144.14,52.25h0a3.68,3.68,0,0,1,3.42-1.87h.71V54a3,3,0,0,0-1.58-.35c-2.08,0-2.59,1.38-2.59,3.19v4.26h-3.7V50.53h3.74Z" style="fill: #005092"/>
  <path d="M153.17,46.48a2.1,2.1,0,1,1-2.1-2.1,2.1,2.1,0,0,1,2.1,2.1h0m-.23,14.59H149.2V50.53h3.74Z" style="fill: #005092"/>
  <path d="M154.77,44h3.74v7.55a4.33,4.33,0,0,1,3.27-1.38,5.63,5.63,0,0,1,0,11.25,3.72,3.72,0,0,1-3.18-1.53h0v1.18h-3.74Zm3.62,11.8a2.41,2.41,0,1,0,2.25-2.25,2.41,2.41,0,0,0-2.25,2.25" style="fill: #005092"/>
  <path d="M172.09,50.53v5.63c0,1.34.33,2.28,1.87,2.28s1.87-.94,1.87-2.28V50.53h3.74v6.35c0,3.48-2.45,4.55-5.61,4.55s-5.62-1.07-5.62-4.55V50.53Z" style="fill: #005092"/>
  <polygon points="185.54 61.07 181.79 61.07 181.79 53.61 180.58 53.61 180.58 50.53 181.79 50.53 181.79 47.36 185.54 47.36 185.54 50.53 187.65 50.53 187.65 53.61 185.54 53.61 185.54 61.07" style="fill: #005092"/>
  <path d="M200.36,55.81c0,3.58-3,5.62-6.35,5.62s-6.36-2-6.36-5.62,3-5.63,6.36-5.63,6.35,2,6.35,5.63m-8.76,0a2.41,2.41,0,1,0,2.25-2.25,2.42,2.42,0,0,0-2.25,2.25" style="fill: #005092"/>
  <path d="M205.28,52.25h0a3.66,3.66,0,0,1,3.41-1.87h.72V54a3,3,0,0,0-1.58-.35c-2.08,0-2.59,1.38-2.59,3.19v4.26h-3.75V50.53h3.75Z" style="fill: #005092"/>
</svg>
