<?xml version="1.0" encoding="utf-8"?>
<!-- Generator: Adobe Illustrator 26.0.3, SVG Export Plug-In . SVG Version: 6.00 Build 0)  -->
<svg version="1.1" id="Layer_1" xmlns="http://www.w3.org/2000/svg" xmlns:xlink="http://www.w3.org/1999/xlink" x="0px" y="0px"
	 viewBox="0 0 195 305" style="enable-background:new 0 0 195 305;" xml:space="preserve">
<style type="text/css">
	.st0{fill:#FFFFFF;}
	.st1{fill:#D20537;}
</style>
<g id="Layer_3">
	<path class="st0" d="M164.4,130.6c5.6,10.3,10.9,20.7,15.8,31.3c9.9,21.4,15.5,43.4,10.4,67.2C180,277.6,141.9,305.6,90,302.8
		c-58.7-3.2-98.9-56.3-84.6-113.3c3.8-15.2,10.5-30,17.6-44C46.9,98.1,78.5,54.8,97.5,2C114.8,49.3,141.6,88.9,164.4,130.6z"/>
</g>
<rect x="103.7" y="158" transform="matrix(0.7573 0.6531 -0.6531 0.7573 164.715 -23.5347)" class="st1" width="20.7" height="103.7"/>
<rect x="64.8" y="205.2" transform="matrix(0.6531 -0.7573 0.7573 0.6531 -148.9452 137.0936)" class="st1" width="20.7" height="51.9"/>
</svg>
