<svg id="f2d231cf-81d9-47fd-8763-68698b3fa3b4" data-name="Layer 1" xmlns="http://www.w3.org/2000/svg" width="210" height="100" viewBox="0 0 210 100">
  <g>
    <g>
      <path d="M19.4,13.69a8.89,8.89,0,0,0-5.62-2.16c-1.56,0-3.64.91-3.64,2.73s2.29,2.64,3.76,3.12l2.17.65c4.55,1.34,8.06,3.64,8.06,8.92,0,3.25-.78,6.58-3.38,8.79a14.3,14.3,0,0,1-9.27,3.08A20.13,20.13,0,0,1,0,35.09l3.64-6.84c2.12,1.86,4.63,3.37,7.54,3.37,2,0,4.11-1,4.11-3.29s-3.33-3.2-5.15-3.72c-5.33-1.52-8.84-2.9-8.84-9.23,0-6.62,4.72-11,11.26-11A22.4,22.4,0,0,1,22.78,7.11Z" style="fill: #e42313"/>
      <path d="M34.78,2V18.54h.09A8.22,8.22,0,0,1,42,15c5.64,0,8.36,3.73,8.36,9.36V38H42.45V26.56c0-2.6-.39-5.29-3.55-5.29S34.78,24,34.78,26.56V38H26.9V2Z" style="fill: #e42313"/>
      <path d="M77.28,28.16H60.69c0,3.2,1.69,4.94,4.93,4.94a3.92,3.92,0,0,0,3.77-2H77c-1.26,5.24-6.24,7.63-11.31,7.63-7.36,0-12.86-4.16-12.86-11.83,0-7.41,5.06-11.87,12.3-11.87,7.71,0,12.17,4.77,12.17,12.35ZM70,23.61a4.73,4.73,0,0,0-9.14,0Z" style="fill: #e42313"/>
      <rect x="80.26" y="2" width="7.88" height="35.95" style="fill: #e42313"/>
      <rect x="92.26" y="2" width="7.88" height="35.95" style="fill: #e42313"/>
    </g>
    <g>
      <path d="M39.83,78.52H27.59V73.38H46a25.68,25.68,0,0,1-.93,8.94,20.82,20.82,0,0,1-11,13.32,22.85,22.85,0,0,1-12.89,2.19c-10-1.06-18.44-9.17-20.6-19C-2.23,65.56,6.1,52.21,19.39,49.46c9.21-1.91,17.15.87,23.61,7.74.2.22.36.47.62.82l-4,3.83a21.34,21.34,0,0,0-4.68-4.42,18.19,18.19,0,0,0-23,1.88,18.56,18.56,0,0,0-6,14.8A19.77,19.77,0,0,0,20.57,92.29c8.35,2,17-4,18.73-11C39.52,80.46,39.63,79.59,39.83,78.52Z" style="fill: #005092"/>
      <path d="M91.35,49.73c4.78.14,9.49.06,14.15.47a25.1,25.1,0,0,1,15,6.19,20.24,20.24,0,0,1,6.63,12.74,28.29,28.29,0,0,1-.71,11.65,20.2,20.2,0,0,1-9.86,12.49,27.11,27.11,0,0,1-11.74,3.47c-2.07.14-4.15.23-6.29.35V91.66c.93,0,1.81,0,2.69,0a27.76,27.76,0,0,0,12.49-3.16A14.76,14.76,0,0,0,121,78.91a21.44,21.44,0,0,0-.33-12.09c-1.6-4.93-5.1-8-9.88-9.81a34.8,34.8,0,0,0-13.58-1.78V96.9H91.35Z" style="fill: #005092"/>
      <path d="M131.47,49.92h5.85V51.3c0,9.22,0,18.45,0,27.67a17.85,17.85,0,0,0,1.87,8.39A9.38,9.38,0,0,0,147,92.44a14.83,14.83,0,0,0,5.06-.27,9.27,9.27,0,0,0,6.55-5.58,20.62,20.62,0,0,0,1.57-8.34c0-8.93,0-17.85,0-26.78V50h5.68c0,.27.08.59.08.92q0,14.48,0,28.95a18.77,18.77,0,0,1-4.32,12.64,15.61,15.61,0,0,1-10,5.3,18.31,18.31,0,0,1-10.71-1.48,15.62,15.62,0,0,1-8.36-10,22.25,22.25,0,0,1-1-6.78V49.92Z" style="fill: #005092"/>
      <path d="M66.27,60.73c-2.82,6.42-5.56,12.68-8.37,19.07H73.2c.82,1.81,1.61,3.54,2.45,5.37H55.47L50.09,97H43.87C51.34,80.64,58.78,64.4,66.31,48l22.41,49h-6.3C77.11,85,71.74,73,66.27,60.73Z" style="fill: #005092"/>
      <path d="M197,56l-4.55,2.73c-.25-.34-.5-.67-.73-1-3.18-4.56-9.69-4.13-12.87-1.05C176.15,59.29,176,63.59,180,66a56.63,56.63,0,0,0,7.3,3.32,24.58,24.58,0,0,1,7.31,4.33c3.23,3,4.29,6.8,3.94,11a13.87,13.87,0,0,1-4.85,9.69,15.27,15.27,0,0,1-7.94,3.47,14.22,14.22,0,0,1-9.13-1.6c-4.14-2.23-6.41-5.84-7.41-10.33a5.29,5.29,0,0,1,0-1.06l5.45-1.15a23,23,0,0,0,1.26,4.08,8.67,8.67,0,0,0,6.87,4.69c6.83,1,11.19-5.68,9.72-11.3a7.27,7.27,0,0,0-3.73-4.66c-2.46-1.33-5.05-2.42-7.59-3.6a31.17,31.17,0,0,1-6-3.43c-5.48-4.22-5.12-12.49-.45-16.78a15.34,15.34,0,0,1,16.7-2.28A13.6,13.6,0,0,1,197,56Z" style="fill: #005092"/>
    </g>
  </g>
</svg>
