<svg id="e28f8a44-7847-4098-a18e-86502c22b7f2" data-name="Layer 1" xmlns="http://www.w3.org/2000/svg" width="320" height="100" viewBox="0 0 320 100">
  <g>
    <g>
      <path d="M26.47,16a8.36,8.36,0,0,0-5.27-2c-1.46,0-3.41.85-3.41,2.56s2.15,2.47,3.53,2.92l2,.6c4.26,1.26,7.55,3.41,7.55,8.36,0,3.05-.73,6.17-3.17,8.24a13.41,13.41,0,0,1-8.68,2.88A18.89,18.89,0,0,1,8.29,36l3.41-6.41c2,1.75,4.34,3.17,7.06,3.17,1.87,0,3.86-.94,3.86-3.09s-3.13-3-4.83-3.49c-5-1.42-8.28-2.72-8.28-8.64,0-6.21,4.42-10.27,10.55-10.27a21,21,0,0,1,9.58,2.52Z" style="fill: #e42313"/>
      <path d="M40.88,5V20.5H41a7.7,7.7,0,0,1,6.65-3.33c5.29,0,7.84,3.49,7.84,8.77V38.68H48.06V28c0-2.44-.36-5-3.33-5s-3.85,2.51-3.85,5V38.68H33.5V5Z" style="fill: #e42313"/>
      <path d="M80.69,29.51H65.15c0,3,1.59,4.62,4.63,4.62a3.69,3.69,0,0,0,3.53-1.9h7.1c-1.18,4.91-5.84,7.14-10.59,7.14-6.9,0-12-3.89-12-11.08,0-6.94,4.74-11.12,11.52-11.12,7.23,0,11.4,4.47,11.4,11.57Zm-6.85-4.26a4.44,4.44,0,0,0-8.57,0Z" style="fill: #e42313"/>
      <rect x="83.49" y="5" width="7.38" height="33.68" style="fill: #e42313"/>
      <rect x="94.73" y="5" width="7.38" height="33.68" style="fill: #e42313"/>
    </g>
    <g>
      <path d="M313,94.29H292.05c-.31-1.89-.6-3.66-.9-5.51-.5,0-.9-.09-1.3-.09-4,0-8,0-11.92,0A1.76,1.76,0,0,0,276,90c-.36,1.06-1,2-1.34,3.09a1.78,1.78,0,0,1-2,1.28c-4.92,0-9.84,0-14.76,0-1.19,0-2.37,0-3.56,0-.4,0-.79-.08-1.47-.16.72-1.2,1.32-2.25,1.95-3.28l10.78-17.72,10.79-17.71c.61-1,1.17-2.06,1.83-3a7.49,7.49,0,0,1,6.72-3.57c5.16.07,10.31,0,15.47,0,1.88,0,1.93.1,2.35,1.89.81,3.45,1.69,6.87,2.51,10.31q2.67,11.19,5.29,22.39c.71,3,1.42,6,2.15,8.94a4,4,0,0,0,.35.79ZM282.39,77.4a18.86,18.86,0,0,0,7.17-.14c-.07-1.36-.11-2.77-.23-4.17s-.33-2.92-.51-4.37.07-2.74-.22-4.08l-.39,0C286.3,68.81,284.38,73,282.39,77.4Z" style="fill: #e42313"/>
      <path d="M118.32,72.45a5.73,5.73,0,0,0,.61-.92c1.41-4.24,3.9-8,5.87-11.92,1.6-3.22,3.43-6.33,5.09-9.53a1.93,1.93,0,0,1,1.94-1.19c5.69,0,11.38,0,17.07,0,.57,0,1.15.09,1.86.15.16,15.1.52,30.05.36,45-1.55.38-16.75.47-19.1.12-.28-2,.27-3.92.28-5.89s.42-4,.59-6,.27-3.88.41-5.82.27-4,.43-6.36c-.37.56-.52.73-.62.93-2.56,5.54-5.85,10.66-8.92,15.91q-1.83,3.13-3.64,6.29c-.34.58-.69,1.1-1.48,1.09-3.55,0-7.1,0-10.79,0-1.59-7.86-2.84-15.68-4.18-23.82C102,77.32,100,83.8,98,90.3a5.29,5.29,0,0,1-5.28,4c-4.85.17-9.71,0-14.57,0a2.17,2.17,0,0,1-.61-.24C78.29,92,79,90,79.79,87.92q4-10.51,8.06-21c1.7-4.41,3.45-8.8,5.16-13.2.47-1.21.89-2.44,1.31-3.67a1.58,1.58,0,0,1,1.74-1.16c5.92,0,11.85,0,17.78,0,1.48,0,1.57.16,1.74,1.59.42,3.51.9,7,1.33,10.52.41,3.33.78,6.67,1.17,10C118.12,71.38,118.2,71.77,118.32,72.45Z" style="fill: #e42313"/>
      <path d="M39.82,76.54C40.93,78,42.08,79.26,43,80.69c2.63,4.14,5.16,8.34,7.72,12.52.15.24.27.5.38.69-.09.15-.11.21-.14.25a.36.36,0,0,1-.15.1c-.41,0-.82.09-1.23.09H28.27l-5.7-14.11c-1.41,4.58-2,9.28-3.06,14.06-6.49.06-12.91.07-19.51,0,.54-2.89,1-5.54,1.53-8.19q1.68-9,3.39-18.07c.85-4.46,1.75-8.91,2.61-13.37.26-1.38.43-2.79.72-4.17.33-1.55.45-1.61,2-1.61,3,0,5.93,0,8.89,0,4.74,0,9.48-.06,14.22.06a29.79,29.79,0,0,1,12.1,2.34c3.73,1.73,6.26,4.43,7,8.53.45,2.38-.15,4.69-.73,7C50.58,71.45,47.23,74,43,75.55,41.94,75.94,40.85,76.22,39.82,76.54ZM24.46,69a19.55,19.55,0,0,0,5.44-.61,3.69,3.69,0,0,0,2.75-3.86c0-1.43-.29-1.9-1.6-2.41a12.16,12.16,0,0,0-5.28-.38Z" style="fill: #e42313"/>
      <path d="M181.5,49.08c-.19,1.3-.33,2.46-.54,3.6q-1.91,10.26-3.85,20.51c-.17.92-.39,1.84-.55,2.77-.4,2.19.44,4.18,3.15,4.62a9.47,9.47,0,0,0,4.21-.24,3.23,3.23,0,0,0,2.18-2,22.8,22.8,0,0,0,1.23-3.86c1.09-5.55,2.11-11.11,3.15-16.67.4-2.21.78-4.41,1.17-6.62.06-.35.18-.69.22-1,.1-.93.61-1.3,1.55-1.3,5.87,0,11.73,0,17.6,0a5.76,5.76,0,0,1,1,.23c-.21,1.15-.4,2.23-.6,3.31-1,5.56-1.92,11.15-3.11,16.68-.81,3.74-1.22,7.56-2.52,11.21a20.21,20.21,0,0,1-12.42,12.54A25.81,25.81,0,0,1,185,94.7c-2.9.1-5.8.4-8.69.27a30,30,0,0,1-11.71-2.53c-4.74-2.24-7.74-5.82-8.33-11.06a21.41,21.41,0,0,1,.42-5.79c.55-3.44,1.28-6.84,1.92-10.26,1-5,1.89-10.07,2.85-15.11.22-1.18.31-1.29,1.47-1.3l17.6,0A8.48,8.48,0,0,1,181.5,49.08Z" style="fill: #e42313"/>
      <path d="M218.51,49h19c.2,0,.4.19.75.36-1.9,10-3.78,19.88-5.71,30a28.87,28.87,0,0,0,2.93.33c5,0,10.06,0,15.09,0,1,0,2.09-.12,3.19-.19.48,1.46-.15,2.69-.32,3.93-.35,2.39-.87,4.75-1.32,7.12a3.51,3.51,0,0,1-1.68,2.57,7.77,7.77,0,0,1-4.18,1.24q-13.69,0-27.38,0h-7.12c-.57,0-1.15,0-2-.09.15-1,.26-1.94.43-2.84q2.25-11.89,4.53-23.8c.47-2.49,1-5,1.45-7.46.61-3.18,1.19-6.37,1.81-9.56A16,16,0,0,1,218.51,49Z" style="fill: #e42313"/>
      <path d="M82.78,49.1c-.4,2.11-.76,4-1.13,5.91-1.11,5.78-2.25,11.57-3.35,17.36S76.15,84,75,89.74c-.63,3.24-2.36,4.6-5.69,4.6l-13,0h-2a12.8,12.8,0,0,1,.1-1.65c1.33-7,2.69-14,4-21s2.66-14.26,4-21.38c.25-1.33.29-1.37,1.57-1.38q8.53,0,17.07,0A12.57,12.57,0,0,1,82.78,49.1Z" style="fill: #e42313"/>
    </g>
  </g>
</svg>
