<svg xmlns="http://www.w3.org/2000/svg" xmlns:xlink="http://www.w3.org/1999/xlink" width="129.51" height="40.4" viewBox="0 0 129.51 40.4">
  <defs>
    <linearGradient id="ee1a2543-3db2-4d82-93bd-7525d59a42a4" data-name="New Gradient Swatch 9" x1="129.51" y1="18.85" x2="0" y2="18.85" gradientUnits="userSpaceOnUse">
      <stop offset="0" stop-color="#a00000"/>
      <stop offset="1" stop-color="red"/>
    </linearGradient>
  </defs>
  <g id="fd891293-e6d7-443a-8f99-c9ee947eac6f" data-name="Layer 2">
    <g id="adb0c3fd-6151-4cd5-bd46-68983da468e8" data-name="Layer 1">
      <g>
        <path d="M8.84,12.86V14c0,.78,1,1.2,2.21,1.2s1.95-.42,1.95-1c0-1.09-2-1.48-3.8-2.18C6.63,11,4.31,9.8,4.31,6.42,4.31,1.94,8,.75,11.39.75S18,2,18,4.54V6.46l-5,1v-1c0-.57-.71-.89-1.69-.89-.81,0-1.43.21-1.43.84,0,.93,1.37,1.43,2.88,1.95,2.89,1,5.8,2.08,5.8,5.64,0,4.57-4,6.06-7.59,6.06-3.75,0-7.2-1.67-7.2-4.81v-1.4Z" style="fill: #1a1a1a"/>
        <path d="M20.11,10.11H18.47V6.26h1.82V2.65h5.26V6.26H28.2v3.85H25.55v4.05c0,1.12,1.4,1.3,2.21,1.3h.59v4.35a12.53,12.53,0,0,1-1.38.07c-2.34,0-6.86-.59-6.86-5.12Z" style="fill: #1a1a1a"/>
        <path d="M35.84,11.59h.78V11c0-.62-.73-.86-1.46-.86a8.25,8.25,0,0,0-3.66,1.28L29.68,7.77A10.82,10.82,0,0,1,35.81,6c3.93,0,6.24,2,6.24,5.64v3.74a.54.54,0,0,0,.58.58h.83v3.84H39a1.71,1.71,0,0,1-1.87-1.66v0a.8.8,0,0,1,0-.2h-.06A4.25,4.25,0,0,1,33.29,20,4.08,4.08,0,0,1,29,16C29,12.14,33.81,11.59,35.84,11.59Zm-.75,4.86a1.79,1.79,0,0,0,1.61-1.92V14h-.31c-1.64,0-2.21.78-2.21,1.48A.89.89,0,0,0,35.09,16.45Z" style="fill: #1a1a1a"/>
        <path d="M69.3,15.88a.52.52,0,0,1-.57-.57v-9H61.65v3.85h1.64v2c0,1.71-.68,3.27-2.1,3.27-.68,0-1-.31-1-1.22V6.26H49.67V2.65H44.41V6.26H42.6v3.85h1.63v4.65c0,4.53,4.53,5.12,6.87,5.12a12.76,12.76,0,0,0,1.38-.07V15.46h-.6c-.81,0-2.21-.18-2.21-1.3V10.11h5.09v5c0,3.88,2.26,5,4.5,5a4.32,4.32,0,0,0,4.29-2.63h.05a5.21,5.21,0,0,0-.05.65c0,1.09.68,1.66,2,1.66h4.79V15.88Z" style="fill: #1a1a1a"/>
        <path d="M70.88,15.29l4.5-.5v.6c0,.33.31.65,1.35.65s1.25-.26,1.25-.6c0-.57-.67-.6-2.31-1.15-2.11-.7-4.35-1.66-4.35-4.26,0-3.2,3.54-4.08,6.06-4.08,2.34,0,5.52.73,5.52,3v1.42l-4.5.5v-.46c0-.24-.18-.47-.81-.47s-.88.23-.88.54c0,.68,1.19.89,2,1.12,2.08.52,4.63,1.38,4.63,4.06,0,3-3.3,4.37-6.34,4.37-2.63,0-6.14-1-6.14-3.31Z" style="fill: #1a1a1a"/>
        <path d="M117.64,4.91H116V1.06h7.07V14c0,1.32.21,1.63,1.17,1.63l.47,0v4.26a13.33,13.33,0,0,1-1.46.08c-2.62,0-5.61-.49-5.61-5.67Z" style="fill: #1a1a1a"/>
        <path d="M118.12,29.91l-2.85,2.86a.48.48,0,0,1-.68,0L102.16,20.34a2,2,0,0,1,0-2.83l.11-.11a10,10,0,0,1-12,1.12,10.08,10.08,0,0,1-2.3-2,10,10,0,1,1,14.88.22,2,2,0,0,1,2.81,0l12.42,12.43A.48.48,0,0,1,118.12,29.91Z" style="fill: #1a1a1a"/>
        <path d="M109.11,1.06V5h5.22V1.06Zm5.33,14.85V6.26h-7.08v3.85H109v5.8h-1.51v1.28l2.56,2.56H116V15.91Z" style="fill: #1a1a1a"/>
        <path d="M99.33,8.05,95.52,1.72,91.71,8.06h0a4.48,4.48,0,0,0-.6,2.25c0,.09,0,.19,0,.25a4.41,4.41,0,0,0,8.8,0,2.62,2.62,0,0,0,0-.28A4.44,4.44,0,0,0,99.33,8.05Z" style="fill: #fff"/>
        <g>
          <path d="M22.3,38.94h-2l-.39,1.35H18.29l2.18-6.43h1.66l2.19,6.43H22.7Zm-1-3.62s-.14.71-.26,1.11l-.37,1.25h1.27l-.36-1.25c-.11-.4-.26-1.11-.26-1.11Z" style="fill: #1a1a1a"/>
          <path d="M31.79,33.86h1.59l1.78,3A10.34,10.34,0,0,1,35.7,38h0s-.07-.69-.07-1.1v-3h1.58v6.43H35.64l-1.79-3c-.25-.43-.54-1.1-.54-1.1h0s.07.69.07,1.1v3H31.79Z" style="fill: #1a1a1a"/>
          <path d="M48.71,38.94h-2l-.39,1.35H44.69l2.19-6.43h1.66l2.19,6.43H49.1Zm-1-3.62s-.14.71-.26,1.11l-.37,1.25h1.27L48,36.43c-.12-.4-.26-1.11-.26-1.11Z" style="fill: #1a1a1a"/>
          <path d="M58.19,33.86h1.58v5.08H62.4v1.35H58.19Z" style="fill: #1a1a1a"/>
          <path d="M70.89,37.66l-2.12-3.8h1.79l.73,1.54c.21.45.39.93.39.93h0s.18-.48.39-.93l.72-1.54h1.79l-2.12,3.8v2.63H70.89Z" style="fill: #1a1a1a"/>
          <path d="M82.39,38.29a2.68,2.68,0,0,0,1.53.66c.33,0,.68-.12.68-.51,0-.77-2.9-.74-2.9-2.72a2.07,2.07,0,0,1,2.28-2,2.91,2.91,0,0,1,2.07.73l-.67,1.29A2.42,2.42,0,0,0,84,35.2c-.32,0-.68.14-.68.5,0,.81,2.9.67,2.9,2.7a2.05,2.05,0,0,1-2.27,2,3.3,3.3,0,0,1-2.35-.92Z" style="fill: #1a1a1a"/>
          <path d="M94,33.86h1.58v6.43H94Z" style="fill: #1a1a1a"/>
          <path d="M104.19,38.29a2.68,2.68,0,0,0,1.54.66c.33,0,.68-.12.68-.51,0-.77-2.9-.74-2.9-2.72a2.07,2.07,0,0,1,2.28-2,2.93,2.93,0,0,1,2.07.73l-.67,1.29a2.46,2.46,0,0,0-1.42-.57c-.33,0-.69.14-.69.5,0,.81,2.9.67,2.9,2.7a2.05,2.05,0,0,1-2.27,2,3.33,3.33,0,0,1-2.35-.92Z" style="fill: #1a1a1a"/>
        </g>
        <path d="M129.51,25.5v3H119.07l-3-3Zm-50.43,0H0v3H80.33l8.9-8.9a11.62,11.62,0,0,1-2.28-2ZM95.52,9.19a3.13,3.13,0,0,0-3,2,3.26,3.26,0,0,0,6,0A3.17,3.17,0,0,0,95.52,9.19Z" style="fill: url(#ee1a2543-3db2-4d82-93bd-7525d59a42a4)"/>
      </g>
    </g>
  </g>
</svg>
