<svg xmlns="http://www.w3.org/2000/svg" width="94.14" height="14" viewBox="0 0 94.14 14">
  <title>ammann</title>
  <g id="Layer_2" data-name="Layer 2">
    <g id="Layer_1-2" data-name="Layer 1">
      <g>
        <path d="M24.05,8.35c.47-1.61.89-3.06,1.31-4.52.33-1.15.67-2.3,1-3.45.07-.25.17-.36.45-.36h5.07c.3,0,.36.11.36.38q0,6.6,0,13.21c0,.32-.11.38-.41.38-1.07,0-2.14,0-3.22,0-.41,0-.46-.15-.46-.51,0-2.38,0-4.76.05-7.14a1.87,1.87,0,0,0-.1-.72c-.25.83-.5,1.64-.74,2.47l-1.56,5.54c-.07.24-.16.36-.45.35-.83,0-1.67,0-2.51,0-.35,0-.45-.14-.54-.44C21.57,11,20.83,8.51,20.1,6a.73.73,0,0,0-.2-.33V7.14c0,2.13,0,4.26,0,6.38,0,.39-.11.48-.48.47-1.08,0-2.15,0-3.22,0-.28,0-.38-.05-.38-.35q0-6.63,0-13.26c0-.3.1-.36.38-.36,1.65,0,3.31,0,5,0,.36,0,.45.15.54.44q1.05,3.72,2.12,7.42A4.38,4.38,0,0,0,24.05,8.35Z" style="fill: #020202"/>
        <path d="M38.14,6c0,2.51,0,5,0,7.53,0,.34-.06.47-.44.47-1.09,0-2.18,0-3.27,0-.28,0-.37-.07-.37-.36q0-6.6,0-13.2c0-.31.08-.41.39-.41,1.68,0,3.35,0,5,0,.31,0,.4.12.47.38.72,2.52,1.46,5,2.18,7.56,0,.1,0,.22.19.27.46-1.54.91-3.08,1.36-4.62.3-1,.61-2.09.89-3.14A.5.5,0,0,1,45.18,0q2.4,0,4.8,0c.4,0,.52.09.51.5,0,3.15,0,6.29,0,9.44,0,1.2,0,2.4,0,3.6,0,.32-.05.44-.41.43-1.07,0-2.15,0-3.22,0-.38,0-.44-.12-.43-.46,0-2.43,0-4.87,0-7.31a1,1,0,0,0-.11-.53C46,6.82,45.68,8,45.35,9.1c-.45,1.53-.89,3.06-1.33,4.59a.33.33,0,0,1-.37.3c-.89,0-1.78,0-2.67,0-.36,0-.37-.25-.43-.44-.61-2.07-1.2-4.14-1.79-6.21-.13-.45-.28-.9-.42-1.35a.39.39,0,0,0-.17-.41A.54.54,0,0,0,38.14,6Z" style="fill: #020202"/>
        <path d="M75.44,7.91c0-2.57,0-5,0-7.37,0-.42.1-.55.54-.54C77,0,78,0,79.08,0c.31,0,.44,0,.44.4q0,6.6,0,13.2c0,.33-.12.38-.41.38-1.27,0-2.54,0-3.82,0a.67.67,0,0,1-.7-.44c-1.14-2.32-2.3-4.64-3.46-7a.74.74,0,0,0-.26-.33v3c0,1.42,0,2.84,0,4.26,0,.34-.06.46-.43.45-1.07,0-2.15,0-3.22,0-.32,0-.43-.05-.43-.41q0-6.57,0-13.14c0-.4.15-.44.48-.43,1.27,0,2.54,0,3.81,0a.57.57,0,0,1,.6.4q1.71,3.47,3.44,6.91C75.2,7.47,75.29,7.62,75.44,7.91Z" style="fill: #010101"/>
        <path d="M85.5,6.29c0,2.36,0,4.72,0,7.08,0,.49-.1.65-.62.63-1-.05-2,0-3,0-.35,0-.42-.1-.41-.42q0-6.56,0-13.1c0-.4.14-.47.5-.47q1.83,0,3.66,0a.73.73,0,0,1,.78.47C87.48,2.75,88.62,5,89.75,7.29c.08.16.17.31.27.51a.73.73,0,0,0,.07-.49c0-2.27,0-4.54,0-6.81,0-.37.07-.51.47-.5,1.06,0,2.11,0,3.17,0,.32,0,.43.07.43.42,0,4.4,0,8.8,0,13.2,0,.27,0,.38-.35.37-1.33,0-2.65,0-4,0-.33,0-.44-.16-.56-.4C88.11,11.31,87,9,85.82,6.73l-.24-.46Z" style="fill: #010101"/>
        <path d="M9.57,0a.55.55,0,0,1,.63.42c1.18,3.08,2.38,6.14,3.58,9.21L15.48,14h-4.6c-.29,0-.31-.19-.38-.37-.61-1.78-1.23-3.55-1.85-5.33-.3-.87-.6-1.74-1-2.76l-1,2.88c-.61,1.75-1.22,3.49-1.81,5.24a.4.4,0,0,1-.45.34c-1.37,0-2.73,0-4.1,0-.42,0-.37-.15-.26-.43q2-5.24,4.09-10.47c.34-.9.7-1.79,1-2.69A.48.48,0,0,1,5.75,0Z" style="fill: #020202"/>
        <path d="M58.59,5.67c-.92,2.65-1.83,5.25-2.72,7.86a.56.56,0,0,1-.65.46c-1.43,0-2.86,0-4.36,0,.59-1.51,1.14-3,1.71-4.41,1.18-3,2.37-6,3.54-9.07A.64.64,0,0,1,56.82,0c1.25,0,2.51,0,3.76,0a.47.47,0,0,1,.53.34Q63.68,7,66.25,13.58c0,.12.07.24.12.4-1.54,0-3.05,0-4.56,0-.32,0-.33-.21-.4-.4L58.86,6.18A.8.8,0,0,0,58.59,5.67Z" style="fill: #e32231"/>
        <path d="M38.14,6a.54.54,0,0,1,0-.41.39.39,0,0,1,.17.41Z" style="fill: #b0b0b0"/>
      </g>
    </g>
  </g>
</svg>
