<svg xmlns="http://www.w3.org/2000/svg" width="75.7" height="25" viewBox="0 0 75.7 25">
  <title>kohler</title>
  <g id="Layer_2" data-name="Layer 2">
    <g id="Layer_1-2" data-name="Layer 1">
      <g>
        <path d="M75,14.71c0,.26-.13.37-.38.39l.34.6h-.34l-.32-.6h-.23v.6h-.32V14.27h.7c.33,0,.55.06.55.44m-.54.17c.16,0,.25,0,.25-.21s-.19-.15-.33-.15h-.31v.36h.39m-.16-1.26A1.38,1.38,0,1,1,73,15a1.38,1.38,0,0,1,1.37-1.39m0,2.44a1.06,1.06,0,1,0-1-1,1,1,0,0,0,1,1M65.63.45c4.6,0,7.52,5.76,2.48,9.16l4.34,6.09H67.89L64.49,11V15.7H60.41V.45h5.22m0,6.47a1.47,1.47,0,0,0,0-2.94H64.48V6.92h1.18M55.24,9.8H59.1V6.38H55.24V4h4.19V.45H51V15.7h8.5V12.12H55.25V9.8ZM19.12,0A7.91,7.91,0,0,1,27,8,7.87,7.87,0,1,1,11.26,8,7.91,7.91,0,0,1,19.12,0m0,11.86A3.74,3.74,0,0,0,22.66,8,3.74,3.74,0,0,0,19.12,4,3.75,3.75,0,0,0,15.58,8a3.74,3.74,0,0,0,3.54,3.91M0,.45V15.7H4.17V10.26h0l4.68,5.45h5.51l-6.88-8,6-7.26H8.11L4.17,5V.45ZM36.06,5.8H31.85V.45H27.68V15.7h4.17V10h4.21V15.7h4.16V.45H36.06V5.8Zm9.38,6h4.68v3.9H41.27V.45h4.17V11.8Z" style="fill: #081f2d"/>
        <path d="M0,19H1.38v5.88H0V19Zm2.23,0H3.82L5,22.83H5V19H6.25v5.88H4.69L3.48,20.83h0v4.05H2.23V19Zm7.85,2.56h.38c.55,0,.68-.35.68-.74S11,20,10.43,20h-.35v1.53ZM8.69,19h2.14a1.61,1.61,0,0,1,1.74,1.79c0,1.05-.5,1.79-1.88,1.79h-.61v2.3H8.69V19ZM17,21.94C17,23.58,16.92,25,15,25s-2.06-1.18-2.06-3.06.24-3.05,2.06-3.05S17,20.31,17,21.94m-2.7,0c0,1.62.07,2.14.63,2.14s.64-.52.64-2.14-.08-2.13-.64-2.13-.63.52-.63,2.13m3-2.94h1.39l.51,4.19h0L19.86,19h1.29l.66,4.19h0l.5-4.19h1.33l-1,5.88H21.1l-.6-4.17h0l-.57,4.17H18.38l-1-5.88Zm6.85,0h3.4v1.12h-2V21.3h1.89v1.12H25.58v1.35h2.1v1.11H24.19V19Zm4.14,0h2.32a1.41,1.41,0,0,1,1.58,1.54c0,.85-.33,1.27-1,1.43v0c.88.13.92.67.94,1.46,0,1.16.08,1.28.27,1.36v.07H31a2.64,2.64,0,0,1-.15-1.19c0-1-.14-1.24-.58-1.24h-.53v2.43H28.33V19Zm1.38,2.48h.43a.67.67,0,0,0,.71-.76c0-.44-.16-.74-.72-.74h-.42v1.5Zm7.44,1.61v.21c0,.44.11.78.6.78a.61.61,0,0,0,.63-.7c0-1.27-2.53-.56-2.53-2.76,0-.94.5-1.73,1.92-1.73s1.88.71,1.88,1.6v.15H38.32A1.18,1.18,0,0,0,38.2,20a.44.44,0,0,0-.42-.21c-.35,0-.55.21-.55.64,0,1.23,2.53.6,2.53,2.68,0,1.34-.74,1.87-2,1.87-1,0-1.94-.3-1.94-1.53v-.38ZM40.42,19H41.8v5.88H40.42V19Zm2.23,0h1.59l1.14,3.83h0V19h1.29v5.88H45.11L43.9,20.83h0v4.05H42.65V19Zm7.29,2.05c0-.86-.1-1.24-.56-1.24s-.6.53-.6,2.07c0,1.75.06,2.2.63,2.2s.58-.59.58-1.5h1.33v.21c0,1.26-.35,2.21-2.06,2.21s-1.91-1.32-1.91-3.1c0-1.5.09-3,2-3,1.22,0,1.89.53,1.89,1.91v.25ZM52,19h3.4v1.12h-2V21.3h1.89v1.12H53.33v1.35h2.11v1.11H52V19Zm6.16,1.84H57V20h.17c1,0,1.29-.55,1.36-.92h1v5.83H58.11v-4ZM62,22c.41,0,.5-.4.5-.93,0-.69-.11-1.11-.51-1.11s-.51.38-.51,1,.08,1,.52,1m-.46,1.55a.88.88,0,0,0,.09.43.35.35,0,0,0,.33.18c.47,0,.59-.36.59-1.65h0a1.07,1.07,0,0,1-1,.51c-.89,0-1.4-.5-1.4-1.81s.37-2.13,1.91-2.13c1.73,0,1.93,1.1,1.93,2.85,0,1.94-.14,3.1-2,3.1-1.06,0-1.68-.43-1.7-1.48ZM64.34,21v-.19c0-1.17.63-1.76,1.88-1.76,1.42,0,1.8.72,1.8,1.63a2.13,2.13,0,0,1-.92,1.9A5.45,5.45,0,0,0,66,23.82H68v1.06H64.31a3.39,3.39,0,0,1,1.32-2.62c1-.88,1-1.13,1-1.57s-.09-.76-.49-.76-.52.62-.52,1.07Zm8,1c0,1.67-.19,3-1.91,3s-1.92-1.09-1.92-3c0-1.68.19-3,1.92-3s1.91,1.1,1.91,3m-2.45,0c0,1.64.07,2.09.54,2.09S71,23.68,71,22s-.06-2.11-.53-2.11-.54.43-.54,2.11m3.38,2.84a.67.67,0,0,0,0-1.33.67.67,0,0,0,0,1.33m-39.81,0a.67.67,0,1,1,.67-.66.67.67,0,0,1-.67.66" style="fill: #081f2d"/>
      </g>
    </g>
  </g>
</svg>
