<svg xmlns="http://www.w3.org/2000/svg" width="112.08" height="20" viewBox="0 0 112.08 20">
  <title>perkins</title>
  <g id="Layer_2" data-name="Layer 2">
    <g id="Layer_1-2" data-name="Layer 1">
      <g>
        <path d="M18.39,11.66a4.49,4.49,0,0,1,1.3,3.21,4.69,4.69,0,0,1-4.7,4.7,4.42,4.42,0,0,1-3.19-1.28L10.07,20,8.34,18.27a4.53,4.53,0,0,1-3.25,1.3A4.51,4.51,0,0,1,1.78,18.2a4.7,4.7,0,0,1-.09-6.54C1.45,11.41.89,10.85,0,10L1.71,8.26A4.48,4.48,0,0,1,.43,5.09,4.56,4.56,0,0,1,1.79,1.76,4.46,4.46,0,0,1,5.09.4,4.5,4.5,0,0,1,8.34,1.7c.26-.25.84-.81,1.73-1.7q.57.54,1.71,1.68A4.51,4.51,0,0,1,15,.4a4.5,4.5,0,0,1,3.32,1.36,4.56,4.56,0,0,1,1.36,3.33,4.55,4.55,0,0,1-1.25,3.17L20.1,10l-1.71,1.71ZM15,2.2A2.6,2.6,0,0,0,13.1,3l4,4a2.63,2.63,0,0,0,.75-1.87,2.85,2.85,0,0,0-.85-2.07A2.79,2.79,0,0,0,15,2.2ZM12.2,4.39a2.78,2.78,0,0,0-.09.74,2.68,2.68,0,0,0,.85,2A2.76,2.76,0,0,0,15,8a3.77,3.77,0,0,0,.73-.06L12.2,4.39Zm4.88,4.83A4.1,4.1,0,0,1,15,9.74,4.48,4.48,0,0,1,11.7,8.38a4.47,4.47,0,0,1-1.36-3.29,4.36,4.36,0,0,1,.47-2l-.74-.83-.76.8a4.68,4.68,0,0,1,.46,2A4.46,4.46,0,0,1,8.4,8.38,4.53,4.53,0,0,1,5.09,9.74a4.8,4.8,0,0,1-2-.45L2.43,10l.67.68a5,5,0,0,1,2-.46,4.57,4.57,0,0,1,3.33,1.37,4.56,4.56,0,0,1,1.36,3.33,4.75,4.75,0,0,1-.43,2l.73.76.7-.73a4.74,4.74,0,0,1-.46-2,4.52,4.52,0,0,1,1.37-3.32,4.57,4.57,0,0,1,5.37-.87L17.8,10l-.72-.73ZM15,12a2.83,2.83,0,0,0-2.84,2.84,3.62,3.62,0,0,0,.06.69L15.66,12A5,5,0,0,0,15,12Zm2.13.95c-.76.8-2.11,2.16-4,4.09A2.78,2.78,0,0,0,17,16.9a2.91,2.91,0,0,0,.84-2.07,2.73,2.73,0,0,0-.74-1.89ZM5.09,2.2a2.78,2.78,0,0,0-2,.86,2.83,2.83,0,0,0-.85,2.07A2.62,2.62,0,0,0,2.93,7L7.08,3a2.86,2.86,0,0,0-2-.79ZM7.92,4.45,4.45,7.91A3.91,3.91,0,0,0,5.09,8a2.87,2.87,0,0,0,2.07-.82,2.7,2.7,0,0,0,.86-2,2.38,2.38,0,0,0-.1-.68ZM5.09,12a5.17,5.17,0,0,0-.57,0l3.37,3.4A3.15,3.15,0,0,0,8,14.83a2.75,2.75,0,0,0-.83-2,2.8,2.8,0,0,0-2-.82ZM3,12.92a2.75,2.75,0,0,0-.72,1.91,2.91,2.91,0,0,0,.84,2.06,2.64,2.64,0,0,0,2,.89A2.59,2.59,0,0,0,7,17L3,12.92Z" style="fill: #00529b;fill-rule: evenodd"/>
        <path d="M25.28,18.92H29V12.49h4.11a5.75,5.75,0,0,0,4.55-1.78,5.71,5.71,0,0,0,1.36-4,5.71,5.71,0,0,0-1.36-3.95A5.75,5.75,0,0,0,33.14,1H25.28V18.92ZM29,4.09H31.9a4.48,4.48,0,0,1,2.31.47,2.37,2.37,0,0,1,1,2.19,2.44,2.44,0,0,1-.93,2.16,4.29,4.29,0,0,1-2.37.52H29V4.09Z" style="fill: #00529b;fill-rule: evenodd"/>
        <path d="M52,13.3a9.09,9.09,0,0,0-1.51-5.49,5.64,5.64,0,0,0-4.8-2.33,6.3,6.3,0,0,0-4.89,2.06A7,7,0,0,0,39,12.45a6.76,6.76,0,0,0,1.69,4.76,6.35,6.35,0,0,0,4.94,2,5.88,5.88,0,0,0,6.09-4.32H48.57a2.1,2.1,0,0,1-1.12,1.21,3.5,3.5,0,0,1-1.65.43c-2.09,0-3.14-1.07-3.14-3.23Zm-9.32-2.24a2.66,2.66,0,0,1,.63-1.74,2.81,2.81,0,0,1,2.29-1c1.51,0,2.44.91,2.77,2.74Z" style="fill: #00529b;fill-rule: evenodd"/>
        <path d="M53,18.9h3.45V13.09c0-2.87,1.25-4.3,3.77-4.3a4.85,4.85,0,0,1,1.19.12V5.62a2,2,0,0,0-.73-.12A5.41,5.41,0,0,0,58.06,6,5.33,5.33,0,0,0,56.36,8h0V5.76H53V18.9Z" style="fill: #00529b"/>
        <path d="M75.07,18.92c-.33,0-1.73,0-4.18,0l-4-6L65.75,14v4.89H62.39V1h3.36v9.3l4.43-4.63h4.18l-4.89,4.9,5.6,8.31Z" style="fill: #00529b"/>
        <path d="M76,18.92h3.57V5.7H76V18.92Zm-.14-16.3a1.92,1.92,0,0,1,.57-1.39,2,2,0,0,1,2.78,0,1.89,1.89,0,0,1,.58,1.39A1.86,1.86,0,0,1,79.23,4a2,2,0,0,1-2.78,0,1.89,1.89,0,0,1-.57-1.39Z" style="fill: #00529b;fill-rule: evenodd"/>
        <path d="M81.21,18.9h3.51V12.17a5.43,5.43,0,0,1,.45-2.51,2.21,2.21,0,0,1,2.1-1.16,2.1,2.1,0,0,1,2.08,1,4.7,4.7,0,0,1,.37,2.13V18.9h3.52V11a6.7,6.7,0,0,0-.94-4c-.73-1-2-1.46-3.92-1.46a4.24,4.24,0,0,0-2.09.58,4.73,4.73,0,0,0-1.66,1.76h-.08V5.71H81.21V18.9Z" style="fill: #00529b"/>
        <path d="M94.35,14.67a3.94,3.94,0,0,0,1.85,3.55,7.69,7.69,0,0,0,4.19,1,7.45,7.45,0,0,0,4.1-1,3.94,3.94,0,0,0,1.78-3.52,3.1,3.1,0,0,0-2-3,9.67,9.67,0,0,0-1.92-.61l-2-.43c-1.35-.31-2-.8-2-1.48S98.89,8,100.16,8c1.68,0,2.52.58,2.52,1.73H106a3.52,3.52,0,0,0-1.69-3.2,7.62,7.62,0,0,0-4-.89q-3.48,0-4.8,1.58a3.87,3.87,0,0,0-.82,2.54,3,3,0,0,0,2.06,2.84,14.2,14.2,0,0,0,2.09.59c1,.21,1.65.39,2.1.52,1.32.4,2,.89,2,1.46a1.42,1.42,0,0,1-.71,1.28,3.3,3.3,0,0,1-1.74.38,3,3,0,0,1-1.86-.53,2.07,2.07,0,0,1-1-1.65Z" style="fill: #00529b"/>
        <path d="M110,5.48a2.21,2.21,0,0,1,1,.27,2,2,0,0,1,.8.79,2.18,2.18,0,0,1,.29,1.07,2.14,2.14,0,0,1-.29,1.06,1.91,1.91,0,0,1-.78.79,2.17,2.17,0,0,1-2.13,0,2.07,2.07,0,0,1-.79-.79,2.13,2.13,0,0,1-.28-1.06,2.18,2.18,0,0,1,.29-1.07,2,2,0,0,1,.8-.79,2.22,2.22,0,0,1,1-.27Zm0,.35a1.86,1.86,0,0,0-.88.23,1.64,1.64,0,0,0-.67.66,1.78,1.78,0,0,0-.24.89,1.8,1.8,0,0,0,.9,1.54,1.75,1.75,0,0,0,1.77,0,1.74,1.74,0,0,0,.66-.66,1.83,1.83,0,0,0,.23-.88,1.78,1.78,0,0,0-.24-.89,1.61,1.61,0,0,0-.66-.66,1.89,1.89,0,0,0-.87-.23Zm-.94,3V6.49h.79a1.64,1.64,0,0,1,.58.07.53.53,0,0,1,.29.22.59.59,0,0,1,.11.33.6.6,0,0,1-.18.44.67.67,0,0,1-.48.21.76.76,0,0,1,.2.12,2.86,2.86,0,0,1,.34.46l.28.45h-.45l-.21-.37a1.81,1.81,0,0,0-.39-.53.46.46,0,0,0-.29-.08h-.22v1Zm.37-1.29h.45a.77.77,0,0,0,.44-.1.3.3,0,0,0,.12-.25.33.33,0,0,0-.06-.19.31.31,0,0,0-.16-.11,1,1,0,0,0-.37,0h-.42V7.5Z" style="fill: #00529b;fill-rule: evenodd"/>
      </g>
    </g>
  </g>
</svg>
