<svg xmlns="http://www.w3.org/2000/svg" width="115.91" height="25" viewBox="0 0 115.91 25">
  <title>sennebogan</title>
  <g id="Layer_2" data-name="Layer 2">
    <g id="Layer_1-2" data-name="Layer 1">
      <path d="M88.18,14.74a.56.56,0,0,1-.49.46H84a.54.54,0,0,1-.55-.62l.76-4.22c.07-.34.25-.56.56-.56h7.32l.64-3.43H83.1a1.66,1.66,0,0,0-1.62,1.34l-.09.5-1.31,7.14-.23,1.23a1.74,1.74,0,0,0,0,.75,1.78,1.78,0,0,0,1.75,1.3h7.26a1.87,1.87,0,0,0,1.83-1.49l1.08-5.87H86.25l-.43,2.46h2.55l-.19,1ZM40.09,6.37,37.52,20.31,28.65,7.44,25.42,25h3.46l1.6-8.67,6,8.67h3.78L43.66,6.37Zm-3.19,11L40.07,0H36.7L35.08,8.81,29,0H25.2L21.75,18.63h3.57l2.6-14.31,9,13ZM15.74,9.8H21.9l.63-3.43H13L10.72,18.63h9.53l.63-3.43H14.73L15,13.73h6.15l.46-2.46H15.47l.27-1.47Zm32.2,0h6l.64-3.43H45.15L42.89,18.63h9.48L53,15.2H46.88l.29-1.47h6.11l.44-2.46h-6l.25-1.47ZM112.7,6.37l-1.21,6.5-3.68-6.5H105l-2.27,12.26h3.18l1.23-6.7,3.73,6.7h2.76l2.26-12.26Zm-104,4.9h-3c-.48,0-.65-.34-.57-.75a.85.85,0,0,1,.83-.72h5l.64-3.43H3.64A1.62,1.62,0,0,0,2,7.64l0,.14-.73,4A1.63,1.63,0,0,0,2,13.5a1.71,1.71,0,0,0,.89.23h3a.64.64,0,0,1,.58.76.74.74,0,0,1-.85.71h-5L0,18.63H7.73a1.86,1.86,0,0,0,1.81-1.41,41.46,41.46,0,0,0,.75-4.33,1.62,1.62,0,0,0-1.61-1.62ZM79.9,8.37l-1.6,8.86a2.1,2.1,0,0,1-2,1.4H68.63a2,2,0,0,1-1.95-2.51c0-.08,1.52-8.35,1.52-8.35A1.83,1.83,0,0,1,70,6.37h8.25A1.57,1.57,0,0,1,79.94,8c0,.09,0,.36,0,.36ZM66.75,8.28,66.25,11l0,.11a1.62,1.62,0,0,1-1.39,1.27,1.59,1.59,0,0,1,.85,1.47,1.64,1.64,0,0,1,0,.22c0,.08-.58,3.15-.58,3.15-.14.79-.73,1.41-2.21,1.41H53.75L56,6.37h9.13A1.53,1.53,0,0,1,66.77,8a2.11,2.11,0,0,1,0,.26ZM96.88,9.8H103l.64-3.43h-9.5L91.86,18.63h9.48L102,15.2H95.86l.27-1.47h6.13l.44-2.46H96.62l.26-1.47Zm-34.5,0H58.85l-.27,1.47h3.53a.77.77,0,0,0,.75-.72c.08-.43-.15-.74-.48-.75Zm13.3-.49H71.5c-.28,0-.42.24-.5.5l-.84,4.63a.6.6,0,0,0,.58.76h4.11a.62.62,0,0,0,.55-.5l.86-4.63a.6.6,0,0,0-.58-.76Zm-14,4.42H58.08l-.27,1.47h3.56a.8.8,0,0,0,.76-.74c0-.38-.13-.74-.49-.73Z" style="fill: #231f20"/>
    </g>
  </g>
</svg>
