<svg xmlns="http://www.w3.org/2000/svg" width="180" height="42.39" viewBox="0 0 180 42.39">
  <title>shell</title>
  <g id="Layer_2" data-name="Layer 2">
    <g id="Layer_1-2" data-name="Layer 1">
      <g>
        <path d="M7.23,32.66l1.11,8.63H20l.63.44a4,4,0,0,0,2.21.66A4,4,0,0,0,25,41.81l.77-.52H37.3l1.09-8.63,6.79-5a17.79,17.79,0,0,0,.5-4.42A22.82,22.82,0,0,0,22.84,0C9.9,0,0,10.41,0,23.25a18.18,18.18,0,0,0,.55,4.47l6.68,4.93" style="fill: #fff"/>
        <path d="M1.23,27.28A15.76,15.76,0,0,1,.78,23a22.07,22.07,0,1,1,44.13-.89V23a15.65,15.65,0,0,1-.45,4.31l-6.8,5-1,8.27H25.43l-.72.53a3.24,3.24,0,0,1-1.88.58,3.36,3.36,0,0,1-2-.72l-.57-.39H9L8,32.24l-6.73-5" style="fill: #ffd300"/>
        <path d="M1.23,27.28A15.76,15.76,0,0,1,.78,23a22.07,22.07,0,1,1,44.13-.89V23a15.65,15.65,0,0,1-.45,4.31l-6.8,5-1,8.27H25.43l-.72.53a3.24,3.24,0,0,1-1.88.58,3.43,3.43,0,0,1-2-.72l-.57-.39H9L8,32.24l-6.73-5m19.41,9.34.95.72a2.39,2.39,0,0,0,1.26.49,2.36,2.36,0,0,0,1.25-.49l.95-.72h8.23l.85-6.79,6.54-4.78a7.11,7.11,0,0,0,.3-2.29,9.42,9.42,0,0,0-.77-3.66v0L28.35,31,39.74,17A9,9,0,0,0,37,12.11l-.05-.06L26.69,29.83l9-19.41-.05-.07A9.14,9.14,0,0,0,31.05,7L24.77,29.11l4.53-23a9.49,9.49,0,0,0-4.63-1.18,5.82,5.82,0,0,0-1,.06l-.84,23.93L21.7,5c-.32,0-.64,0-1,0a9.2,9.2,0,0,0-4.52,1.2l-.09,0,4.79,23L14.62,7.07a9.05,9.05,0,0,0-4.68,3.38L19,29.86l-10.19-18a9.42,9.42,0,0,0-3,5L17.29,31,5.43,19v.05a9.22,9.22,0,0,0-.79,3.8,9,9,0,0,0,.3,2.31l6.7,4.88.83,6.61Z" style="fill: #e42313"/>
        <path d="M78.67,11.29h-.08a.11.11,0,0,1,0-.08v-.07a.12.12,0,0,1,.16,0,.08.08,0,0,1,0,.07.11.11,0,0,1,0,.08h-.08" style="fill-rule: evenodd"/>
        <path d="M73.21,13.77a3,3,0,0,0-1.92-.71c-.53,0-1.24.31-1.24.93s.78.9,1.29,1.06l.72.23c1.54.46,2.74,1.24,2.74,3a3.76,3.76,0,0,1-1.15,3,4.9,4.9,0,0,1-3.16,1.05,6.89,6.89,0,0,1-3.92-1.27l1.24-2.34a3.91,3.91,0,0,0,2.57,1.15c.72,0,1.44-.33,1.44-1.12s-1.14-1.09-1.76-1.27c-1.82-.52-3-1-3-3.15a3.58,3.58,0,0,1,3.44-3.74h0a2.67,2.67,0,0,1,.4,0,7.48,7.48,0,0,1,3.49.92Z" style="fill: #005092"/>
        <path d="M78.5,9.78v5.67h0a2.82,2.82,0,0,1,2.42-1.19c1.93,0,2.88,1.28,2.88,3.2V22.1H81.11V18.17c0-.89-.13-1.81-1.22-1.81s-1.44.92-1.44,1.81v3.89H75.77V9.78Z" style="fill: #005092"/>
        <path d="M93,18.71H87.3a1.52,1.52,0,0,0,1.31,1.69,2.41,2.41,0,0,0,.38,0,1.34,1.34,0,0,0,1.28-.72h2.61A3.72,3.72,0,0,1,89,22.28c-2.51,0-4.39-1.44-4.39-4s1.73-4,4.2-4A3.85,3.85,0,0,1,93,18.4Zm-2.49-1.57a1.61,1.61,0,0,0-3.12,0Z" style="fill: #005092"/>
        <rect x="93.82" y="9.78" width="2.69" height="12.27" style="fill: #005092"/>
        <rect x="97.92" y="9.78" width="2.69" height="12.27" style="fill: #005092"/>
        <polygon points="109.67 19.6 113.14 19.6 113.14 22.06 106.77 22.06 106.77 10.91 109.67 10.91 109.67 19.6" style="fill: #005092"/>
        <path d="M116.3,14.47v4c0,1,.24,1.64,1.36,1.64s1.34-.68,1.34-1.64v-4h2.69V19c0,2.51-1.76,3.27-4,3.27s-4-.76-4-3.27V14.47Z" style="fill: #005092"/>
        <path d="M123,9.78h2.69v5.43a3.11,3.11,0,0,1,2.35-1,4.06,4.06,0,0,1,0,8.09,2.68,2.68,0,0,1-2.32-1.11h0v.85H123Zm2.6,8.49a1.73,1.73,0,1,0,1.84-1.62h-.22a1.74,1.74,0,0,0-1.62,1.62" style="fill: #005092"/>
        <path d="M135.43,15.7h0a2.63,2.63,0,0,1,2.45-1.34h.52v2.58a2.26,2.26,0,0,0-1.14-.25c-1.49,0-1.87,1-1.87,2.3v3.06h-2.68V14.47h2.68Z" style="fill: #005092"/>
        <path d="M141.93,11.56a1.51,1.51,0,1,1-1.51-1.51,1.52,1.52,0,0,1,1.51,1.51h0m-.17,10.5h-2.69V14.47h2.69Z" style="fill: #005092"/>
        <path d="M148.64,16.94a2.28,2.28,0,0,0-1.39-.53,1.81,1.81,0,0,0-1.85,1.79v.05a1.79,1.79,0,0,0,1.73,1.86h.16a2.08,2.08,0,0,0,1.35-.52v2.28a4.44,4.44,0,0,1-1.9.43,4,4,0,0,1-4.11-3.87h0v-.11a4.08,4.08,0,0,1,4-4.13h.24a3.71,3.71,0,0,1,1.78.45Z" style="fill: #005092"/>
        <path d="M158.16,22.06h-2.69V21.2h0a2.68,2.68,0,0,1-2.29,1.1,3.9,3.9,0,0,1-3.83-4h0v-.07a3.86,3.86,0,0,1,3.68-4h.12a3.11,3.11,0,0,1,2.35,1v-.71h2.69Zm-6.06-3.79a1.73,1.73,0,1,0,1.84-1.62h-.22a1.74,1.74,0,0,0-1.62,1.62" style="fill: #005092"/>
        <path d="M162.19,15.45h0a2.65,2.65,0,0,1,2.43-1.19c2,0,2.88,1.29,2.88,3.15V22.1h-2.7V18.36c0-.72.12-2-1.21-2-1.09,0-1.43.81-1.43,1.76V22h-2.69V14.47h2.69Z" style="fill: #005092"/>
        <polygon points="171.85 22.06 169.16 22.06 169.16 16.69 168.29 16.69 168.29 14.47 169.16 14.47 169.16 12.19 171.85 12.19 171.85 14.47 173.37 14.47 173.37 16.69 171.85 16.69 171.85 22.06" style="fill: #005092"/>
        <path d="M178.87,16.42a3.42,3.42,0,0,0-1.44-.37c-.31,0-.84.13-.84.52s.84.59,1.21.66c1.26.25,2.2.84,2.2,2.25,0,2-1.82,2.83-3.59,2.83a5.94,5.94,0,0,1-3-.86l1-1.87a4.4,4.4,0,0,0,2.16.77c.34,0,.84-.17.84-.58,0-.59-.84-.63-1.68-.84a1.92,1.92,0,0,1-1.76-2c0-1.86,1.69-2.69,3.35-2.69a5.8,5.8,0,0,1,2.49.49Z" style="fill: #005092"/>
        <path d="M66.86,25.46H71a5.58,5.58,0,1,1,.41,11.15H66.86Zm2.87,8.69h.65A2.93,2.93,0,0,0,73.59,31a2.94,2.94,0,0,0-2.73-3.12,3.38,3.38,0,0,0-.45,0h-.68Z" style="fill: #005092"/>
        <path d="M80.4,26.11a1.51,1.51,0,1,1-1.51-1.51h0a1.5,1.5,0,0,1,1.5,1.5h0M80.23,36.6H77.54V29h2.69Z" style="fill: #005092"/>
        <path d="M86.65,31a3.45,3.45,0,0,0-1.44-.37c-.31,0-.85.13-.85.52s.85.59,1.22.66c1.26.25,2.2.84,2.2,2.25,0,2-1.82,2.83-3.6,2.83A5.91,5.91,0,0,1,81.12,36l1-1.84a4.41,4.41,0,0,0,2.16.72c.34,0,.84-.17.84-.58,0-.58-.84-.62-1.68-.84a1.92,1.92,0,0,1-1.69-2c0-1.87,1.69-2.69,3.34-2.69a5.64,5.64,0,0,1,2.5.49Z" style="fill: #005092"/>
        <polygon points="91.8 36.6 89.11 36.6 89.11 31.24 88.23 31.24 88.23 29.02 89.11 29.02 89.11 26.74 91.8 26.74 91.8 29.02 93.32 29.02 93.32 31.24 91.8 31.24 91.8 36.6" style="fill: #005092"/>
        <path d="M96.57,30.26h0A2.67,2.67,0,0,1,99,28.91h.51v2.61a2.05,2.05,0,0,0-1.14-.25c-1.49,0-1.86,1-1.86,2.29v3.06H93.88V29h2.69Z" style="fill: #005092"/>
        <path d="M103.06,26.11a1.51,1.51,0,1,1-1.51-1.51,1.51,1.51,0,0,1,1.51,1.51h0M102.9,36.6h-2.69V29h2.69Z" style="fill: #005092"/>
        <path d="M104.21,24.33h2.69v5.43a3.09,3.09,0,0,1,2.35-1,4,4,0,0,1,0,8.09,2.65,2.65,0,0,1-2.28-1.1h0v.85h-2.69Zm2.61,8.48a1.73,1.73,0,1,0,1.84-1.62h-.23a1.72,1.72,0,0,0-1.61,1.62" style="fill: #005092"/>
        <path d="M116.66,29v4.05c0,1,.24,1.64,1.35,1.64s1.34-.68,1.34-1.64V29H122v4.57c0,2.5-1.76,3.27-4,3.27s-4-.77-4-3.27V29Z" style="fill: #005092"/>
        <polygon points="126.33 36.6 123.64 36.6 123.64 31.24 122.77 31.24 122.77 29.02 123.64 29.02 123.64 26.74 126.33 26.74 126.33 29.02 127.85 29.02 127.85 31.24 126.33 31.24 126.33 36.6" style="fill: #005092"/>
        <path d="M137,32.82c0,2.57-2.16,4-4.57,4s-4.57-1.44-4.57-4,2.16-4.05,4.57-4.05S137,30.21,137,32.82m-6.3,0a1.73,1.73,0,1,0,1.84-1.62h-.22a1.74,1.74,0,0,0-1.62,1.62" style="fill: #005092"/>
        <path d="M140.52,30.26h0A2.67,2.67,0,0,1,143,28.91h.51v2.61a2,2,0,0,0-1.13-.25c-1.5,0-1.86,1-1.86,2.29v3.06h-2.7V29h2.7Z" style="fill: #005092"/>
      </g>
    </g>
  </g>
</svg>
