<?xml version="1.0" encoding="utf-8"?>
<!-- Generator: Adobe Illustrator 24.0.3, SVG Export Plug-In . SVG Version: 6.00 Build 0)  -->
<svg version="1.1" id="Layer_1" xmlns="http://www.w3.org/2000/svg" xmlns:xlink="http://www.w3.org/1999/xlink" x="0px" y="0px"
	 viewBox="0 0 310 120" style="enable-background:new 0 0 310 120;" xml:space="preserve">
<style type="text/css">
	.st0{fill:#FFFFFF;}
	.st1{clip-path:url(#SVGID_2_);}
	.st2{fill:#FFD300;}
	.st3{fill:#E42313;}
	.st4{fill-rule:evenodd;clip-rule:evenodd;}
	.st5{fill:#005092;}
</style>
<g id="Layer_2_1_">
	<g id="Layer_1-2">
		<g>
			<rect class="st0" width="310" height="120"/>
			<g>
				<defs>
					<rect id="SVGID_1_" x="29.8" y="30.5" width="250.4" height="58.9"/>
				</defs>
				<clipPath id="SVGID_2_">
					<use xlink:href="#SVGID_1_"  style="overflow:visible;"/>
				</clipPath>
				<g class="st1">
					<path class="st0" d="M39.9,75.9l1.5,12h16.2l0.9,0.6c0.9,0.6,2,0.9,3.1,0.9c1.1,0,2.1-0.3,3-0.8l1.1-0.7h16.1l1.5-12l9.4-6.9
						c0.5-2,0.7-4.1,0.7-6.2c0-18.7-14.5-32.3-31.8-32.3c-18,0-31.8,14.5-31.8,32.3c0,2.1,0.2,4.2,0.8,6.2L39.9,75.9"/>
					<path class="st2" d="M31.5,68.4c-0.5-2-0.7-4-0.6-6c-0.3-17,13.2-30.9,30.1-31.2S92,44.4,92.3,61.3c0,0.4,0,0.7,0,1.1
						c0.1,2-0.1,4-0.6,6l-9.5,6.9l-1.4,11.5H65.2l-1,0.7c-0.8,0.5-1.7,0.8-2.6,0.8c-1,0-2-0.4-2.8-1L58,86.9H42.3l-1.5-11.5
						L31.5,68.4"/>
					<path class="st3" d="M31.5,68.4c-0.5-2-0.7-4-0.6-6c-0.3-17,13.2-30.9,30.1-31.2S92,44.4,92.3,61.3c0,0.4,0,0.7,0,1.1
						c0.1,2-0.1,4-0.6,6l-9.5,6.9l-1.4,11.5H65.2l-1,0.7c-0.8,0.5-1.7,0.8-2.6,0.8c-1,0-2-0.4-2.8-1L58,86.9H42.3l-1.5-11.5
						L31.5,68.4 M58.5,81.4l1.3,1c0.5,0.4,1.1,0.6,1.8,0.7c0.6-0.1,1.2-0.3,1.8-0.7l1.3-1h11.4l1.2-9.4l9.1-6.6
						c0.3-1,0.5-2.1,0.4-3.2c0-1.8-0.4-3.5-1.1-5.1V57L69.2,73.6l15.8-19.5c-0.5-2.6-1.9-4.9-3.8-6.7l-0.1-0.1L66.9,72l12.5-27
						l-0.1-0.1c-1.6-2.2-3.8-3.8-6.4-4.6L64.3,71l6.3-32c-2-1.1-4.2-1.7-6.4-1.7c-0.5,0-0.9,0-1.4,0.1l-1.2,33.3L60,37.5
						c-0.4-0.1-0.9-0.1-1.3-0.1c-2.2,0-4.4,0.6-6.3,1.7l-0.1,0.1l6.7,31.9l-8.8-30.8c-2.6,0.8-4.9,2.5-6.5,4.7l12.7,27L42.1,47
						c-2.1,1.8-3.6,4.2-4.2,6.9l15.9,19.8L37.4,57v0.1c-0.7,1.6-1.1,3.4-1.1,5.2c0,1.1,0.1,2.2,0.4,3.2l9.3,6.8l1.2,9.2L58.5,81.4z"
						/>
					<path class="st4" d="M139.2,46.2c0,0-0.1,0-0.1,0c0,0,0-0.1,0-0.1c0,0,0-0.1,0-0.1c0.1-0.1,0.2-0.1,0.2,0c0,0,0,0.1,0,0.1
						c0,0,0,0.1,0,0.1C139.3,46.2,139.3,46.2,139.2,46.2"/>
					<path class="st5" d="M131.6,49.7c-0.7-0.6-1.7-1-2.7-1c-0.7,0-1.7,0.4-1.7,1.3s1.1,1.2,1.8,1.5l1,0.3c2.1,0.6,3.8,1.7,3.8,4.2
						c0.1,1.6-0.5,3.1-1.6,4.2c-1.3,1-2.8,1.5-4.4,1.5c-2,0-3.9-0.6-5.4-1.8l1.7-3.2c1,1,2.2,1.5,3.6,1.6c1,0,2-0.5,2-1.6
						s-1.6-1.5-2.4-1.8c-2.5-0.7-4.2-1.4-4.2-4.4c-0.1-2.8,2-5.1,4.8-5.2c0.2,0,0.4,0,0.6,0c1.7,0,3.4,0.5,4.9,1.3L131.6,49.7z"/>
					<path class="st5" d="M139,44.1V52l0,0c0.8-1.1,2-1.7,3.4-1.7c2.7,0,4,1.8,4,4.4v6.5h-3.7v-5.4c0-1.2-0.2-2.5-1.7-2.5
						s-2,1.3-2,2.5v5.4h-3.7V44.1H139z"/>
					<path class="st5" d="M159.1,56.5h-7.9c-0.1,1.1,0.7,2.2,1.8,2.3c0.2,0,0.4,0,0.5,0c0.7,0.1,1.4-0.3,1.8-1h3.6
						c-0.6,2.5-3,3.6-5.4,3.6c-3.5,0-6.1-2-6.1-5.6s2.4-5.6,5.8-5.6c3.7,0,5.8,2.3,5.8,5.9L159.1,56.5z M155.6,54.4
						c-0.3-1.2-1.5-1.9-2.7-1.6c-0.8,0.2-1.4,0.8-1.6,1.6H155.6z"/>
					<rect x="160.3" y="44.1" class="st5" width="3.7" height="17.1"/>
					<rect x="166" y="44.1" class="st5" width="3.7" height="17.1"/>
					<polygon class="st5" points="182.4,57.8 187.2,57.8 187.2,61.2 178.3,61.2 178.3,45.7 182.4,45.7 					"/>
					<path class="st5" d="M191.6,50.6v5.6c0,1.3,0.3,2.3,1.9,2.3s1.9-0.9,1.9-2.3v-5.6h3.7V57c0,3.5-2.4,4.5-5.6,4.5
						s-5.6-1.1-5.6-4.5v-6.4H191.6z"/>
					<path class="st5" d="M200.8,44.1h3.7v7.5c0.8-0.9,2-1.4,3.3-1.4c3.1,0.2,5.4,2.9,5.2,6c-0.2,2.8-2.4,5-5.2,5.2
						c-1.3,0.1-2.5-0.5-3.2-1.5l0,0v1.2h-3.7L200.8,44.1z M204.4,55.9c0.1,1.3,1.2,2.3,2.6,2.2c1.2-0.1,2.2-1,2.2-2.2
						c-0.1-1.3-1.2-2.3-2.6-2.2C205.5,53.7,204.5,54.7,204.4,55.9"/>
					<path class="st5" d="M218.2,52.4L218.2,52.4c0.7-1.2,2.1-2,3.5-1.9h0.7v3.6c-0.5-0.3-1-0.4-1.6-0.3c-2.1,0-2.6,1.4-2.6,3.2v4.3
						h-3.7V50.6h3.7L218.2,52.4z"/>
					<path class="st5" d="M227.2,46.6c0,1.2-0.9,2.1-2.1,2.1c-1.2,0-2.1-0.9-2.1-2.1s0.9-2.1,2.1-2.1
						C226.3,44.5,227.2,45.4,227.2,46.6L227.2,46.6 M227,61.2h-3.8V50.6h3.8V61.2z"/>
					<path class="st5" d="M236.6,54.1c-0.6-0.4-1.2-0.7-1.9-0.7c-1.4,0-2.5,1.1-2.6,2.5c0,0,0,0.1,0,0.1c-0.1,1.4,1,2.5,2.4,2.6
						c0.1,0,0.2,0,0.2,0c0.7,0,1.4-0.3,1.9-0.7v3.2c-0.8,0.4-1.7,0.6-2.6,0.6c-3.1,0.1-5.6-2.3-5.7-5.4c0-0.1,0-0.1,0-0.2
						c-0.1-3.1,2.4-5.7,5.6-5.7c0.1,0,0.2,0,0.3,0c0.9,0,1.7,0.2,2.5,0.6L236.6,54.1z"/>
					<path class="st5" d="M249.8,61.2h-3.7V60l0,0c-0.7,1-1.9,1.6-3.2,1.5c-3-0.1-5.4-2.5-5.3-5.5c0,0,0-0.1,0-0.1
						c-0.1-3,2.2-5.5,5.1-5.6c0.1,0,0.1,0,0.2,0c1.2,0,2.4,0.5,3.3,1.4v-1h3.7L249.8,61.2z M241.4,55.9c0.1,1.3,1.2,2.3,2.6,2.2
						c1.2-0.1,2.2-1,2.2-2.2c-0.1-1.3-1.2-2.3-2.6-2.2C242.4,53.7,241.5,54.7,241.4,55.9"/>
					<path class="st5" d="M255.4,52L255.4,52c0.7-1.1,2-1.8,3.4-1.7c2.8,0,4,1.8,4,4.4v6.5H259V56c0-1,0.2-2.8-1.7-2.8
						c-1.5,0-2,1.1-2,2.5v5.5h-3.7V50.6h3.7L255.4,52z"/>
					<polygon class="st5" points="268.9,61.2 265.1,61.2 265.1,53.7 263.9,53.7 263.9,50.6 265.1,50.6 265.1,47.5 268.9,47.5 
						268.9,50.6 271,50.6 271,53.7 268.9,53.7 					"/>
					<path class="st5" d="M278.6,53.3c-0.6-0.3-1.3-0.5-2-0.5c-0.4,0-1.2,0.2-1.2,0.7c0,0.7,1.2,0.8,1.7,0.9
						c1.8,0.3,3.1,1.2,3.1,3.1c0,2.8-2.5,3.9-5,3.9c-1.5,0-2.9-0.4-4.2-1.2l1.4-2.6c0.9,0.6,1.9,1,3,1.1c0.5,0,1.2-0.2,1.2-0.8
						c0-0.8-1.2-0.9-2.3-1.2c-1.4-0.1-2.5-1.4-2.4-2.8c0-2.6,2.4-3.7,4.6-3.7c1.2,0,2.4,0.2,3.5,0.7L278.6,53.3z"/>
					<path class="st5" d="M122.8,65.9h5.7c4.3-0.2,7.9,3.2,8,7.5c0.2,4.3-3.2,7.9-7.5,8c-0.2,0-0.4,0-0.6,0h-5.7L122.8,65.9z
						 M126.8,78h0.9c2.4,0,4.5-1.3,4.5-4.3c0.1-2.2-1.6-4.2-3.8-4.3c-0.2,0-0.4,0-0.6,0h-0.9V78z"/>
					<path class="st5" d="M141.6,66.8c0,1.2-0.9,2.1-2.1,2.1c-1.2,0-2.1-0.9-2.1-2.1s0.9-2.1,2.1-2.1c0,0,0,0,0,0
						C140.7,64.7,141.6,65.7,141.6,66.8 M141.4,81.4h-3.7V70.9h3.7V81.4z"/>
					<path class="st5" d="M150.3,73.6c-0.6-0.3-1.3-0.5-2-0.5c-0.4,0-1.2,0.2-1.2,0.7c0,0.7,1.2,0.8,1.7,0.9
						c1.8,0.3,3.1,1.2,3.1,3.1c0,2.8-2.5,3.9-5,3.9c-1.5,0-3-0.4-4.3-1.2L144,78c0.9,0.6,1.9,0.9,3,1c0.5,0,1.2-0.2,1.2-0.8
						c0-0.8-1.2-0.9-2.3-1.2c-1.4-0.2-2.4-1.4-2.4-2.8c0-2.6,2.4-3.7,4.6-3.7c1.2,0,2.4,0.2,3.5,0.7L150.3,73.6z"/>
					<polygon class="st5" points="157.5,81.4 153.8,81.4 153.8,74 152.5,74 152.5,70.9 153.8,70.9 153.8,67.7 157.5,67.7 
						157.5,70.9 159.6,70.9 159.6,74 157.5,74 					"/>
					<path class="st5" d="M164.1,72.6L164.1,72.6c0.7-1.2,2-2,3.4-1.9h0.7v3.6c-0.5-0.3-1-0.4-1.6-0.3c-2.1,0-2.6,1.4-2.6,3.2v4.3
						h-3.7V70.9h3.7V72.6z"/>
					<path class="st5" d="M173.2,66.8c0,1.2-0.9,2.1-2.1,2.1c-1.2,0-2.1-0.9-2.1-2.1c0-1.2,0.9-2.1,2.1-2.1
						C172.2,64.7,173.2,65.7,173.2,66.8C173.2,66.8,173.2,66.8,173.2,66.8 M172.9,81.4h-3.7V70.9h3.7V81.4z"/>
					<path class="st5" d="M174.8,64.4h3.7v7.6c0.8-0.9,2-1.4,3.3-1.4c3.1,0.1,5.5,2.8,5.4,5.9c-0.1,2.9-2.5,5.3-5.4,5.4
						c-1.3,0.1-2.4-0.5-3.2-1.5h-0.1v1.2h-3.7L174.8,64.4z M178.4,76.2c0.1,1.3,1.2,2.3,2.6,2.2c1.2-0.1,2.2-1,2.2-2.2
						c-0.1-1.3-1.2-2.3-2.6-2.2C179.4,74,178.5,75,178.4,76.2"/>
					<path class="st5" d="M192.1,70.9v5.6c0,1.3,0.3,2.3,1.9,2.3s1.9-0.9,1.9-2.3v-5.6h3.7v6.3c0,3.5-2.4,4.6-5.6,4.6
						s-5.6-1.1-5.6-4.6v-6.3H192.1z"/>
					<polygon class="st5" points="205.5,81.4 201.8,81.4 201.8,74 200.6,74 200.6,70.9 201.8,70.9 201.8,67.7 205.5,67.7 
						205.5,70.9 207.6,70.9 207.6,74 205.5,74 					"/>
					<path class="st5" d="M220.4,76.2c0,3.6-3,5.6-6.4,5.6s-6.4-2-6.4-5.6s3-5.6,6.4-5.6S220.4,72.5,220.4,76.2 M211.6,76.2
						c0.1,1.3,1.2,2.3,2.6,2.2c1.2-0.1,2.2-1,2.2-2.2c-0.1-1.3-1.2-2.3-2.6-2.2C212.6,74,211.7,75,211.6,76.2"/>
					<path class="st5" d="M225.3,72.6L225.3,72.6c0.7-1.2,2-1.9,3.4-1.9h0.7v3.6c-0.5-0.3-1-0.4-1.6-0.3c-2.1,0-2.6,1.4-2.6,3.2v4.3
						h-3.8V70.9h3.8L225.3,72.6z"/>
				</g>
			</g>
		</g>
	</g>
</g>
</svg>
