<svg xmlns="http://www.w3.org/2000/svg" width="115.16" height="11" viewBox="0 0 115.16 11">
  <title>terexF</title>
  <g id="Layer_2" data-name="Layer 2">
    <g id="Layer_1-2" data-name="Layer 1">
      <g>
        <path d="M35.14,5.41c0-1.15,0-2.3,0-3.45,0-.36.1-.5.48-.49,2,0,3.93,0,5.9,0a2.63,2.63,0,0,1,2.61,1.76A2.59,2.59,0,0,1,42.5,6.48c-.46.11-.3.25-.13.47L44.1,9.24c.17.22.16.34-.16.34h-.08a6.72,6.72,0,0,1-2-.05c-.62-.21-.86-1-1.3-1.49a2.26,2.26,0,0,1-.36-.47c-.49-1.22-1.53-1.09-2.54-1.06-.27,0-.31.15-.31.38,0,.7,0,1.41,0,2.11s0,.57-.61.58H36c-.93,0-.82.06-.83-.79Zm4.27-2.24h-.92c-1.24,0-1.23,0-1.16,1.22,0,.34.16.41.47.41H41a1.24,1.24,0,0,0,.57-.12A.75.75,0,0,0,42,4a.76.76,0,0,0-.45-.75,1.31,1.31,0,0,0-.65-.13Z" style="fill: #050505"/>
        <path d="M25.86,5.49c0-1.18,0-2.36,0-3.54,0-.37.12-.48.49-.48,2.3,0,4.61,0,6.91,0,.34,0,.43.13.45.44.1,1.4.11,1.4-1.24,1.4H28.58c-.67,0-.58,0-.58.61,0,1.06-.08.88.91.88,1.41,0,2.81,0,4.22,0,.36,0,.47.1.48.47,0,1.11,0,1.11-1.09,1.11h-4c-.54,0-.54,0-.56.56V7c0,1.08-.11.91.87.91h4.22c.59,0,.61,0,.6.61,0,1.21.16,1-1,1H26.52c-.65,0-.66,0-.66-.63Z" style="fill: #050505"/>
        <path d="M45.39,5.5c0-1.18,0-2.36,0-3.54,0-.34.08-.5.47-.49q3.45,0,6.91,0c.34,0,.41.12.43.44.07,1.4.08,1.4-1.3,1.4h-3.8c-.69,0-.62,0-.62.65,0,.92-.08.84.79.84,1.43,0,2.87,0,4.3,0,.35,0,.48.08.49.46,0,1.12,0,1.12-1.09,1.12-1.32,0-2.64,0-4,0-.39,0-.55.09-.54.51C47.5,8.13,47.32,8,48.54,8h4.21c.32,0,.43.09.44.43.05,1.2.06,1.2-1.17,1.2H46c-.55,0-.56,0-.56-.54C45.38,7.86,45.39,6.68,45.39,5.5Z" style="fill: #050505"/>
        <path d="M55.77,1.47a1.84,1.84,0,0,1,2.06,1c.26.36.58.68.88,1,.13.15.25.17.4,0,.45-.54.93-1.05,1.39-1.58a1,1,0,0,1,.86-.41c.64,0,1.29,0,1.94,0,.1,0,.24-.05.29.07s-.06.2-.14.29L61.06,4.55a3.16,3.16,0,0,1-.34.38c-.37.29-.26.51,0,.81,1,1.12,2,2.27,3,3.41.09.1.26.2.2.34s-.24.09-.37.09c-.62,0-1.23,0-1.85,0a1,1,0,0,1-.87-.39c-.54-.65-1.12-1.25-1.66-1.9-.22-.26-.34-.28-.57,0-.54.64-1.12,1.25-1.66,1.9a1,1,0,0,1-.86.4c-.65,0-1.29,0-1.94,0-.11,0-.24,0-.29-.09s.05-.2.13-.28L56.85,6c.6-.67.6-.67,0-1.37C56,3.7,55.2,2.77,54.38,1.84c-.07-.08-.18-.16-.14-.28s.19-.08.28-.08Z" style="fill: #050505"/>
        <path d="M82.72,5.51V2.14c0-.66,0-.62.62-.68a1.37,1.37,0,0,1,1.33.64c1.31,1.68,2.67,3.33,4,5,.14.17.29.35.44.51s.2.06.21-.08,0-.4,0-.59c0-1.63,0-3.26,0-4.89,0-.19-.09-.46.14-.53a1.59,1.59,0,0,1,1,0c.18.09.11.36.11.55,0,1.8,0,3.6,0,5.4,0,.5,0,1,0,1.51s0,.55-.53.6a1.51,1.51,0,0,1-1.49-.67c-1.28-1.67-2.63-3.29-4-4.93l-.37-.45A.26.26,0,0,0,84,3.4s0,.16,0,.24c0,1.35,0,2.7,0,4.05,0,.47,0,1,0,1.43s-.12.51-.48.46h-.25c-.45.08-.5-.16-.49-.53,0-.9,0-1.8,0-2.7Z" style="fill: #050505"/>
        <path d="M20.56,1.47c1.27,0,2.53,0,3.79,0,.38,0,.47.12.48.48,0,1.28.05,1.27-1.26,1.29-.58,0-1.32-.26-1.69.13S21.79,4.44,21.79,5c0,1.37,0,2.75,0,4.12,0,.38-.13.49-.48.47s-.73,0-1.1,0c-.93,0-.82.11-.82-.79V4.16c0-1,.13-.92-1-.93-.62,0-1.24,0-1.85,0-.29,0-.42-.11-.4-.4a.86.86,0,0,0,0-.16c0-1.21,0-1.21,1.18-1.21Z" style="fill: #050505"/>
        <path d="M6.42,11H1c-.81,0-1-.18-1-1Q0,5.51,0,1C0,.22.24,0,1,0h10.8c.74,0,1,.22,1,1,0,3,0,6.07,0,9.11,0,.72-.22.92-1,.93ZM6.51.58H1.28c-.7,0-.67,0-.67.62q0,4.33,0,8.68c0,.36,0,.55.49.55,3.54,0,7.08,0,10.62,0,.42,0,.53-.14.53-.53,0-2.93,0-5.85,0-8.77,0-.53,0-.55-.58-.55C9.93.57,8.22.58,6.51.58Z" style="fill: #050505"/>
        <path d="M106.58,9.58c-.48.14-.74-.13-.91-.62s-.38-.88-.56-1.32a.58.58,0,0,0-.62-.43q-1.51,0-3,0a.57.57,0,0,0-.62.42l-.54,1.23c-.32.74-.32.74-1.08.72-.54,0-.56,0-.35-.49C100,6.69,101,4.3,102.11,1.9c.13-.3.28-.47.62-.43a1.48,1.48,0,0,0,.42,0A.7.7,0,0,1,104,2c.71,1.64,1.46,3.27,2.2,4.9.33.73.67,1.47,1,2.21.2.46.2.46-.26.48ZM102.9,6.17c.4,0,.74,0,1.08,0s.47-.09.32-.42c-.38-.88-.77-1.75-1.14-2.62,0-.11-.09-.23-.22-.21s-.14.15-.18.25c-.24.54-.49,1.07-.69,1.62a3,3,0,0,0-.45,1.32A6.28,6.28,0,0,0,102.9,6.17Z" style="fill: #050505"/>
        <path d="M72.33,5.49c0-1.18,0-2.36,0-3.54,0-.36.12-.48.49-.48,1.79,0,3.59,0,5.39,0,.48,0,.47.23.48.57s-.07.55-.51.54c-1.37,0-2.75,0-4.13,0-.32,0-.45.08-.44.43a12.68,12.68,0,0,1,0,1.51c0,.36.16.41.46.41,1.23,0,2.47,0,3.71,0,.7,0,.67,0,.67.7,0,.37-.16.41-.46.41H74.27c-.76,0-.66,0-.66.69s0,1.68,0,2.53c0,.29-.09.41-.39.38a2,2,0,0,0-.42,0c-.38,0-.48-.14-.48-.5,0-.81,0-1.63,0-2.45Z" style="fill: #050505"/>
        <path d="M110.48,7.86A3.17,3.17,0,0,0,109.56,5c-.84-1-1.59-2.1-2.37-3.16-.23-.32-.2-.36.17-.38h.08a1.47,1.47,0,0,1,1.66.8c.48.82,1.1,1.56,1.65,2.33.39.54.38.52.73,0,.64-.89,1.29-1.77,1.94-2.65a1.59,1.59,0,0,1,1.63-.49c.18.06.1.18,0,.25a5.22,5.22,0,0,1-.34.48c-.9,1.19-1.79,2.38-2.71,3.55a1.46,1.46,0,0,0-.32,1c0,.76,0,1.52,0,2.28,0,.39-.08.59-.51.53h-.17c-.56,0-.56,0-.58-.54Z" style="fill: #050505"/>
        <path d="M92.18,5.49c0-1.15,0-2.31,0-3.46,0-.55,0-.55.55-.55.14,0,.28,0,.42,0s.31.1.3.31,0,.39,0,.59c0,1.83,0,3.65,0,5.48,0,.64,0,.65.65.65h3.54c.71,0,.79.1.7.76,0,.2-.1.31-.3.31H92.48c-.37,0-.3-.25-.3-.46C92.17,7.91,92.18,6.7,92.18,5.49Z" style="fill: #050505"/>
        <path d="M79.83,5.5c0-1.15,0-2.3,0-3.45,0-.58,0-.58.62-.58s.58,0,.59.61c0,2.33,0,4.65,0,7,0,.18.1.46-.15.5a1.5,1.5,0,0,1-1-.06c-.16-.1-.07-.31-.07-.47C79.82,7.85,79.83,6.67,79.83,5.5Z" style="fill: #050505"/>
        <path d="M68,5.5v4.72a5.72,5.72,0,0,1,0,.59c0,.13-.12.16-.24.16s-.24,0-.26-.16a2.83,2.83,0,0,1,0-.5V.53c0-.21-.09-.5.28-.5s.25.31.25.5C68,2.18,68,3.84,68,5.5Z" style="fill: #050505"/>
        <path d="M6.38,9.58H2.17c-.38,0-.55-.08-.54-.51,0-2.35,0-4.71,0-7.07,0-.11,0-.28.07-.31s.24.08.33.17c.52.52,1,1,1.55,1.55.38.36.45.37.82,0C5,2.87,5.54,2.31,6.08,1.74c.24-.26.41-.29.67,0,.52.55,1.06,1.08,1.6,1.61s.5.46,1,0,1-1,1.55-1.55c.08-.07.18-.19.28-.13s.07.2.07.3V5.1c0,1.32,0,2.64,0,4,0,.41-.13.53-.53.52C9.25,9.56,7.82,9.58,6.38,9.58Zm2.45-3h1.42c.21,0,.4,0,.49-.24s-.05-.32-.16-.44c-.48-.5-1-1-1.48-1.48a.37.37,0,0,0-.58,0L7.1,5.8a.49.49,0,0,0-.19.51c.08.24.3.22.49.22ZM4,6.53H5.44c.19,0,.41,0,.48-.22a.48.48,0,0,0-.19-.52L4.42,4.48a.49.49,0,0,0-.8,0L2.25,5.86c-.12.12-.25.24-.17.43s.28.25.49.25Z" style="fill: #bf272e"/>
      </g>
    </g>
  </g>
</svg>
