<svg xmlns="http://www.w3.org/2000/svg" width="619.72" height="145.8" viewBox="0 0 619.72 145.8">
  <g id="Layer_2" data-name="Layer 2">
    <g id="Layer_1-2" data-name="Layer 1">
      <g>
        <polygon points="15.21 88.84 39.95 88.71 53.96 21 70.88 20.94 75.17 0.07 16.64 0.34 12.36 21.21 29.21 21.14 15.21 88.84" style="fill: #231f20"/>
        <path d="M85.84,88.84,93.45,53.5H98c4.35-.07,6.52,1.29,5,8.9-.89,4.28-1.43,8.77-2.31,13.12a27.8,27.8,0,0,0-.82,12.78h26.31V87.08A4.06,4.06,0,0,1,124,84.49a34.43,34.43,0,0,1,1-10.46l1.56-7.28a31.63,31.63,0,0,0,.75-15.43,11.09,11.09,0,0,0-10.26-6.8c9-1,16.11-6.66,19.17-21.41s-2.52-23-19.58-23H79.52L61,88.84Zm14.75-71.1h2.85c5.58,0,8.84,1.7,7.28,9-1.77,8.57-6.46,10.47-10.54,10.47h-3.6Z" style="fill: #231f20"/>
        <path d="M568.49,88.84,576.1,53.5h4.56c4.35-.07,6.52,1.29,5,8.9-.89,4.28-1.43,8.77-2.31,13.12a27.8,27.8,0,0,0-.82,12.78H608.8V87.08a4.06,4.06,0,0,1-2.11-2.59,34.43,34.43,0,0,1,1-10.46l1.56-7.28A31.63,31.63,0,0,0,610,51.32a11.09,11.09,0,0,0-10.26-6.8c9-1,16.11-6.66,19.17-21.41s-2.52-23-19.58-23H562.17L543.68,88.84Zm14.75-71.1h2.85c5.58,0,8.84,1.7,7.28,9-1.77,8.57-6.46,10.47-10.54,10.47h-3.6Z" style="fill: #d30f1e"/>
        <path d="M152.12,88.84l5.3-13.59H174V88.84h25.56L197.05.48,165.91.14l-39.29,88.7Zm25.15-69.47-2.18,36.37H164Z" style="fill: #231f20"/>
        <path d="M240.27,88.84C266.08,88.71,272,63.52,276,44.59c4.36-21.17,4.49-25.67,2-32.82S269.35.34,258.25.34H222.5l-18.38,88.5ZM243.61,18h3.61c7.69,0,7.76,4.63,5.92,13.62l-5.38,25.8C246.4,64.2,244,71,237.76,71h-5.11Z" style="fill: #231f20"/>
        <path d="M376,88.84c25.8-.13,31.73-25.32,35.74-44.25,4.36-21.17,4.5-25.67,2.05-32.82S405.09.34,394,.34H358.25l-18.38,88.5ZM379.36,18H383c7.7,0,7.77,4.63,5.93,13.62l-5.38,25.8C382.15,64.2,379.7,71,373.5,71h-5.11Z" style="fill: #d30f1e"/>
        <path d="M482.26,11.77C479.82,4.62,473.55.33,462.44.33h-10.1c-18.07.09-26.4,12.51-31.11,26.43a148.29,148.29,0,0,0-4.62,17.82c-2.16,10.53-3.29,16.94-3.57,21.58a26.26,26.26,0,0,0,1.53,11.25c2.43,7.15,8.7,11.44,19.79,11.44h10.12c18.08-.09,26.41-12.5,31.12-26.43a152.35,152.35,0,0,0,4.61-17.84c2.16-10.51,3.3-16.92,3.58-21.56A26.28,26.28,0,0,0,482.26,11.77ZM458.05,27.55l-6.91,33.37-.07.25c-1.44,5.06-3.83,9.38-8.35,9.79-4-.83-4.67-3.83-4-8.88l7-33.88a.38.38,0,0,1,.05-.19c1.43-5.06,3.8-9.35,8.35-9.79,4,.86,4.69,3.94,4,9.17Z" style="fill: #d30f1e"/>
        <path d="M549.55,11.77C547.11,4.62,540.85.33,529.73.33H519.64c-18.08.09-26.41,12.51-31.12,26.43a150.2,150.2,0,0,0-4.62,17.82c-2.16,10.53-3.29,16.94-3.57,21.58a26.26,26.26,0,0,0,1.53,11.25c2.44,7.15,8.7,11.44,19.79,11.44h10.12c18.08-.09,26.41-12.5,31.12-26.43a154.45,154.45,0,0,0,4.62-17.84c2.15-10.51,3.29-16.92,3.57-21.56A26.28,26.28,0,0,0,549.55,11.77Zm-24.2,15.78-6.92,33.37-.07.25c-1.44,5.06-3.83,9.38-8.35,9.79-3.95-.83-4.67-3.83-4-8.88l7-33.88a.38.38,0,0,1,0-.19c1.44-5.06,3.8-9.35,8.35-9.79,4,.86,4.69,3.94,4,9.17Z" style="fill: #d30f1e"/>
        <polygon points="325.84 88.57 329.99 68.45 300.35 68.66 303.55 53.23 330.19 53.09 334.2 33.72 307.56 33.85 310.41 20.26 338.89 20.12 343.04 0 289.75 0.27 271.39 88.84 325.84 88.57" style="fill: #231f20"/>
        <polygon points="606.49 110.99 599.41 145.8 0 145.8 7.12 110.99 606.49 110.99" style="fill: #231f20"/>
      </g>
    </g>
  </g>
</svg>
