<svg xmlns="http://www.w3.org/2000/svg" width="136.21" height="30" viewBox="0 0 136.21 30">
  <title>transD-logo</title>
  <g id="Layer_2" data-name="Layer 2">
    <g id="Layer_1-2" data-name="Layer 1">
      <g>
        <polygon points="30.59 17.27 27.99 30 127.27 30 129.86 17.27 30.59 17.27" style="fill: #231f20"/>
        <path d="M114.73,26.41l.28-1.35h-1.33l-.28,1.35Zm-4.4,0,.3-1.46.44-.6.33,2.06h1.46l-.63-3.3L114,20.5h-1.42l-1.52,2.36h0l.5-2.36h-1.39l-1.25,5.91Zm-1.13-3.85.1-.49c.26-1.21-.35-1.71-1.53-1.71a2.08,2.08,0,0,0-2.26,1.88L105,24.67c-.26,1.2.09,1.88,1.37,1.88a2.15,2.15,0,0,0,2.37-1.72l.15-.73H107.5l-.11.54c-.08.36-.22.85-.69.85s-.46-.2-.39-.53l.63-2.92c.08-.39.24-.63.67-.62.26,0,.39.26.28.77l-.08.37Zm-6,1.66h-.8l1-2.65h0Zm-1.58,2.19.41-1.15h1.09l0,1.15h1.4l0-5.91h-1.67l-2.54,5.91Zm-3.27,0a2,2,0,0,0,2.17-1.71c.16-.73.09-1.05-.46-1.41v0A1.69,1.69,0,0,0,101,22c.25-1.19-.49-1.53-1.54-1.53h-1.8l-1.25,5.91Zm.47-4.85c.49,0,.89,0,.77.56s-.43.66-1,.7Zm-.5,2.33c.58,0,1,0,.84.69s-.45.75-1.15.77Zm-6,.19h.46c.31,0,.37.26.33.62s-.17.85-.26,1.37a1.9,1.9,0,0,0,0,.34h1.52v-.08a.46.46,0,0,1-.09-.2c0-.38.21-1.4.27-1.87a.63.63,0,0,0-.52-.77h0a1.65,1.65,0,0,0,1-1.35c.25-1.17-.22-1.63-1.36-1.63h-2L90.4,26.41h1.38Zm.53-2.52c.68,0,1,0,.82.72-.07.36-.25.73-.65.73h-.47Zm-6.39,3.22c-.26,1.21.31,1.77,1.48,1.77a2.06,2.06,0,0,0,2.25-1.77l.91-4.28H89.67l-.94,4.42a.64.64,0,0,1-.59.57c-.39,0-.43-.25-.37-.53l1-4.46H87.33Zm0-2.66c.24-1.13-.28-1.76-1.5-1.76a2.12,2.12,0,0,0-2.26,1.76l-.51,2.41c-.29,1.33,0,2,1.46,2s2-.69,2.3-2Zm-1.92,2.52c-.08.34-.22.85-.66.85s-.41-.51-.33-.85L84,22.22c.08-.37.23-.8.67-.8s.4.43.32.8ZM80.3,20.5H78.9l.67,3.43L79,26.41h1.39L81,23.93l2.15-3.43H81.72L80.6,22.43h0Zm-7.11,1.18h1.08l-1,4.73h1.38l1-4.73h1.12L77,20.5H73.43Zm-.12.44c.24-1.13-.28-1.76-1.5-1.76a2.12,2.12,0,0,0-2.26,1.76l-.51,2.41c-.28,1.33.06,2,1.46,2s2-.69,2.3-2Zm-1.92,2.52c-.08.34-.21.85-.66.85s-.4-.51-.33-.85l.52-2.42c.08-.37.22-.8.67-.8s.39.43.31.8Zm-3.3,1.78.69-3.22H66.66l-.23,1.07h.49l-.1.46c-.08.38-.17.76-.65.76s-.47-.2-.4-.53L66.4,22c.07-.39.23-.63.67-.62s.37.26.26.77l-.07.32h1.39l.09-.44c.26-1.21-.33-1.71-1.52-1.71A2.08,2.08,0,0,0,65,22.24l-.51,2.43c-.23,1.07,0,1.88,1.15,1.88a1.48,1.48,0,0,0,1.34-.66h0l0,.53Zm-5.95,0,.25-1.18H60.26L60.53,24h1.74l.25-1.18H60.78L61,21.68h1.79l.24-1.18H59.88l-1.25,5.91Zm-4.73,0,2.54-5.91H58.33l-1.59,4.14h0l.16-4.14H55.51l0,5.91ZM53.39,23a1.46,1.46,0,0,0,1.5-1.2l.27-1.27H53.91l-.26,1.26h.66a.83.83,0,0,1-.82.76Zm-1.15,3.44.25-1.18H50.61L50.88,24h1.73l.26-1.18H51.13l.24-1.09h1.79l.24-1.18H50.23L49,26.41ZM47.68,20.5H46.34L44.9,24.64h0l.46-4.15H44l-.26,5.91h1.54l1.34-4.16h0l-.46,4.16h1.56L50,20.5H48.66l-1.31,4.14h0Z" style="fill: #fff"/>
        <polygon points="31.82 0.98 31.19 4.05 33.67 4.04 31.61 14 35.25 13.98 37.31 4.02 39.8 4.01 40.43 0.94 31.82 0.98" style="fill: #231f20"/>
        <path d="M43.58,6.41h.53c.6,0,1.29-.28,1.55-1.54.23-1.08-.25-1.33-1.07-1.33h-.42ZM41.07.94l5.47,0c2.51,0,3.33,1.22,2.88,3.39s-1.5,3-2.82,3.15v0a1.63,1.63,0,0,1,1.51,1A4.66,4.66,0,0,1,48,10.75l-.23,1.07a5.08,5.08,0,0,0-.15,1.54.6.6,0,0,0,.31.38l0,.18-3.87,0a4.09,4.09,0,0,1,.12-1.88c.13-.64.21-1.3.34-1.93.23-1.12-.09-1.32-.73-1.31h-.67L42,14l-3.65,0Z" style="fill: #231f20"/>
        <path d="M53.78.87,48,13.92l3.75,0,.78-2,2.44,0v2l3.76,0-.37-13ZM55.45,3.7h0l-.32,5.35H53.5Z" style="fill: #231f20"/>
        <polygon points="67.91 0.8 66.26 8.75 66.22 8.75 66.01 0.81 62.05 0.83 59.36 13.86 62.67 13.84 64.34 5.81 64.37 5.81 64.73 13.83 68.64 13.81 71.33 0.78 67.91 0.8" style="fill: #231f20"/>
        <g>
          <path d="M77.14,4c.11-.55,0-1.06-.64-1.06a1.14,1.14,0,0,0-1,1c-.54,2.59,5.17,1.23,4.21,5.89C79,12.81,77.39,14,74,14c-2.79,0-4.13-.93-3.54-3.8l.08-.34,3.53,0-.12.6c-.13.64,0,1.15.67,1.15s1-.59,1.13-1.16c.18-.84-.1-1-.51-1.29s-1-.52-1.63-.85c-1.77-1-2.27-1.68-1.87-3.62a4.82,4.82,0,0,1,2.09-3.4A5.88,5.88,0,0,1,77,.49c3.68,0,3.92,1.81,3.47,4H77Z" style="fill: #231f20"/>
          <path d="M84.09,11.1h.75c.91,0,1.27-1,1.47-2l.79-3.79c.27-1.32.26-2-.87-2H85.7ZM82.6.72l5.25,0c1.63,0,2.55.63,2.91,1.68s.34,1.71-.3,4.82C89.87,10,89,13.7,85.21,13.72l-5.31,0Z" style="fill: #231f20"/>
        </g>
        <polygon points="92.88 0.67 90.18 13.7 93.83 13.68 96.53 0.65 92.88 0.67" style="fill: #231f20"/>
        <polygon points="97.77 0.64 95.07 13.67 103.08 13.63 103.69 10.67 99.33 10.7 99.8 8.43 103.72 8.41 104.31 5.56 100.39 5.58 100.81 3.58 105 3.56 105.61 0.6 97.77 0.64" style="fill: #231f20"/>
        <path d="M111.22,3.78c.11-.55,0-1.06-.64-1.06a1.14,1.14,0,0,0-1,1c-.54,2.6,5.17,1.23,4.21,5.89-.63,3-2.29,4.24-5.66,4.26-2.79,0-4.12-.93-3.53-3.79l.07-.35,3.54,0-.13.6c-.13.64,0,1.15.68,1.15s1-.59,1.13-1.16c.17-.84-.1-1-.52-1.29s-1-.52-1.62-.85c-1.77-1-2.28-1.68-1.88-3.61a4.89,4.89,0,0,1,2.09-3.41,5.91,5.91,0,0,1,3.14-.82c3.68,0,3.93,1.81,3.48,4l-3.43,0Z" style="fill: #231f20"/>
        <polygon points="116.68 0.54 124.52 0.5 123.91 3.46 119.71 3.48 119.3 5.49 123.22 5.46 122.63 8.31 118.71 8.33 118.24 10.6 122.59 10.57 121.98 13.53 113.98 13.57 116.68 0.54" style="fill: #231f20"/>
        <polygon points="125.8 0.49 129.44 0.47 127.36 10.55 131.33 10.53 130.72 13.48 123.1 13.53 125.8 0.49" style="fill: #231f20"/>
        <path d="M134.57,11.85a.24.24,0,0,0,.27-.18c0-.12,0-.19-.23-.19h-.28l-.08.37Zm-.33.37h-.07l-.14.7h-.45l.37-1.8h.71c.45,0,.72.12.63.56a.62.62,0,0,1-.57.52l.29.72h-.51Zm.45-1.44A1.48,1.48,0,0,0,133.25,12c-.16.78.26,1.24.93,1.23A1.47,1.47,0,0,0,135.61,12c.16-.78-.25-1.23-.92-1.23m.1-.51A1.37,1.37,0,0,1,136.17,12a2.28,2.28,0,0,1-2.1,1.75A1.36,1.36,0,0,1,132.69,12a2.27,2.27,0,0,1,2.1-1.76" style="fill: #231f20"/>
        <polygon points="130.51 7.42 131.16 7.41 130.81 8.35 131.75 8.35 131.63 8.67 130.04 8.68 130.51 7.42" style="fill: #231f20"/>
        <polygon points="132.52 7.73 131.93 7.73 132.05 7.41 133.87 7.4 133.75 7.72 133.17 7.72 132.82 8.66 132.17 8.67 132.52 7.73" style="fill: #231f20"/>
        <g>
          <path d="M134.5,8.33h.31c.43,0,.53-.26.53-.38s-.15-.24-.37-.23h-.24Zm-.31-.93h1c.38,0,.87.14.82.55s-.49.71-1.22.71h-1.05Z" style="fill: #231f20"/>
          <path d="M21.24,0a6.72,6.72,0,0,0-5.59,10.41l4.77-4.76-3.08,0,0-2.37,7.37-.07.09,7.16H22.27l0-2.79-4.7,4.74A6.72,6.72,0,1,0,21.24,0" style="fill: #231f20"/>
          <path d="M6.69.08A6.72,6.72,0,0,0,1.1,10.49L5.87,5.73l-3.08,0,0-2.38,7.37-.06.09,7.15-2.51,0,0-2.8L3,12.43A6.72,6.72,0,1,0,6.69.08" style="fill: #231f20"/>
        </g>
      </g>
    </g>
  </g>
</svg>
