<svg xmlns="http://www.w3.org/2000/svg" width="54.48" height="40" viewBox="0 0 54.48 40">
  <title>yanmar</title>
  <g id="Layer_2" data-name="Layer 2">
    <g id="Layer_1-2" data-name="Layer 1">
      <g>
        <g>
          <path d="M15.77,39.38,15,33.27c0-.33-.08-.57-.72-.57H11c-.41,0-.61,0-.75.28L6.71,39.47c-.15.26,0,.48.22.48H9a.55.55,0,0,0,.57-.31c.21-.37.4-.75.56-1.09a.1.1,0,0,1,.07,0h2.7s.07,0,.07.06l.11,1a.41.41,0,0,0,.48.43h1.73C15.7,40,15.83,39.77,15.77,39.38Zm-3-2.47H11.07s0,0,0-.06l1.4-2.74s.07-.06.08,0l.3,2.72C12.82,36.88,12.79,36.91,12.74,36.91Z" style="fill: #d70a35"/>
          <path d="M45.49,39.38l-.78-6.11c0-.33-.08-.57-.71-.57H40.74c-.4,0-.61,0-.75.28l-3.56,6.48c-.15.27,0,.49.23.49h2.09a.57.57,0,0,0,.57-.31c.21-.37.4-.75.56-1.09a.1.1,0,0,1,.08,0h2.69s.07,0,.07.06l.1,1a.42.42,0,0,0,.49.43h1.74C45.41,40,45.55,39.77,45.49,39.38Zm-3-2.48H40.79s0,0,0,0l1.4-2.74s.07-.06.09,0l.29,2.72C42.54,36.88,42.51,36.9,42.46,36.9Z" style="fill: #d70a35"/>
          <path d="M33.22,39.46l.56-3.05c0-.17,0-.17-.1-.08l-2.54,3.32a.71.71,0,0,1-.49.3H30a.38.38,0,0,1-.35-.25l-1.23-3.36c-.06-.14-.1-.09-.12,0l-.59,3.23a.39.39,0,0,1-.38.35H25.51c-.27,0-.39-.13-.33-.41l1.24-6.32a.54.54,0,0,1,.6-.52h2c.38,0,.63.08.73.35L30.85,36c.06.14.07.14.16,0L33.31,33a.73.73,0,0,1,.7-.35h2.54c.44,0,.51.24.45.55l-1.24,6.4a.39.39,0,0,1-.41.33H33.59C33.22,40,33.18,39.72,33.22,39.46Z" style="fill: #d70a35"/>
          <path d="M21.89,35.89l.5-2.68c.07-.41.27-.49.6-.49h1.59c.29,0,.51.11.43.52l-1.23,6.2c-.08.4-.28.51-.54.51H22a.55.55,0,0,1-.52-.25l-1.72-2.93c0-.07-.08,0-.09,0l-.47,2.6c-.06.34-.16.59-.52.59H16.82c-.3,0-.4-.16-.35-.46l1.19-6.29c.08-.42.31-.5.52-.5H19.5c.32,0,.48.13.69.49l1.6,2.68S21.88,36,21.89,35.89Z" style="fill: #d70a35"/>
          <path d="M53.14,32.69H48.07c-.57,0-.71.11-.78.47l-1.24,6.35c0,.28,0,.41.35.43.18,0,1.72,0,1.88,0a.43.43,0,0,0,.48-.36c.16-.7.36-1.79.41-2s0-.13.23-.13h1.41c.23,0,.33.11.27.44l-.27,1.7c0,.23,0,.39.32.39s1.62,0,1.85,0,.49-.08.58-.54l.28-1.59a1.14,1.14,0,0,0-.69-1.46s0,0,0,0a1.42,1.42,0,0,0,1.07-1A9,9,0,0,0,54.45,34C54.61,33.1,54,32.69,53.14,32.69Zm-1.42,1.9a8.36,8.36,0,0,1-.17.9c-.07.33-.21.41-.68.41h-1.3c-.08,0-.1,0-.08-.09l.29-1.55a.06.06,0,0,1,.06,0h1.59C51.67,34.25,51.74,34.36,51.72,34.59Z" style="fill: #d70a35"/>
          <path d="M4.08,35.16l1.85-2.27a.38.38,0,0,1,.36-.2H8.81c.36,0,.3.23.21.34L5.31,37.49a.39.39,0,0,0-.06.18l-.44,2c0,.22-.24.31-.48.31H2.44c-.39,0-.41-.22-.37-.48l.36-1.78a.22.22,0,0,0,0-.16L0,33c-.07-.16,0-.29.25-.29H2.38a.44.44,0,0,1,.44.22l1.1,2.25C4,35.26,4,35.23,4.08,35.16Z" style="fill: #d70a35"/>
        </g>
        <g>
          <polygon points="28.73 27.24 54.48 16.58 54.48 10.09 28.73 20.76 28.73 27.24" style="fill: #d70a35"/>
          <polygon points="27.24 11.28 0 0 0 6.48 27.24 17.77 54.48 6.48 54.48 0 27.24 11.28" style="fill: #d70a35"/>
          <polygon points="0 16.58 25.74 27.24 25.74 20.76 0 10.09 0 16.58" style="fill: #d70a35"/>
        </g>
      </g>
    </g>
  </g>
</svg>
