<svg xmlns="http://www.w3.org/2000/svg" width="375.75" height="97.9" viewBox="0 0 375.75 97.9">
  <g id="Layer_2" data-name="Layer 2">
    <g id="Layer_3" data-name="Layer 3">
      <g>
        <path d="M195.23,62.74c3.63-3.41,7.65-6.49,10.81-10.28C214.82,41.9,223.2,31,231.87,20.35a13.71,13.71,0,0,1,5.71-3.79c-1.22,10.88-10,18.16-12.7,28.17l.82.83c3.16-2.79,6.44-5.45,9.44-8.39,6.93-6.78,13.71-13.7,20.55-20.56.35-.35.64-.9,1.06-1a29.33,29.33,0,0,1,3.11-.56c0,1,.4,2.18,0,3-2.26,4.25-4.72,8.41-7.13,12.58-.9,1.55-1.86,3.06-2.8,4.59l.89,1.05a51.93,51.93,0,0,0,6.4-3.73c6-4.77,12-9.63,17.85-14.66,5.15-4.44,10.05-9.17,15.1-13.74a19.48,19.48,0,0,1,2.56-1.68l.86.67a8.23,8.23,0,0,1-1.19,2.57c-4.08,4-8.48,7.64-12.36,11.79Q267.86,30.49,256.15,44c-5.93,6.83-11.69,13.83-17.18,21a115.87,115.87,0,0,0-10.53,16.77c2.36-3,4.69-6,7.09-9,8.25-10.22,16.28-20.63,24.87-30.56a313.31,313.31,0,0,1,21.92-23c6.73-6.34,14.23-11.88,21.46-17.69a8.71,8.71,0,0,1,4-1.47c-35,27.56-61.91,62.32-87.93,97.9l-1.8-1c.17-1.44-.1-3.14.58-4.28,5.28-9,10.28-18.12,16.26-26.59,7.31-10.36,15.48-20.12,22.84-30.57a44.44,44.44,0,0,1-6,3.37c-1.18.46-3.3.5-4-.21s-.64-2.91-.05-4c2.18-4,4.72-7.81,7.11-11.71a2.39,2.39,0,0,0,.1-2.38c-3.65,3.92-7.18,8-11,11.74C239.07,37.14,234,41.83,229,46.52A5.39,5.39,0,0,1,226.06,48c-1.38.12-3.32.1-4.05-.72s-.51-2.87.07-4c3-5.8,6.36-11.46,9.56-17.19a4.13,4.13,0,0,0,.59-2.59c-1.51,1.95-3,3.89-4.51,5.87-2.94,4-5.68,8.08-8.78,11.9-3.57,4.4-7.39,8.6-11.21,12.79-2.58,2.82-5.33,5.48-8,8.18a8.78,8.78,0,0,1-2.85,2.33c-1.26.44-3.19.74-4,.08s-1.31-2.62-1.22-4a13.18,13.18,0,0,1,1.52-5c3.4-6.75,6.94-13.42,10.42-20.13A132.91,132.91,0,0,0,210.34,21a8.87,8.87,0,0,0-1.92,1.12C201,29.59,193.53,37,186.23,44.59c-5.92,6.16-11.6,12.55-17.48,18.75-.61.65-1.85.72-2.79,1.06.19-1,0-2.23.62-2.87,4-4.57,8-9.14,12.32-13.45,5.71-5.77,9.17-12.89,12.52-20,.53-1.14-.26-2.88-.44-4.34L186,27.56c0-1-.61-3.08.13-3.83a9.2,9.2,0,0,1,5.32-2.63c2-.16,2.45,1.81,2.72,9.6,1.7-1.25,3.23-2.18,4.54-3.37,3.11-2.8,6.09-5.76,9.2-8.57a6.18,6.18,0,0,1,2.62-1.37c.89-.21,2.18-.31,2.73.18a3,3,0,0,1,.3,2.63,71.39,71.39,0,0,1-3.38,8.25c-5.07,10.06-10.27,20.06-15.38,30.1a19.48,19.48,0,0,0-1,3Z"/>
        <path d="M0,48.07c8.4-6,16.67-12.14,25.26-17.82,3-2,6.79-3.06,10.35-4.15,1.33-.4,3.69-.19,4.38.68a5.87,5.87,0,0,1,.49,4.73C37.67,40.14,32,47.07,26.41,54c-6.75,8.36-13.47,16.74-19.68,25.7,3.63-3,7.34-6,10.87-9.13C26.76,62.41,35.8,54.11,45,45.92c5.45-4.87,10.86-9.81,16.59-14.35A108.2,108.2,0,0,1,74,23.48c1.24-.72,3-.57,4.5-.83l.77,1c-2,3.12-4,6.33-6.15,9.35-3.46,4.8-7.15,9.45-10.64,14.23-6,8.19-12,16.36-17.78,24.71-2,3-3.37,6.41-5,9.64l1.16,1.13c3.86-2.91,8-5.5,11.51-8.78,11.08-10.36,21.91-21,32.85-31.51,6.34-6.09,12.62-12.24,19.1-18.17a34.62,34.62,0,0,1,7.2-4.64c.91-.49,2.66-.62,3.34-.07a3.54,3.54,0,0,1,.72,3.27,46.16,46.16,0,0,1-4.27,8.66c-4.8,7.19-9.9,14.2-14.83,21.31a204.06,204.06,0,0,0-12.06,19L97.59,61.33l.66.67c-2.69,2.69-5.32,5.44-8.09,8a43.19,43.19,0,0,1-5.79,4.67c-1,.65-2.47.6-3.73.86-.22-1.35-1.08-3.07-.54-4,2.49-4.27,5.29-8.36,8.13-12.41,5.91-8.41,12-16.73,17.88-25.14,2.22-3.15,4.22-6.46,6.32-9.7l-1.05-1.08c-1.36.62-3,.94-4,1.9-7,6.45-13.87,13-20.75,19.58-3,2.91-6,5.92-9,8.86C72.27,58.75,67.07,64,61.59,69c-5.66,5.12-11.45,10.12-17.53,14.73-1.48,1.12-4.29.5-6.49.69.13-2.21-.56-5,.51-6.55,7.07-10.57,14.48-20.93,21.86-31.31C64.38,40.3,69,34.15,73.48,28l-.58-.84c-5.59,4.12-11.26,8.13-16.73,12.42C53,42,50.23,45,47.18,47.66c-7.75,6.72-15.59,13.33-23.33,20C18,72.85,12.16,78.11,6.29,83.28a4.73,4.73,0,0,1-2.23,1.26c-1,.14-2.48.16-3.07-.43s-.29-2.21.24-2.93c3.66-5,7.41-9.9,11.29-14.71C16,62.23,19.84,58.34,23.07,54c4.39-6,8.42-12.2,12.44-18.43,1.1-1.7,1.63-3.76,2.92-6.83-3.19.79-5.42,1-7.3,1.87A103.67,103.67,0,0,0,9,45.35c-2.3,1.95-5.34,3-8,4.48Z"/>
        <path d="M317.82,33.39c-1.74,1.33-3.56,2.59-5.22,4-1.92,1.65-2.55,3.21-.53,5.63a6.36,6.36,0,0,1-2.87,10.25c-1.2.36-3.24.5-3.86-.19-2.24-2.51-4.07-1.25-6.17,0a25.06,25.06,0,0,1-5.36,2.61c-1.91.57-4.37,1.32-5.89.57-1.09-.53-1.12-3.38-1.42-5.23a19.49,19.49,0,0,1,.35-3.89c-4.07,1.35-7.62,2.27-11,3.69-4.45,1.89-8.69,4.28-13.13,6.2-1,.45-3.09.36-3.65-.32-.74-.89-1.11-3-.53-3.9a120.86,120.86,0,0,1,7.62-10c1.6-2,3.44-3.73,5.17-5.58l1.21,1c-2,2.51-4.06,5-6,7.54s-3.72,5.23-5.57,7.85l.91,1c2.31-.79,4.63-1.55,6.93-2.37,5-1.79,9.87-4.18,15-5.22,4.44-.9,6.84-3.19,9-6.8a53.07,53.07,0,0,1,7.31-9.8c1.19-1.24,3.72-1.21,5.65-1.76-.25,1.88.17,4.31-.86,5.52a159.81,159.81,0,0,1-12.74,13.29c-2,1.82-3.42,3.42-2.88,7.27,3.63-1.28,6.88-2.59,10.23-3.55,2.12-.6,4.43-.51,6.59-1a11.55,11.55,0,0,0,4.38-2c.29-.23-.49-2.37-1.23-3.26-3.14-3.77-2.86-6.56,1.32-9.11,2.07-1.26,4.32-2.22,6.49-3.32Z"/>
        <path d="M139.17,26.18a26,26,0,0,0,4.62-1.52c5.14-2.74,10.15-5.73,15.3-8.43.9-.48,2.28,0,3.44,0-.05,1.18.37,2.73-.22,3.47a110.94,110.94,0,0,1-8.09,9,26.09,26.09,0,0,1-5.09,3.72,6,6,0,0,1-3.08.69c-.53,0-1-.81-1.56-1.25.48-.44.91-1.2,1.45-1.29,7.11-1.15,9.4-7.74,14.17-11.51l-.55-.72C155.35,20.77,151,23,147,25.81c-5.24,3.72-10.57,7.49-15.08,12-4.16,4.14-7.42,9.21-10.83,14-4.2,6-8.13,12.13-12.22,18.18-.93,1.37-2,2.65-3.48,4.6-1.76-3.82-.41-6.58.88-9a74.9,74.9,0,0,1,6.88-10.55c6-7.61,12-15.13,18.33-22.47C133.58,30.17,136.5,28.37,139.17,26.18Z"/>
        <path d="M350.21,35.6l3.43.35a14.36,14.36,0,0,1-1.28,3.6c-2.14,3.06-4.48,6-6.21,9.52,11.23-2.07,19.78-8.8,28.43-15.33l1.17,1a11.9,11.9,0,0,1-1.31,2.94c-2.5,3-5.08,6-7.78,8.78a13.25,13.25,0,0,1-3.26,1.91c-.51-.95-1-1.91-1.84-3.48-3.35,2-7.12,4-10.7,6.27-4.59,2.94-6.53,2.37-8.08-2.94a47.59,47.59,0,0,1-5.75.43c-2.56-.09-4-1-2.62-4,2.67-5.78,6.73-9.78,13.24-10.67.77-.11,1.73,1.1,2.6,1.7-1.82.43-3.95.41-5.39,1.39a42.4,42.4,0,0,0-6.51,6A10.21,10.21,0,0,0,337,46C343.26,44.46,348,41.53,350.21,35.6Z"/>
        <path d="M332.62,35.15c-1.79,1-3,1.67-4.16,2.38-2.06,1.26-4.23,2.49-.73,4.69a2.78,2.78,0,0,1,.82,1.94c.25,4.19-6.53,9.19-11.95,7.66a47.36,47.36,0,0,0,5.28-3.27,28.79,28.79,0,0,0,3.29-3.66,22.93,22.93,0,0,0-3.63-2.42c-2-.83-3-2.16-1-3.44C324,36.77,327.38,34,332.62,35.15Z"/>
      </g>
    </g>
  </g>
</svg>
