<svg xmlns="http://www.w3.org/2000/svg" width="388.46" height="76.54" viewBox="0 0 388.46 76.54">
  <g id="Layer_2" data-name="Layer 2">
    <g id="Layer_1-2" data-name="Layer 1">
      <g>
        <path d="M388.35,52.61c-.15-.23-.29-.45-.41-.66a9.1,9.1,0,0,0-.76-1.12c-4-4.85-9.54-7.06-13.92-8.45-3.71-1.17-7.4-2.1-11.31-3.08l-4.54-1.16c1-.54,1.9-1,2.82-1.55a67,67,0,0,0,6.8-4.05c4.92-3.49,4.76-6.93,4-11.79l0-.09-3.61-3.12h-.09c-1-.07-2.11-.16-3.22-.26-2.75-.24-5.61-.51-8.49-.48-2.15,0-4.32.23-6.42.45-1.78.18-3.61.37-5.41.43-8.49.27-16.39,2.65-23.66,5.17-4.24,1.47-7,3.58-8.82,6.83l-.12.22.21.12c8.31,4.85,17.37,6.37,27,8,2.23.37,4.53.76,6.83,1.19-8,1.47-15.6,1.36-23,1.25-3.68-.06-7.17-.11-10.66,0-1.29-1.54-.76-2.66,0-4.21a12.83,12.83,0,0,0,.83-2.12l.13-.5-13.51,6-3.64-2.09-5,2.35L286.55,39l-1.09-3.07-7.78.93-.6-.27L272,39.18l-2.81,4.9.49,0c5.55-.54,9.43-3,13.53-5.61l.15-.09v3l5.05.24,2.45.11,3.54-1.49,3.31,2,10-3.94c.77,4.19,4,4.74,6.8,4.75l4.09,0c10,.06,20.44.14,30.48-2.73a14,14,0,0,1,6.31-.14l.69.13c7.42,1.46,15.08,3,22,6.31,2.95,1.41,6,2.88,7.63,6.32l-1.44.46c-1.12.36-2.17.71-3.23.94A123.38,123.38,0,0,1,366,56.4c-2.24.2-4.51.47-6.7.74a116.3,116.3,0,0,1-13.65,1.08h-.3a18.56,18.56,0,0,0-2,.12L337.4,59c-4.18.45-8.5.92-12.77,1.18-5.75.36-11.61.57-17.28.77-2.5.09-5,.17-7.5.28a5.23,5.23,0,0,0-1,.06c-4.67,1.12-9.51,1.17-14.19,1.22a87.59,87.59,0,0,0-10.45.52,158.24,158.24,0,0,1-17.52,1c-2.53,0-5.15.1-7.72.2-.34,0-.68,0-1,.06-2.16.19-4.31.4-6.47.6-4.81.45-9.78.91-14.68,1.28-4.17.31-8.43.53-12.54.74l-5.76.3-.66.08-.34,0-4.8.59c-3.56.45-7.24.92-10.87,1.2-4.58.35-9.26.56-13.78.76l-6,.28-1,.07-5.83.6c-4.36.46-8.88.93-13.32,1.25-2.12.16-4.27.23-6.35.29-2.94.09-6,.19-9,.53-6.43.74-13.06.84-19.48.93l-3.27.06c-17.1.3-32.39.7-46.73,1.22a3.88,3.88,0,0,0-1,.22c-.14,0-.28.09-.42.12l-.73.18.69.29a9.93,9.93,0,0,0,4,.7h.85c5.91-.18,11.92-.13,17.73-.07a271.76,271.76,0,0,0,29-.77c7.38-.73,15-.84,22.28-.94,3.27,0,6.64-.09,10-.19h.53a8.19,8.19,0,0,0,1,0c2.08-.2,4.17-.42,6.25-.64,4.39-.46,8.93-.93,13.4-1.26,4.7-.34,9.5-.55,14.14-.75l6.15-.28h.39c.21,0,.41,0,.62,0l9-.81,12.63-1.13c.22,0,.44,0,.67,0a7.49,7.49,0,0,0,.82,0l5.33-.65c3.71-.47,7.55-1,11.33-1.22,5.31-.37,10.73-.57,16-.77l6.82-.27c.33,0,.67,0,1,0q3.27-.3,6.54-.63c4.79-.46,9.74-1,14.61-1.28,2.19-.14,4.42-.18,6.58-.2a77.16,77.16,0,0,0,10.77-.66,83.66,83.66,0,0,1,10.49-.73c1.9-.05,3.86-.11,5.79-.23,11-.72,20.71-1.38,29.63-2,3.67-.27,7.39-.61,11-.95,3.82-.35,7.77-.72,11.66-1a145.28,145.28,0,0,0,16.66-2.25l.57-.11c3-.55,6.13-1.13,8.6-3.65l.14-.14ZM314,29.45c1.91-3.07,4.76-4.23,7.51-5.16A112.81,112.81,0,0,1,340.15,20a93.63,93.63,0,0,1,15.19-.7c2.47,0,5,.05,7.55,0a11.55,11.55,0,0,1,3.49.61c.49.14,1,.28,1.5.39l1.95,3.78a12.57,12.57,0,0,1-7,9,97.9,97.9,0,0,1-9.49,4.15,8,8,0,0,1-3.8.2c-2.71-.44-5.48-.8-8.15-1.15-6.76-.9-13.75-1.82-20.37-4-1.67-.55-3.27-1.23-5-2ZM272.76,41,277,38.82l.37.49a5.33,5.33,0,0,0-1.21.76A3.57,3.57,0,0,1,272.76,41Z" style="fill: #1a1a1a"/>
        <path d="M194.37,21.23l2.27,2,.88-1.22-2.6-1.41-.62-2.17c1.89-3.62,2.41-4.06,5.46-5.71,6.36-3.44,13.5-4.24,20.4-5l2-.22a80.33,80.33,0,0,1,11.4-.2c1.47,0,3,.09,4.49.1A14,14,0,0,1,247,10.56C231.33,23,222.28,36.91,219.3,53.18v.07l0,.07c.22.56.4,1.14.58,1.71.79,2.52,1.61,5.13,5.72,5.69h.07l.06,0c.8-.34,1.67-.66,2.6-1a37.31,37.31,0,0,0,6.72-3c6.3-3.94,11.51-9.75,16.39-18.26a34.8,34.8,0,0,0,4.12-13.63,17.55,17.55,0,0,0-4.44-14.3C255.49,6.6,261.56,2.85,264,2.55a6.41,6.41,0,0,1,2.11.24c.26.06.51.12.75.16,0,1.14.07,2.26.12,3.34a26.87,26.87,0,0,1-.25,7.05,92.54,92.54,0,0,1-3.41,11c-.47,1.32-.94,2.63-1.39,3.95-1.06,3.13-2.14,6.26-3.21,9.39-1.71,5-3.48,10.14-5.17,15.23a5.36,5.36,0,0,0-.11,2.14c0,.41.05.83.05,1.28v.48l.4-.27c3.3-2.28,4.79-4.68,4.85-7.78l.65-1.45-.88-.32L258,48.35,256.72,50c.43-1.33.85-2.67,1.27-4,1.07-3.4,2.18-6.92,3.31-10.36.95-2.89,1.93-5.77,2.91-8.65,1.67-4.93,3.4-10,5-15.1A13.36,13.36,0,0,0,267.27.12L267.2,0h-.14c-4.81.15-8.52,2.69-12.12,5.15a40.32,40.32,0,0,1-6.25,3.76c-5.62-3.09-12-4.35-20.6-4.08s-16.83,2.18-23.82,4c-5.54,1.46-9.38,4-11.73,7.72l0,.08C192,18.9,192.63,20.36,194.37,21.23Zm58.69-2.38c.71,6.83-.21,12.58-2.78,17.57a50.32,50.32,0,0,1-16.64,19A14,14,0,0,1,223.27,58c-2.32-3.34-1.73-6.73-1-9.32a64.4,64.4,0,0,1,12.23-23.2,80.12,80.12,0,0,1,14.34-13.73C251.37,13.07,252.7,15.33,253.06,18.85Z" style="fill: #1a1a1a"/>
        <path d="M88.82,37.31a.36.36,0,0,1-.08.12l-.14.19h-.06c-2.81.31-4,2.17-4.85,4.87l-.12.35.37,0c3.6-.27,6.35-2,9-3.61a22.56,22.56,0,0,1,6-2.92l2.41,2.64,8.1-2.24a4,4,0,0,1-.24,1.58c-.34,1.23-.77,2.76,1.71,3.53l.08,0,9.8-3.87,1.7,4.33.09,0a6.56,6.56,0,0,0,2.64.57,9.2,9.2,0,0,0,3.57-.87c5.85-2.49,10.37-6.55,13.65-9.8,5-4.94,10.14-10.29,13.78-16.68,1.4-2.46,2.82-4.91,4.23-7.36L162,5.51a10.28,10.28,0,0,1-.11,4.47c-.93,3.52-2.06,7-3.14,10.29A94.39,94.39,0,0,0,154,40.14l-.06.64.48-.42a4.13,4.13,0,0,0,1.39-1.92c.44-1.63.86-3.29,1.26-4.9.54-2.12,1.09-4.31,1.7-6.44.95-3.31,2-6.66,2.94-9.9.93-3.07,1.88-6.24,2.79-9.37a8.65,8.65,0,0,0-.81-7.35l-.19-.34-.23.31c-.48.66-.93,1.24-1.37,1.79a18.46,18.46,0,0,0-2.09,3,93.79,93.79,0,0,1-21.78,28.29c-3.8,3.36-8,6.72-14.18,7.68l-1.55-5.51h-.18c-2-.13-3.72.83-5.35,1.76s-3.37,1.9-5.36,1.63a5.59,5.59,0,0,1,.32-1.79c.34-1.14.69-2.32-.64-3.38l-.11-.08-8.14,2.63-2.17-3.26-.19.09c-3.65,1.82-7.25,3.46-11.28,3.66C89,37,88.91,37.16,88.82,37.31Zm.05.52,2.28.39-3.08,1.29Z" style="fill: #1a1a1a"/>
        <path d="M14.39,30.83a43,43,0,0,0-4.22,4.67C1,44.21-2.77,61.67,2.21,70.16l0,.09.1,0a12.3,12.3,0,0,0,2.88.37,11.7,11.7,0,0,0,5.56-1.4,32.36,32.36,0,0,0,6-4c2.74-2.27,5.19-4.13,6.56-7.48l.91-.92c.19-.15.38-.3.58-.44,1.55-1.18,3.14-2.4,3.5-4.61l2-2.88,7-8.83,4.08-.81c3.56-.7,7.24-1.42,11-2.32,3-.72,5.93-1.64,8.8-2.52,1.29-.4,2.58-.8,3.87-1.18,4.59-.68,10.55-1.85,16-4.95a12.82,12.82,0,0,0,8.06-4l3.79-2.91,0,0,.15-.15.22-.17,0,0,.59-.59,0,0,.16-.23.16-.16,0,0L96,17.49l0,0,.14-.24.13-.19h0c1.65-2.93,2.16-5.4,1.53-7.54S95.3,5.44,92.12,3.8l-.34-.28a4.39,4.39,0,0,0-.87-.61,18,18,0,0,0-9.19-2c-2.18.14-4.41.07-6.57,0C71.13.79,67,.65,63,1.91L59.55,3C55,4.36,50.21,5.82,45.66,7.58A35.61,35.61,0,0,0,39.43,11c-.88.56-1.79,1.14-2.7,1.67a19.72,19.72,0,0,0-9,5.93c-2.38.63-5.18,4.08-5.18,4.08Zm81.07-14-1.94,2.9-.93.93-4,2.94L80.7,27.51,64.79,32.44l-2.39.45c-1.74.32-3.54.66-5.3,1-4.41,1-8.92,2-13.27,3l-5.19,1.17-.29-1.16c1.94-1.2,2.54-3.18,2.94-5l1.06-1.87,2.76-4.76h0l.13-.23.12-.21h0l1-1.69.45-.67c1.16-1.74,2.37-3.54,1.37-6.12l-.26-.66-2.24,7-1,1.85-2.78,4.79h0l-.16.28-.09.16h0l-1,1.7-3,4.89a13.89,13.89,0,0,1-6.85,3.14c-4.9.85-9.84,2-14.61,3-2.29.52-4.66,1-7,1.55a6.36,6.36,0,0,1-1.61.05l-.82,0L11.36,36c.17-.13.4-.28.51-.39,1-1,2.57-3.49,3.51-4.58.21-.25.68-.72.91-.95,1.23-1.25,3.71-3.71,5-4.93.24-.23.72-.69,1-.91,1.22-1,3.95-2.76,5.11-3.87.25-.25.6-.74.91-1.1l8.93-5.9,2.12-.91c1.54-.65,3.14-1.32,4.64-2.12A72.44,72.44,0,0,1,69.73,2.62c7.5-.86,13.88-.37,19.5,1.5a8.55,8.55,0,0,0,1.71.31c.23,0,.46.05.68.09a19.55,19.55,0,0,0,1.84,2.12c1.46,1.52,2.85,3,3.06,5.3ZM29.66,48.39l-2,2.92-.53.41c-1.53,1.18-3.11,2.4-3.5,4.58l-.92,1C21,59,17.68,62.57,15.79,64.1A31.55,31.55,0,0,1,9.87,68,41.11,41.11,0,0,1,3.3,69.09C.13,62.3,2.07,56.28,4,50.46c.44-1.37.9-2.78,1.29-4.19A141.3,141.3,0,0,0,19.65,43.6c4.52-1,9.2-2,14.06-2.64Z" style="fill: #1a1a1a"/>
      </g>
    </g>
  </g>
</svg>
