<svg viewBox="0 0 30.51 23.98">
    <title>Pixlbox</title>
    <rect x="26.15" width="4.36" height="4.36" rx="0.94" class="pb-appicon" />
    <path d="M4.89,19.06a1.72,1.72,0,0,0,.93-.86A2.18,2.18,0,0,0,6,16.94a2.26,2.26,0,0,0-1-1.57,3.41,3.41,0,0,0-1.92-.53H0v9.09H3.06a3.81,3.81,0,0,0,2.29-.66,2.57,2.57,0,0,0,1-2.2A2.28,2.28,0,0,0,6,20,2,2,0,0,0,4.89,19.06Zm-2.74-1.5v-.78H3a.78.78,0,1,1,0,1.56H2.15ZM3,21.91H2.15V20H3a1,1,0,1,1,0,1.91Zm18.3-7.07-1.81,2.62-1.8-2.62H15l3.22,4.56L15,24h2.75l1.8-2.62L21.33,24h2.75L20.86,19.4l3.22-4.56Zm-6.81,1.24a4.58,4.58,0,0,0-7.81,3.33,4.47,4.47,0,0,0,1.36,3.32A4.62,4.62,0,0,0,11.3,24a4.6,4.6,0,0,0,3.22-1.25,4.74,4.74,0,0,0,0-6.65Zm-1.65,5.31A2.33,2.33,0,0,1,11.3,22a2.23,2.23,0,0,1-1.57-.63A2.52,2.52,0,0,1,9,19.41a2.62,2.62,0,0,1,.69-1.92,2.27,2.27,0,0,1,1.6-.64,2.37,2.37,0,0,1,1.58.59,2.56,2.56,0,0,1,.73,2,2.5,2.5,0,0,1-.73,2ZM9.58,13.84V4.69H7.26v9.15H9.58Zm3.49,0,1.8-2.62,1.81,2.62h2.75L16.21,9.26l3.22-4.55H16.68L14.87,7.32l-1.8-2.61H10.32l3.22,4.55-3.22,4.56Zm9.41-2.09v-7H20.15v9.11h5.34V11.73h-3ZM3,4.71H0v9.11H2.3V11.25h.75a3.47,3.47,0,0,0,2.57-1A3.26,3.26,0,0,0,6.51,8a3.18,3.18,0,0,0-.84-2.27A3.46,3.46,0,0,0,3,4.71ZM4,9A1.13,1.13,0,0,1,3,9.4H2.25V6.64H3a1.19,1.19,0,0,1,1,.43A1.61,1.61,0,0,1,4,9Z" class="pb-main" />
    <path d="M12.87,21.39A2.33,2.33,0,0,1,11.3,22a2.23,2.23,0,0,1-1.57-.63A2.52,2.52,0,0,1,9,19.41a2.62,2.62,0,0,1,.69-1.92,2.27,2.27,0,0,1,1.6-.64,2.37,2.37,0,0,1,1.58.59,2.56,2.56,0,0,1,.73,2,2.5,2.5,0,0,1-.73,2Z" class="pb-o" />
    <path d="M4,9A1.13,1.13,0,0,1,3,9.4H2.25V6.64H3a1.19,1.19,0,0,1,1,.43A1.61,1.61,0,0,1,4,9Z" class="pb-p" />
    <path d="M2.15,17.56v-.78H3a.78.78,0,1,1,0,1.56H2.15Z" class="pb-b1" />
    <path d="M3,21.91H2.15V20H3a1,1,0,1,1,0,1.91Z" class="pb-b2" />
</svg>