<svg height="269.85" viewBox="0 0 268.81 269.85" width="268.81" xmlns="http://www.w3.org/2000/svg" xmlns:xlink="http://www.w3.org/1999/xlink"><radialGradient id="a" cx="40.24" cy="34.48" gradientUnits="userSpaceOnUse" r="34.48"><stop offset=".96" stop-color="#fff"/><stop offset=".98" stop-color="#e3e3e5"/><stop offset="1" stop-color="#cfced1"/></radialGradient><radialGradient id="b" cx="40.24" cy="34.48" r="34.67" xlink:href="#a"/><radialGradient id="c" cx="38.5" cy="20.45" gradientUnits="userSpaceOnUse" r="47.99"><stop offset="0" stop-color="#ecebec"/><stop offset=".46" stop-color="#eae9ea"/><stop offset=".63" stop-color="#e3e2e3"/><stop offset=".7" stop-color="#dddcdd"/><stop offset=".86" stop-color="#cfced1"/></radialGradient><radialGradient id="d" cx="40.52" cy="10.48" gradientUnits="userSpaceOnUse" r="58.65"><stop offset="0" stop-color="#fff"/><stop offset=".52" stop-color="#fdfdfd"/><stop offset=".71" stop-color="#f7f6f7"/><stop offset=".84" stop-color="#ebebeb"/><stop offset=".94" stop-color="#dddcdd"/></radialGradient><radialGradient id="e" cx="43.16" cy="41.3" fx="24.701997" fy="33.60694" gradientUnits="userSpaceOnUse" r="34.63"><stop offset=".02" stop-color="#ecebec"/><stop offset=".24" stop-color="#e6e5e6"/><stop offset=".53" stop-color="#d5d4d7"/><stop offset=".61" stop-color="#cfced1"/><stop offset=".65" stop-color="#cac8cb"/><stop offset=".7" stop-color="#bab8bc"/><stop offset=".77" stop-color="#a09da2"/><stop offset=".83" stop-color="#7d787d"/><stop offset=".9" stop-color="#4f484f"/><stop offset=".97" stop-color="#170f17"/><stop offset=".99" stop-color="#0b020a"/></radialGradient><linearGradient id="f" gradientUnits="userSpaceOnUse" x1="60.87" x2="63.74" y1="6.51" y2="6.51"><stop offset=".02" stop-color="#dddcdd"/><stop offset=".21" stop-color="#d8d7d9"/><stop offset=".41" stop-color="#cbcacc"/><stop offset=".63" stop-color="#b5b4b6"/><stop offset=".85" stop-color="#979599"/><stop offset="1" stop-color="#7d7b80"/></linearGradient><radialGradient id="g" cx="40.24" cy="34.48" gradientUnits="userSpaceOnUse" r="26.2"><stop offset=".92" stop-color="#a9a8ac"/><stop offset=".94" stop-color="#bdbcbf"/><stop offset=".96" stop-color="#d7d6d8"/><stop offset=".98" stop-color="#e7e6e7"/><stop offset="1" stop-color="#ecebec"/></radialGradient><clipPath id="h"><path d="m64.05 40.3a24.52 24.52 0 0 1 -47.63 0l-2-.66-.14-.13v.15a26.44 26.44 0 0 0 51.86 0v-.15l-.15.13z"/></clipPath><radialGradient id="i" cx="40.11" cy="31.79" fy="2.721248" gradientTransform="matrix(.99999328 .00366518 -.00337197 .91999382 .11 2.43)" gradientUnits="userSpaceOnUse" r="30.92"><stop offset=".83" stop-color="#fff"/><stop offset=".83" stop-color="#ebebeb"/><stop offset=".83" stop-color="#c6c5c6"/><stop offset=".84" stop-color="#a4a3a5"/><stop offset=".84" stop-color="#88878a"/><stop offset=".85" stop-color="#727073"/><stop offset=".85" stop-color="#605f62"/><stop offset=".86" stop-color="#545256"/><stop offset=".86" stop-color="#4d4b4f"/><stop offset=".88" stop-color="#4b494d"/><stop offset=".89" stop-color="#514f53" stop-opacity=".96"/><stop offset=".9" stop-color="#666468" stop-opacity=".85"/><stop offset=".91" stop-color="#8a888b" stop-opacity=".65"/><stop offset=".91" stop-color="#bbbabc" stop-opacity=".38"/><stop offset=".92" stop-color="#fbfbfb" stop-opacity=".02"/><stop offset=".92" stop-color="#fff" stop-opacity="0"/><stop offset=".93" stop-color="#fff" stop-opacity=".15"/><stop offset=".96" stop-color="#fff" stop-opacity=".6"/><stop offset=".99" stop-color="#fff" stop-opacity=".89"/><stop offset="1" stop-color="#fff"/></radialGradient><linearGradient id="j" gradientUnits="userSpaceOnUse" x1="47.26" x2="33.8" y1="40.68" y2="19.16"><stop offset="0" stop-color="#cfced1"/><stop offset=".31" stop-color="#cccbce"/><stop offset=".54" stop-color="#c3c2c5"/><stop offset=".74" stop-color="#b3b2b5"/><stop offset=".93" stop-color="#9d9ba0"/><stop offset="1" stop-color="#929095"/></linearGradient><linearGradient id="k" gradientUnits="userSpaceOnUse" x1="47.21" x2="34.3" y1="50.89" y2="29.82"><stop offset="0" stop-color="#b5b4b8"/><stop offset=".34" stop-color="#b2b1b5"/><stop offset=".6" stop-color="#a9a8ac"/><stop offset=".82" stop-color="#99989c"/><stop offset="1" stop-color="#878589"/></linearGradient><linearGradient id="l" gradientUnits="userSpaceOnUse" x1="62.75" x2="61.77" y1="6.85" y2="6.03"><stop offset=".02" stop-color="#fff"/><stop offset=".17" stop-color="#fafafa"/><stop offset=".35" stop-color="#ebebeb"/><stop offset=".55" stop-color="#d2d2d3"/><stop offset=".77" stop-color="#afafb1"/><stop offset=".99" stop-color="#838286"/><stop offset="1" stop-color="#818084"/></linearGradient><linearGradient id="m" gradientUnits="userSpaceOnUse" x1="68.24" x2="68.25" y1="13.92" y2="10.87"><stop offset=".03" stop-color="#cfced1"/><stop offset=".21" stop-color="#cac9cc"/><stop offset=".43" stop-color="#bbbabd"/><stop offset=".67" stop-color="#a2a1a5"/><stop offset=".92" stop-color="#807e83"/><stop offset="1" stop-color="#737176"/></linearGradient><linearGradient id="n" gradientUnits="userSpaceOnUse" x1="73.85" x2="73.88" y1="17.48" y2=".26"><stop offset="0" stop-color="#cfced1"/><stop offset=".39" stop-color="#cac9cc"/><stop offset=".86" stop-color="#bbbabd"/><stop offset="1" stop-color="#b5b4b8"/></linearGradient><linearGradient id="o" gradientUnits="userSpaceOnUse" x1="57.77" x2="74.26" y1=".87" y2=".87"><stop offset="0" stop-color="#e8e7e8"/><stop offset="1" stop-color="#c0bec2"/></linearGradient><linearGradient id="p" gradientUnits="userSpaceOnUse" x1="40.24" x2="40.24" y1="29.46" y2="28.78"><stop offset="0" stop-color="#dddcdd"/><stop offset="1" stop-color="#c2c1c4"/></linearGradient><linearGradient id="q" x1="40.24" x2="40.24" xlink:href="#p" y1="40.24" y2="39.6"/><linearGradient id="r" gradientUnits="userSpaceOnUse" x1="14.28" x2="66.11" y1="39.91" y2="39.91"><stop offset=".01" stop-color="#929095"/><stop offset=".1" stop-color="#d5d4d6"/><stop offset=".17" stop-color="#fff"/><stop offset=".83" stop-color="#fff"/><stop offset=".93" stop-color="#c3c2c5"/><stop offset="1" stop-color="#929095"/></linearGradient><radialGradient id="s" cx="38.72" cy="32.54" fx="3.500545" gradientTransform="matrix(.28 .96 -1.07 .31 62.61 -14.85)" gradientUnits="userSpaceOnUse" r="35.22"><stop offset=".4" stop-color="#dddcdd"/><stop offset=".57" stop-color="#dbdadb"/><stop offset=".64" stop-color="#d4d2d4"/><stop offset=".7" stop-color="#c7c6c7"/><stop offset=".75" stop-color="#b5b4b5"/><stop offset=".79" stop-color="#9d9c9e"/><stop offset=".83" stop-color="#807f82"/><stop offset=".87" stop-color="#5f5d61"/><stop offset=".88" stop-color="#4b494d"/></radialGradient><linearGradient id="t" gradientUnits="userSpaceOnUse" x1="62.55" x2="61.95" y1="7.08" y2="5.45"><stop offset=".38" stop-color="#fff"/><stop offset=".46" stop-color="#e5e5e6"/><stop offset=".64" stop-color="#b0afb2"/><stop offset=".8" stop-color="#89888c"/><stop offset=".92" stop-color="#727075"/><stop offset="1" stop-color="#69676c"/></linearGradient><linearGradient id="u" gradientUnits="userSpaceOnUse" x1="68.18" x2="69.02" y1="12.35" y2="13.29"><stop offset=".01" stop-color="#69676c"/><stop offset=".31" stop-color="#57555a"/><stop offset=".71" stop-color="#47444a"/><stop offset="1" stop-color="#413e44"/></linearGradient><radialGradient id="v" cx="40.07" cy="35.77" gradientUnits="userSpaceOnUse" r="39.39"><stop offset=".96" stop-color="#363338"/><stop offset=".98" stop-color="#514e53"/><stop offset=".98" stop-color="#565358"/></radialGradient><linearGradient id="w" gradientUnits="userSpaceOnUse" x1="73.45" x2="73.38" y1="17" y2="15.82"><stop offset="0" stop-color="#363338"/><stop offset=".89" stop-color="#4f4c51"/><stop offset="1" stop-color="#524f54"/></linearGradient><linearGradient id="x" gradientUnits="userSpaceOnUse" x1="73.47" x2="74.26" y1="8.72" y2="8.72"><stop offset=".01" stop-color="#737176"/><stop offset=".36" stop-color="#6e6c71"/><stop offset=".8" stop-color="#5f5d62"/><stop offset="1" stop-color="#565358"/></linearGradient><linearGradient id="y" gradientUnits="userSpaceOnUse" x1="66.02" x2="66.02" y1=".26" y2="1.24"><stop offset="0" stop-color="#c0bec2"/><stop offset="1" stop-color="#fff"/></linearGradient><linearGradient id="z" gradientUnits="userSpaceOnUse" x1="57.4" x2="58.42" y1="2.12" y2=".7"><stop offset="0" stop-color="#7d7b80"/><stop offset=".13" stop-color="#838186"/><stop offset=".31" stop-color="#949397"/><stop offset=".52" stop-color="#b1afb2"/><stop offset=".75" stop-color="#d8d7d9"/><stop offset=".95" stop-color="#fff"/></linearGradient><radialGradient id="A" cx="39.95" cy="35.77" gradientUnits="userSpaceOnUse" r="39.73"><stop offset=".95" stop-color="#363338"/><stop offset=".96" stop-color="#423f44"/><stop offset=".97" stop-color="#565358"/></radialGradient><linearGradient id="B" gradientUnits="userSpaceOnUse" x1="31.54" x2="69.41" y1=".71" y2="27.63"><stop offset="0" stop-color="#fff" stop-opacity="0"/><stop offset=".41" stop-color="#fff" stop-opacity="0"/><stop offset=".48" stop-color="#fdfdfd" stop-opacity=".03"/><stop offset=".56" stop-color="#f8f7f8" stop-opacity=".1"/><stop offset=".64" stop-color="#eeeeef" stop-opacity=".22"/><stop offset=".73" stop-color="#e2e1e3" stop-opacity=".4"/><stop offset=".82" stop-color="#d1d0d3" stop-opacity=".62"/><stop offset=".91" stop-color="#bdbcc0" stop-opacity=".89"/><stop offset=".94" stop-color="#b5b4b8"/><stop offset=".96" stop-color="#b6b5b9" stop-opacity=".99"/><stop offset=".97" stop-color="#b9b8bb" stop-opacity=".95"/><stop offset=".98" stop-color="#bdbcc0" stop-opacity=".89"/><stop offset=".98" stop-color="#c4c3c7" stop-opacity=".8"/><stop offset=".99" stop-color="#cdcccf" stop-opacity=".67"/><stop offset=".99" stop-color="#d8d8da" stop-opacity=".53"/><stop offset=".99" stop-color="#e5e5e6" stop-opacity=".35"/><stop offset="1" stop-color="#f4f4f4" stop-opacity=".15"/><stop offset="1" stop-color="#fff" stop-opacity="0"/></linearGradient><linearGradient id="C" gradientUnits="userSpaceOnUse" x1="52.11" x2="54.13" y1="7.38" y2="29.92"><stop offset=".42" stop-color="#fff" stop-opacity="0"/><stop offset=".65" stop-color="#fefefe" stop-opacity=".01"/><stop offset=".73" stop-color="#fcfbfc" stop-opacity=".05"/><stop offset=".79" stop-color="#f7f7f7" stop-opacity=".11"/><stop offset=".84" stop-color="#f0f0f1" stop-opacity=".2"/><stop offset=".88" stop-color="#e7e7e8" stop-opacity=".32"/><stop offset=".92" stop-color="#dcdcde" stop-opacity=".47"/><stop offset=".95" stop-color="#cfcfd1" stop-opacity=".65"/><stop offset=".98" stop-color="#c1c0c3" stop-opacity=".84"/><stop offset="1" stop-color="#b5b4b8"/></linearGradient><linearGradient id="D" gradientUnits="userSpaceOnUse" x1="62.89" x2="61.87" y1="7.67" y2="5.22"><stop offset="0" stop-color="#fff"/><stop offset=".37" stop-color="#c5c4c7"/><stop offset=".75" stop-color="#919094"/><stop offset=".93" stop-color="#7d7b80"/></linearGradient><linearGradient id="E" gradientUnits="userSpaceOnUse" x1="68" x2="68.53" y1="12.19" y2="12.61"><stop offset=".03" stop-color="#69676c"/><stop offset=".99" stop-color="#4b494d"/></linearGradient><radialGradient id="F" cx="40.26" cy="34.86" gradientUnits="userSpaceOnUse" r="38.75"><stop offset=".96" stop-color="#716f74"/><stop offset=".97" stop-color="#605d62"/><stop offset=".99" stop-color="#a9a8ac"/></radialGradient><linearGradient id="G" gradientUnits="userSpaceOnUse" x1="73.31" x2="73.31" y1="16.03" y2="16.34"><stop offset="0" stop-color="#9e9ca1"/><stop offset="1" stop-color="#605d62"/></linearGradient><linearGradient id="H" gradientUnits="userSpaceOnUse" x1="73.34" x2="73.59" y1="8.72" y2="8.72"><stop offset="0" stop-color="#a9a8ac"/><stop offset=".51" stop-color="#9b999e"/><stop offset="1" stop-color="#929095"/></linearGradient><linearGradient id="I" gradientUnits="userSpaceOnUse" x1="66.01" x2="66.01" y1=".78" y2="1.48"><stop offset=".28" stop-color="#cfced1"/><stop offset=".39" stop-color="#dad9db"/><stop offset=".59" stop-color="#f6f6f6"/><stop offset=".64" stop-color="#fff"/></linearGradient><linearGradient id="J" gradientUnits="userSpaceOnUse" x1="58.56" x2="58.56" y1="1.19" y2="1.88"><stop offset="0" stop-color="#dddcdd"/><stop offset=".26" stop-color="#dad9da"/><stop offset=".48" stop-color="#cfced0"/><stop offset=".68" stop-color="#bebdbf"/><stop offset=".87" stop-color="#a6a4a8"/><stop offset="1" stop-color="#929095"/></linearGradient><radialGradient id="K" cx="39.77" cy="35.09" gradientUnits="userSpaceOnUse" r="38.74"><stop offset=".77" stop-color="#737176"/><stop offset=".97" stop-color="#afaeb2"/><stop offset=".99" stop-color="#b5b4b8"/></radialGradient><radialGradient id="L" cx="48.62" cy="62.92" fx="-11.024326" gradientUnits="userSpaceOnUse" r="59.67"><stop offset=".45" stop-color="#fff"/><stop offset=".55" stop-color="#fcfcfc"/><stop offset=".63" stop-color="#f3f3f3"/><stop offset=".7" stop-color="#e3e3e3"/><stop offset=".76" stop-color="#cdcccd"/><stop offset=".82" stop-color="#b0afb1"/><stop offset=".88" stop-color="#8d8b8e"/><stop offset=".93" stop-color="#646266"/><stop offset=".98" stop-color="#363338"/></radialGradient><linearGradient id="M" gradientUnits="userSpaceOnUse" x1="40.24" x2="40.24" y1="39.64" y2="39.39"><stop offset="0" stop-color="#4b494d"/><stop offset=".48" stop-color="#8b8a8d"/><stop offset=".82" stop-color="#b3b2b5"/><stop offset="1" stop-color="#c2c1c4"/></linearGradient><linearGradient id="N" gradientUnits="userSpaceOnUse" x1="40.24" x2="40.24" y1="29.33" y2="29.58"><stop offset=".28" stop-color="#9e9ca1"/><stop offset=".4" stop-color="#b6b4b8"/><stop offset=".65" stop-color="#dddcdd"/><stop offset=".77" stop-color="#ecebec"/></linearGradient><radialGradient id="O" cx="38.78" cy="34.12" fx="27.355739" fy="-4.733149" gradientTransform="matrix(.9999897 .00453784 -.00422019 .92999042 .15 2.08)" gradientUnits="userSpaceOnUse" r="40.5"><stop offset=".51" stop-color="#fff"/><stop offset=".59" stop-color="#fcfcfc"/><stop offset=".65" stop-color="#f2f2f2"/><stop offset=".7" stop-color="#e2e1e2"/><stop offset=".76" stop-color="#cac9cb"/><stop offset=".81" stop-color="#acabae"/><stop offset=".85" stop-color="#878589"/><stop offset=".9" stop-color="#5c5a5f"/><stop offset=".92" stop-color="#413e44"/></radialGradient><linearGradient id="P" gradientUnits="userSpaceOnUse" x1="37.82" x2="43.2" y1="24.67" y2="44.39"><stop offset="0" stop-color="#fff"/><stop offset=".23" stop-color="#fafbfb"/><stop offset=".48" stop-color="#edeeee"/><stop offset=".75" stop-color="#d7d8d9"/><stop offset="1" stop-color="#bbbdbf"/></linearGradient><clipPath id="Q"><path d="m36.17 223.35h169.92v40h-169.92z"/></clipPath><path d="m66.85 13.81.07.09a33.71 33.71 0 0 1 -2.86 44.41 33.69 33.69 0 1 1 -47.65-47.65 33.69 33.69 0 0 1 44.45-2.82l.14.06-.08-1.05a34.41 34.41 0 1 0 7 7z" fill="url(#a)"/><path d="m66.85 13.81.07.09a33.71 33.71 0 0 1 -2.86 44.41 33.69 33.69 0 1 1 -47.65-47.65 33.69 33.69 0 0 1 44.45-2.82l.14.06-.08-1.05a34.41 34.41 0 1 0 7 7z" fill="url(#b)"/><path d="m14.84 29a26 26 0 0 1 43.77-12.88 25.81 25.81 0 0 1 7 12.88zm25.4 31.46a26 26 0 0 1 -25.4-20.46h50.8a26 26 0 0 1 -25.4 20.49zm26.76-46.64 2.62-2.61a37.88 37.88 0 0 1 3.38 5.08h.55v-15.15h-15.11v.55a37.08 37.08 0 0 1 5.11 3.43l-2.61 2.62a33.82 33.82 0 0 0 -54.52 26.75 33.82 33.82 0 0 0 57.73 23.91 33.84 33.84 0 0 0 2.85-44.58z" fill="url(#c)"/><path d="m14.84 29a26 26 0 0 1 43.77-12.88 25.81 25.81 0 0 1 7 12.88zm25.4 31.46a26 26 0 0 1 -25.4-20.46h50.8a26 26 0 0 1 -25.4 20.49zm26.76-46.64 2.62-2.61a37.88 37.88 0 0 1 3.38 5.08h.55v-15.15h-15.11v.55a37.08 37.08 0 0 1 5.11 3.43l-2.61 2.62a33.82 33.82 0 0 0 -54.52 26.75 33.82 33.82 0 0 0 57.73 23.91 33.84 33.84 0 0 0 2.85-44.58z" fill="url(#d)"/><path d="m64.05 28.67a24.52 24.52 0 0 0 -47.63 0l-2 .66-.14.13v-.15a26.44 26.44 0 0 1 51.86 0v.15l-.15-.13zm0 11.63a24.52 24.52 0 0 1 -47.63 0l-2-.66-.14-.13v.15a26.44 26.44 0 0 0 51.86 0v-.15l-.15.13z" fill="url(#e)"/><path d="m62.54 5.19-1.66 1.66.07 1.05 2.79-2.79z" fill="url(#f)"/><path d="m64.05 28.67a24.52 24.52 0 0 0 -47.63 0l-2 .66-.14.13v-.15a26.44 26.44 0 0 1 51.86 0v.15l-.15-.13zm0 11.63a24.52 24.52 0 0 1 -47.63 0l-2-.66-.14-.13v.15a26.44 26.44 0 0 0 51.86 0v-.15l-.15.13z" fill="url(#g)"/><g clip-path="url(#h)"><path d="m40.24 60.8a26.32 26.32 0 1 1 18.6-7.71 26.15 26.15 0 0 1 -18.6 7.71zm17.32-9a24.49 24.49 0 1 0 -17.32 7.2 24.32 24.32 0 0 0 17.32-7.19z" fill="url(#i)"/></g><path d="m16.42 28.66h47.63l2 .67.15.13h-51.92l.14-.13z" fill="url(#j)"/><path d="m16.42 40.3h47.63l2-.66.15-.13h-51.92l.14.13z" fill="url(#k)"/><path d="m62.54 5.19-1.66 1.66.07 1.05 2.79-2.79z" fill="url(#l)"/><path d="m69.64 11.02-2.79 2.79 1.05.07 1.66-1.66z" fill="url(#m)"/><path d="m73.47 1.27v14.9l.79.79v-16.48z" fill="url(#n)"/><path d="m74.26.48h-16.49l.79.79h14.91z" fill="url(#o)"/><path d="m16.42 28.66h47.63l2 .67.15.13h-51.92l.14-.13z" fill="url(#p)"/><path d="m14.28 39.51h51.92l-.15.13-2 .66h-47.63l-2-.66z" fill="url(#q)"/><path d="m14.28 39.51h51.92l-.15.13-2 .66h-47.63l-2-.66z" fill="url(#r)"/><path d="m66.85 13.81.07.09a33.71 33.71 0 0 1 -2.86 44.41 33.69 33.69 0 1 1 -47.65-47.65 33.69 33.69 0 0 1 44.45-2.82l.14.06-.08-1.05a34.41 34.41 0 1 0 7 7z" fill="url(#s)"/><path d="m62.54 5.19-1.66 1.66.07 1.05 2.79-2.79z" fill="url(#t)"/><path d="m69.64 11.02-2.79 2.79 1.05.07 1.66-1.66z" fill="url(#u)"/><path d="m73.11 16.17a38.22 38.22 0 0 0 -3.38-5l-.09-.17-.08 1.2a36.66 36.66 0 0 1 3.07 4.8z" fill="url(#v)"/><path d="m73.47 16.17h-.36l-.48.79h1.63z" fill="url(#w)"/><path d="m73.47 1.27v14.9l.79.79v-16.48z" fill="url(#x)"/><path d="m74.26.48h-16.49l.79.79h14.91z" fill="url(#y)"/><path d="m57.77.48v1.62l.79-.48v-.35z" fill="url(#z)"/><path d="m57.77 2.1a36 36 0 0 1 4.77 3.09l1.2-.08-.11-.11a37.15 37.15 0 0 0 -5.07-3.41z" fill="url(#A)"/><path d="m40.24 8.05a26.45 26.45 0 0 1 25.93 21.26v.15l-.15-.13-2-.66a24.55 24.55 0 0 0 -23.78-18.67z" fill="url(#B)"/><path d="m40.24 8.05a26.45 26.45 0 0 1 25.93 21.26v.15l-.15-.13-2-.66a24.55 24.55 0 0 0 -23.78-18.67z" fill="url(#C)"/><path d="m63.92 5.1-2.97 2.97-.01-.33 2.61-2.62z" fill="url(#D)"/><path d="m69.63 11.21-2.62 2.61-.33-.02 2.97-2.96z" fill="url(#E)"/><path d="m73 16.29a36.88 36.88 0 0 0 -3.4-5.08v-.37a37.57 37.57 0 0 1 3.53 5.21z" fill="url(#F)"/><path d="m73.59 16.29h-.56l.15-.24h.16z" fill="url(#G)"/><path d="m73.59 1.15v15.14l-.25-.24v-14.66z" fill="url(#H)"/><path d="m73.34 1.39h-14.65l-.25-.24h15.15z" fill="url(#I)"/><path d="m58.69 1.39v.16l-.25.14v-.54z" fill="url(#J)"/><path d="m58.69 1.55a37.91 37.91 0 0 1 5.23 3.55h-.37a38.33 38.33 0 0 0 -5.11-3.43z" fill="url(#K)"/><path d="m14.13 29.58a26.57 26.57 0 0 1 44.87-13.87 26.29 26.29 0 0 1 7.32 13.87l-.29-.25a26.33 26.33 0 0 0 -51.63 0zm51.92 10.06a26.33 26.33 0 0 1 -51.63 0l-.29-.25a26.57 26.57 0 0 0 44.87 13.87 26.29 26.29 0 0 0 7.32-13.87z" fill="url(#L)"/><path d="m14.13 39.39h52.21l-.29.25h-51.63z" fill="url(#M)"/><path d="m66.34 29.58h-52.21l.29-.25h51.63z" fill="url(#N)"/><path d="m66.68 13.8a33.57 33.57 0 0 1 -50.18 44.42 33.58 33.58 0 0 1 23.74-57.31 33.26 33.26 0 0 1 20.76 7.16v-.33a33.81 33.81 0 0 0 -54.58 26.75 33.82 33.82 0 1 0 67.63 0 33.54 33.54 0 0 0 -7-20.67z" fill="url(#O)"/><path d="m60.36 31.05c-2.82 0-4.65 1.35-4.65 3.44s1.79 3.45 4.67 3.45 4.62-1.3 4.62-3.45-1.8-3.44-4.64-3.44zm0 5.76c-1 0-1.5-1.2-1.49-2.36 0-1.38.62-2.25 1.55-2.25.89 0 1.5 1 1.47 2.31-.02 1.06-.43 2.3-1.53 2.3z" fill="#0b020a"/><path d="m63.63 31.9a3 3 0 0 1 1.26 2.48c0 2.13-1.77 3.46-4.62 3.46a4.8 4.8 0 0 1 -4.07-1.62c.71 1.11 2.19 1.76 4.18 1.76 2.87.02 4.62-1.34 4.62-3.49a3 3 0 0 0 -1.37-2.59z" fill="#fff"/><path d="m58.85 34.45c0-1.32.66-2.24 1.54-2.24.88 0 1.48.94 1.47 2.24 0-1.38-.6-2.35-1.53-2.37-.92 0-1.59 1-1.61 2.31 0 1.06.35 2.12 1.18 2.38a2.3 2.3 0 0 1 -1.05-2.32z" fill="#fff"/><path d="m55.91 31.73h-3.47l-.54.55a.15.15 0 0 0 .09 0h1.11l-2 3.76-2.1-3.72h1.37a.14.14 0 0 0 .14-.14v-.85a.13.13 0 0 0 0-.1l-.62.62h-3l2.71 4.73-1.15 1.15a.3.3 0 0 0 .15.05h3.29a.25.25 0 0 0 .2-.13l2.89-5.34h1.37a.14.14 0 0 0 .14-.14v-.85a.13.13 0 0 0 0-.1z" fill="#fff"/><path d="m44.38 31.85-.43.43a.15.15 0 0 0 .09 0h1.37l.28-.47z" fill="#fff"/><path d="m53.1 32.32.22-.14.73-.45h.36l-2.96 5.37-.39-.73v-.28z" fill="#0b020a"/><path d="m55.91 31.73.5-.5a.15.15 0 0 0 -.1 0h-4.31a.13.13 0 0 0 -.13.14v.85a.13.13 0 0 0 0 .1l.54-.55z" fill="#0b020a"/><path d="m46.85 31.85h3l.62-.62a.15.15 0 0 0 -.1 0h-6.32a.14.14 0 0 0 -.14.14v.85a.13.13 0 0 0 0 .1l.43-.43h1.31l-.28.47 2.94 5.34.06.07.09-.08 1.06-1.07z" fill="#0b020a"/><path d="m15.7 31.85-.43.43a.15.15 0 0 0 .09 0h1.38l.27-.47z" fill="#fff"/><path d="m24.42 32.32.22-.14.71-.45h.38l-2.95 5.37-.4-.73v-.28z" fill="#0b020a"/><path d="m18.17 31.85h3l.61-.62a.15.15 0 0 0 -.1 0h-6.31a.14.14 0 0 0 -.14.14v.85a.13.13 0 0 0 0 .1l.43-.43h1.34l-.27.47 2.93 5.34a.23.23 0 0 0 .07.07l1.14-1.15z" fill="#0b020a"/><path d="m45.65 34.69-.51.5v1.81h-4.32l.39-.39v-4.29h1.35a.13.13 0 0 0 .14-.14v-.85a.18.18 0 0 0 0-.1l-.5.5h-2.57v5.47h-2.45l-.54.54a.15.15 0 0 0 .1 0h8.81a.14.14 0 0 0 .14-.14v-2.81a.18.18 0 0 0 -.04-.1z" fill="#fff"/><path d="m37.18 31.73-.54.55a.15.15 0 0 0 .1 0h1.36l.58-.59z" fill="#fff"/><path d="m45.14 37v-1.81l.51-.5a.18.18 0 0 0 -.1 0h-.85c-.13 0-.13.14-.13.14a1.84 1.84 0 0 1 -2 1.85h-1.4l-.39.39z" fill="#0b020a"/><path d="m39.63 37.2v-5.47h2.53l.5-.5a.18.18 0 0 0 -.1 0h-5.82a.14.14 0 0 0 -.14.14v.85a.13.13 0 0 0 0 .1l.54-.55h1.5l-.58.59v4.32h-1.32a.14.14 0 0 0 -.14.14v.86a.13.13 0 0 0 0 .1l.54-.54z" fill="#0b020a"/><path d="m31.69 31.05c-2.82 0-4.65 1.35-4.65 3.44s1.79 3.45 4.67 3.45 4.62-1.3 4.62-3.45-1.8-3.44-4.64-3.44zm0 5.76c-1.05 0-1.51-1.2-1.49-2.36 0-1.38.62-2.25 1.55-2.25.89 0 1.49 1 1.47 2.31-.02 1.06-.43 2.3-1.53 2.3z" fill="#0b020a"/><path d="m35 31.9a3 3 0 0 1 1.26 2.48c0 2.13-1.77 3.46-4.62 3.46a4.8 4.8 0 0 1 -4.07-1.62c.71 1.11 2.18 1.76 4.18 1.76 2.87 0 4.65-1.34 4.65-3.49a3 3 0 0 0 -1.4-2.59z" fill="#fff"/><path d="m30.18 34.45c0-1.32.65-2.24 1.54-2.24.88 0 1.48.94 1.47 2.24 0-1.38-.61-2.35-1.53-2.37-.93 0-1.59 1-1.61 2.31 0 1.06.34 2.12 1.18 2.38a2.29 2.29 0 0 1 -1.05-2.32z" fill="#fff"/><path d="m27.23 31.73h-3.47l-.54.55a.15.15 0 0 0 .1 0h1.1l-2 3.76-2.06-3.76h1.37a.14.14 0 0 0 .14-.14v-.85a.13.13 0 0 0 0-.1l-.61.62h-3l2.71 4.73-1.14 1.15a.24.24 0 0 0 .14.05h3.29a.24.24 0 0 0 .2-.13l2.89-5.34h1.37a.14.14 0 0 0 .14-.14v-.85a.13.13 0 0 0 0-.1z" fill="#fff"/><path d="m27.23 31.73.5-.5a.15.15 0 0 0 -.1 0h-4.32a.13.13 0 0 0 -.13.14v.85a.13.13 0 0 0 0 .1l.54-.55z" fill="#0b020a"/><path d="m60.38 37.84c-2.79 0-4.53-1.28-4.53-3.35s1.77-3.3 4.51-3.3 4.54 1.3 4.54 3.3-1.73 3.35-4.52 3.35zm0-.89c1.2 0 1.65-1.32 1.67-2.44 0-1.42-.64-2.42-1.61-2.44-1 0-1.66 1-1.68 2.38 0 1.23.47 2.47 1.62 2.5zm-28.65.89c-2.8 0-4.53-1.28-4.53-3.35s1.77-3.3 4.51-3.3 4.53 1.3 4.53 3.3-1.75 3.35-4.53 3.35zm0-.89c1.21 0 1.66-1.32 1.68-2.44a3.24 3.24 0 0 0 -.41-1.68 1.41 1.41 0 0 0 -1.22-.76c-1 0-1.66 1-1.68 2.38 0 1.23.47 2.47 1.61 2.5zm20 .7h-3.23l-3-5.47h-1.5v-.85h6.32v.85h-1.56l2.3 4.19 2.21-4.09v-.1h-1.27v-.85h4.32v.85h-1.46l-3 5.47zm-28.73 0h-3.18l-3-5.47h-1.46v-.85h6.33v.85h-1.61l2.3 4.19 2.26-4.19h-1.33v-.85h4.32v.85h-1.45l-3 5.47zm13.78-.87h1.5v-4.6h-1.5v-.85h5.82v.85h-1.52v4.6h1.53a2 2 0 0 0 2.09-2h.85v2.85h-8.81z" fill="#133c8a"/><path d="m60.38 37.84c-2.79 0-4.53-1.28-4.53-3.35s1.77-3.3 4.51-3.3 4.54 1.3 4.54 3.3-1.73 3.35-4.52 3.35zm0-.89c1.2 0 1.65-1.32 1.67-2.44 0-1.42-.64-2.42-1.61-2.44-1 0-1.66 1-1.68 2.38 0 1.23.47 2.47 1.62 2.5zm-28.65.89c-2.8 0-4.53-1.28-4.53-3.35s1.77-3.3 4.51-3.3 4.53 1.3 4.53 3.3-1.75 3.35-4.53 3.35zm0-.89c1.21 0 1.66-1.32 1.68-2.44a3.24 3.24 0 0 0 -.41-1.68 1.41 1.41 0 0 0 -1.22-.76c-1 0-1.66 1-1.68 2.38 0 1.23.47 2.47 1.61 2.5zm20 .7h-3.23l-3-5.47h-1.5v-.85h6.32v.85h-1.56l2.3 4.19 2.21-4.09v-.1h-1.27v-.85h4.32v.85h-1.46l-3 5.47zm-28.73 0h-3.18l-3-5.47h-1.46v-.85h6.33v.85h-1.61l2.3 4.19 2.26-4.19h-1.33v-.85h4.32v.85h-1.45l-3 5.47zm13.78-.87h1.5v-4.6h-1.5v-.85h5.82v.85h-1.52v4.6h1.53a2 2 0 0 0 2.09-2h.85v2.85h-8.81z" fill="url(#P)"/><g fill="#00529b"><path d="m24.14 173a4.84 4.84 0 0 1 -3.51 8.18 4.6 4.6 0 0 1 -3.31-1.32l-1.79 1.77-1.78-1.79a4.72 4.72 0 0 1 -3.37 1.34 4.85 4.85 0 0 1 -4.84-4.85 4.75 4.75 0 0 1 1.33-3.33l-1.75-1.8 1.77-1.77a4.58 4.58 0 0 1 -1.33-3.28 4.72 4.72 0 0 1 1.44-3.44 4.62 4.62 0 0 1 3.41-1.41 4.7 4.7 0 0 1 3.37 1.35c.26-.26.86-.84 1.78-1.76q.6.56 1.77 1.74a4.82 4.82 0 0 1 8.16 3.52 4.69 4.69 0 0 1 -1.29 3.28l1.74 1.75zm-3.51-9.78a2.65 2.65 0 0 0 -2 .79l4.19 4.17a2.74 2.74 0 0 0 .77-1.94 3 3 0 0 0 -3-3zm-2.89 2.26a2.54 2.54 0 0 0 -.1.76 2.83 2.83 0 0 0 .88 2.09 2.93 2.93 0 0 0 2.11.86 3.3 3.3 0 0 0 .75-.07zm5 5a4.21 4.21 0 0 1 -2.15.53 4.8 4.8 0 0 1 -4.82-4.81 4.54 4.54 0 0 1 .49-2.07l-.77-.85-.79.82a4.75 4.75 0 0 1 .48 2.1 4.59 4.59 0 0 1 -1.42 3.41 4.65 4.65 0 0 1 -3.42 1.4 5 5 0 0 1 -2.07-.46l-.68.68.69.71a5.2 5.2 0 0 1 2.06-.48 4.85 4.85 0 0 1 4.86 4.87 4.88 4.88 0 0 1 -.45 2.07l.75.79.73-.75a5 5 0 0 1 -.48-2.11 4.69 4.69 0 0 1 1.42-3.44 4.75 4.75 0 0 1 5.56-.91l.77-.75zm-2.15 2.86a2.87 2.87 0 0 0 -2.09.86 2.83 2.83 0 0 0 -.86 2.08 3.11 3.11 0 0 0 .07.71l3.57-3.59a4 4 0 0 0 -.69-.06zm2.19 1q-1.17 1.23-4.16 4.23a2.82 2.82 0 0 0 2 .77 2.79 2.79 0 0 0 2.1-.91 3 3 0 0 0 .86-2.14 2.77 2.77 0 0 0 -.77-1.95zm-12.4-11.17a3 3 0 0 0 -3 3 2.75 2.75 0 0 0 .77 2l4.29-4.17a2.93 2.93 0 0 0 -2.06-.81zm2.93 2.32q-1 1-3.59 3.58a3.3 3.3 0 0 0 .66.07 3 3 0 0 0 2.15-.85 2.8 2.8 0 0 0 .88-2.1 2.57 2.57 0 0 0 -.1-.7zm-2.93 7.8a5.54 5.54 0 0 0 -.59 0l3.49 3.52a2.6 2.6 0 0 0 .07-.61 2.84 2.84 0 0 0 -.86-2.09 2.89 2.89 0 0 0 -2.11-.85zm-2.19 1a2.83 2.83 0 0 0 -.74 2 3 3 0 0 0 .86 2.13 2.77 2.77 0 0 0 2.07.92 2.68 2.68 0 0 0 2-.84l-4.2-4.19z" fill-rule="evenodd"/><path d="m31.27 180.46h3.88v-6.65h4.25a5.94 5.94 0 1 0 0-11.85h-8.13zm3.88-15.34h3a4.58 4.58 0 0 1 2.4.49 2.45 2.45 0 0 1 1 2.26 2.49 2.49 0 0 1 -1 2.23 4.43 4.43 0 0 1 -2.45.54h-3v-5.52z" fill-rule="evenodd"/><path d="m58.89 174.65a9.35 9.35 0 0 0 -1.57-5.65 5.79 5.79 0 0 0 -5-2.41 6.52 6.52 0 0 0 -5.06 2.13 7.26 7.26 0 0 0 -1.8 5.08 7 7 0 0 0 1.75 4.92 6.59 6.59 0 0 0 5.11 2.08 6.1 6.1 0 0 0 6.3-4.48h-3.3a2.14 2.14 0 0 1 -1.15 1.25 3.64 3.64 0 0 1 -1.71.45q-3.26 0-3.25-3.34zm-9.64-2.32a2.79 2.79 0 0 1 .65-1.8 2.9 2.9 0 0 1 2.37-1c1.56 0 2.52.94 2.87 2.83z" fill-rule="evenodd"/><path d="m60 180.44h3.56v-6c0-3 1.3-4.45 3.9-4.45a5.17 5.17 0 0 1 1.24.13v-3.42a2.09 2.09 0 0 0 -.75-.12 5.76 5.76 0 0 0 -2.76.53 5.63 5.63 0 0 0 -1.76 2v-2.27h-3.43v13.59z"/><path d="m82.78 180.46c-.35 0-1.79 0-4.33 0l-4.15-6.22-1.17 1.16v5.06h-3.47v-18.46h3.47v9.62l4.59-4.79h4.28l-5 5.03 5.8 8.6z"/><path d="m83.76 180.46h3.69v-13.67h-3.69zm-.15-16.86a2 2 0 0 1 2-2 2 2 0 0 1 2 2 2 2 0 0 1 -2 2 2 2 0 0 1 -2-2z" fill-rule="evenodd"/><path d="m89.12 180.44h3.64v-7a5.65 5.65 0 0 1 .46-2.6 2.31 2.31 0 0 1 2.18-1.2 2.18 2.18 0 0 1 2.15 1.06 5.07 5.07 0 0 1 .38 2.21v7.49h3.64v-8.17a6.9 6.9 0 0 0 -1-4.16c-.76-1-2.11-1.51-4-1.51a4.45 4.45 0 0 0 -2.17.6 4.89 4.89 0 0 0 -1.73 1.84h-.09v-2.2h-3.46z"/><path d="m102.72 176.07a4.08 4.08 0 0 0 1.91 3.67 8 8 0 0 0 4.34 1 7.71 7.71 0 0 0 4.24-1 4.06 4.06 0 0 0 1.84-3.64 3.2 3.2 0 0 0 -2.05-3.1 10.6 10.6 0 0 0 -2-.64l-2.12-.44c-1.39-.32-2.08-.83-2.08-1.54s.65-1.23 2-1.23c1.74 0 2.61.59 2.61 1.78h3.38a3.63 3.63 0 0 0 -1.75-3.3 7.76 7.76 0 0 0 -4.15-.93q-3.6 0-5 1.64a4 4 0 0 0 -.89 2.66 3.08 3.08 0 0 0 2.13 2.93 13.6 13.6 0 0 0 2.16.61c1 .22 1.72.41 2.18.55 1.36.41 2 .91 2 1.51a1.46 1.46 0 0 1 -.73 1.32 3.44 3.44 0 0 1 -1.8.39 3.11 3.11 0 0 1 -1.93-.55 2.14 2.14 0 0 1 -1-1.7z"/><path d="m118.85 166.55a2.31 2.31 0 0 1 1.09.29 2 2 0 0 1 .82.81 2.26 2.26 0 0 1 .3 1.11 2.29 2.29 0 0 1 -.29 1.1 2.06 2.06 0 0 1 -.82.81 2.17 2.17 0 0 1 -1.1.3 2.19 2.19 0 0 1 -1.1-.3 2 2 0 0 1 -.81-.81 2.18 2.18 0 0 1 -.29-1.1 2.25 2.25 0 0 1 .29-1.11 2.09 2.09 0 0 1 .83-.81 2.24 2.24 0 0 1 1.08-.29zm0 .37a1.84 1.84 0 0 0 -.9.24 1.62 1.62 0 0 0 -.69.68 1.79 1.79 0 0 0 -.25.92 1.91 1.91 0 0 0 .24.92 1.88 1.88 0 0 0 .69.68 1.85 1.85 0 0 0 .91.24 1.89 1.89 0 0 0 .92-.24 1.78 1.78 0 0 0 .68-.68 1.91 1.91 0 0 0 .24-.92 1.79 1.79 0 0 0 -.25-.92 1.65 1.65 0 0 0 -.68-.68 1.91 1.91 0 0 0 -.91-.24zm-1 3.06v-2.37h.82a2.24 2.24 0 0 1 .61.06.68.68 0 0 1 .3.23.66.66 0 0 1 .11.35.61.61 0 0 1 -.19.45.75.75 0 0 1 -.49.22.76.76 0 0 1 .2.12 3.54 3.54 0 0 1 .35.47l.29.47h-.47l-.21-.38a2 2 0 0 0 -.4-.55.52.52 0 0 0 -.31-.08h-.22v1zm.39-1.34h.46a.72.72 0 0 0 .46-.1.31.31 0 0 0 .12-.26.33.33 0 0 0 -.06-.19.4.4 0 0 0 -.16-.12 1.17 1.17 0 0 0 -.39 0h-.43v.71z" fill-rule="evenodd"/></g><path d="m254.72 170.75c0 .31-.16.44-.47.46l.42.73h-.42l-.38-.73h-.27v.73h-.38v-1.72h.84c.39 0 .66.07.66.53m-.66.21c.19 0 .3 0 .3-.26s-.22-.18-.38-.18h-.38v.48h.46m-.18-1.52a1.66 1.66 0 1 1 -1.65 1.66 1.65 1.65 0 0 1 1.65-1.66m0 2.92a1.26 1.26 0 1 0 -1.26-1.26 1.22 1.22 0 0 0 1.26 1.26m-10.43-18.73c5.52 0 9 6.92 3 11l5.21 7.32h-5.47l-4.08-5.62v5.62h-4.9v-18.36h6.27m0 7.77a1.76 1.76 0 1 0 0-3.52h-1.42v3.52zm-12.48 3.45h4.64v-4.1h-4.64v-2.89h5v-4.22h-10.14v18.31h10.2v-4.3h-5.06v-2.79zm-43.36-11.75a9.54 9.54 0 1 1 -9.44 9.54 9.49 9.49 0 0 1 9.44-9.54m0 14.23a4.72 4.72 0 1 0 -4.25-4.7 4.49 4.49 0 0 0 4.25 4.7m-22.95-13.7v18.31h5v-6.53l5.61 6.54h6.62l-8.26-9.59 7.23-8.71h-6.49l-4.73 5.44v-5.45zm43.31 6.42h-5.05v-6.42h-5v18.31h5v-6.81h5.05v6.81h5v-18.31h-5zm11.26 7.21h5.61v4.68h-10.66v-18.31h5v13.63z" fill="#fff"/><path d="m164.69 175.9h1.66v7.1h-1.66zm2.68 0h1.9l1.37 4.59v-4.59h1.54v7.1h-1.88l-1.45-4.86v4.86h-1.48zm9.41 3.07h.46c.66 0 .82-.42.82-.89s-.18-1-.85-1h-.43v1.92zm-1.66-3.07h2.57a1.93 1.93 0 0 1 2.09 2.14c0 1.26-.6 2.15-2.26 2.15h-.74v2.81h-1.66zm10 3.53c0 2-.14 3.67-2.48 3.67-2.19 0-2.48-1.43-2.48-3.67s.29-3.67 2.48-3.67c2.34 0 2.48 1.71 2.48 3.67m-3.24 0c0 1.94.09 2.56.75 2.56s.77-.62.77-2.56-.1-2.56-.77-2.56-.75.62-.75 2.56m3.61-3.53h1.66l.61 5 .74-5h1.54l.79 5 .59-5h1.6l-1.17 7.1h-1.85l-.72-5-.68 5h-1.84l-1.25-7.06zm8.22 0h4.08v1.34h-2.42v1.42h2.28v1.34h-2.28v1.61h2.53v1.39h-4.19zm5 0h2.78a1.69 1.69 0 0 1 1.9 1.84c0 1-.4 1.53-1.18 1.72 1.06.16 1.1.81 1.13 1.76 0 1.39.09 1.53.32 1.63v.15h-1.79a3.31 3.31 0 0 1 -.18-1.44c0-1.22-.17-1.48-.69-1.48h-.63v2.92h-1.66zm1.66 3h.51a.82.82 0 0 0 .85-.92c0-.53-.2-.89-.86-.89h-.5zm8.92 1.92v.25c0 .54.14.94.72.94s.75-.43.75-.84c0-1.52-3-.67-3-3.31 0-1.13.6-2.08 2.31-2.08s2.25.85 2.25 1.93v.17h-1.6a1.46 1.46 0 0 0 -.14-.74.52.52 0 0 0 -.5-.25c-.43 0-.66.25-.66.76 0 1.48 3 .72 3 3.22 0 1.61-.89 2.25-2.41 2.25-1.22 0-2.32-.37-2.32-1.84v-.46zm3.93-4.9h1.66v7.08h-1.68v-7.1zm2.67 0h1.91l1.36 4.59v-4.61h1.54v7.1h-1.87l-1.46-4.86v4.86h-1.48v-7.1zm8.75 2.45c0-1-.12-1.48-.67-1.48s-.72.63-.72 2.48c0 2.1.07 2.64.76 2.64s.69-.7.69-1.8h1.6v.25c0 1.52-.42 2.66-2.48 2.66s-2.29-1.59-2.29-3.72c0-1.81.11-3.62 2.45-3.62 1.46 0 2.26.64 2.26 2.3v.29zm2.36-2.47h4.08v1.34h-2.42v1.42h2.34v1.34h-2.27v1.61h2.53v1.39h-4.26zm7.39 2.2h-1.35v-1h.21c1.26 0 1.55-.65 1.63-1.1h1.17v7h-1.66zm4.7 1.36c.5 0 .61-.49.61-1.12 0-.83-.13-1.33-.62-1.33s-.61.45-.61 1.21.1 1.24.62 1.24m-.54 1.86a1.06 1.06 0 0 0 .1.51.43.43 0 0 0 .4.22c.56 0 .71-.44.71-2a1.26 1.26 0 0 1 -1.25.61c-1.07 0-1.68-.6-1.68-2.17 0-1.39.45-2.55 2.29-2.55 2.07 0 2.32 1.31 2.32 3.41 0 2.33-.17 3.73-2.44 3.73-1.26 0-2-.52-2-1.78zm3.32-3v-.22c0-1.41.75-2.11 2.26-2.11 1.69 0 2.16.86 2.16 2a2.58 2.58 0 0 1 -1.11 2.27 6.74 6.74 0 0 0 -1.36 1.48h2.48v1.26h-4.47a4.11 4.11 0 0 1 1.58-3.15c1.2-1.06 1.22-1.36 1.22-1.88s-.11-.92-.58-.92c-.64 0-.64.75-.64 1.28zm9.66 1.24c0 2-.22 3.57-2.3 3.57s-2.3-1.32-2.3-3.57c0-2 .23-3.57 2.3-3.57s2.3 1.31 2.3 3.57m-2.94 0c0 2 .08 2.51.64 2.51s.65-.53.65-2.51-.08-2.53-.65-2.53-.64.52-.64 2.53m4.06 3.41a.8.8 0 1 0 -.8-.8.8.8 0 0 0 .8.8m-47.77 0a.8.8 0 1 1 0-1.59.8.8 0 0 1 0 1.59" fill="#fff"/><path d="m88.18 105.94a.56.56 0 0 1 -.49.45h-3.69a.54.54 0 0 1 -.55-.62l.76-4.22c.07-.34.25-.56.56-.56h7.32l.64-3.43h-9.63a1.66 1.66 0 0 0 -1.62 1.34l-.09.5-1.31 7.14-.23 1.23a1.74 1.74 0 0 0 0 .75 1.78 1.78 0 0 0 1.75 1.3h7.26a1.87 1.87 0 0 0 1.83-1.49l1.08-5.86h-5.52l-.43 2.45h2.55l-.19 1zm-48.09-8.38-2.57 13.94-8.87-12.87-3.23 17.56h3.46l1.6-8.67 6 8.67h3.78l3.42-18.63zm-3.19 11 3.17-17.33h-3.37l-1.62 8.77-6.08-8.81h-3.8l-3.45 18.63h3.57l2.6-14.31 9 13zm-21.16-7.56h6.16l.63-3.43h-9.53l-2.25 12.26h9.53l.63-3.43h-6.18l.27-1.47h6.15l.46-2.45h-6.14zm32.2 0h6l.64-3.43h-9.43l-2.26 12.26h9.48l.62-3.43h-6.11l.29-1.47h6.11l.44-2.45h-6l.25-1.48zm64.76-3.43-1.21 6.5-3.68-6.5h-2.81l-2.27 12.26h3.18l1.23-6.7 3.73 6.7h2.76l2.26-12.26zm-104 4.91h-3c-.48 0-.65-.35-.57-.76a.85.85 0 0 1 .83-.72h5l.64-3.43h-7.96a1.62 1.62 0 0 0 -1.64 1.26v.17l-.73 4a1.63 1.63 0 0 0 .73 1.69 1.71 1.71 0 0 0 .89.23h3a.64.64 0 0 1 .58.76.74.74 0 0 1 -.85.71h-5l-.62 3.43h7.73a1.86 1.86 0 0 0 1.81-1.41 41.46 41.46 0 0 0 .75-4.33 1.61 1.61 0 0 0 -1.61-1.61zm71.2-2.92-1.6 8.86a2.1 2.1 0 0 1 -2 1.4h-7.67a2 2 0 0 1 -1.95-2.5c0-.09 1.52-8.36 1.52-8.36a1.83 1.83 0 0 1 1.8-1.4h8.25a1.57 1.57 0 0 1 1.69 1.64v.36zm-13.15-.09-.5 2.72v.11a1.62 1.62 0 0 1 -1.39 1.27 1.59 1.59 0 0 1 .85 1.47 1.64 1.64 0 0 1 0 .22c0 .09-.58 3.15-.58 3.15-.14.8-.73 1.41-2.21 1.41h-9.17l2.25-12.26h9.13a1.53 1.53 0 0 1 1.63 1.65 2.11 2.11 0 0 1 0 .26zm30.13 1.53h6.12l.64-3.43h-9.5l-2.26 12.26h9.48l.65-3.43h-6.15l.27-1.47h6.13l.44-2.45h-6.08zm-34.5 0h-3.53l-.27 1.48h3.53a.78.78 0 0 0 .75-.73c.08-.43-.15-.74-.48-.75zm13.3-.49h-4.18c-.28 0-.42.24-.5.5l-.84 4.63a.6.6 0 0 0 .58.76h4.11a.62.62 0 0 0 .55-.5l.86-4.63a.6.6 0 0 0 -.58-.76zm-14 4.42h-3.6l-.27 1.47h3.56a.8.8 0 0 0 .76-.73c0-.39-.13-.75-.49-.74z" fill="#fff"/><path d="m196 93.39 1.49 4.79c0 .08 0 .17-.12.17h-2.97c-.13 0-.17 0-.17-.17l1.46-4.79a.13.13 0 0 1 .12-.12.18.18 0 0 1 .17.12zm46.59 3.25a24 24 0 0 0 -.25 3.49 20 20 0 0 0 .25 3.46c.17 1 .83 1.37 1.87 1.37s1.71-.29 1.92-1.33a21.1 21.1 0 0 0 .21-3.5 28.1 28.1 0 0 0 -.21-3.53c-.17-1-.83-1.33-1.87-1.33s-1.75.33-1.92 1.37zm2 9.61c-4 0-6.12-2.25-6.12-6.07s2.17-6 6.12-6 6.12 2.08 6.12 6-2.21 6.07-6.12 6.07zm-6.86-4.12c0 2-1.71 3.5-3.91 3.91a15.82 15.82 0 0 1 -6.45-.29.23.23 0 0 1 -.21-.25v-3.37a.28.28 0 0 1 .29-.29h1.55a.28.28 0 0 1 .29.29v.54c0 1.08.08 2.37 2.08 2.37 1.75 0 2.21-.7 2.33-1.29a1.7 1.7 0 0 0 -1.46-2.12c-1.12-.29-1.66-.33-2.95-.75-2.91-.87-2.79-5.82 1.17-6.49a15.92 15.92 0 0 1 6.32.29.24.24 0 0 1 .21.25v2.46a.29.29 0 0 1 -.29.29h-1.38a.29.29 0 0 1 -.29-.29v-.21c0-.67-.12-1.79-2.08-1.79s-2 1-2 1.46.13 1.08 1.42 1.37a24.14 24.14 0 0 1 2.83.75 3.35 3.35 0 0 1 2.58 3.16zm-31.87 2.29a.28.28 0 0 1 -.29.29h-1.33a.26.26 0 0 1 -.25-.21l-3.79-11.69a1.68 1.68 0 0 0 -1.58-1.37h-3.62a.88.88 0 0 0 -.83.71l-3.7 12.31a.46.46 0 0 1 -.42.25h-1.91a.29.29 0 0 0 -.3.29v.67a.29.29 0 0 0 .3.29h6.61a.28.28 0 0 0 .29-.29v-.67a.28.28 0 0 0 -.29-.29h-2a.31.31 0 0 1 -.29-.29v-.08l1.17-4a.22.22 0 0 1 .21-.12h3.91c.08 0 .16 0 .16.12l1.25 4v.08a.28.28 0 0 1 -.29.29h-2a.29.29 0 0 0 -.3.29v.67a.29.29 0 0 0 .3.29h14.14a.32.32 0 0 0 .33-.29v-.67a.32.32 0 0 0 -.33-.29h-1.21a.32.32 0 0 1 -.33-.29v-11.42a1.58 1.58 0 0 0 -1.47-1.56h-3.62a.33.33 0 0 0 -.29.33v.63a.29.29 0 0 0 .29.29h1c.13 0 .33 0 .33 1.41l.09 10.32zm46.47 0a.28.28 0 0 1 -.29.29h-1.04a.29.29 0 0 0 -.3.29v.67a.29.29 0 0 0 .3.29h6.28a.29.29 0 0 0 .29-.29v-.67a.29.29 0 0 0 -.29-.29h-.92a.28.28 0 0 1 -.29-.29v-6.78a1.62 1.62 0 0 1 1.6-1.64 1.66 1.66 0 0 1 1.67 1.62v6.78a.28.28 0 0 1 -.29.29h-.75a.28.28 0 0 0 -.29.29v.67a.28.28 0 0 0 .29.29h6.28a.28.28 0 0 0 .29-.29v-.65a.28.28 0 0 0 -.29-.29h-1.25a.28.28 0 0 1 -.29-.29v-7c0-2.17-1.75-3.08-3.66-3.08a4.27 4.27 0 0 0 -3.2 1.12c-.17.09-.21 0-.25-.08a1.58 1.58 0 0 0 -1.46-.92h-3.58a.29.29 0 0 0 -.29.3v.62a.28.28 0 0 0 .29.29h1c.21 0 .42.21.42 8.78zm-31.49-8.78h-1.05a.28.28 0 0 1 -.29-.29v-.62a.29.29 0 0 1 .29-.3h3.58a1.58 1.58 0 0 1 1.63 1.57v8.4a.28.28 0 0 0 .29.29h1.25a.28.28 0 0 1 .29.29v.67a.28.28 0 0 1 -.29.29h-6.64a.28.28 0 0 1 -.29-.29v-.65a.28.28 0 0 1 .29-.29h1.1a.28.28 0 0 0 .29-.29v-8.2c0-.29-.08-.58-.41-.58zm-7.7-3h-1a.28.28 0 0 1 -.29-.29v-.63a.32.32 0 0 1 .29-.33h3.58a1.58 1.58 0 0 1 1.56 1.61v11.4a.28.28 0 0 0 .29.29h1.25a.29.29 0 0 1 .29.29v.67a.29.29 0 0 1 -.29.29h-6.62a.29.29 0 0 1 -.29-.29v-.65a.29.29 0 0 1 .29-.29h1.08a.28.28 0 0 0 .29-.29v-11.32a.44.44 0 0 0 -.41-.41z" fill="#373894" fill-rule="evenodd"/><path d="m206.79 115.65a.18.18 0 0 1 -.16.17h-.63a.11.11 0 0 0 -.12.12v.38c0 .08 0 .16.12.16h3.37c.09 0 .17 0 .17-.12v-.38c0-.08-.08-.12-.17-.12h-.49a.18.18 0 0 1 -.17-.17v-3.69a.9.9 0 0 1 .87-.87.88.88 0 0 1 .88.87v3.62c0 .08-.05.17-.13.17h-.33c-.09 0-.17 0-.17.12v.38a.17.17 0 0 0 .17.16h3.32c.09 0 .17 0 .17-.12v-.38c0-.08-.08-.12-.17-.12h-.62a.16.16 0 0 1 -.17-.17v-3.74c0-1.17-.91-1.67-2-1.67a2.29 2.29 0 0 0 -1.71.63c-.08 0-.12 0-.12 0a.92.92 0 0 0 -.79-.5h-1.91c-.08 0-.12.08-.12.16v.34c0 .08 0 .16.12.16h.59c.12 0 .2.09.2 4.66zm52 0a.19.19 0 0 1 -.17.17h-.58c-.09 0-.17 0-.17.12v.38a.17.17 0 0 0 .17.16h3.37a.11.11 0 0 0 .12-.12v-.38a.11.11 0 0 0 -.12-.12h-.5a.19.19 0 0 1 -.17-.17v-3.69a.91.91 0 0 1 .88-.87.88.88 0 0 1 .87.87v3.62a.16.16 0 0 1 -.17.17h-.32c-.08 0-.17 0-.17.12v.38a.18.18 0 0 0 .17.16h3.33c.08 0 .16 0 .16-.12v-.38c0-.08-.08-.12-.16-.12h-.67c-.08 0-.12-.09-.12-.17v-3.74c0-1.17-1-1.67-2-1.67a2.2 2.2 0 0 0 -1.7.63c-.09 0-.13 0-.17 0a.82.82 0 0 0 -.75-.5h-1.92a.17.17 0 0 0 -.17.16v.34a.17.17 0 0 0 .17.16h.54c.12 0 .25.09.25 4.66zm-38.4 0a.19.19 0 0 1 -.17.17h-.58c-.08 0-.17 0-.17.12v.38c0 .08.09.12.17.12h3.37c.08 0 .12-.08.12-.16v-.28c0-.12 0-.16-.12-.16h-.5a.19.19 0 0 1 -.17-.17v-3.58a1 1 0 0 1 1-.87.94.94 0 0 1 .91.87v3.58c0 .08 0 .17-.12.17h-.5c-.08 0-.17 0-.17.12v.38c0 .08 0 .12.17.12h3.37a.18.18 0 0 0 .17-.16v-.3a.15.15 0 0 0 -.17-.16h-.58a.16.16 0 0 1 -.17-.17v-3.58a.92.92 0 0 1 .92-.87 1 1 0 0 1 1 .87v3.58a.15.15 0 0 1 -.16.17h-.34c-.12 0-.16 0-.16.12v.38a.11.11 0 0 0 .12.12h3.33a.18.18 0 0 0 .17-.16v-.3a.15.15 0 0 0 -.17-.16h-.66c-.09 0-.13-.09-.13-.17v-3.74a1.92 1.92 0 0 0 -2.17-1.73 2.9 2.9 0 0 0 -1.95.88c-.05.08-.13.08-.17 0a2.07 2.07 0 0 0 -1.75-.88 2.43 2.43 0 0 0 -1.7.63c-.09.08-.13.08-.17 0a.82.82 0 0 0 -.75-.5h-1.91a.17.17 0 0 0 -.17.16v.34a.17.17 0 0 0 .17.16h.54c.12 0 .25.09.25 4.66zm-25.55 0a.18.18 0 0 1 -.16.17h-.59c-.08 0-.16 0-.16.12v.38c0 .08.08.12.16.12h3.5c.08 0 .12-.08.12-.16v-.28c0-.12 0-.16-.12-.16h-.59a.18.18 0 0 1 -.17-.17v-3.2a1 1 0 0 1 .66-1.08c.25-.13.75-.25.79.16l.05.67c0 .08.08.12.16.12h.88c.08 0 .16 0 .16-.12v-1.54a.37.37 0 0 0 -.12-.21 2 2 0 0 0 -1.17-.17 2.28 2.28 0 0 0 -1.33.67s-.08 0-.08 0a.81.81 0 0 0 -.83-.58h-1.33v-1.5a.19.19 0 0 0 -.17-.17h-6.41a.15.15 0 0 0 -.16.17v2c0 .08 0 .16.12.16h.95a.15.15 0 0 0 .16-.16v-1.34c0-.12.13-.2.25-.2h.54a.19.19 0 0 1 .21.2v6.16a.18.18 0 0 1 -.17.17h-.54c-.08 0-.16 0-.16.12v.38c0 .08 0 .12.16.12h3.83c.08 0 .17 0 .17-.12v-.38c0-.08-.09-.12-.17-.12h-.66a.18.18 0 0 1 -.17-.17v-6.16a.23.23 0 0 1 .25-.2h.54a.2.2 0 0 1 .21.2v1.34a.17.17 0 0 0 .16.16h1.09c.12 0 .2.09.2 4.66zm8.07-.41v-2c0-.25-.16-.38-.45-.33a1.2 1.2 0 0 0 -.67.29 2 2 0 0 0 -.5 1.66.9.9 0 0 0 1 .83c.5 0 .62-.25.62-.45zm-.87-2.87c.79-.25.79-.59.79-.8s-.17-.66-1-.66-.91.58-.91 1.16v.13a.19.19 0 0 1 -.17.17h-.83a.19.19 0 0 1 -.17-.17v-1.54a.14.14 0 0 1 .13-.13 8.44 8.44 0 0 1 3.16-.2c.83.16 1.83.45 1.83 1.58v3.74c0 .08 0 .17.12.17h.63a.15.15 0 0 1 .16.16v.34a.17.17 0 0 1 -.16.16h-4.08c-2.87 0-2.79-2.66-1.08-3.53a10.69 10.69 0 0 1 1.58-.58zm17.22 2a2.22 2.22 0 0 1 -2.08 2.08 8.7 8.7 0 0 1 -3.41-.12.17.17 0 0 1 -.12-.17v-1.76c0-.08.08-.12.16-.12h.84a.11.11 0 0 1 .12.12v.29c0 .59.08 1.25 1.12 1.25s1.17-.37 1.25-.66a.92.92 0 0 0 -.79-1.13c-.58-.16-.87-.2-1.58-.41-1.54-.46-1.45-3.08.63-3.46a8.72 8.72 0 0 1 3.36.17.17.17 0 0 1 .13.13v1.33a.17.17 0 0 1 -.17.16h-.72c-.08 0-.12-.08-.12-.16v-.13c0-.33-.08-1-1.12-1s-1.09.58-1.09.79.09.58.75.7a7.22 7.22 0 0 1 1.5.42 1.75 1.75 0 0 1 1.37 1.66zm21.6 0a2.22 2.22 0 0 1 -2.08 2.08 8.73 8.73 0 0 1 -3.42-.12.17.17 0 0 1 -.12-.17v-1.76c0-.08.08-.12.17-.12h.79c.12 0 .16 0 .16.12v.29c0 .59 0 1.25 1.13 1.25.91 0 1.16-.37 1.24-.66a.91.91 0 0 0 -.79-1.13c-.58-.16-.87-.2-1.58-.41-1.54-.46-1.49-3.08.63-3.46a8.8 8.8 0 0 1 3.37.17s.08.08.08.13v1.33c0 .08 0 .16-.12.16h-.75a.17.17 0 0 1 -.17-.16v-.13c0-.33 0-1-1.08-1s-1.08.58-1.08.79.08.58.75.7a8.11 8.11 0 0 1 1.49.42 1.76 1.76 0 0 1 1.38 1.66zm12.73-2.87a14.43 14.43 0 0 0 -.13 1.83 10.67 10.67 0 0 0 .13 1.88c.08.54.45.7 1 .7s.92-.16 1-.7a7.84 7.84 0 0 0 .13-1.88c0-.66 0-1.37-.09-1.87s-.45-.71-1-.71-.91.21-1 .75zm.87 5.08a2.93 2.93 0 0 1 -3.25-3.2c0-2.13 1.17-3.21 3.25-3.21s3.29 1.08 3.29 3.21-1.17 3.2-3.29 3.2zm-7.53-2.21a2.21 2.21 0 0 1 -2 2.08 8.9 8.9 0 0 1 -3.45-.12.21.21 0 0 1 -.08-.17v-1.76a.11.11 0 0 1 .12-.12h.83c.09 0 .17 0 .17.12v.29c0 .59 0 1.25 1.08 1.25s1.16-.37 1.25-.66a.9.9 0 0 0 -.79-1.13c-.58-.16-.88-.2-1.58-.41-1.5-.46-1.46-3.08.66-3.46a8.6 8.6 0 0 1 3.33.17.14.14 0 0 1 .13.13v1.33a.18.18 0 0 1 -.17.16h-.71a.17.17 0 0 1 -.16-.16v-.13c0-.33-.05-1-1.13-1s-1 .58-1 .79 0 .58.71.7a8.66 8.66 0 0 1 1.54.42 1.77 1.77 0 0 1 1.33 1.66zm1.29-3.2a.2.2 0 0 0 -.22-.17h-.58a.15.15 0 0 1 -.13-.16v-.34a.15.15 0 0 1 .13-.16h1.91a.83.83 0 0 1 .83.83v4.49a.19.19 0 0 0 .17.17h.67c.08 0 .16 0 .16.12v.38c0 .08-.08.12-.16.12h-3.5a.15.15 0 0 1 -.16-.16v-.38c0-.08 0-.12.16-.12h.54a.18.18 0 0 0 .17-.17v-4.42zm-16.18 0a.24.24 0 0 0 -.25-.21h-.54a.17.17 0 0 1 -.17-.16v-.34a.17.17 0 0 1 .17-.16h1.91a.83.83 0 0 1 .83.83v4.49a.18.18 0 0 0 .17.17h.66c.09 0 .13 0 .13.12v.38c0 .08 0 .12-.13.12h-3.53a.17.17 0 0 1 -.17-.16v-.38c0-.08.08-.12.17-.12h.58a.19.19 0 0 0 .17-.17v-4.38z" fill="#373894" fill-rule="evenodd"/><path d="m173.93 102.92c-3.08-3.87-8.61-3.37-10.15 1.33 0 .09-.09.13-.17.13a.21.21 0 0 1 -.21-.21c-.08-9.11 10.69-10.07 13.94-4.24a3.18 3.18 0 0 1 .33 1.24 2.31 2.31 0 0 1 -2.29 2.29 1.94 1.94 0 0 1 -1.45-.54z" fill="#ec1a3b" fill-rule="evenodd"/><path d="m167.77 104.46c3.08 3.87 8.61 3.37 10.15-1.33 0-.08.08-.13.17-.13a.21.21 0 0 1 .21.21c.08 9.11-10.7 10.07-13.94 4.25a3 3 0 0 1 -.33-1.25 2.27 2.27 0 0 1 2.28-2.29 2 2 0 0 1 1.46.54z" fill="#373894" fill-rule="evenodd"/><path d="m158.08 108.08a13.33 13.33 0 0 1 -.71-4.37 13.49 13.49 0 0 1 25.21-6.71 2.81 2.81 0 0 1 .29 1.17 2.5 2.5 0 0 1 -2.49 2.49 2.07 2.07 0 0 1 -1.75-.74c-7.91-10.45-21.84-3-20.1 8.07 0 .12-.08.25-.2.25s-.21 0-.25-.17z" fill="#373894" fill-rule="evenodd"/><path d="m183.62 99.3a13.5 13.5 0 0 1 -24.5 11.07 2.63 2.63 0 0 1 -.29-1.17 2.5 2.5 0 0 1 2.49-2.49 2.14 2.14 0 0 1 1.75.75c7.9 10.44 21.84 3 20.09-8.07a.23.23 0 0 1 .21-.25c.13 0 .21 0 .25.16z" fill="#ec1a3b" fill-rule="evenodd"/><path d="m182.15 114.17a1.21 1.21 0 0 1 .57.15 1.11 1.11 0 0 1 .43.43 1.22 1.22 0 0 1 .15.58 1.16 1.16 0 0 1 -.15.57 1 1 0 0 1 -.43.43 1.16 1.16 0 0 1 -.57.15 1.22 1.22 0 0 1 -.58-.15 1 1 0 0 1 -.42-.43 1.07 1.07 0 0 1 -.16-.57 1.13 1.13 0 0 1 .16-.58 1.11 1.11 0 0 1 .43-.43 1.21 1.21 0 0 1 .57-.15zm0 .2a1 1 0 0 0 -.47.12.86.86 0 0 0 -.37.36 1 1 0 0 0 0 1 1 1 0 0 0 .36.36 1 1 0 0 0 1 0 1 1 0 0 0 .36-.36 1 1 0 0 0 .12-.48.91.91 0 0 0 -.13-.48.78.78 0 0 0 -.36-.36 1 1 0 0 0 -.47-.12zm-.51 1.6v-1.24h.43a1.22 1.22 0 0 1 .32 0 .29.29 0 0 1 .15.12.32.32 0 0 1 0 .42.36.36 0 0 1 -.25.11l.1.07a1.47 1.47 0 0 1 .18.24l.16.25h-.25l-.11-.2a1 1 0 0 0 -.21-.29.24.24 0 0 0 -.16 0h-.12v.55zm.2-.7h.25a.41.41 0 0 0 .23 0 .16.16 0 0 0 .07-.14.17.17 0 0 0 0-.1.15.15 0 0 0 -.09-.06.48.48 0 0 0 -.2 0h-.23v.37z" fill="#373894" fill-rule="evenodd"/><path d="m267.65 114.17a1.18 1.18 0 0 1 .57.15 1.11 1.11 0 0 1 .43.43 1.13 1.13 0 0 1 .16.58 1.07 1.07 0 0 1 -.16.57 1 1 0 0 1 -.42.43 1.22 1.22 0 0 1 -.58.15 1.16 1.16 0 0 1 -.57-.15 1 1 0 0 1 -.43-.43 1.16 1.16 0 0 1 -.15-.57 1.22 1.22 0 0 1 .15-.58 1.11 1.11 0 0 1 .43-.43 1.21 1.21 0 0 1 .57-.15zm0 .2a1 1 0 0 0 -.47.12.78.78 0 0 0 -.36.36.91.91 0 0 0 -.13.48 1 1 0 0 0 .12.48.94.94 0 0 0 .84.48 1 1 0 0 0 .48-.12 1 1 0 0 0 .36-.36 1 1 0 0 0 0-1 .89.89 0 0 0 -.36-.36 1.07 1.07 0 0 0 -.48-.12zm-.51 1.6v-1.24h.43a1.22 1.22 0 0 1 .32 0 .31.31 0 0 1 .16.12.41.41 0 0 1 .05.18.36.36 0 0 1 -.09.24.39.39 0 0 1 -.26.11.26.26 0 0 1 .1.07 2.22 2.22 0 0 1 .19.24l.15.25h-.19l-.12-.2a.85.85 0 0 0 -.21-.29.24.24 0 0 0 -.16 0h-.11v.55zm.21-.7h.24a.45.45 0 0 0 .24 0 .18.18 0 0 0 .06-.14.17.17 0 0 0 0-.1.16.16 0 0 0 -.08-.06.56.56 0 0 0 -.21 0h-.22v.37z" fill="#373894" fill-rule="evenodd"/><path d="m151.39 56.53-1-8.13c-.06-.45-.11-.76-1-.76h-4.33c-.54 0-.81 0-1 .37l-4.73 8.63c-.21.35 0 .64.3.64h2.79a.74.74 0 0 0 .76-.41c.27-.49.53-1 .74-1.44a.1.1 0 0 1 .1-.06h3.58a.1.1 0 0 1 .1.08l.14 1.26c.05.46.28.57.65.57h2.3c.51 0 .68-.23.6-.75zm-4-3.3h-2.22a.06.06 0 0 1 -.06-.07l1.89-3.65c0-.06.1-.08.11 0l.4 3.62c-.04.07-.07.1-.14.1z" fill="#d70a35"/><path d="m191 56.53-1-8.14c-.06-.44-.12-.75-.95-.75h-4.33c-.54 0-.82 0-1 .37l-4.74 8.63c-.2.35 0 .64.31.64h2.71a.77.77 0 0 0 .76-.41c.27-.49.52-1 .74-1.44a.1.1 0 0 1 .1-.06h3.58a.1.1 0 0 1 .1.08l.14 1.26a.56.56 0 0 0 .65.57h2.31c.47 0 .62-.23.62-.75zm-4-3.3h-2.3a.05.05 0 0 1 0-.07l1.86-3.65c0-.06.1-.08.11 0l.4 3.62c-.07.07-.07.1-.15.1z" fill="#d70a35"/><path d="m174.63 56.64.74-4.07c0-.22-.06-.23-.14-.11l-3.38 4.42a.93.93 0 0 1 -.65.41h-.82a.51.51 0 0 1 -.47-.34l-1.64-4.47c-.07-.19-.13-.13-.15 0l-.79 4.31a.52.52 0 0 1 -.5.47h-2.46c-.36 0-.53-.18-.45-.55l1.65-8.42a.73.73 0 0 1 .8-.69h2.69c.5 0 .84.11 1 .47l1.41 3.93c.08.19.09.19.21 0l3.06-3.9a1 1 0 0 1 .93-.45h3.39c.59 0 .67.3.59.72l-1.65 8.5a.53.53 0 0 1 -.55.44h-2.34c-.49 0-.54-.31-.48-.67z" fill="#d70a35"/><path d="m159.55 51.88.65-3.57c.1-.54.37-.64.8-.64h2.12c.39 0 .68.14.57.69l-1.63 8.24c-.11.54-.38.69-.71.69h-1.7a.75.75 0 0 1 -.65-.29l-2.3-3.9c0-.1-.09-.07-.11 0l-.63 3.47c-.08.45-.2.78-.69.78h-2.47c-.4 0-.54-.21-.47-.62l1.59-8.36c.1-.57.4-.66.69-.66h1.75c.43 0 .64.17.92.64l2.13 3.58c.04.07.12.07.14-.05z" fill="#d70a35"/><path d="m201.14 47.62h-6.75c-.76 0-.94.14-1 .62l-1.64 8.45c-.08.38 0 .55.46.58h2.5a.56.56 0 0 0 .63-.48c.22-.93.49-2.39.55-2.72 0-.16 0-.17.31-.17h1.8c.32 0 .44.15.37.58l-.37 2.28c0 .3.08.52.43.52s2.16 0 2.46 0c.47 0 .66-.1.77-.72l.38-2.11a1.51 1.51 0 0 0 -.92-1.94c-.06 0-.05-.06 0-.07a1.9 1.9 0 0 0 1.42-1.38 13.25 13.25 0 0 0 .32-1.66c.23-1.23-.52-1.78-1.72-1.78zm-1.89 2.52a10.59 10.59 0 0 1 -.22 1.2c-.11.44-.28.55-.92.55h-1.72c-.11 0-.13 0-.11-.12l.39-2.06a.08.08 0 0 1 .08-.05h2.11c.33.04.41.18.39.48z" fill="#d70a35"/><path d="m135.84 50.91 2.47-3a.51.51 0 0 1 .47-.26h3.36c.47 0 .39.31.27.45l-4.94 5.9a.62.62 0 0 0 -.08.24l-.58 2.69c-.06.29-.31.41-.64.41h-2.51c-.52 0-.56-.29-.49-.64l.47-2.37a.25.25 0 0 0 0-.21l-3.21-6.12c-.09-.21.06-.39.33-.39h2.82a.61.61 0 0 1 .59.29l1.46 3c.06.15.13.1.21.01z" fill="#d70a35"/><path d="m168.65 40.37 34.27-14.2v-8.63l-34.27 14.2z" fill="#d70a35"/><path d="m166.66 19.13-36.25-15.02v8.63l36.25 15.01 36.26-15.01v-8.63z" fill="#d70a35"/><path d="m130.41 26.17 34.26 14.2v-8.63l-34.26-14.2z" fill="#d70a35"/><path d="m23.63 216.85h195v53h-195z" fill="#fff"/><g clip-path="url(#Q)"><path d="m43 254.17 1 8.14h11l.6.42a3.68 3.68 0 0 0 2.08.62 3.74 3.74 0 0 0 2-.54l.73-.5h10.97l1-8.14 6.41-4.71a15.89 15.89 0 0 0 .47-4.17 21.54 21.54 0 0 0 -21.56-21.95c-12.21 0-21.56 9.83-21.56 21.95a17.17 17.17 0 0 0 .52 4.22l6.3 4.65" fill="#fff"/><path d="m37.32 249.09a15.1 15.1 0 0 1 -.42-4.09 20.83 20.83 0 0 1 41.66-.75v.75a15.1 15.1 0 0 1 -.43 4.08l-6.42 4.68-1 7.81h-10.54l-.68.5a3.11 3.11 0 0 1 -1.77.55 3.17 3.17 0 0 1 -1.88-.68l-.55-.37h-10.62l-1-7.81-6.36-4.68" fill="#ffd300"/><path d="m37.32 249.09a15.1 15.1 0 0 1 -.42-4.09 20.83 20.83 0 0 1 41.66-.75v.75a15.1 15.1 0 0 1 -.43 4.08l-6.42 4.68-1 7.81h-10.54l-.68.5a3.11 3.11 0 0 1 -1.77.55 3.17 3.17 0 0 1 -1.88-.68l-.55-.37h-10.62l-1-7.81-6.36-4.68m18.33 8.82.89.68a2.16 2.16 0 0 0 1.19.46 2.33 2.33 0 0 0 1.19-.46l.89-.68h7.77l.81-6.41 6.17-4.49a6.87 6.87 0 0 0 .29-2.16 9.08 9.08 0 0 0 -.73-3.45l-11.18 11.22 10.75-13.26a8.65 8.65 0 0 0 -2.59-4.58l-.06-.05-9.67 16.78 8.51-18.33-.05-.06a8.62 8.62 0 0 0 -4.35-3.11l-5.93 20.86 4.28-21.72a8.91 8.91 0 0 0 -4.37-1.14 7.73 7.73 0 0 0 -1 .06l-.79 22.59-1.05-22.57c-.3 0-.61-.05-.91-.05a8.74 8.74 0 0 0 -4.27 1.14h-.09l4.52 21.67-5.86-20.84a8.58 8.58 0 0 0 -4.42 3.18l8.59 18.33-9.61-17a8.85 8.85 0 0 0 -2.85 4.69l10.81 13.42-11.23-11.3a8.54 8.54 0 0 0 -.75 3.55 8.08 8.08 0 0 0 .29 2.19l6.29 4.61.78 6.33z" fill="#e42313"/><path d="m110.43 234h-.08v-.14a.11.11 0 0 1 .15 0 .08.08 0 0 1 0 .07.09.09 0 0 1 0 .07z" fill-rule="evenodd"/><g fill="#005092"><path d="m105.28 236.34a2.88 2.88 0 0 0 -1.81-.68c-.51 0-1.18.3-1.18.89s.74.84 1.22 1l.67.21c1.46.43 2.6 1.17 2.6 2.87a3.6 3.6 0 0 1 -1.09 2.84 4.6 4.6 0 0 1 -3 1 6.45 6.45 0 0 1 -3.7-1.2l1.16-2.21a3.74 3.74 0 0 0 2.43 1.09c.68 0 1.36-.32 1.36-1.06s-1.08-1-1.66-1.2c-1.72-.49-2.85-.93-2.85-3a3.39 3.39 0 0 1 3.24-3.53 2.54 2.54 0 0 1 .39 0 7.26 7.26 0 0 1 3.29.86z"/><path d="m110.27 232.58v5.34a2.66 2.66 0 0 1 2.28-1.14c1.82 0 2.72 1.2 2.72 3v4.38h-2.54v-3.69c0-.84-.12-1.71-1.15-1.71s-1.36.87-1.36 1.71v3.67h-2.53v-11.56z"/><path d="m123.92 241h-5.34a1.42 1.42 0 0 0 1.22 1.59 1.15 1.15 0 0 0 .37 0 1.25 1.25 0 0 0 1.21-.68h2.46a3.51 3.51 0 0 1 -3.65 2.46c-2.36 0-4.14-1.36-4.14-3.81a3.94 3.94 0 0 1 7.88.15zm-2.36-1.46a1.5 1.5 0 0 0 -1.84-1.1 1.53 1.53 0 0 0 -1.1 1.1z"/><path d="m124.73 232.58h2.54v11.58h-2.54z"/><path d="m128.6 232.58h2.54v11.58h-2.54z"/><path d="m139.69 241.84h3.28v2.32h-6.01v-10.53h2.73z"/><path d="m146 237v3.82c0 .91.22 1.55 1.27 1.55s1.27-.64 1.27-1.55v-3.82h2.46v4.32c0 2.36-1.66 3.08-3.81 3.08s-3.81-.72-3.81-3.08v-4.32z"/><path d="m152.23 232.58h2.53v5.12a2.93 2.93 0 0 1 2.22-.94 3.83 3.83 0 0 1 0 7.64 2.56 2.56 0 0 1 -2.19-1.05v.8h-2.54zm2.45 8a1.64 1.64 0 1 0 1.53-1.52 1.64 1.64 0 0 0 -1.53 1.52"/><path d="m164 238.17a2.47 2.47 0 0 1 2.31-1.27h.49v2.44a2 2 0 0 0 -1.08-.24c-1.4 0-1.76.94-1.76 2.17v2.89h-2.53v-7.16h2.57z"/><path d="m170.14 234.25a1.43 1.43 0 1 1 -1.42-1.42 1.42 1.42 0 0 1 1.42 1.42zm-.15 9.91h-2.55v-7.16h2.56z"/><path d="m176.48 239.33a2.24 2.24 0 0 0 -1.31-.5 1.72 1.72 0 0 0 -1.75 1.68v.06a1.7 1.7 0 0 0 1.63 1.76h.16a2 2 0 0 0 1.27-.49v2.16a4.12 4.12 0 0 1 -1.79.41 3.79 3.79 0 0 1 -3.89-3.66v-.1a3.83 3.83 0 0 1 3.77-3.9h.24a3.48 3.48 0 0 1 1.67.42z"/><path d="m185.47 244.16h-2.54v-.81a2.54 2.54 0 0 1 -2.17 1 3.69 3.69 0 0 1 -3.62-3.75.22.22 0 0 0 0-.08 3.64 3.64 0 0 1 3.47-3.8h.12a2.91 2.91 0 0 1 2.22.93v-.65h2.53zm-5.72-3.58a1.63 1.63 0 1 0 1.52-1.52 1.63 1.63 0 0 0 -1.52 1.52"/><path d="m189.27 237.92a2.5 2.5 0 0 1 2.3-1.15c1.93 0 2.71 1.21 2.71 3v4.43h-2.54v-3.53c0-.68.11-1.88-1.14-1.88-1 0-1.36.76-1.36 1.66v3.71h-2.54v-7.16h2.54z"/><path d="m198.39 244.16h-2.54v-5.07h-.82v-2.09h.82v-2.15h2.54v2.15h1.44v2.09h-1.44z"/><path d="m205 238.84a3.09 3.09 0 0 0 -1.36-.35c-.3 0-.8.13-.8.49s.8.56 1.15.63c1.19.23 2.07.79 2.07 2.12 0 1.88-1.71 2.67-3.39 2.67a5.59 5.59 0 0 1 -2.84-.83l.92-1.77a4 4 0 0 0 2 .72c.32 0 .79-.15.79-.54 0-.56-.79-.59-1.59-.79a1.79 1.79 0 0 1 -1.65-1.91c0-1.76 1.59-2.54 3.15-2.54a5.62 5.62 0 0 1 2.36.46z"/><path d="m99.28 247.37h3.87a5.27 5.27 0 0 1 .38 10.53h-4.25zm2.71 8.2h.61a3 3 0 0 0 .45-5.88h-1.05z"/><path d="m112.06 248a1.43 1.43 0 1 1 -1.43-1.43 1.43 1.43 0 0 1 1.42 1.43m-.15 9.9h-2.54v-7.15h2.54z"/><path d="m118 252.58a3.05 3.05 0 0 0 -1.36-.35c-.29 0-.8.12-.8.49s.8.55 1.15.62c1.19.24 2.08.8 2.08 2.13 0 1.88-1.72 2.66-3.4 2.66a5.56 5.56 0 0 1 -2.89-.82l.92-1.74a4.1 4.1 0 0 0 2 .68c.32 0 .8-.16.8-.55 0-.55-.8-.59-1.59-.79a1.79 1.79 0 0 1 -1.59-1.89c0-1.75 1.59-2.54 3.15-2.54a5.63 5.63 0 0 1 2.36.47z"/><path d="m122.82 257.89h-2.54v-5.06h-.83v-2.09h.83v-2.15h2.54v2.15h1.44v2.09h-1.44z"/><path d="m127.33 251.9a2.5 2.5 0 0 1 2.32-1.27h.48v2.45a2 2 0 0 0 -1.07-.24c-1.41 0-1.76.94-1.76 2.16v2.9h-2.51v-7.16h2.54z"/><path d="m133.46 248a1.43 1.43 0 1 1 -1.43-1.43 1.43 1.43 0 0 1 1.43 1.43zm-.16 9.9h-2.54v-7.15h2.54z"/><path d="m134.54 246.31h2.54v5.12a3 3 0 0 1 2.22-.93 3.82 3.82 0 0 1 0 7.63 2.52 2.52 0 0 1 -2.16-1v.81h-2.54zm2.46 8a1.63 1.63 0 1 0 1.52-1.53 1.64 1.64 0 0 0 -1.52 1.53"/><path d="m146.3 250.74v3.82c0 .91.22 1.54 1.26 1.54s1.27-.63 1.27-1.54v-3.82h2.54v4.31c0 2.36-1.66 3.08-3.81 3.08s-3.81-.72-3.81-3.08v-4.31z"/><path d="m155.42 257.89h-2.54v-5.06h-.82v-2.09h.82v-2.15h2.54v2.15h1.43v2.09h-1.43z"/><path d="m165.48 254.32c0 2.43-2 3.81-4.31 3.81s-4.31-1.35-4.31-3.81 2-3.82 4.31-3.82 4.31 1.36 4.31 3.82m-5.94 0a1.63 1.63 0 1 0 1.52-1.53 1.63 1.63 0 0 0 -1.52 1.53"/><path d="m168.82 251.9a2.5 2.5 0 0 1 2.31-1.27h.49v2.45a2 2 0 0 0 -1.07-.24c-1.41 0-1.76.94-1.76 2.16v2.9h-2.54v-7.16h2.54z"/></g></g></svg>