<svg id="e18cc427-8413-496b-8d08-8743ebc7de65" data-name="Layer 1" xmlns="http://www.w3.org/2000/svg" width="230" height="100" viewBox="0 0 230 100">
  <g>
    <g>
      <path d="M36.53,80.92c0,4.81,0,9.3,0,13.8a1.1,1.1,0,0,1-.58.77C27.16,98.75,18.78,98.2,11,92.73,4.28,88,1,81.51.87,73.32a24.51,24.51,0,0,1,20-24.69,25,25,0,0,1,15,1.65,1.47,1.47,0,0,1,.7,1.1c0,4.43,0,8.85,0,13.52a13.39,13.39,0,0,0-9.93-5,12.06,12.06,0,0,0-10,4.05c-4.12,4.61-4.25,13-.27,17.53A12.4,12.4,0,0,0,26.39,85.8,14.15,14.15,0,0,0,36.53,80.92Z" style="fill: #048552"/>
      <path d="M209.63,96.17V92.52a10.27,10.27,0,0,1-5.2,4A15.24,15.24,0,0,1,187,90.62c-5.57-8-3.65-19.44,4.1-24.7,5.27-3.57,13.41-3.66,18.44,1.55v-3h11.16V96.17ZM210,80.45a7,7,0,0,0-7.22-7.4,7.07,7.07,0,0,0-7.35,7.31,7,7,0,0,0,7.2,7.28A6.88,6.88,0,0,0,210,80.45Z" style="fill: #048552"/>
      <path d="M59.6,97.34c-6.08-.16-11.19-1.66-15.14-5.92C41,87.71,39.9,83.25,40.41,78.25c.9-8.77,8.31-13.73,15.6-14.65a22.87,22.87,0,0,1,13.6,2.15,16.17,16.17,0,0,1,8.71,16.69C77.41,90.7,70.81,95.91,63.09,97,61.79,97.21,60.47,97.27,59.6,97.34Zm7.05-17.16c-.19-4.7-3.49-7.23-7.64-7.09a7.28,7.28,0,1,0,.76,14.54A7,7,0,0,0,66.65,80.18Z" style="fill: #048552"/>
      <path d="M142.49,82.22H118.73c-.19,3.1,1.28,5.66,3.71,6.62,3.22,1.26,6.43.58,8.37-1.73a1.61,1.61,0,0,1,1-.64c3.32,0,6.64,0,10.11,0a11.09,11.09,0,0,1-2.51,5.25A15.15,15.15,0,0,1,129.9,97a21.93,21.93,0,0,1-13.67-1.7c-5.21-2.57-7.91-6.83-8.57-12.54a18.61,18.61,0,0,1,1.68-10.66c2.49-5,6.79-7.54,12.16-8.43a21,21,0,0,1,9.83.61c6.38,2,9.78,6.58,10.77,13.05C142.35,78.87,142.36,80.48,142.49,82.22ZM119,75.65h13a6.28,6.28,0,0,0-6.57-5C122,70.68,119.55,72.55,119,75.65Z" style="fill: #048552"/>
      <path d="M157.79,68.39c.56-.63,1.08-1.3,1.67-1.9,2.93-3,6.61-3.43,10.5-3,6.39.69,9.56,5.17,9.71,11.11.17,7.17,0,14.36,0,21.61h-11V93.76c0-4.77,0-9.53,0-14.3a17,17,0,0,0-.33-3.42,4.44,4.44,0,0,0-4.48-3.79c-2.65-.15-4.94,1.12-5.63,3.46a18.74,18.74,0,0,0-.68,4.89c-.09,4.76,0,9.53,0,14.3v1.31h-11V64.44h10.95v3.84Z" style="fill: #048552"/>
      <path d="M106.08,64V74.31c-1.68-.18-3.37-.5-5.06-.52-4.09-.05-6.76,2.29-7.16,6.4-.27,2.87-.23,5.77-.28,8.65,0,2.42,0,4.84,0,7.34H82.49V64.49H93.55v4.93C96.53,64.85,100.91,63.71,106.08,64Z" style="fill: #048552"/>
    </g>
    <g>
      <path d="M19.59,14.31a9,9,0,0,0-5.68-2.19c-1.58,0-3.68.92-3.68,2.76S12.55,17.54,14,18l2.19.66c4.59,1.35,8.14,3.67,8.14,9,0,3.27-.79,6.64-3.41,8.87a14.46,14.46,0,0,1-9.36,3.11A20.33,20.33,0,0,1,0,35.91L3.67,29c2.15,1.88,4.68,3.41,7.61,3.41,2,0,4.16-1,4.16-3.33s-3.37-3.23-5.21-3.76C4.85,23.79,1.31,22.39,1.31,16,1.31,9.32,6.08,5,12.68,5A22.58,22.58,0,0,1,23,7.66Z" style="fill: #e42313"/>
      <path d="M35.11,2.5V19.2h.09a8.31,8.31,0,0,1,7.17-3.58c5.69,0,8.44,3.76,8.44,9.44V38.79h-8V27.29c0-2.62-.39-5.33-3.58-5.33s-4.16,2.71-4.16,5.33v11.5H27.16V2.5Z" style="fill: #e42313"/>
      <path d="M78,28.91H61.27c0,3.23,1.7,5,5,5a4,4,0,0,0,3.8-2.05h7.66c-1.27,5.29-6.3,7.69-11.41,7.69-7.44,0-13-4.19-13-11.93,0-7.48,5.11-12,12.42-12C73.51,15.62,78,20.43,78,28.08Zm-7.39-4.59a4.77,4.77,0,0,0-9.23,0Z" style="fill: #e42313"/>
      <rect x="81.03" y="2.5" width="7.96" height="36.29" style="fill: #e42313"/>
      <rect x="93.14" y="2.5" width="7.96" height="36.29" style="fill: #e42313"/>
    </g>
  </g>
</svg>
