<svg id="ae826240-720c-4578-a497-09a2cac39867" data-name="Layer 1" xmlns="http://www.w3.org/2000/svg" width="200" height="100" viewBox="0 0 200 100">
  <g>
    <g>
      <path d="M15.8,10.77a6.74,6.74,0,0,0-4.23-1.62c-1.17,0-2.73.68-2.73,2s1.73,2,2.83,2.34L13.3,14c3.41,1,6,2.73,6,6.69,0,2.44-.59,4.94-2.54,6.6a10.74,10.74,0,0,1-7,2.3,15.13,15.13,0,0,1-8.61-2.79L4,21.69a8.72,8.72,0,0,0,5.65,2.53c1.5,0,3.09-.75,3.09-2.47s-2.5-2.4-3.87-2.79c-4-1.14-6.62-2.18-6.62-6.92,0-5,3.54-8.22,8.44-8.22a16.71,16.71,0,0,1,7.67,2Z" style="fill: #e42313"/>
      <path d="M27.33,2V14.41h.06a6.17,6.17,0,0,1,5.33-2.66c4.23,0,6.27,2.79,6.27,7V29H33.08V20.42c0-2-.29-4-2.66-4s-3.09,2-3.09,4V29H21.42V2Z" style="fill: #e42313"/>
      <path d="M59.2,21.62H46.76c0,2.41,1.27,3.7,3.7,3.7a3,3,0,0,0,2.83-1.52H59c-.95,3.93-4.68,5.72-8.48,5.72-5.53,0-9.65-3.12-9.65-8.87,0-5.56,3.8-8.9,9.23-8.9,5.78,0,9.12,3.57,9.12,9.25Zm-5.48-3.41a3.55,3.55,0,0,0-6.86,0Z" style="fill: #e42313"/>
      <rect x="61.44" y="2" width="5.91" height="26.96" style="fill: #e42313"/>
      <rect x="70.44" y="2" width="5.91" height="26.96" style="fill: #e42313"/>
    </g>
    <g>
      <path d="M153,42,157,36.61h15l-9.85,13.54a123.94,123.94,0,0,1,17.55,21.64h-16.6l-7.87-12.14c-3.18,4.31-6.06,8.23-9,12.19H131.18l15.87-21.76c-7.38-7.83-15.29-14.9-24.5-20.41a77.23,77.23,0,0,0-30.4-10.26c7.16-.55,21,1.43,32.35,5.89A113,113,0,0,1,153,42Z" style="fill: #e42313"/>
      <path d="M16.85,58.48V71.74H3.77c0-.68-.1-1.4-.1-2.12,0-8.48-.08-17,0-25.43a6.81,6.81,0,0,0-1.89-5.25C1.21,38.32.72,37.58,0,36.67H16.82V49.16h11.7V36.61H41.65V71.76h-13V58.48Z" style="fill: #e42313"/>
      <path d="M77.42,63.42V71.8H48.25V36.66H77.42v8.41h-16v4.84H76.61v8.48H61.41v5Z" style="fill: #e42313"/>
      <path d="M83.34,36.59H96.28v26.8h13.26v8.37H83.34Z" style="fill: #e42313"/>
      <path d="M126.73,71.82H113.85V36.65h12.88Z" style="fill: #e42313"/>
      <path d="M6.57,80.18h4.54l3.62,9.31c1.39-3.4,2.6-6.32,3.83-9.32h4.57C24,86,24.85,91.64,25.74,97.5H21.31c-.42-3.14-.83-6.27-1.25-9.4L19.62,88l-4,9.52H13.77L9.91,88l-.41,0L8.07,97.47H3.65Z" style="fill: #005092"/>
      <path d="M155,35.37l-2.49,3.32a96,96,0,0,0-44.06-19.82C125.69,19.15,141,25,155,35.37Z" style="fill: #005092"/>
      <path d="M165.13,49.91l2.48-3.29a132.71,132.71,0,0,1,19.85,25.17h-5C177.45,64.13,172.1,56.49,165.13,49.91Z" style="fill: #005092"/>
      <path d="M34.76,98c-4.71.11-7.57-2.63-7.33-7,.17-3,2.62-5.23,6.25-5.65,4.85-.56,8.31,2.45,8.06,7C41.55,95.7,38.84,97.9,34.76,98Zm-.2-3.5a2.73,2.73,0,0,0,2.85-2.82,2.8,2.8,0,0,0-5.59-.06A2.69,2.69,0,0,0,34.56,94.49Z" style="fill: #005092"/>
      <path d="M59.58,98c-5,0-7.91-3.41-6.89-8,.61-2.72,3.07-4.47,6.67-4.74,5.18-.39,8.84,4,7.18,8.66C65.62,96.5,63,98,59.58,98Zm2.91-6.31a2.77,2.77,0,0,0-2.84-2.83,3,3,0,0,0-2.82,2.72,2.9,2.9,0,0,0,2.8,2.93A2.76,2.76,0,0,0,62.49,91.68Z" style="fill: #005092"/>
      <path d="M93.29,98c-5.44-.11-8.67-4.66-6.47-9.1,1.49-3,5.57-4.41,9.33-3.2,3.33,1.06,4.9,3.71,4.34,7.32C100,96,97.05,98.07,93.29,98Zm.21-3.52a2.85,2.85,0,0,0,2.81-2.9,2.88,2.88,0,0,0-3-2.71,2.75,2.75,0,0,0-2.66,2.82A2.68,2.68,0,0,0,93.5,94.48Z" style="fill: #005092"/>
      <path d="M114.69,78.11V97.69h-4.58V78.11Z" style="fill: #005092"/>
      <path d="M106.73,97.52H103V85.84h3.78Z" style="fill: #005092"/>
      <circle cx="104.76" cy="81.05" r="2.51" style="fill: #005092"/>
      <rect x="42.34" y="85.47" width="9.04" height="4.02" style="fill: #005092"/>
      <rect x="39.32" y="87.99" width="15.07" height="4.02" transform="translate(136.85 43.14) rotate(90)" style="fill: #005092"/>
      <path d="M78.39,85.63v3.8c-.62-.07-1.24-.19-1.87-.2a2.42,2.42,0,0,0-2.64,2.36c-.1,1.06-.09,2.14-.11,3.2,0,.89,0,1.79,0,2.71H69.68V85.8h4.08v1.82C74.87,85.93,76.48,85.51,78.39,85.63Z" style="fill: #005092"/>
      <path d="M116.21,96.63l1.53-2.93A7.51,7.51,0,0,0,121,94.84a1.69,1.69,0,0,0,.93-.18.81.81,0,0,0,.5-.69.76.76,0,0,0-.47-.72,7.82,7.82,0,0,0-1.77-.52,9.35,9.35,0,0,1-1.47-.48,2.74,2.74,0,0,1-1.57-2.49,3.83,3.83,0,0,1,1.14-3.12,4.55,4.55,0,0,1,2.11-1.14,9.33,9.33,0,0,1,5.67.39c.07,0,.16,0,.2.19l-1.36,2.63a5.58,5.58,0,0,0-2.35-.58,1.56,1.56,0,0,0-1,.3.63.63,0,0,0,.06,1.08,3,3,0,0,0,1.25.42,6.85,6.85,0,0,1,1.78.51,3.26,3.26,0,0,1,2,3.71,3.7,3.7,0,0,1-1.07,2.23,5.85,5.85,0,0,1-3.38,1.55,9.22,9.22,0,0,1-5.07-.82C116.82,97,116.55,96.81,116.21,96.63Z" style="fill: #005092"/>
    </g>
  </g>
</svg>
