<svg id="a1c4b68a-237b-41a1-8539-687d9700a922" data-name="Layer 1" xmlns="http://www.w3.org/2000/svg" width="220" height="100" viewBox="0 0 220 100">
  <g>
    <g>
      <path d="M19.5,14.25a9,9,0,0,0-5.66-2.18c-1.57,0-3.66.92-3.66,2.75S12.49,17.47,14,18l2.18.65c4.56,1.35,8.09,3.66,8.09,9,0,3.26-.78,6.61-3.39,8.83a14.45,14.45,0,0,1-9.32,3.09A20.24,20.24,0,0,1,0,35.75l3.66-6.88c2.13,1.87,4.65,3.39,7.57,3.39,2,0,4.13-1,4.13-3.3S12,25.74,10.18,25.22C4.83,23.69,1.31,22.3,1.31,16c0-6.66,4.74-11,11.31-11a22.37,22.37,0,0,1,10.27,2.7Z" style="fill: #e42313"/>
      <path d="M35,2.5V19.12H35a8.27,8.27,0,0,1,7.14-3.57c5.66,0,8.4,3.75,8.4,9.4V38.62H42.65V27.17c0-2.61-.39-5.31-3.57-5.31S35,24.56,35,27.17V38.62H27V2.5Z" style="fill: #e42313"/>
      <path d="M77.64,28.78H61c0,3.22,1.69,5,5,5a4,4,0,0,0,3.79-2h7.62C76.07,37,71.07,39.36,66,39.36c-7.4,0-12.92-4.18-12.92-11.88,0-7.44,5.08-11.93,12.36-11.93,7.74,0,12.22,4.79,12.22,12.41Zm-7.35-4.57a4.76,4.76,0,0,0-9.19,0Z" style="fill: #e42313"/>
      <rect x="80.64" y="2.5" width="7.92" height="36.12" style="fill: #e42313"/>
      <rect x="92.7" y="2.5" width="7.92" height="36.12" style="fill: #e42313"/>
    </g>
    <g>
      <path d="M.6,72.62c0-10.46,6.13-18.88,16.21-22.56a26.18,26.18,0,0,1,29.87,8.87A21.86,21.86,0,0,1,50.9,72.32c-.06,7-2.19,13.21-7.21,18.21a24.05,24.05,0,0,1-14.83,6.78,26,26,0,0,1-16.7-3.44C5.72,90,2.17,84.14,1,76.8c-.12-.73-.19-1.48-.25-2.22S.62,73.09.6,72.62ZM25.77,60.08c-6.6-.07-12.67,5.47-12.9,11.51C12.58,79.52,18.23,86,25.74,86s12.39-5.9,12.88-12.71C39.15,65.92,32.63,60,25.77,60.08Z" style="fill: #6f1471"/>
      <path d="M87.08,96H76.15V94.43C76.1,89,76.07,83.47,76,78a9.68,9.68,0,0,0-.49-2.54,4,4,0,0,0-4.2-3.16c-2.28,0-3.73.9-4.36,3.1a16.65,16.65,0,0,0-.64,4.27c-.08,5,0,10-.05,14.94v1.32H55.37V64.77H66.18v3.66l.21.22a11.73,11.73,0,0,1,10.5-5,11.24,11.24,0,0,1,9.88,5.91c3.2-4.88,7.69-6.54,13.24-5.69a9.13,9.13,0,0,1,7.58,8.92c.26,5,.22,10.11.28,15.17,0,2.61,0,5.22,0,7.92H96.93V93c0-4.48,0-9,0-13.45a16.36,16.36,0,0,0-.48-3.68c-.53-2.24-1.78-3.25-3.88-3.33-2.39-.1-4.25,1-4.79,3.12a25.34,25.34,0,0,0-.64,5.64C87,86.14,87.08,91,87.08,96Z" style="fill: #6f1471"/>
      <path d="M195.36,67.67v-2.9h10.87V95.92H195.39v-3.6a10.23,10.23,0,0,1-5.9,4.21c-6.66,1.79-13.5-1.25-17-7.55a17.73,17.73,0,0,1,3.1-21.35c5-4.68,12.92-5.28,18.18-1.35C194.24,66.67,194.71,67.12,195.36,67.67Zm-6.78,19.72c4.26,0,7.08-2.69,7.11-6.9a6.79,6.79,0,0,0-6.64-7.18,6.87,6.87,0,0,0-7.5,7.08C181.52,84.57,184.28,87.35,188.58,87.39Z" style="fill: #6f1471"/>
      <path d="M148.25,96H137.43V92.34c-2.86,3.89-6.65,5-10.86,4.61-6.89-.72-11.33-4.69-13.44-11.19a17.36,17.36,0,0,1,5.34-18.88c5.6-4.52,14-4.22,18.88.84v-3h10.9Zm-17.71-8.6a6.71,6.71,0,0,0,7.25-6.79,6.94,6.94,0,0,0-6.31-7.27c-5.3-.34-7.74,3.2-7.89,6.65C123.39,84.39,126.12,87.26,130.54,87.39Z" style="fill: #6f1471"/>
      <path d="M165.64,96h-10.8V45.5h10.8Z" style="fill: #6f1471"/>
    </g>
  </g>
</svg>
