<svg id="e5b6135f-13d2-4ae9-ba08-75071af8accf" data-name="Layer 1" xmlns="http://www.w3.org/2000/svg" width="210" height="100" viewBox="0 0 210 100">
  <g>
    <g>
      <path d="M19.54,14.27a9,9,0,0,0-5.67-2.18c-1.57,0-3.66.92-3.66,2.75S12.52,17.5,14,18l2.18.65c4.58,1.36,8.11,3.67,8.11,9,0,3.27-.78,6.62-3.4,8.85a14.43,14.43,0,0,1-9.33,3.1A20.32,20.32,0,0,1,0,35.82l3.66-6.9c2.14,1.88,4.67,3.41,7.59,3.41,2,0,4.15-1,4.15-3.32S12,25.79,10.21,25.26c-5.37-1.52-8.9-2.92-8.9-9.29,0-6.67,4.75-11,11.33-11a22.47,22.47,0,0,1,10.3,2.71Z" style="fill: #e42313"/>
      <path d="M35,2.5V19.16h.08a8.29,8.29,0,0,1,7.16-3.58c5.67,0,8.42,3.75,8.42,9.42V38.69H42.74V27.22c0-2.61-.39-5.32-3.58-5.32S35,24.61,35,27.22V38.69H27.08V2.5Z" style="fill: #e42313"/>
      <path d="M77.8,28.84H61.1c0,3.22,1.7,5,5,5a4,4,0,0,0,3.8-2.05H77.5c-1.27,5.27-6.28,7.67-11.38,7.67-7.42,0-13-4.18-13-11.9,0-7.46,5.1-12,12.38-12,7.76,0,12.25,4.8,12.25,12.43Zm-7.37-4.58a4.76,4.76,0,0,0-9.2,0Z" style="fill: #e42313"/>
      <rect x="80.81" y="2.5" width="7.94" height="36.19" style="fill: #e42313"/>
      <rect x="92.89" y="2.5" width="7.94" height="36.19" style="fill: #e42313"/>
    </g>
    <g>
      <path d="M96.28,97.06a5.15,5.15,0,0,1-1.24.32c-3.19,0-6.37,0-9.56,0-.45,0-.9-.11-1.55-.19.14-.93.25-1.75.39-2.56.18-1,.41-2,.58-3,.24-1.41.41-2.84.67-4.24s.64-3,.93-4.51c.2-1,.36-2,.52-3,.37-2.37.72-4.74,1.12-7.11.23-1.32.55-2.62.83-3.93a4.48,4.48,0,0,0,.11-.5c.21-1.62.39-3.25.63-4.87.08-.61.29-1.2.41-1.8.33-1.65.67-3.29.94-5,.12-.71.1-1.44.15-2.16a.12.12,0,0,0,0-.15,11.36,11.36,0,0,0,.45-1.23c.27-1.06.51-2.13.76-3.19l.53.49.26.3q-2,11.31-4.07,22.62C87.8,81,86.52,88.5,85.19,96.13a66.91,66.91,0,0,0,10,.23c.28,0,.57,0,.85.07Z" style="fill: #eacf33"/>
      <path d="M164.63,83.18l.09-.4c1-1.42,2-2.83,3-4.28s1.63-2.7,2.51-4c.71-1.06,1.54-2,.66-3.39-.06-.09,0-.25-.07-.37-.44-1.53-.89-3-1.34-4.58-.58-2-1.16-4-1.73-6-.39-1.33-.78-2.66-1.15-4-.54-1.9-1.06-3.79-1.59-5.69a.69.69,0,0,0,.11-.13l1.38.48c.75,2.46,1.52,4.91,2.24,7.37.81,2.79,1.59,5.59,2.39,8.39.43,1.54.89,3.07,1.28,4.63a1.72,1.72,0,0,1-.16,1.16c-1,1.65-2.1,3.25-3.15,4.88l-10.24,16L157,96.21a14.34,14.34,0,0,0,1.61.2q4.84,0,9.69,0a12.62,12.62,0,0,0,1.49-.18l.2.25a1,1,0,0,1-1.16.74c-4.17,0-8.35,0-12.53,0-.14,0-.28-.12-.43-.19.88-1.4,1.75-2.81,2.62-4.21l2.14-3.5,0-.38c.14-.08.34-.12.42-.24C162.26,86.86,163.44,85,164.63,83.18Z" style="fill: #eacf33"/>
      <path d="M136.16,54.2c.32-.68.66-1.36,1-2.05.21-.45.34-.93.58-1.36.1-.16.41-.21.63-.3a1,1,0,0,1,.24,0c0,.07,0,.15,0,.23-1.52,3.66-3,7.31-4.56,11q-3.09,7.5-6.18,15-3.23,7.81-6.49,15.63c-.49,1.19-1,2.38-1.55,3.8,4,.53,7.78.07,11.57.28l-.23.69c-1.15,0-2.29.09-3.43.1H120c-.37,0-.75-.05-1.35-.09.3-.83.54-1.56.83-2.28q1.44-3.58,2.91-7.16c.69-1.68,1.42-3.35,2.13-5,1.47-3.5,2.95-7,4.41-10.49,1-2.46,2-4.93,3.05-7.4a2.07,2.07,0,0,0,.05-.5h0a4.66,4.66,0,0,0,.48-.71q1.08-2.6,2.11-5.2c.51-1.26,1-2.53,1.5-3.8Z" style="fill: #eacf33"/>
      <path d="M138.58,50.53a1,1,0,0,0-.24,0,.55.55,0,0,1,0-.22l.82-.28H153.7l.23,2.31c0,1.61,0,3.23.07,4.85,0,.33,0,.66-.05,1,0,2.18,0,4.36,0,6.54a5.29,5.29,0,0,0,.26,1.15l.21,1.07.08,4c0,.92,0,1.85,0,2.77,0,2.58,0,5.16,0,7.73,0,.17-.28.66.31.51l.21,1.24,0,4.08L155,88c0,2.08,0,4.16,0,6.24a6.11,6.11,0,0,0,.25,1.17l.25,1.52-.09,0-1-.57,0-1,.06-2c0-1.75,0-3.51,0-5.26a3.82,3.82,0,0,0-.26-.9c-.08-.43-.15-.86-.23-1.3-.13-3.3-.27-6.6-.39-9.9-.18-5-.36-10-.51-15-.09-2.67-.12-5.34-.17-8,0-.76,0-1.51,0-2.26a3,3,0,0,0-.88-.29Q145.3,50.51,138.58,50.53Z" style="fill: #c41f1a"/>
      <path d="M77.38,97,77,96.9l-.17-.47.06-1,1.53-8.65c.16-.65.35-1.29.46-2q1.62-9.22,3.22-18.46c.32-1.87.61-3.75.92-5.62.42-2.23.84-4.45,1.25-6.68.19-1,.36-2.11.54-3.23H74.88l-1.06-.06-.48-.31L73.08,50H85.67c-.22,1.53-.43,3-.65,4.56L85,55l-.12.4-.21,1Q82.81,66.54,81,76.73c-.87,4.87-1.71,9.75-2.57,14.63a4.21,4.21,0,0,0,0,.5l-.08.63-.17.9-.12.49-.16,1-.12.48L77.41,97Z" style="fill: #a72018"/>
      <path d="M52.87,49.78l4.22.9h.06l.31.06a29.37,29.37,0,0,1,3.77,1.75,10.17,10.17,0,0,1,4.65,7.39,42.8,42.8,0,0,1,.22,4.81l-.42,2.17-.18.52-.39-1.06c0-1.61.13-3.23,0-4.82a18.78,18.78,0,0,0-.93-3.37l-1.56-2.58A17,17,0,0,0,61,54c-2.75-2.13-6-2.81-9.35-3l-1.33-.23a2.62,2.62,0,0,0-.78-.25q-4.87,0-9.75,0a2.14,2.14,0,0,0-.66.22v.07h-.59l0-.07-.1-.49H51.89C52.26,50.24,52.79,50.46,52.87,49.78Zm1.08.67,0-.18-.64,0v.13Z" style="fill: #c41f1a"/>
      <path d="M93.71,50h1a3.48,3.48,0,0,0,.92.24q5.52,0,11,0a3.06,3.06,0,0,0,.81-.22l4.09.44.63.1.38.14.5.11,1,.39.47.22c.55.31,1.14.56,1.65.91a10,10,0,0,1,4.51,7.12c0,1.79,0,3.59,0,5.38l0,0-.52.63,0-.92a16.89,16.89,0,0,0-.48-5,8.42,8.42,0,0,0-2-4A17,17,0,0,0,115,53.12,16.27,16.27,0,0,0,107,51l-.8-.23c-.18-.09-.35-.25-.53-.26-3.81,0-7.63,0-11.44,0a1.62,1.62,0,0,0-.55.23l-.49.07-.26-.3Z" style="fill: #c41f1a"/>
      <path d="M191.15,93.9c.31,1,.61,2.08,1,3.28l-.78-.19-.63-.56-.47-1.12a10.17,10.17,0,0,0-.2-1.23c-.26-.92-.57-1.82-.85-2.73-.35-1.3-.66-2.61-1.05-3.9-.64-2.13-1.33-4.25-2-6.37-.27-1-.52-2-.82-3-.35-1.2-.79-2.37-1.11-3.57a1.37,1.37,0,0,1,.84-1.72q1.4,4.84,2.8,9.68c.22.76.47,1.52.71,2.27l.7,2.52c.32,1.24.64,2.48,1,3.72A3.75,3.75,0,0,0,191.15,93.9Z" style="fill: #c41f1a"/>
      <path d="M111.5,77.66c.77,2.59,1.53,5.19,2.31,7.78.41,1.33.85,2.65,1.28,4l.59,1.94,1.64,5.84-.84-.24-.58-.54-.3-1-1.92-6.21c-.47-1.52-.92-3-1.4-4.56s-1.08-3.31-1.58-5C110.4,78.64,110.57,78.33,111.5,77.66Z" style="fill: #c41f1a"/>
      <path d="M96.28,97.06,96,96.43l.15-1,.6-3.55,0-.51c.68-3.69,1.37-7.37,2-11.06a4.67,4.67,0,0,1,1-2.37l.13.46L97.39,92.83l-.19,1.33c-.14.8-.27,1.6-.45,2.39C96.7,96.75,96.44,96.89,96.28,97.06Z" style="fill: #a72018"/>
      <path d="M61,77.05l-.52.5c-.7.49-1.74.53-2.05,1.54l-.75.52-.79,0a1.64,1.64,0,0,0,0-.23.31.31,0,0,0,.12,0,.17.17,0,0,0,0-.08l-.12.14-.51.25c-1.19.25-2.37.53-3.56.74a19.51,19.51,0,0,1-6.6.2l0-.11a6.3,6.3,0,0,1,1.28-.4c1.09-.09,2.18-.08,3.26-.16a11.83,11.83,0,0,0,1.56-.27,13.33,13.33,0,0,1,1.94-.39,5.34,5.34,0,0,0,2.48-.73,1.8,1.8,0,0,1,.67-.3,3.88,3.88,0,0,0,2.68-1.42c.69-.74,1.34-1.51,2-2.27a9.94,9.94,0,0,1-.35,1C61.57,76.06,61.29,76.55,61,77.05Z" style="fill: #faf7c4"/>
      <path d="M27.87,51l.5,0,2.43,1.18c-.49,3-1,6.09-1.46,9.13-.34,1.66-.69,3.33-1.07,5.14l-.46-1c.1-.81.19-1.62.29-2.43l.33-2.37c.15-.74.31-1.49.47-2.23a3.9,3.9,0,0,0,.21-.57c.28-1.44.55-2.87.82-4.31a.82.82,0,0,0,.35-1.2c-.42-.22-.88-.43-1.31-.68S28.23,51.24,27.87,51Z" style="fill: #a72018"/>
      <path d="M44.49,82.2q-1.16,6.61-2.29,13.24l-.13.9-.31.77-.33-.28-.28-.5.2-.93c.19-1.16.37-2.33.57-3.5.25-1.43.52-2.87.77-4.31A3.1,3.1,0,0,0,42.9,87c.2-1.07.33-2.16.58-3.22C43.62,83.17,43.67,82.42,44.49,82.2Z" style="fill: #a72018"/>
      <path d="M180.23,60.79l4.86-10.28a.18.18,0,0,0,0-.16l.37-.32.09.66a8.22,8.22,0,0,1-.34,1.2c-.48,1-1,2-1.51,3.06L181,60.63l.51.12.13.43-1,.13-.23.83-.46-.16,0-.49Z" style="fill: #eacf33"/>
      <path d="M26.35,74.94l.89,3.56v1.2a20.19,20.19,0,0,1-2.89,9c-.22.36-.36.8-.92.67a16.74,16.74,0,0,0,2.42-6.12l.49-2.59.57.12c-.07-1.31-.12-2.53-.23-3.74C26.61,76.33,26.46,75.64,26.35,74.94Z" style="fill: #a72018"/>
      <path d="M65.57,67.52l-1.09,3.36-.23.53c-.41.76-.8,1.53-1.26,2.26-.12.21-.42.3-.64.45l.23-.6a16.81,16.81,0,0,0,1.05-2.13c.55-1.67,1-3.38,1.48-5.08l.39,1.06Z" style="fill: #a72018"/>
      <path d="M170,96.49l.33,0h0V97c-.15.85-.85.37-1.28.53-4.09,0-8.19,0-12.28,0a5.21,5.21,0,0,1-1.27-.3.3.3,0,0,0-.08-.18l.09,0,.37.06c.15.07.29.19.43.19,4.18,0,8.36,0,12.53,0A1,1,0,0,0,170,96.49Z" style="fill: #faf7c4"/>
      <path d="M17.65,50.46l1.51-.22,4,.41-.45.13c-1.51.08-3,.1-4.51.28a33.72,33.72,0,0,0-3.4.72l1.07-.72Z" style="fill: #a72018"/>
      <path d="M155.27,92.88c0,.85,0,1.71-.05,2.56a6.11,6.11,0,0,1-.25-1.17c0-2.08,0-4.16,0-6.24l.2.76.2,1.37-.12,1.19C155.26,91.86,155.27,92.37,155.27,92.88Z" style="fill: #a72018"/>
      <path d="M154,58.14l.25,2.07,0,1.28c0,1.45,0,2.89,0,4.34a5.29,5.29,0,0,1-.26-1.15C153.93,62.5,154,60.32,154,58.14Z" style="fill: #a72018"/>
      <path d="M120.76,59.45l.32,3.83v.5l-.29,1C120.78,63,120.77,61.24,120.76,59.45Z" style="fill: #a72018"/>
      <path d="M165,50.46l-.26,0,0-.57.42.1-.08.37A.69.69,0,0,1,165,50.46Z" style="fill: #eacf33"/>
      <path d="M99.88,78.39l-.13-.46a4.67,4.67,0,0,0-1,2.37c-.63,3.69-1.32,7.37-2,11.06-.88-.18-.6-.9-.44-1.31a11.28,11.28,0,0,0,.94-4.27c0-.26-.08-.58,0-.76.81-1.22.68-2.71.84-4a6.49,6.49,0,0,1,1.51-3.81s.07,0,.13-.07c.57,1.33,1.35-.69,2,.2v.8c-.88.13-.45.8-.41,1.19.09.88.32,1.74.48,2.61.86,4.38,1.7,8.75,2.56,13.13.13.65.41,1.25,1.17,1.31s1.58,0,2.37,0h7.88l.58.54a4.9,4.9,0,0,1-1.16.28c-2.42,0-4.84,0-7.27,0h-4.44c-.21-1-.41-1.89-.58-2.79-.57-3.07-1.11-6.15-1.69-9.22-.25-1.36-.57-2.71-.83-4.07-.1-.5-.1-1-.2-1.51S100,78.81,99.88,78.39Z" style="fill: #eacf33"/>
      <path d="M155.38,97a.3.3,0,0,1,.08.18l-.5.09c-.46,0-.93,0-1.4,0l-11.32-.06V91.32h-3.17c-1.44,0-2.89,0-4.33,0a1.2,1.2,0,0,0-1.17.54l-1,1.18-.07-1.19,1.86-1.55h9.08c0,1.7,0,3.22,0,4.74,0,1.23.15,1.38,1.4,1.38,3.18,0,6.37,0,9.55,0Z" style="fill: #eacf33"/>
      <path d="M132.59,93l1-1.18c-.54,1.63-1.07,3.27-1.63,4.9-.11.32-.31.63-.75.39l.23-.69.33-1Z" style="fill: #a72018"/>
      <path d="M142.24,97.17l11.32.06c.47,0,.94,0,1.4,0a3.46,3.46,0,0,1-.81.21c-3.68,0-7.37,0-11.05,0A2.94,2.94,0,0,1,142.24,97.17Z" style="fill: #faf7c4"/>
      <path d="M25.84,83.23a16.74,16.74,0,0,1-2.42,6.12l.11.53c-.39.29-.94.5-1.14.9a6.09,6.09,0,0,1-2.61,2.54A19.74,19.74,0,0,1,15,95.07c-2.79.71-5.45.1-8.16-.19A8.7,8.7,0,0,1,5,94.4c-.89-.31-1.77-.67-2.53-1,.52-3,1-5.86,1.49-8.69l.15,0a6,6,0,0,0,5.64,2A2.62,2.62,0,0,0,12,85.46h0l.51-.3.54-.45a20.52,20.52,0,0,0,2-1.08c.26-.18.36-.61.53-.92a3.23,3.23,0,0,0,.57-3.1,4.45,4.45,0,0,0-1.53-2.09,51.39,51.39,0,0,1-4.88-4.8c-2.48-2.93-2.85-6.34-2.15-9.79a15.88,15.88,0,0,1,2.81-6.75A24.67,24.67,0,0,0,12,53.56l1.5-1a7.75,7.75,0,0,0,3.55-.76,6.1,6.1,0,0,1,.84-.22c.69-.13,1.39-.23,2.26-.37l.62.35,1.35-.61-.18.61A16.63,16.63,0,0,1,29,53.19c0,1.85-.09,3.56-.13,5.27-.16.74-.32,1.49-.47,2.23-.5.21-.82-.06-1.25-.31-1.36-.76-2.77-1.51-4.4-.71a2.1,2.1,0,0,1-.51,0,1.35,1.35,0,0,0-1.42.59,3.45,3.45,0,0,1-1.51,1,6.17,6.17,0,0,0-1.54,1.21l.11.16-1.6.13a22.27,22.27,0,0,1,.28,2.67c0,1.16,0,1.32,1.13,1.82.56.51,1.11,1,1.67,1.51l2.35,2.05.06.93,1,.34h0c.13,1.14,1.14,1.65,1.77,2.42,0,0,.15-.06.22-.09h0a2.55,2.55,0,0,0,1,2.55h0Q25.83,80.14,25.84,83.23Z" style="fill: #fbd108"/>
      <path d="M15.61,82.72c-.17.31-.27.74-.53.92a20.52,20.52,0,0,1-2,1.08,8.35,8.35,0,0,1,.59-1.2c.86-1.24.22-2.28-.56-3.13-1.25-1.35-2.64-2.56-4-3.83a13.73,13.73,0,0,1-3.45-4.91,11.39,11.39,0,0,1-.51-6.83c.15-.65.2-1.33.3-2,.13-.1.35-.19.37-.3a13.46,13.46,0,0,1,2.62-5.4l.58.08c-.15.28-.22.46-.33.63A18.26,18.26,0,0,0,6.15,65.4a11.43,11.43,0,0,0,2,7.68,24.56,24.56,0,0,0,5.09,5,4.16,4.16,0,0,1,1.83,3.78C15.08,82.26,15,82.7,15.61,82.72Z" style="fill: #eacf33"/>
      <path d="M4,84.75c-.49,2.83-1,5.66-1.49,8.69.76.29,1.64.65,2.53,1a8.7,8.7,0,0,0,1.8.48c2.71.29,5.37.9,8.16.19a19.74,19.74,0,0,0,4.83-1.75,6.09,6.09,0,0,0,2.61-2.54c.2-.4.75-.61,1.14-.9a7.12,7.12,0,0,1-.87,2.05,11,11,0,0,1-2,1.48,2.3,2.3,0,0,0-.44.49c-.49.38-1.25.34-1.54,1l-1,.51-1.36.44.31-.54a21.36,21.36,0,0,1-15.37-1c.31-1.79.63-3.53.89-5.28s.51-3.59.76-5.39Z" style="fill: #faf7c4"/>
      <path d="M2.88,83.61c-.25,1.8-.48,3.6-.76,5.39s-.58,3.49-.89,5.28a21.36,21.36,0,0,0,15.37,1l-.31.54c-5,2-10.3,2-16.27-.61.19-1.23.38-2.51.6-3.78s.47-2.39.67-3.6.38-2.66.62-4c.06-.31.37-.57.56-.85Z" style="fill: #eacf33"/>
      <path d="M2.88,83.61l-.41-.56a2.54,2.54,0,0,1,.2-2.22l1.22,2c-.05.39.07.64.51.61h0l.52.52h0l.29.26,0,0c0,.49.23.57.63.52l.1,0,0,.49,0,0L4.1,84.72l-.15,0Z" style="fill: #c41f1a"/>
      <path d="M4.1,84.72l1.79.52c0,.08,0,.19.05.24a4.59,4.59,0,0,0,4.74.41s.05-.07.07-.1L12,85.46a2.62,2.62,0,0,1-2.28,1.25A6,6,0,0,1,4.1,84.72Z" style="fill: #a72018"/>
      <path d="M10.75,85.79s0,.08-.07.1a4.59,4.59,0,0,1-4.74-.41c-.05,0,0-.16-.05-.24l0,0h.82A8.45,8.45,0,0,0,10.75,85.79Z" style="fill: #c41f1a"/>
      <path d="M6.74,85.2H5.92l0-.49Z" style="fill: #a72018"/>
      <path d="M4.4,83.42c-.44,0-.56-.22-.51-.61Z" style="fill: #a72018"/>
      <path d="M5.8,84.68c-.4,0-.68,0-.63-.52Z" style="fill: #a72018"/>
      <path d="M4.91,83.93l-.52-.52Z" style="fill: #a72018"/>
      <path d="M12.52,85.17l-.51.3Z" style="fill: #a72018"/>
      <path d="M5.19,84.18l-.29-.26Z" style="fill: #a72018"/>
      <path d="M179.93,62l.46.16.23-.83,1-.13-.13-.43a7.06,7.06,0,0,0,1-1.23c.88-1.76,1.71-3.56,2.53-5.35.4-.86.75-1.75,1.11-2.62a3,3,0,0,1,2.1-.53c.62.06,1.26,0,1.89,0h7.21c.44,0,1-.15,1,.56a8.81,8.81,0,0,1-.55,1.11q-3.63,5.64-7.29,11.27c-1.52,2.32-3.06,4.63-4.55,7a20.21,20.21,0,0,0-1,1.85,1.37,1.37,0,0,0-.84,1.72c.32,1.2.76,2.37,1.11,3.57.3,1,.55,2,.82,3a4.46,4.46,0,0,0,.44,2.29,13.16,13.16,0,0,1,.86,3.3c.13,1.19,1,2.18.75,3.45-.13.69.38,1,1,1.23.28.91.59,1.81.85,2.73a10.17,10.17,0,0,1,.2,1.23,2.16,2.16,0,0,1-.49.11H181a2.75,2.75,0,0,1-.53-.12c-.19-1.26-.36-2.5-.57-3.73-.28-1.68-.57-3.36-.89-5-.15-.77-.36-1.52-.55-2.27,0-.3.11-.83,0-.87a6.68,6.68,0,0,0-1.33-.25l-.35,1.11-.72-.31a9.74,9.74,0,0,1-.62,1,11.37,11.37,0,0,0-2.15,3.9c-.35,1.24-1.74,2-1.5,3.39-.89.71-1,1.91-1.88,2.82H159.65c-.37-.77.24-1.37.51-2,.16-.38.26-.77.39-1.15,1.17-1.79,2.35-3.59,3.51-5.39s2.31-3.61,3.46-5.42,2.16-3.44,3.25-5.15c.73-1.15,1.4-2.34,2.23-3.41a2.48,2.48,0,0,0,.39-3.15,18.79,18.79,0,0,1-1-2.84c-.76-2.67-1.44-5.37-2.2-8-.61-2.13-1.29-4.24-1.94-6.35,0-.32.09-.64.14-1,2.54,0,5,0,7.44,0a3.68,3.68,0,0,1,2.11.53c.22,1.77.42,3.54.65,5.31.21,1.55.44,3.09.66,4.64l.2,1.31Z" style="fill: #fbd108"/>
      <path d="M186.12,50h12.74c0,.49-.33.51-.7.51H186.83C186.47,50.51,186.13,50.5,186.12,50Z" style="fill: #c41f1a"/>
      <path d="M186.12,50c0,.49.35.5.71.5h11.33c.37,0,.7,0,.7-.51l.89,0-.88.89-12.44,0-.83-.13-.09-.66Z" style="fill: #a72018"/>
      <path d="M186.43,50.82l12.44,0-.48.75c-.07-.71-.61-.56-1-.56h-7.21c-.63,0-1.27,0-1.89,0a3,3,0,0,0-2.1.53Z" style="fill: #eacf33"/>
      <path d="M41.43,96.83c-.24.13-.48.38-.72.38-3.77,0-7.53,0-11.52,0,.36-2.14.7-4.16,1-6.18.06-.41.1-.83.15-1.24.3-1.57.61-3.14.89-4.72.24-1.37.44-2.74.68-4.11.29-1.61.62-3.21.92-4.81.18-1,.37-1.9.52-2.85.22-1.36.38-2.74.61-4.1s.56-2.88.84-4.33c.22-1.15.45-2.31.63-3.47.22-1.37.36-2.75.6-4.12s.61-2.88.88-4.32c.1-.54.05-1.11.17-1.64a5.29,5.29,0,0,1,.49-1.09l1,.49,0,.07c-.22.89-.47,1.78-.66,2.68q-.43,2.16-.81,4.35c-.24,1.45-.41,2.92-.68,4.37-.42,2.28-.94,4.54-1.34,6.82-.59,3.32-1.07,6.66-1.65,10s-1.29,6.78-1.92,10.18c-.37,2-.69,4-1,6a8.49,8.49,0,0,0,0,1.25c2.51,0,5,0,7.42,0,1.09,0,2.18,0,3.27-.08Z" style="fill: #eacf33"/>
      <path d="M38.56,50.74l-1-.49a2.13,2.13,0,0,1,.71-.29H51a16.19,16.19,0,0,0,1.83-.18c-.08.68-.61.46-1,.47H38.46Z" style="fill: #a72018"/>
      <path d="M73.34,50.47l.48.31a15.09,15.09,0,0,1-.14,1.65c-.44,2.41-1,4.81-1.38,7.22-.62,3.45-1.19,6.91-1.79,10.36-.25,1.41-.54,2.81-.77,4.22s-.44,2.92-.69,4.38S68.47,81.5,68.2,83c-.31,1.75-.58,3.5-.89,5.25-.37,2.07-.79,4.14-1.14,6.22a11.82,11.82,0,0,0,0,1.8,13.28,13.28,0,0,0,1.61.19c3,0,6,0,9.06,0l.17.47a5.13,5.13,0,0,1-1.5.48c-3.18,0-6.36-.07-9.54-.13-.41,0-.82-.07-1.35-.11.33-1.65.65-3.16.94-4.68.18-.91.34-1.82.49-2.73.21-1.29.39-2.58.61-3.87.26-1.53.57-3,.84-4.59.18-1,.36-2,.51-3,.26-1.76.5-3.51.75-5.27a4.07,4.07,0,0,0,.4-.91c.21-1,.36-2.06.53-3.1.38-2.44.71-4.9,1.14-7.34.41-2.27.93-4.52,1.37-6.79.23-1.2.39-2.41.57-3.62C72.82,50.87,72.77,50.45,73.34,50.47Z" style="fill: #eacf33"/>
      <path d="M96.15,95.42l-.15,1c-.28,0-.57-.07-.85-.07a66.91,66.91,0,0,1-10-.23C86.52,88.5,87.8,81,89.13,73.44s2.71-15.08,4.07-22.62l.49-.07.36.08-.28,2.25c-.24,1.47-.46,2.93-.71,4.39-.29,1.73-.61,3.46-.9,5.19-.22,1.27-.4,2.55-.62,3.83-.3,1.73-.64,3.45-1,5.18,0,.3,0,.6-.07.89-.3,1.6-.64,3.18-.94,4.78-.22,1.2-.4,2.42-.62,3.62-.28,1.56-.6,3.11-.88,4.66-.22,1.28-.4,2.56-.6,3.84-.17,1-.35,2.08-.54,3.11s-.36,1.77-.58,2.82h9.38Z" style="fill: #faf7c4"/>
      <path d="M93.71,50l-.77.52L92.41,50Z" style="fill: #a72018"/>
      <path d="M179.24,61.49c-.22-1.55-.45-3.09-.66-4.64-.23-1.77-.43-3.54-.65-5.31l-.25-.81a3.46,3.46,0,0,0-.81-.21c-3.13,0-6.25,0-9.38,0a3.31,3.31,0,0,0-.8.23.39.39,0,0,1-.23.07l-1.38-.48.08-.37,1.3,0a3,3,0,0,0,.79.24q5,0,9.9,0a2.87,2.87,0,0,0,.79-.24h1c.36,3.52.72,7,1.09,10.49,0,.11.13.2.2.3l-.26.7-.46.11c0-.44-.07-.82-.11-1.2h-.16Z" style="fill: #c41f1a"/>
      <path d="M177.94,50a2.87,2.87,0,0,1-.79.24q-5,0-9.9,0a3,3,0,0,1-.79-.24Z" style="fill: #a72018"/>
      <path d="M166.46,50.81a.39.39,0,0,0,.23-.07l1.1.09.45,1.22c.65,2.11,1.33,4.22,1.94,6.35.76,2.67,1.44,5.37,2.2,8a18.79,18.79,0,0,0,1,2.84,2.48,2.48,0,0,1-.39,3.15c-.83,1.07-1.5,2.26-2.23,3.41-1.09,1.71-2.16,3.44-3.25,5.15s-2.3,3.62-3.46,5.42-2.34,3.6-3.51,5.39l-2.27,3.63a2.67,2.67,0,0,0,0,.45,8.26,8.26,0,0,0,1,.06c3.12,0,6.23,0,9.35,0a4.63,4.63,0,0,1,1.12.29,12.62,12.62,0,0,1-1.49.18q-4.85,0-9.69,0a14.34,14.34,0,0,1-1.61-.2l1.85-2.94,10.24-16c1.05-1.63,2.13-3.23,3.15-4.88a1.72,1.72,0,0,0,.16-1.16c-.39-1.56-.85-3.09-1.28-4.63-.8-2.8-1.58-5.6-2.39-8.39C168,55.72,167.21,53.27,166.46,50.81Z" style="fill: #faf7c4"/>
      <path d="M158.28,95.43l2.27-3.63c-.13.38-.23.77-.39,1.15-.27.68-.88,1.28-.51,2h10.23c.84-.91,1-2.11,1.88-2.82-.24-1.43,1.15-2.15,1.5-3.39a11.37,11.37,0,0,1,2.15-3.9,9.74,9.74,0,0,0,.62-1l.72.31.35-1.11a6.68,6.68,0,0,1,1.33.25c.1,0,0,.57,0,.87l-1-.79c.23,2,.42,3.82.68,5.64S178.7,93,179,95c.16,1.19.33,1.44,1.45,1.44H190.7l.63.56a5.28,5.28,0,0,1-1.31.34c-3.69,0-7.39,0-11.08-.09-.29,0-.57,0-.93-.07-.61-4-1.22-7.94-1.84-12-.26.23-.48.35-.58.53q-1.36,2.58-2.7,5.16a1.59,1.59,0,0,0-.07.5c-.4.67-.82,1.34-1.22,2s-.79,1.36-1.2,2.07Z" style="fill: #eacf33"/>
      <path d="M191.15,93.9a3.75,3.75,0,0,1-.93-2.92Z" style="fill: #a72018"/>
      <path d="M139.15,50l-.82.28Z" style="fill: #a72018"/>
      <path d="M131.75,95.43l-.33,1c-3.79-.21-7.6.25-11.57-.28.58-1.42,1.06-2.61,1.55-3.8q3.25-7.81,6.49-15.63,3.11-7.52,6.18-15c1.51-3.66,3-7.31,4.56-11l.78.07-.21.72c-.19.5-.39,1-.58,1.49-.46,1.18-.89,2.38-1.39,3.55S136.09,59,135.6,60.2c-.81,2-1.51,4-2.33,6-1.06,2.55-2.24,5-3.29,7.59-1,2.36-1.81,4.79-2.78,7.15-1.09,2.66-2.29,5.29-3.41,7.94-.56,1.32-1,2.68-1.58,4-.32.8-.67,1.58-1.07,2.54Z" style="fill: #faf7c4"/>
      <path d="M139.41,50.83l-.78-.07c0-.08,0-.16,0-.23q6.72,0,13.44,0a3,3,0,0,1,.88.29Z" style="fill: #a72018"/>
      <path d="M95.74,95.39H86.36c.22-1,.41-1.93.58-2.82s.37-2.07.54-3.11c.2-1.28.38-2.56.6-3.84.28-1.55.6-3.1.88-4.66.22-1.2.4-2.42.62-3.62.3-1.6.64-3.18.94-4.78.06-.29,0-.59.07-.89.31-1.73.65-3.45,1-5.18.22-1.28.4-2.56.62-3.83.29-1.73.61-3.46.9-5.19.25-1.46.47-2.92.71-4.39.15-.21.39-.4.44-.63a14.36,14.36,0,0,0,.1-1.44H107a16.27,16.27,0,0,1,8,2.11,17,17,0,0,1,2.68,2.42,4.43,4.43,0,0,0,.22,1.06c.46.95.71,2,1.25,2.89.8,1.39.52,3,.56,4.56a3.86,3.86,0,0,1-.64,2.71c-.08.09-.23.21-.21.26.47,1.1-.27,1.88-.66,2.77a12.62,12.62,0,0,0-.49,2.06l0,.07c-.26.24-.55.45-.78.71s-.31.7-.56.8c-.77.3-.78.9-.78,1.54l-4.15,2.69c-.93.67-1.1,1-.8,2,.5,1.68,1.06,3.33,1.58,5s.93,3,1.4,4.56l1.92,6.21h-9.5c-.24-1-.48-1.92-.67-2.85a33,33,0,0,0-.65-3.46c-.65-2-.81-4.18-1.3-6.26a18.7,18.7,0,0,0-1.63-4.68v-.8c-.69-.89-1.47,1.13-2-.2-.06,0-.11,0-.13.07A6.49,6.49,0,0,0,98.17,81c-.16,1.3,0,2.79-.84,4-.12.18,0,.5,0,.76a11.28,11.28,0,0,1-.94,4.27c-.16.41-.44,1.13.44,1.31l0,.51c-.9.15-.27.92-.56,1.32l-.45-.11ZM109.5,66.54a8.74,8.74,0,0,0,1.07-5.41,3.11,3.11,0,0,0-.33-1.2c-1-1.84-3.43-2.11-5.06-1.56a2,2,0,0,0-.48.34l.73.46.61.5a6.16,6.16,0,0,1-3.44-.81c-.37-.23-.86-.14-.8.16.21.89-.67.55-.88.91a12.24,12.24,0,0,1,.43,2,9,9,0,0,1-.38,2.8,23.5,23.5,0,0,0-.57,4,4.15,4.15,0,0,1-.71,2.11,1.49,1.49,0,0,0-.17,1.66c.71,0,1.39,0,2.07,0s1.35.08,2.09.14c.95-.78,1.49-2.34,3.21-2.28-.11-1.09,0-1.18,1-1.54C109.24,68.36,109.52,68,109.5,66.54Z" style="fill: #fcd107"/>
      <path d="M117.77,71.92l0-.07c.19-.2.47-.37.57-.61a24.19,24.19,0,0,0,1.12-2.93c.34-1.24.53-2.52.79-3.79l0,.92.52-.63a13.69,13.69,0,0,1-3.09,7.93Z" style="fill: #a72018"/>
      <path d="M117.77,71.92l-.06.82v0l-.24.29c-.59.67-.81,1.68-1.83,2,0-.64,0-1.24.78-1.54.25-.1.34-.55.56-.8S117.51,72.16,117.77,71.92Z" style="fill: #eacf33"/>
      <path d="M117.48,73l.24-.29Z" style="fill: #a72018"/>
      <path d="M107.49,50a3.06,3.06,0,0,1-.81.22q-5.5,0-11,0a3.48,3.48,0,0,1-.92-.24Z" style="fill: #a72018"/>
      <path d="M131.75,95.43H121.14c.4-1,.75-1.74,1.07-2.54.54-1.34,1-2.7,1.58-4,1.12-2.65,2.32-5.28,3.41-7.94,1-2.36,1.81-4.79,2.78-7.15,1.05-2.55,2.23-5,3.29-7.59.82-2,1.52-4,2.33-6,.49-1.22,1.11-2.4,1.63-3.61s.93-2.37,1.39-3.55c.19-.5.39-1,.58-1.49a9.15,9.15,0,0,1,2-.49c3.38-.05,6.76,0,10.14,0,.32,0,.65.06,1.06.1a11.43,11.43,0,0,0,0,1.45c0,.18.3.32.45.48.05,2.67.08,5.34.17,8,.15,5,.33,10,.51,15,.12,3.3.26,6.6.39,9.9l0,9.4h-9.27v-6H136.5a6.62,6.62,0,0,0-1.26,0c-.48.1-1.07.18-.86.94l-1.86,1.55.07,1.19Zm11-32.69c-.58.21-1.12.52-1,1.23s-.46,1.4-.74,2.08c-.14.34-.48.74-.39,1,.36,1-.45,1.8-.6,2.72a16.69,16.69,0,0,1-1.18,3.15l-.65.27c-.12,1.46.33,3-1.13,4l.22.1c-.34,1.81-1.29,3.38-1.13,5.36,1.94,0,3.75,0,5.55,0,.19,0,.36-.34.54-.52l.37-.44c.59-.29.64-.82.64-1.39V78.68l.56.38h.42c.34-.26,1-.5,1-.76,0-1.09.49-2.13.53-3.15.14-4.12.05-8.24.07-12.37a1.56,1.56,0,0,0-1.11-1.63,11.51,11.51,0,0,1-.45,1.15c-.1.19-.32.3-.49.45l-.12-.72v-.48Z" style="fill: #fcd107"/>
      <path d="M134.38,90.3c-.21-.76.38-.84.86-.94a6.62,6.62,0,0,1,1.26,0h8.16v6h9.27l.44.07,0,1c-3.18,0-6.37,0-9.55,0-1.25,0-1.39-.15-1.4-1.38,0-1.52,0-3,0-4.74Z" style="fill: #faf7c4"/>
      <path d="M152.89,53.07c-.15-.16-.42-.3-.45-.48a11.43,11.43,0,0,1,0-1.45c-.41,0-.74-.1-1.06-.1-3.38,0-6.76,0-10.14,0a9.15,9.15,0,0,0-2,.49l.21-.72,13.49,0C152.9,51.56,152.89,52.31,152.89,53.07Z" style="fill: #eacf33"/>
      <path d="M154.37,95.44l-.44-.07,0-9.4.23,1.3c0,.89,0,1.78,0,2.66.05,1.17.15,2.33.23,3.5Z" style="fill: #eacf33"/>
      <path d="M154.47,73.7c.08,1.52.18,3,.24,4.56,0,1.23,0,2.46.07,3.68-.59.15-.31-.34-.31-.51C154.45,78.86,154.46,76.28,154.47,73.7Z" style="fill: #a72018"/>
      <path d="M154.43,93.43c-.08-1.17-.18-2.33-.23-3.5,0-.88,0-1.77,0-2.66a3.82,3.82,0,0,1,.26.9C154.46,89.92,154.44,91.68,154.43,93.43Z" style="fill: #a72018"/>
      <polygon points="77.38 96.98 77.41 96.96 77.45 97.03 77.38 96.98" style="fill: #eacf33"/>
      <path d="M76.83,96.43c-3,0-6,0-9.06,0a13.28,13.28,0,0,1-1.61-.19,11.82,11.82,0,0,1,0-1.8c.35-2.08.77-4.15,1.14-6.22.31-1.75.58-3.5.89-5.25.27-1.45.59-2.89.85-4.34s.44-2.92.69-4.38.52-2.81.77-4.22c.6-3.45,1.17-6.91,1.79-10.36.43-2.41.94-4.81,1.38-7.22a15.09,15.09,0,0,0,.14-1.65l1.06.06a.23.23,0,0,0,0,.2c-.23,1.59-.42,3.19-.7,4.76-.24,1.33-.65,2.62-.88,4-.34,2-.52,4-1,5.92s-.71,3.84-1.06,5.76-.7,3.7-1,5.55c-.4,2.45-.76,4.9-1.13,7.36,0,.21,0,.42-.08.63-.29,1.42-.61,2.83-.85,4.26s-.42,2.81-.63,4.21c0,.12-.09.24-.12.36-.12.49-.23,1-.37,1.6h1.35l8.46,0Z" style="fill: #faf7c4"/>
      <path d="M83,60.75c-.31,1.87-.6,3.75-.92,5.62q-1.6,9.22-3.22,18.46c-.11.66-.3,1.3-.46,2l0,0c0-.73,0-1.45,0-2.17,0-.38-.11-.88.08-1.12.86-1.09.36-2.43.79-3.63A21.58,21.58,0,0,0,79.94,75c0-.08,0-.2.07-.24.6-.48.42-1.16.42-1.77,0-1.42.85-2.72.55-4.18,0-.1.08-.24.16-.33.61-.68.32-1.29-.16-1.93l.79-1a13.91,13.91,0,0,0,.21-2.8,2.43,2.43,0,0,1,1-2Z" style="fill: #eacf33"/>
      <path d="M74.9,51a.23.23,0,0,1,0-.2h9.93c-.18,1.12-.35,2.18-.54,3.23-.41,2.23-.83,4.45-1.25,6.68l0,0c.18-2.2.36-4.41.55-6.61a.7.7,0,0,1,.18-.45c.69-.61.12-1-.27-1.31l.7-.8H79.58c-.34,0-.8.07-1-.11-.51-.51-1.09-.36-1.67-.37S75.58,51,74.9,51Z" style="fill: #eacf33"/>
      <path d="M76.89,95.43l-8.46,0c.7-.77,1.63-.27,2.42-.35a38.56,38.56,0,0,1,4.42.12,1.67,1.67,0,0,0,1.58-1.23c.19-1.36.35-2.72.53-4.08.1-.82.17-1.64.35-2.45.06-.26.42-.45.64-.67l0,0Z" style="fill: #eacf33"/>
      <path d="M62.58,73.52l-.23.6-.2.38c-.67.76-1.32,1.53-2,2.27a3.88,3.88,0,0,1-2.68,1.42,1.8,1.8,0,0,0-.67.3,5.34,5.34,0,0,1-2.48.73,13.33,13.33,0,0,0-1.94.39c-.59-.09-1.26.18-1.76-.42-.09-.1-.47,0-.7.07a11.37,11.37,0,0,1-1.4.33c-.7.06-1.41,0-2.19,0l0,.83,0,.11-.85.92-.66,0c-1.48.5-1.5.53-1.61,2.09a1.5,1.5,0,0,1-.06.49c-.68,1.14-.42,2.37-.42,3.58-.25,1.44-.52,2.88-.77,4.31-.2,1.17-.38,2.34-.57,3.5H31.66c.28-2,.55-3.85.81-5.72,0-.16.07-.33.11-.49.27-1.26.58-2.52.8-3.79.25-1.48.42-3,.63-4.46,0-.17.1-.33.13-.49.28-1.43.58-2.86.83-4.3s.39-2.75.62-4.12c.3-1.82.64-3.62,1-5.43,0-.21,0-.42.08-.63.3-1.46.63-2.92.89-4.39s.28-2.75.62-4.08a32.23,32.23,0,0,0,1-5.5,1.52,1.52,0,0,1,.18-.47A1.63,1.63,0,0,1,40.76,51c3.63,0,7.25,0,10.88,0,3.38.15,6.6.83,9.35,3a17,17,0,0,1,1.6,1.58c0,.21-.08.45,0,.61.34.66.89,1.22.73,2.06,0,0,.34.14.53.21a3.29,3.29,0,0,0,.07.63,8.36,8.36,0,0,1,.66,2.08c.08,2.81.27,5.64-1,8.3a3.09,3.09,0,0,0-.55,2.1.26.26,0,0,1-.06.23C62.39,72.24,62.6,72.9,62.58,73.52ZM53.85,59.78c-.2-.85-1-1-1.6-1.06a25.8,25.8,0,0,0-3.17,0c-.07,0-.14.16-.3.35h1.27C49,60.43,47.84,61,46.5,60.81c0,.62,0,1.16,0,1.69-.08,1.18-.11,2.36-.3,3.52a3.67,3.67,0,0,1-.76,2.13,2.06,2.06,0,0,0-.75,1.74,2.9,2.9,0,0,1-.38.88c.95.7-.08,1.79.41,2.46a8,8,0,0,0,1.41.08c.52,0,1-.31,1.53-.32.79,0,1.4-.19,1.65-1l.83,0,.69-1.58.5-.53c.45-.19,1.06-.25,1.32-.59.57-.75,1.91-.9,1.75-2.21a8.59,8.59,0,0,0,.82-2,34.41,34.41,0,0,0,.14-3.52C54.56,61.22,54.48,60.27,53.85,59.78Z" style="fill: #fcd107"/>
      <path d="M45.44,81.47l.85-.92a19.51,19.51,0,0,0,6.6-.2c1.19-.21,2.37-.49,3.56-.74h0l-.76.5-2.36,1a27,27,0,0,1-6.83.61A6.47,6.47,0,0,1,45.44,81.47Z" style="fill: #eacf33"/>
      <path d="M42.69,87.59c0-1.21-.26-2.44.42-3.58a1.5,1.5,0,0,0,.06-.49c.11-1.56.13-1.59,1.61-2.09l-.29.77c-.82.22-.87,1-1,1.59-.25,1.06-.38,2.15-.58,3.22A3.1,3.1,0,0,1,42.69,87.59Z" style="fill: #eacf33"/>
      <path d="M39.32,51.53a1.52,1.52,0,0,0-.18.47,32.23,32.23,0,0,1-1,5.5c-.34,1.33-.38,2.72-.62,4.08s-.59,2.93-.89,4.39c0,.21-.05.42-.08.63-.32,1.81-.66,3.61-1,5.43-.23,1.37-.39,2.75-.62,4.12s-.55,2.87-.83,4.3c0,.16-.1.32-.13.49-.21,1.49-.38,3-.63,4.46-.22,1.27-.53,2.53-.8,3.79,0,.16-.08.33-.11.49-.26,1.87-.53,3.74-.81,5.72h9.69l-.2.93c-1.09,0-2.18.08-3.27.08-2.46,0-4.91,0-7.42,0a8.49,8.49,0,0,1,0-1.25c.32-2,.64-4,1-6,.63-3.4,1.32-6.78,1.92-10.18s1.06-6.66,1.65-10c.4-2.28.92-4.54,1.34-6.82.27-1.45.44-2.92.68-4.37s.52-2.91.81-4.35c.19-.9.44-1.79.66-2.68h.59Z" style="fill: #faf7c4"/>
      <path d="M62.58,73.52c0-.62-.19-1.28.42-1.76a.26.26,0,0,0,.06-.23,3.09,3.09,0,0,1,.55-2.1c1.24-2.66,1-5.49,1-8.3a8.36,8.36,0,0,0-.66-2.08,3.29,3.29,0,0,1-.07-.63h0l.24-.24.07-.07a18.78,18.78,0,0,1,.93,3.37c.16,1.59,0,3.21,0,4.82-.49,1.7-.93,3.41-1.48,5.08A16.81,16.81,0,0,1,62.58,73.52Z" style="fill: #eacf33"/>
      <path d="M39.32,51.53l-.19-.72v-.07l11.19,0,1.33.23c-3.63,0-7.25,0-10.88,0A1.63,1.63,0,0,0,39.32,51.53Z" style="fill: #eacf33"/>
      <path d="M50.31,50.77l-11.19,0a2.14,2.14,0,0,1,.66-.22q4.88,0,9.75,0A2.62,2.62,0,0,1,50.31,50.77Z" style="fill: #a72018"/>
      <path d="M63.85,58.42c-.19-.07-.54-.17-.53-.21.16-.84-.39-1.4-.73-2.06-.08-.16,0-.4,0-.61l1.56,2.58-.07.07-.24.24Z" style="fill: #eacf33"/>
      <path d="M54,50.45H53.3v-.13l.64,0Z" style="fill: #a72018"/>
      <path d="M120.23,64.52c-.26,1.27-.45,2.55-.79,3.79a24.19,24.19,0,0,1-1.12,2.93c-.1.24-.38.41-.57.61a12.62,12.62,0,0,1,.49-2.06c.39-.89,1.13-1.67.66-2.77,0,0,.13-.17.21-.26a3.86,3.86,0,0,0,.64-2.71c0-1.54.24-3.17-.56-4.56-.54-.93-.79-1.94-1.25-2.89a4.43,4.43,0,0,1-.22-1.06,8.42,8.42,0,0,1,2,4A16.89,16.89,0,0,1,120.23,64.52Z" style="fill: #eacf33"/>
      <path d="M107,51H94.31a14.36,14.36,0,0,1-.1,1.44c0,.23-.29.42-.44.63l.28-2.25,12.16,0Z" style="fill: #eacf33"/>
      <path d="M106.21,50.78l-12.16,0-.36-.08a1.62,1.62,0,0,1,.55-.23c3.81,0,7.63,0,11.44,0C105.86,50.53,106,50.69,106.21,50.78Z" style="fill: #a72018"/>
      <path d="M190.7,96.43H180.42c-1.12,0-1.29-.25-1.45-1.44-.27-2-.65-3.9-.92-5.86s-.45-3.64-.68-5.64l1,.79c.19.75.4,1.5.55,2.27.32,1.67.61,3.35.89,5,.21,1.23.38,2.47.57,3.73a2.75,2.75,0,0,0,.53.12h8.78a2.16,2.16,0,0,0,.49-.11Z" style="fill: #faf7c4"/>
      <path d="M189.18,91.35c-.62-.19-1.13-.54-1-1.23.23-1.27-.62-2.26-.75-3.45a13.16,13.16,0,0,0-.86-3.3,4.46,4.46,0,0,1-.44-2.29c.67,2.12,1.36,4.24,2,6.37C188.52,88.74,188.83,90.05,189.18,91.35Z" style="fill: #eacf33"/>
      <path d="M101.85,78.13a18.7,18.7,0,0,1,1.63,4.68c.49,2.08.65,4.22,1.3,6.26a33,33,0,0,1,.65,3.46c.19.93.43,1.84.67,2.85h9.5l.3,1H108c-.79,0-1.59,0-2.37,0s-1-.66-1.17-1.31c-.86-4.38-1.7-8.75-2.56-13.13-.16-.87-.39-1.73-.48-2.61C101.4,78.93,101,78.26,101.85,78.13Z" style="fill: #faf7c4"/>
      <path d="M15.61,82.72c-.59,0-.53-.46-.49-.82a4.16,4.16,0,0,0-1.83-3.78,24.56,24.56,0,0,1-5.09-5,11.43,11.43,0,0,1-2-7.68A18.26,18.26,0,0,1,8.7,57.84c.11-.17.18-.35.33-.63l-.58-.08c.4-.61.48-1.38,1.39-1.71.51-.18.76-1,1.21-1.48a2.7,2.7,0,0,1,.95-.38,24.67,24.67,0,0,1-1.57,2.63,15.88,15.88,0,0,0-2.81,6.75c-.7,3.45-.33,6.86,2.15,9.79a51.39,51.39,0,0,0,4.88,4.8,4.45,4.45,0,0,1,1.53,2.09A3.23,3.23,0,0,1,15.61,82.72Z" style="fill: #faf7c4"/>
      <path d="M28.9,58.46c0-1.71.09-3.42.13-5.27a16.63,16.63,0,0,0-7.09-1.67l.18-.61-1.35.61-.62-.35c-.87.14-1.57.24-2.26.37a6.1,6.1,0,0,0-.84.22,7.75,7.75,0,0,1-3.55.76l.88-.31.45-.44h0a33.72,33.72,0,0,1,3.4-.72c1.5-.18,3-.2,4.51-.28a1.34,1.34,0,0,0,.44.2A14.64,14.64,0,0,1,29,52.68c.37.17.62.59.92.9-.27,1.44-.54,2.87-.82,4.31A3.9,3.9,0,0,1,28.9,58.46Z" style="fill: #eacf33"/>
      <path d="M14.83,51.77l-.45.44Z" style="fill: #a72018"/>
      <path d="M29.93,53.58c-.3-.31-.55-.73-.92-.9A14.64,14.64,0,0,0,23.15,51a1.34,1.34,0,0,1-.44-.2l.45-.13-4-.41a16.07,16.07,0,0,1,6.73.1c.33.07.64.18,1,.28.14.68.66.31,1,.39h0c.36.24.72.49,1.1.7s.89.46,1.31.68A.82.82,0,0,1,29.93,53.58Z" style="fill: #c41f1a"/>
      <path d="M27.88,51c-.37-.08-.89.29-1-.39Z" style="fill: #a72018"/>
      <path d="M17.72,67.34c-1.12-.5-1.15-.66-1.13-1.82a22.27,22.27,0,0,0-.28-2.67l1.6-.13-.11-.16a6.17,6.17,0,0,1,1.54-1.21,3.45,3.45,0,0,0,1.51-1,1.35,1.35,0,0,1,1.42-.59l-.43.64a6.39,6.39,0,0,1,5.59,2.14,4.52,4.52,0,0,0,.67.56c-.1.81-.19,1.62-.29,2.43L26.43,64l-.33-.33c-.37-1.28-1.58-1.52-2.56-2-2.27-1-4-.1-5.37,1.77-.71-.19-.66.45-.87.8A3.23,3.23,0,0,0,17.72,67.34Z" style="fill: #eacf33"/>
      <path d="M17.72,67.34a3.23,3.23,0,0,1-.42-3,6.38,6.38,0,0,0,.35.69c.17.28.37.55.56.83l0,0c-.09.57,0,1,.7,1.08l.56.44c0,.46.22.6.63.53a.16.16,0,0,1,.16.13l.3.34h0l.25.22h0a4.65,4.65,0,0,0,2.72,2.39h0l.27.27h0c0,1,.8,1.38,1.51,1.82.35.66.69,1.32,1,2,.11.7.26,1.39.32,2.08.11,1.21.16,2.43.23,3.74l-.57-.12V79.12l-.51-2.07h0l-1-2.55h0c-.52-.9-.9-1.91-2-2.33h0L21.74,70.9l-2.35-2.05C18.83,68.36,18.28,67.85,17.72,67.34Z" style="fill: #c41f1a"/>
      <path d="M23.56,70.9a4.65,4.65,0,0,1-2.72-2.39l.8.47Z" style="fill: #a72018"/>
      <path d="M18.21,65.81c-.19-.28-.39-.55-.56-.83a6.38,6.38,0,0,1-.35-.69c.21-.35.16-1,.87-.8A2.92,2.92,0,0,0,18.21,65.81Z" style="fill: #a72018"/>
      <path d="M18.89,66.86c-.68-.07-.79-.51-.7-1.08Z" style="fill: #a72018"/>
      <path d="M20.08,67.83c-.41.07-.66-.07-.63-.53Z" style="fill: #a72018"/>
      <path d="M20.8,68.51l-.25-.22Z" style="fill: #a72018"/>
      <path d="M20.54,68.3l-.3-.34Z" style="fill: #a72018"/>
      <path d="M95.74,95.39V93.08l.45.11c.29-.4-.34-1.17.56-1.32l-.6,3.55Z" style="fill: #eacf33"/>
      <path d="M46.27,80.44l0-.83c.78,0,1.49,0,2.19,0a11.37,11.37,0,0,0,1.4-.33c.23-.06.61-.17.7-.07.5.6,1.17.33,1.76.42a11.83,11.83,0,0,1-1.56.27c-1.08.08-2.17.07-3.26.16A6.3,6.3,0,0,0,46.27,80.44Z" style="fill: #eacf33"/>
      <path d="M57,79.35a1.64,1.64,0,0,1,0,.23h0l-.49,0h0l.51-.25Z" style="fill: #eacf33"/>
      <path d="M57,79.36l.12-.14a.17.17,0,0,1,0,.08.31.31,0,0,1-.12,0Z" style="fill: #eacf33"/>
      <path d="M28.1,63.06a4.52,4.52,0,0,1-.67-.56,6.39,6.39,0,0,0-5.59-2.14l.43-.64a2.1,2.1,0,0,0,.51,0c1.63-.8,3-.05,4.4.71.43.25.75.52,1.25.31Z" style="fill: #faf7c4"/>
      <path d="M25.31,73c-.71-.44-1.5-.81-1.51-1.82Z" style="fill: #a72018"/>
      <path d="M23.81,71.16l-.27-.27Z" style="fill: #a72018"/>
      <path d="M186.43,50.82l-.29.73c-.36.87-.71,1.76-1.11,2.62-.82,1.79-1.65,3.59-2.53,5.35a7.06,7.06,0,0,1-1,1.23l-.51-.12L183.75,55c.5-1,1-2,1.51-3.06a8.22,8.22,0,0,0,.34-1.2Z" style="fill: #faf7c4"/>
      <path d="M179.24,61.49V60.41h.16c0,.38.07.76.11,1.2l.46-.11,0,.49-.49.82Z" style="fill: #a72018"/>
      <path d="M25.83,77.05l.51,2.07v1.52l-.49,2.59Q25.82,80.14,25.83,77.05Z" style="fill: #eacf33"/>
      <path d="M56.44,79.61l.49,0c-.11.89-.81.4-1.25.52Z" style="fill: #faf7c4"/>
      <path d="M22.81,72.16c1.09.42,1.47,1.43,2,2.33-.07,0-.2.11-.22.09C24,73.81,22.94,73.3,22.81,72.16Z" style="fill: #eacf33"/>
      <path d="M24.8,74.49l1,2.55A2.55,2.55,0,0,1,24.8,74.49Z" style="fill: #eacf33"/>
      <path d="M21.74,70.9l1.05,1.27-1-.34Z" style="fill: #eacf33"/>
      <path d="M168.24,52.05l-.45-1.22c.25,0,.5,0,.76,0l9.13-.06.25.81a3.68,3.68,0,0,0-2.11-.53c-2.45.05-4.9,0-7.44,0C168.33,51.41,168.29,51.73,168.24,52.05Z" style="fill: #eacf33"/>
      <path d="M177.68,50.73l-9.13.06c-.26,0-.51,0-.76,0l-1.1-.09a3.31,3.31,0,0,1,.8-.23c3.13,0,6.25,0,9.38,0A3.46,3.46,0,0,1,177.68,50.73Z" style="fill: #a72018"/>
      <path d="M109.5,66.54c0,1.41-.26,1.82-1.56,2.25-1.09.36-1.16.45-1,1.54-1.72-.06-2.26,1.5-3.21,2.28-.74-.06-1.42-.12-2.09-.14s-1.36,0-2.07,0a1.49,1.49,0,0,1,.17-1.66,4.15,4.15,0,0,0,.71-2.11,23.5,23.5,0,0,1,.57-4,9,9,0,0,0,.38-2.8,12.24,12.24,0,0,0-.43-2c.21-.36,1.09,0,.88-.91-.06-.3.43-.39.8-.16a6.16,6.16,0,0,0,3.44.81l-.61-.5a9.73,9.73,0,0,1,1.08,0,3.24,3.24,0,0,1,3,3.28,11,11,0,0,1-.43,2.72A24,24,0,0,1,108,67.87l-.07.1.06-.11Zm-5.08,4.12h0l.53-.39a2.22,2.22,0,0,1,.32-.36,7.24,7.24,0,0,0,3-6.31c-.05-2.66-2.55-4.11-5.11-3.36-.09,0-.21,0-.26,0s-.32.32-.48.48l-.37-.22-.06.15.42.08q-1.07,5.67-2.11,11.3c.69,0,1.19,0,1.69-.09a2.59,2.59,0,0,0,2.15-1h0Z" style="fill: #eacf33"/>
      <path d="M109.5,66.54,108,67.86h0a24,24,0,0,0,1.08-2.69,11,11,0,0,0,.43-2.72,3.24,3.24,0,0,0-3-3.28,9.73,9.73,0,0,0-1.08,0l-.73-.46a2,2,0,0,1,.48-.34c1.63-.55,4.06-.28,5.06,1.56a3.11,3.11,0,0,1,.33,1.2A8.74,8.74,0,0,1,109.5,66.54Z" style="fill: #faf7c4"/>
      <path d="M142.6,81.24c0-.89.05-1.78.11-2.67q.51-7.91,1-15.81c.17-.15.39-.26.49-.45a11.51,11.51,0,0,0,.45-1.15,1.56,1.56,0,0,1,1.11,1.63c0,4.13.07,8.25-.07,12.37,0,1-.49,2.06-.53,3.15,0,.26-.65.5-1,.76a7.3,7.3,0,0,0,.8-3.67,10.87,10.87,0,0,1,.05-1.14c.16-3.43.36-6.85.47-10.28A8.24,8.24,0,0,0,145,61.9l-.33.05c-.08,1.78-.16,3.55-.26,5.33q-.31,5.89-.67,11.78l-.56-.38v1.61c0,.57-.05,1.1-.64,1.39Z" style="fill: #eacf33"/>
      <path d="M142.6,81.24l0,.44-.37.44h-5.79l6.33-19.38.87-1.18V62c-2.09,6.33-4.18,12.66-6.33,19.2Z" style="fill: #a72018"/>
      <path d="M143.78,79.06q.34-5.88.67-11.78c.1-1.78.18-3.55.26-5.33l.33-.05a8.24,8.24,0,0,1,.48,2.08c-.11,3.43-.31,6.85-.47,10.28A10.87,10.87,0,0,0,145,75.4a7.3,7.3,0,0,1-.8,3.67Z" style="fill: #faf7c4"/>
      <path d="M142.75,62.74l-6.33,19.38h5.79c-.18.18-.35.52-.54.52-1.8,0-3.61,0-5.55,0-.16-2,.79-3.55,1.13-5.36l-.22-.1c1.46-1,1-2.56,1.13-4l.65-.27A16.69,16.69,0,0,0,140,69.77c.15-.92,1-1.67.6-2.72-.09-.26.25-.66.39-1,.28-.68.84-1.24.74-2.08S142.17,63,142.75,62.74Z" style="fill: #eacf33"/>
      <path d="M78.37,86.74c-.22.22-.58.41-.64.67-.18.81-.25,1.63-.35,2.45-.18,1.36-.34,2.72-.53,4.08a1.67,1.67,0,0,1-1.58,1.23,38.56,38.56,0,0,0-4.42-.12c-.79.08-1.72-.42-2.42.35H67.08c.14-.61.25-1.11.37-1.6,0-.12.1-.24.12-.36.21-1.4.38-2.81.63-4.21s.56-2.84.85-4.26c0-.21,0-.42.08-.63.37-2.46.73-4.91,1.13-7.36.3-1.85.67-3.7,1-5.55s.6-3.87,1.06-5.76.66-4,1-5.92c.23-1.33.64-2.62.88-4,.28-1.57.47-3.17.7-4.76.68,0,1.36,0,2,0s1.16-.14,1.67.37c.18.18.64.11,1,.11h4.55l-.7.8c.39.36,1,.7.27,1.31a.7.7,0,0,0-.18.45c-.19,2.2-.37,4.41-.55,6.61a2.43,2.43,0,0,0-1,2,13.91,13.91,0,0,1-.21,2.8l-.79,1c.48.64.77,1.25.16,1.93-.08.09-.18.23-.16.33.3,1.46-.55,2.76-.55,4.18,0,.61.18,1.29-.42,1.77-.05,0-.06.16-.07.24a21.58,21.58,0,0,1-.67,4.86c-.43,1.2.07,2.54-.79,3.63-.19.24-.07.74-.08,1.12C78.38,85.29,78.38,86,78.37,86.74Z" style="fill: #fcd107"/>
      <path d="M51.33,69.9a9.58,9.58,0,0,0,1.56-4.61c0-3-1.63-4.46-4.63-4-1,.43-1,1.44-1.23,2.31-.38,1.77-.7,3.54-1,5.31l-.73.18v.21l.68.15-.48,3.21a7.24,7.24,0,0,0,3.77-.74l.07.08c-.25.83-.86,1-1.65,1-.51,0-1,.27-1.53.32a8,8,0,0,1-1.41-.08c-.49-.67.54-1.76-.41-2.46a2.9,2.9,0,0,0,.38-.88,2.06,2.06,0,0,1,.75-1.74A3.67,3.67,0,0,0,46.2,66c.19-1.16.22-2.34.3-3.52,0-.53,0-1.07,0-1.69,1.34.21,2.46-.38,3.55-1.73H48.78c.16-.19.23-.34.3-.35a25.8,25.8,0,0,1,3.17,0c.64.07,1.4.21,1.6,1.06a4.92,4.92,0,0,0-3.49-.47l0,.84A3.07,3.07,0,0,1,53.64,62a4.8,4.8,0,0,1,.41,3.21c-.2.85-.39,1.7-.63,2.78l1-.91c.16,1.31-1.18,1.46-1.75,2.21C52.39,69.65,51.78,69.71,51.33,69.9Z" style="fill: #eacf33"/>
      <path d="M54.4,67.1l-1,.91c.24-1.08.43-1.93.63-2.78A4.8,4.8,0,0,0,53.64,62a3.07,3.07,0,0,0-3.23-1.87l0-.84a4.92,4.92,0,0,1,3.49.47c.63.49.71,1.44,1.51,1.79a34.41,34.41,0,0,1-.14,3.52A8.59,8.59,0,0,1,54.4,67.1Z" style="fill: #faf7c4"/>
      <path d="M49.58,71.13l1.25-.7L50.14,72l-.83,0-.07-.08C49.26,71.59,50,71.63,49.58,71.13Z" style="fill: #eacf33"/>
      <path d="M63.84,58.43l.24-.24Z" style="fill: #fcd107"/>
      <path d="M26.34,79.85v0Z" style="fill: #a72018"/>
      <path d="M103.18,60.25l-1.92,10.93,2.9-.27A2.59,2.59,0,0,1,102,72c-.5.06-1,0-1.69.09q1.05-5.62,2.11-11.3h0c.16-.16.31-.33.48-.48S103.09,60.25,103.18,60.25Z" style="fill: #a72018"/>
      <path d="M102.43,60.74l-.42-.08.06-.15.37.22Z" style="fill: #fcd107"/>
      <path d="M104.41,70.67l.53-.39Z" style="fill: #a72018"/>
      <path d="M104.15,70.91l.27-.25Z" style="fill: #a72018"/>
      <path d="M108,67.86l-.06.11.07-.1Z" style="fill: #faf7c4"/>
      <path d="M49.58,71.13c.45.5-.32.46-.34.76a7.24,7.24,0,0,1-3.77.74L46,69.42l0-.54c.34-1.77.66-3.54,1-5.31.18-.87.18-1.88,1.23-2.31Q47.63,64.62,47,68c-.22,1.2-.42,2.4-.64,3.64A4.42,4.42,0,0,0,49.58,71.13Z" style="fill: #a72018"/>
      <path d="M46,68.88l0,.54-.68-.15v-.21Z" style="fill: #fcd107"/>
    </g>
  </g>
</svg>
