<svg id="a8e35cf4-cf96-4629-b69d-d578f046a694" data-name="Layer 1" xmlns="http://www.w3.org/2000/svg" width="170" height="100" viewBox="0 0 170 100">
  <g>
    <g>
      <path d="M19.55,14.28a9,9,0,0,0-5.67-2.18c-1.57,0-3.67.92-3.67,2.75S12.53,17.52,14,18l2.19.65c4.58,1.35,8.11,3.67,8.11,9,0,3.27-.78,6.63-3.4,8.86a14.45,14.45,0,0,1-9.34,3.1A20.35,20.35,0,0,1,0,35.85L3.67,29c2.14,1.88,4.67,3.4,7.59,3.4,2,0,4.15-1,4.15-3.31s-3.36-3.23-5.2-3.76c-5.37-1.52-8.9-2.92-8.9-9.29,0-6.68,4.76-11,11.35-11A22.5,22.5,0,0,1,23,7.65Z" style="fill: #e42313"/>
      <path d="M35.05,2.5V19.17h.09a8.29,8.29,0,0,1,7.16-3.58c5.68,0,8.42,3.76,8.42,9.43V38.73H42.78V27.25c0-2.62-.39-5.33-3.58-5.33s-4.15,2.71-4.15,5.33V38.73H27.11V2.5Z" style="fill: #e42313"/>
      <path d="M77.88,28.86H61.16c0,3.23,1.7,5,5,5a4,4,0,0,0,3.8-2.05h7.64c-1.27,5.28-6.28,7.68-11.39,7.68-7.42,0-13-4.19-13-11.92,0-7.46,5.1-12,12.39-12,7.77,0,12.27,4.8,12.27,12.44ZM70.5,24.28a4.76,4.76,0,0,0-9.21,0Z" style="fill: #e42313"/>
      <rect x="80.89" y="2.5" width="7.94" height="36.23" style="fill: #e42313"/>
      <rect x="92.98" y="2.5" width="7.94" height="36.23" style="fill: #e42313"/>
    </g>
    <g>
      <path d="M60.92,82.84H38.25c-.34,4.18,2.49,7,6.74,6.77a5.45,5.45,0,0,0,4.75-2.34c.18-.28.37-.54.77-.51.2,0,.41,0,.61,0h9.37a10,10,0,0,1-2.3,5A14.68,14.68,0,0,1,49,97a20.8,20.8,0,0,1-13.45-1.62c-5.28-2.61-7.89-7.06-8.29-12.87a18.49,18.49,0,0,1,1.19-8.58,14.06,14.06,0,0,1,9.32-8.47,20.2,20.2,0,0,1,14.38.59A14.1,14.1,0,0,1,60.4,76.31,27.37,27.37,0,0,1,60.92,82.84ZM50.69,76.33c-.57-3.27-3-4.58-6-4.58-4.2,0-5.9,2.27-6.2,4.58Z" style="fill: #019bc9"/>
      <path d="M98.92,65.54h10.69c.32.44.17.9.17,1.34,0,5.43,0,10.86,0,16.29,0,1.91.41,3.82,2.38,4.81,2.42,1.23,6.56,1,7.74-1.92a9.88,9.88,0,0,0,.69-3.73V65.59h10.89v5.06c0,4.41.06,8.81,0,13.22a15.48,15.48,0,0,1-1.19,6.53,10.84,10.84,0,0,1-7.3,6,27,27,0,0,1-16.82-.43A10.39,10.39,0,0,1,99,86C98.73,79.22,98.92,72.43,98.92,65.54Z" style="fill: #019bc9"/>
      <path d="M21.42,96.35H9.68V61.07H0v-10H31V61H21.42Z" style="fill: #019bc9"/>
      <path d="M134.26,93.87l3.93-7.57a19.25,19.25,0,0,0,8.38,3,4.34,4.34,0,0,0,2.39-.47A2.06,2.06,0,0,0,150.25,87a2,2,0,0,0-1.2-1.86c-1.42-.79-3.05-.88-4.58-1.33a24.1,24.1,0,0,1-3.77-1.24,7,7,0,0,1-4-6.41,9.92,9.92,0,0,1,2.94-8,11.83,11.83,0,0,1,5.45-3,23.89,23.89,0,0,1,14.61,1c.18.07.41.1.51.47-1.13,2.19-2.31,4.47-3.52,6.79a14,14,0,0,0-6-1.48,3.73,3.73,0,0,0-2.51.77,1.6,1.6,0,0,0,.14,2.77,7.55,7.55,0,0,0,3.23,1.08A18.62,18.62,0,0,1,156,77.9a8.45,8.45,0,0,1,5.06,9.56,9.65,9.65,0,0,1-2.76,5.77,15.09,15.09,0,0,1-8.72,4,23.74,23.74,0,0,1-13.06-2.11C135.81,94.77,135.12,94.34,134.26,93.87Z" style="fill: #019bc9"/>
      <path d="M76.12,96.38H65.39V46.5H76.12Z" style="fill: #019bc9"/>
      <path d="M93,96.37H82.22V46.51H93Z" style="fill: #019bc9"/>
    </g>
  </g>
</svg>
